<?xml version="1.0" encoding="UTF-8"?>
<svg width="1200pt" height="1200pt" version="1.1" viewBox="0 0 1200 1200" xmlns="http://www.w3.org/2000/svg">
 <g>
  <path d="m964.04 609.22c0-101.84-42.855-199.53-117.96-268.19-44.699-68.66-121.65-114.28-209.66-114.28-39.168 0-76.492 9.2148-109.21 25.344-168.65 34.098-291.23 184.32-291.23 357.12 0 200.45 163.12 364.03 364.03 364.03 201.37 0 364.04-164.04 364.04-364.03zm-8.7539 0c0 98.613-40.551 188.47-105.98 252.98h-30.875v-213.35c44.238-46.539 68.199-107.37 68.199-171.88 0-38.246-8.7539-74.648-23.961-106.91 58.98 64.973 92.621 150.68 92.621 239.16zm-77.418-132.25c0 62.668-23.961 121.65-66.816 166.81-0.92188 0.92188-1.3828 1.8438-1.3828 3.2266v214.73h-103.68l5.9922-14.746c2.7656-0.92188 5.9922-2.3047 8.7539-3.6875l20.734 9.2148c1.8438 0.92188 3.6875 0.46094 5.0703-0.92188l20.273-20.273c1.3828-1.3828 1.8438-3.2266 0.92188-5.0703l-8.7539-20.734c1.3828-2.7656 2.3047-5.5312 3.6875-8.7539l21.195-8.293c1.8438-0.46094 2.7656-2.3047 2.7656-4.1484v-28.57c0-1.8438-0.92188-3.6875-2.7656-4.1484l-21.195-8.293c-0.92187-2.7656-2.3047-5.5312-3.6875-8.7539l8.7539-20.734c0.92188-1.8438 0.46094-3.6875-0.92188-5.0703l-20.273-20.273c-1.3828-1.3828-3.2266-1.8438-5.0703-0.92188l-20.734 9.2148c-2.7656-1.3828-5.5312-2.7656-8.7539-3.6875l-8.293-21.195c-0.46094-1.8438-2.3047-2.7656-4.1484-2.7656h-28.57c-1.8438 0-3.6875 0.92188-4.1484 2.7656l-8.293 21.195c-2.7656 0.92187-5.9922 2.3047-8.7539 3.6875l-20.734-9.2148c-1.8438-0.92188-3.6875-0.46094-5.0703 0.92188l-20.273 20.273c-1.3828 1.3828-1.8438 3.2266-0.92188 5.0703l8.7539 20.734c-1.3828 2.7656-2.7656 5.5312-3.6875 8.7539l-21.195 8.293c-1.8438 0.46094-2.7656 2.3047-2.7656 4.1484v28.57c0 1.8438 0.92188 3.6875 2.7656 4.1484l21.195 8.293c0.92187 2.7656 2.3047 5.9922 3.6875 8.7539l-8.7539 20.734c-0.92188 1.8438-0.46094 3.6875 0.92188 5.0703l20.273 20.273c1.3828 1.3828 3.2266 1.8438 5.0703 0.92188l20.734-9.2148c2.7656 1.3828 5.5312 2.7656 8.7539 3.6875l5.9922 14.746h-107.37v-80.641c0-2.3047-1.8438-4.6094-4.6094-4.6094h-103.22c-29.953 0-53.914-24.422-53.914-53.914v-95.848c0-2.3047-1.8438-4.6094-4.6094-4.6094l-65.895 0.003906 70.043-143.77c0.46094-0.46094 0.46094-1.3828 0.46094-1.8438 0.46094-132.71 108.75-240.54 241-240.54 133.17 0 241.46 107.83 241.46 241zm-212.43 364.49c-0.46094-1.3828-1.3828-2.3047-2.7656-2.7656-3.6875-1.3828-7.3711-2.7656-11.059-4.6094-1.3828-0.46094-2.7656-0.46094-3.6875 0l-19.816 8.7539-16.129-16.129 8.7539-19.816c0.46094-1.3828 0.46094-2.7656 0-3.6875-1.8438-3.6875-3.2266-7.3711-4.6094-11.059-0.46094-1.3828-1.3828-2.3047-2.7656-2.7656l-20.273-7.832v-22.578l20.273-7.832c1.3828-0.46094 2.3047-1.3828 2.7656-2.7656 1.3828-3.6875 2.7656-7.3711 4.6094-11.059 0.46094-1.3828 0.46094-2.7656 0-3.6875l-8.7539-19.816 16.129-16.129 19.816 8.7539c1.3828 0.46094 2.7656 0.46094 3.6875 0 3.6875-1.8438 7.3711-3.2266 11.059-4.6094 1.3828-0.46094 2.3047-1.3828 2.7656-2.7656l7.832-20.273h22.578l7.832 20.273c0.46094 1.3828 1.3828 2.3047 2.7656 2.7656 3.6875 1.3828 7.3711 2.7656 11.059 4.6094 1.3828 0.46094 2.7656 0.46094 3.6875 0l19.816-8.7539 16.129 16.129-8.7539 19.816c-0.46094 1.3828-0.46094 2.7656 0 3.6875 1.8438 3.6875 3.2266 7.3711 4.6094 11.059 0.46094 1.3828 1.3828 2.3047 2.7656 2.7656l20.273 7.832v22.578l-20.273 7.832c-1.3828 0.46094-2.3047 1.3828-2.7656 2.7656-1.3828 3.6875-2.7656 7.832-4.6094 11.059-0.46094 1.3828-0.46094 2.7656 0 3.6875l8.7539 19.816-16.129 16.129-19.816-8.7539c-1.3828-0.46094-2.7656-0.46094-3.6875 0-3.6875 1.8438-7.3711 3.2266-11.059 4.6094-1.3828 0.46094-2.3047 1.3828-2.7656 2.7656l-7.832 20.273-22.113 0.003906zm-420.71-232.24c0-157.59 105.06-296.3 253.9-340.53-67.277 44.234-111.51 120.27-111.97 206.9l-72.809 148.84c-0.46094 1.3828-0.46094 3.2266 0 4.1484 0.92188 1.3828 2.3047 2.3047 3.6875 2.3047h68.66v91.699c0 34.559 28.109 63.129 63.129 63.129h98.613v76.031h-197.23c-65.434-64.512-105.98-153.91-105.98-252.52zm115.2 261.73h479.7c-63.133 58.062-147.46 93.082-239.62 93.082s-176.48-35.02-240.07-93.082z"/>
  <path d="m589.4 898.14c0-2.3047-1.8438-4.6094-4.6094-4.6094h-108.75c-2.3047 0-4.6094 1.8438-4.6094 4.6094s1.8438 4.6094 4.6094 4.6094h108.75c2.7617 0 4.6055-2.3047 4.6055-4.6094z"/>
  <path d="m624.89 898.14c0-2.3047-1.8438-4.6094-4.6094-4.6094h-17.973c-2.3047 0-4.6094 1.8438-4.6094 4.6094s1.8438 4.6094 4.6094 4.6094h17.973c2.7656 0 4.6094-2.3047 4.6094-4.6094z"/>
  <path d="m635.95 902.75h11.98c2.3047 0 4.6094-1.8438 4.6094-4.6094s-1.8438-4.6094-4.6094-4.6094h-11.98c-2.3047 0-4.6094 1.8438-4.6094 4.6094s1.8438 4.6094 4.6094 4.6094z"/>
  <path d="m723.96 915.65h-109.21c-2.3047 0-4.6094 1.8438-4.6094 4.6094 0 2.3047 1.8438 4.6094 4.6094 4.6094h108.75c2.3047 0 4.6094-1.8438 4.6094-4.6094 0.46094-2.7695-1.8438-4.6094-4.1484-4.6094z"/>
  <path d="m597.24 915.65h-17.973c-2.3047 0-4.6094 1.8438-4.6094 4.6094 0 2.3047 1.8438 4.6094 4.6094 4.6094h17.973c2.3047 0 4.6094-1.8438 4.6094-4.6094-0.003906-2.7695-1.8477-4.6094-4.6094-4.6094z"/>
  <path d="m564.06 915.65h-11.98c-2.3047 0-4.6094 1.8438-4.6094 4.6094 0 2.3047 1.8438 4.6094 4.6094 4.6094h11.98c2.3047 0 4.6094-1.8438 4.6094-4.6094 0-2.7695-1.8438-4.6094-4.6094-4.6094z"/>
  <path d="m725.34 769.58c0-22.117-17.973-40.09-40.09-40.09s-40.09 17.973-40.09 40.09 17.973 40.09 40.09 40.09c21.656 0 40.09-17.973 40.09-40.09zm-40.551 31.332c-17.051 0-31.336-13.824-31.336-31.336s13.824-31.336 31.336-31.336c17.051 0 31.336 13.824 31.336 31.336s-13.824 31.336-31.336 31.336z"/>
  <path d="m494.02 646.54h271.88c13.824 0 24.883-11.059 24.883-24.883v-271.88c0-13.824-11.059-24.883-24.883-24.883h-271.88c-13.824 0-24.883 11.059-24.883 24.883v271.88c0 13.824 11.52 24.883 24.883 24.883zm-15.664-24.422v-131.79h58.062c5.5312 0 10.137-4.6094 10.137-10.137 0-3.6875-1.8438-6.9102-5.0703-8.7539-7.832-4.1484-11.98-12.902-10.598-21.656 1.3828-9.6758 9.2148-17.512 18.895-18.434 13.363-1.3828 23.961 8.7539 23.961 21.656 0 7.832-4.1484 15.207-11.059 18.895-3.6875 2.3047-5.5312 5.9922-5.0703 10.598 0.92188 5.0703 5.0703 8.7539 10.598 8.7539h57.602v58.062c0 0.92188-1.8438 1.8438-2.3047 0.46094-5.5312-9.6758-15.668-15.668-26.727-15.668-17.973 0-32.258 15.668-30.414 34.098 1.3828 13.824 12.441 24.883 26.266 26.727 12.441 1.8438 24.883-4.1484 30.875-15.207 0.46094-0.92187 2.3047-0.46094 2.3047 0.92188v58.062h-131.79c-8.7539-0.92188-15.664-7.8359-15.664-16.59zm303.67 0c0 8.7539-6.9102 15.668-15.668 15.668h-131.79v-58.062c0-5.5312-4.6094-10.137-10.137-10.137-3.6875 0-6.9102 1.8438-8.7539 5.0703-4.6094 7.832-12.902 11.98-21.656 11.059-9.6758-1.3828-17.512-9.2148-18.434-18.895-1.3828-13.363 9.2148-23.961 21.656-23.961 7.832 0 15.207 4.1484 18.895 11.059 1.8438 3.2266 5.0703 5.0703 8.7539 5.0703 5.5312 0 10.137-4.6094 10.137-10.137v-58.523h57.602c0.92188 0 1.3828 0.46094 1.3828 0.92188 0.46094 0.92188-0.46094 1.8438-0.46094 1.8438-9.6758 5.5312-15.668 15.668-15.668 26.727 0 8.7539 3.6875 17.051 10.137 22.578 18.434 16.59 47.461 5.5312 50.688-18.434 1.8438-12.441-4.1484-24.422-15.207-30.875-0.46094 0-0.46094-0.46094-0.46094-0.92188 0-0.92188 0.46094-1.3828 1.3828-1.3828h58.062v131.33zm0-272.34v131.79h-57.602c-5.5312 0-10.137 4.6094-10.137 10.137 0 3.6875 1.8438 7.3711 5.0703 8.7539 7.832 4.1484 11.98 12.902 10.598 21.656-1.3828 9.6758-9.2148 17.512-18.895 18.434-13.363 1.3828-23.961-9.2148-23.961-21.656 0-7.832 4.1484-14.746 11.059-18.895 3.2266-1.8438 5.0703-5.5312 5.0703-8.7539 0-1.3828 0-2.3047-0.46094-3.6875-1.3828-4.1484-5.5312-6.9102-10.137-6.9102h-58.062v-56.676c0-0.92187 0.46094-1.8438 0.92188-1.8438s0.92188 0 1.3828 0.46094c5.9922 10.598 17.973 16.59 30.414 15.207 13.824-1.8438 24.883-12.902 26.266-26.727 0.92188-8.7539-1.8438-17.512-7.3711-23.961-13.824-15.668-39.168-12.902-49.305 5.0703 0 0-0.46094 0.92188-1.8438 0.46094-0.46094 0-0.92188-0.92188-0.92188-1.3828l-0.003907-57.141h131.79c9.2148 0 16.129 6.9102 16.129 15.664zm-303.67 0c0-8.7539 6.9102-15.668 15.668-15.668h131.79v57.602c0 4.6094 2.7656 8.7539 6.9102 10.137 4.6094 1.8438 10.137 0 12.441-4.6094 3.6875-6.9102 11.059-11.059 18.895-11.059 5.9922 0 11.98 2.7656 16.129 7.3711 4.1484 4.6094 5.9922 10.598 5.0703 17.051-0.92188 9.6758-9.2148 17.512-18.434 18.895-8.7539 0.92188-17.512-3.2266-21.656-10.598-2.3047-3.6875-6.4531-5.9922-10.598-5.0703-5.0703 0.92187-8.7539 5.5312-8.7539 10.598v57.602h-57.605c-0.92188 0-1.3828-0.46094-1.8438-0.92188 0-0.46094 0-0.92188 0.46094-1.3828 9.6758-5.5312 15.668-15.668 15.668-26.727 0-18.434-16.129-32.258-34.098-30.414-13.824 1.3828-24.883 12.441-26.727 26.266-1.8438 12.441 4.1484 24.883 15.207 30.875 0.46094 0 0.46094 0.46094 0.46094 0.92188 0 0.92188-0.46094 1.3828-1.3828 1.3828h-57.602z"/>
 </g>
</svg>
