<?xml version="1.0" encoding="UTF-8"?>
<svg width="1200pt" height="1200pt" version="1.1" viewBox="0 0 1200 1200" xmlns="http://www.w3.org/2000/svg">
 <g>
  <path d="m964.04 609.22c0-129.95-70.043-250.68-182.48-315.65-44.699-41.473-104.14-66.816-169.57-66.816-48.848 0-94.926 14.285-133.63 38.707h-0.46094c-144.69 51.609-241.92 189.39-241.92 343.76 0 199.99 163.12 364.03 364.03 364.03 201.37 0 364.04-164.04 364.04-364.03zm-8.7539 0c0 98.613-40.551 188.47-105.98 252.98h-55.297v-213.35c44.238-46.539 68.199-107.37 68.199-171.88 0-59.445-20.734-113.82-55.297-157.13 92.16 66.816 148.38 174.18 148.38 289.38zm-101.84-132.25c0 62.668-23.961 121.65-66.816 166.81-0.92188 0.92188-1.3828 1.8438-1.3828 3.2266v214.73h-252.98v-80.641c0-2.3047-1.8438-4.6094-4.6094-4.6094h-102.76c-29.953 0-53.914-24.422-53.914-53.914v-95.848c0-2.3047-1.8438-4.6094-4.6094-4.6094l-65.895 0.003906 70.043-143.77c0.46094-0.46094 0.46094-1.3828 0.46094-1.8438 0-132.71 108.29-240.54 241-240.54 133.17 0 241.46 107.83 241.46 241zm-608.72 132.25c0-138.7 81.102-263.58 204.6-321.64-52.992 45.16-87.094 112.9-87.555 188.01l-72.805 148.84c-0.46094 1.3828-0.46094 3.2266 0 4.1484 0.92187 1.3828 2.3047 2.3047 3.6875 2.3047h68.66v91.699c0 34.559 28.109 63.129 63.129 63.129h98.613v76.031h-172.34c-65.434-64.512-105.98-153.91-105.98-252.52zm115.66 261.73h479.23c-63.129 58.062-147.46 93.543-239.62 93.543-92.16-0.46094-176.48-35.48-239.61-93.543z"/>
  <path d="m589.4 898.14c0-2.3047-1.8438-4.6094-4.6094-4.6094h-108.75c-2.3047 0-4.6094 1.8438-4.6094 4.6094 0 2.3047 1.8438 4.6094 4.6094 4.6094h108.75c2.7617 0 4.6055-2.3047 4.6055-4.6094z"/>
  <path d="m624.89 898.14c0-2.3047-1.8438-4.6094-4.6094-4.6094h-17.973c-2.3047 0-4.6094 1.8438-4.6094 4.6094 0 2.3047 1.8438 4.6094 4.6094 4.6094h17.973c2.7656 0 4.6094-2.3047 4.6094-4.6094z"/>
  <path d="m635.95 902.75h11.98c2.3047 0 4.6094-1.8438 4.6094-4.6094 0-2.3047-1.8438-4.6094-4.6094-4.6094h-11.98c-2.3047 0-4.6094 1.8438-4.6094 4.6094 0 2.3047 1.8438 4.6094 4.6094 4.6094z"/>
  <path d="m723.96 915.65h-109.21c-2.3047 0-4.6094 1.8438-4.6094 4.6094s1.8438 4.6094 4.6094 4.6094h108.75c2.3047 0 4.6094-1.8438 4.6094-4.6094 0-2.7695-1.8438-4.6094-4.1484-4.6094z"/>
  <path d="m597.24 915.65h-17.973c-2.3047 0-4.6094 1.8438-4.6094 4.6094s1.8438 4.6094 4.6094 4.6094h17.973c2.3047 0 4.6094-1.8438 4.6094-4.6094-0.003906-2.7695-1.8477-4.6094-4.6094-4.6094z"/>
  <path d="m564.06 915.65h-11.98c-2.3047 0-4.6094 1.8438-4.6094 4.6094s1.8438 4.6094 4.6094 4.6094h11.98c2.3047 0 4.6094-1.8438 4.6094-4.6094 0-2.7695-1.8438-4.6094-4.6094-4.6094z"/>
  <path d="m506 562.68c26.727 27.188 42.855 61.746 46.082 97.691-7.832 0.92187-13.824 7.3711-13.824 15.668v51.609c0 8.7539 6.9102 15.668 15.668 15.668h21.195v21.195c0 2.3047 1.8438 4.6094 4.6094 4.6094h59.445c2.3047 0 4.6094-1.8438 4.6094-4.6094l-0.007812-21.656h20.738c8.7539 0 15.668-6.9102 15.668-15.668l-0.003906-51.148c0-7.832-5.9922-14.285-13.363-15.207 3.2266-36.402 19.816-70.965 46.539-98.613 26.266-27.188 41.012-62.668 41.012-100.45 0-39.629-15.668-76.492-43.777-103.68-28.109-27.648-65.895-41.934-105.06-41.012-76.027 1.3828-137.32 61.746-141 136.86-1.8438 41.012 12.902 79.719 41.473 108.75zm164.96 147.92h-123.96v-17.512h123.96zm-36.863 49.305h-50.688v-17.047h50.688zm30.414-25.805h-111.05c-3.6875 0-6.4531-2.7656-6.4531-6.4531v-7.832h123.96v7.832c0 3.2305-2.7656 6.4531-6.4492 6.4531zm6.4492-58.059v7.832h-123.96v-7.832c0-3.6875 2.7656-6.4531 6.4531-6.4531h110.59c4.1445-0.46094 6.9102 2.7656 6.9102 6.4531zm-197.68-221.65c3.2266-70.504 61.285-127.18 131.33-129.02 36.863-0.92188 71.887 12.441 98.613 38.246 26.727 25.805 41.012 60.363 41.012 97.23 0 35.48-13.363 69.121-38.246 94.465-28.109 29.031-45.621 66.355-48.844 104.6h-96.77c-2.7656-38.246-19.816-75.109-48.383-104.14-26.73-26.727-40.555-63.129-38.711-101.38z"/>
  <path d="m609.22 567.29c58.523 0 106.45-47.922 106.45-106.45 0-58.523-47.922-106.45-106.45-106.45s-106.45 47.922-106.45 106.45c0 58.98 47.461 106.45 106.45 106.45zm0-203.68c53.453 0 97.23 43.777 97.23 97.23-0.003907 53.914-43.777 97.691-97.23 97.691s-97.23-43.777-97.23-97.23c-0.46094-53.914 43.316-97.691 97.23-97.691z"/>
  <path d="m609.22 302.32c2.3047 0 4.6094-1.8438 4.6094-4.6094l-0.003906-20.273c0-2.3047-1.8438-4.6094-4.6094-4.6094-2.3047 0-4.6094 1.8438-4.6094 4.6094v20.734c0.003906 2.3047 1.8477 4.1484 4.6133 4.1484z"/>
  <path d="m688.48 323.52c2.3047 1.3828 5.0703 0.46094 5.9922-1.8438l10.137-17.973c1.3828-2.3047 0.46094-5.0703-1.8438-5.9922-2.3047-1.3828-5.0703-0.46094-5.9922 1.8438l-10.137 17.973c-1.3828 2.3086-0.46094 5.0703 1.8438 5.9922z"/>
  <path d="m752.53 383.43 17.973-10.137c2.3047-1.3828 2.7656-4.1484 1.8438-5.9922-1.3828-2.3047-4.1484-2.7656-5.9922-1.8438l-17.973 10.137c-2.3047 1.3828-2.7656 4.1484-1.8438 5.9922 0.92188 2.3047 3.6875 3.2266 5.9922 1.8438z"/>
  <path d="m767.73 460.84c0 2.3047 1.8438 4.6094 4.6094 4.6094h20.734c2.3047 0 4.6094-1.8438 4.6094-4.6094s-1.8438-4.6094-4.6094-4.6094h-20.734c-2.7656 0.46094-4.6094 2.3047-4.6094 4.6094z"/>
  <path d="m770.5 548.85-17.973-10.137c-2.3047-1.3828-5.0703-0.46094-5.9922 1.8438-1.3828 2.3047-0.46094 5.0703 1.8438 5.9922l17.973 10.137c2.3047 1.3828 5.0703 0.46094 5.9922-1.8438 0.91797-1.8438-0.003906-4.6094-1.8438-5.9922z"/>
  <path d="m523.51 322.14c1.3828 2.3047 4.1484 2.7656 5.9922 1.8438 2.3047-1.3828 2.7656-4.1484 1.8438-5.9922l-10.137-17.973c-1.3828-2.3047-4.1484-2.7656-5.9922-1.8438-2.3047 1.3828-2.7656 4.1484-1.8438 5.9922z"/>
  <path d="m447.94 373.29 17.973 10.137c2.3047 1.3828 5.0703 0.46094 5.9922-1.8438 1.3828-2.3047 0.46094-5.0703-1.8438-5.9922l-17.973-10.137c-2.3047-1.3828-5.0703-0.46094-5.9922 1.8438-1.3828 1.8438-0.46094 4.6094 1.8438 5.9922z"/>
  <path d="m450.7 460.84c0-2.3047-1.8438-4.6094-4.6094-4.6094h-20.734c-2.3047 0-4.6094 1.8438-4.6094 4.6094s1.8438 4.6094 4.6094 4.6094h20.734c2.3047 0 4.6094-1.8438 4.6094-4.6094z"/>
  <path d="m465.45 538.71-17.512 10.137c-2.3047 1.3828-2.7656 4.1484-1.8438 5.9922 0.92188 1.3828 2.3047 2.3047 3.6875 2.3047 0.92188 0 1.3828 0 2.3047-0.46094l17.973-10.137c2.3047-1.3828 2.7656-4.1484 1.8438-5.9922-1.3867-2.3047-4.1523-3.2266-6.4531-1.8438z"/>
  <path d="m605.53 541.94c1.8438 2.3047 5.0703 2.3047 6.9102 0l79.258-99.992c0.92188-1.3828 1.3828-3.6875 0.46094-5.0703l-26.266-40.551c-0.92188-1.3828-2.3047-1.8438-3.6875-1.8438h-105.98-0.92187-0.46094s-0.46094 0-0.46094 0.46094c0 0-0.46094 0-0.46094 0.46094 0 0-0.46094 0.46094-0.46094 0.46094s0 0.46094-0.46094 0.46094c0 0 0 0.46094-0.46094 0.46094l-26.266 40.09c-0.92188 1.3828-0.92188 3.6875 0.46094 5.0703zm3.6875-20.277-3.2266-12.441-17.051-65.434h41.012l-17.051 65.434zm-18.434-86.629 17.973-28.109 17.973 28.109zm44.699-3.6875-17.973-28.109h36.402zm-52.992 0-17.973-28.109h36.402zm16.586 88.473-59.902-75.57h40.09zm19.816 0 19.816-75.57h40.09zm24.883-84.785 17.973-28.109 17.973 28.109zm-87.551-28.109 17.973 28.109h-36.402z"/>
 </g>
</svg>
