<?xml version="1.0" encoding="UTF-8"?>
<svg width="1200pt" height="1200pt" version="1.1" viewBox="0 0 1200 1200" xmlns="http://www.w3.org/2000/svg">
 <g>
  <path d="m955.74 617.51c0-64.051-17.051-127.18-49.766-181.55v-13.824c0-12.441-10.137-23.039-23.039-23.039h-2.3047c-32.719-41.934-75.109-76.492-122.57-100.45-13.824-41.473-52.531-71.426-98.613-71.426-30.875-0.46094-58.523 12.902-77.875 34.559-30.414 1.3828-60.363 6.9102-88.934 16.129-11.52-5.9922-24.422-9.2148-38.246-9.2148-43.316 0-78.797 33.176-82.484 75.57-81.562 67.738-127.64 167.27-127.64 273.25 0 195.38 158.98 355.74 355.74 355.74 196.77 0 355.74-160.36 355.74-355.74zm-8.7578 0c0 96.77-39.629 183.86-103.68 246.99h-148.84c2.3047-4.1484 2.7656-9.6758 0.46094-14.285l-82.945-183.4c7.3711-8.7539 11.52-19.816 12.441-31.797h112.89c13.824 0 25.344-11.059 25.344-25.344v-37.785l98.152 38.707c1.3828 11.059 11.059 19.816 22.578 19.816 12.441 0 23.039-10.137 23.039-23.039l0.003906-153.91c26.727 50.227 40.551 106.44 40.551 164.04zm-379.7 246.99c-4.1484 0-7.3711-3.2266-7.3711-6.9102l-8.7539-152.07c0-1.8438-1.3828-3.6875-3.6875-4.1484-1.8438-0.46094-3.6875 0.46094-4.6094 2.3047l-81.562 157.59c-2.3047 3.2266-6.4531 4.6094-10.137 2.7656-3.6875-1.8438-5.0703-6.4531-3.2266-10.137l81.562-180.63c10.137 9.2148 23.5 14.746 38.246 14.746s28.109-5.5312 38.246-14.746l81.562 180.17c1.8438 3.6875 0 7.832-3.2266 10.137-3.6875 1.8438-7.832 0.92188-10.137-2.3047l-82.023-157.59c-0.92188-1.8438-2.7656-2.7656-4.6094-2.3047s-3.2266 1.8438-3.6875 4.1484l-8.7539 152.07c-0.46094 3.6875-3.6836 6.9102-7.832 6.9102zm-14.285 0h-83.867l74.188-142.85 7.832 136.4c0.003906 2.3047 0.46484 4.1484 1.8477 6.4492zm-181.09-289.84h-22.117c-4.1484 0-7.3711-3.2266-7.3711-7.3711l-0.003907-105.52c0-4.1484 3.2266-7.3711 7.3711-7.3711h22.117zm9.2148-155.29c0-9.2148 7.3711-16.59 16.59-16.59h340.07c9.2148 0 16.59 7.3711 16.59 16.59v189.85c0 9.2148-7.3711 16.59-16.59 16.59l-117.04-0.003906h-223.49c-9.2148 0-16.59-7.3711-16.59-16.59 0.46094-82.02 0.46094-104.6 0.46094-189.85zm479.23 181.55-97.691-38.707v-95.387l97.691-38.707zm-244.23 33.641c-2.3047 24.883-23.039 44.238-48.383 44.238s-46.539-19.355-48.383-44.238zm-32.254 223.03 7.832-135.94 74.188 142.85h-83.863c0.92188-2.3008 1.8438-4.6055 1.8438-6.9102zm313.34-435.92v185.7c0 7.832-6.4531 14.285-14.285 14.285-7.832 0-14.285-6.4531-14.285-14.285v-185.7c0-7.832 6.4531-14.285 14.285-14.285 7.832 0 14.285 6.4531 14.285 14.285zm-25.344-19.816c-5.9922 3.6875-10.598 9.6758-11.52 17.051l-98.152 38.707v-37.785c0-12.441-9.2148-23.039-21.195-24.883 14.285-18.434 22.117-40.551 22.117-64.051 0-6.9102-0.92188-14.285-2.3047-20.734 43.316 22.117 81.102 53.91 111.05 91.695zm-212.43-166.35c52.531 0 94.926 42.855 94.926 94.926 0 23.5-8.7539 46.082-24.883 63.59h-140.55c-16.129-17.512-24.883-40.09-24.883-63.59 0.46094-52.07 42.855-94.926 95.387-94.926zm-84.789 35.48c-11.98 17.051-18.895 37.324-18.895 59.445 0 23.5 7.832 45.621 22.117 63.59h-52.527c7.832-12.902 11.98-27.648 11.98-42.855 0-27.648-13.824-52.531-35.02-67.277 23.5-6.9102 47.922-11.059 72.344-12.902zm-120.27 6.4531c41.012 0 74.188 33.176 74.188 74.188 0 15.668-4.6094 30.414-13.824 42.855h-117.5-3.2266c-9.2148-12.441-13.824-27.648-13.824-43.316 0-40.551 33.18-73.727 74.188-73.727zm-201.37 340.07c0-100.91 42.852-195.38 118.43-261.73 0.92188 14.746 5.5312 29.031 13.824 41.473-7.832 4.1484-13.363 12.441-13.363 22.117v25.805h-22.117c-8.7539 0-16.129 7.3711-16.129 16.129v105.52c0 8.7539 7.3711 16.129 16.129 16.129h22.117v26.266c0 13.824 11.059 25.344 25.344 25.344h112.89c0.92188 11.98 5.5312 23.039 12.441 31.797l-82.945 183.4c-2.3047 4.6094-1.8438 10.137 0.46094 14.285l-83.863-0.003907c-63.59-62.668-103.22-150.22-103.22-246.53zm112.43 255.75h468.64c-61.746 56.68-144.23 91.238-234.55 91.238-89.859 0-172.34-34.562-234.09-91.238z"/>
  <path d="m589.86 899.98c0-2.3047-1.8438-4.6094-4.6094-4.6094h-106.44c-2.3047 0-4.6094 1.8438-4.6094 4.6094 0 2.3047 1.8438 4.6094 4.6094 4.6094h106.45c2.7617-0.46484 4.6055-2.3047 4.6055-4.6094z"/>
  <path d="m624.43 899.98c0-2.3047-1.8438-4.6094-4.6094-4.6094h-17.512c-2.3047 0-4.6094 1.8438-4.6094 4.6094 0 2.3047 1.8438 4.6094 4.6094 4.6094h17.512c2.7656-0.46484 4.6094-2.3047 4.6094-4.6094z"/>
  <path d="m635.02 904.13h11.52c2.3047 0 4.6094-1.8438 4.6094-4.6094 0-2.3047-1.8438-4.6094-4.6094-4.6094h-11.52c-2.3047 0-4.6094 1.8438-4.6094 4.6094 0.46094 2.7695 2.3047 4.6094 4.6094 4.6094z"/>
  <path d="m721.19 917.03h-106.45c-2.3047 0-4.6094 1.8438-4.6094 4.6094 0 2.3047 1.8438 4.6094 4.6094 4.6094h106.45c2.3047 0 4.6094-1.8438 4.6094-4.6094-0.46094-2.7656-2.3047-4.6094-4.6094-4.6094z"/>
  <path d="m597.7 917.03h-17.512c-2.3047 0-4.6094 1.8438-4.6094 4.6094 0 2.3047 1.8438 4.6094 4.6094 4.6094h17.512c2.3047 0 4.6094-1.8438 4.6094-4.6094-0.46484-2.7656-2.3086-4.6094-4.6094-4.6094z"/>
  <path d="m564.98 917.03h-11.52c-2.3047 0-4.6094 1.8438-4.6094 4.6094 0 2.3047 1.8438 4.6094 4.6094 4.6094h11.52c2.3047 0 4.6094-1.8438 4.6094-4.6094-0.46094-2.7656-2.3047-4.6094-4.6094-4.6094z"/>
  <path d="m659.45 374.67c24.422 0 43.777-19.816 43.777-43.777 0-24.422-19.816-43.777-43.777-43.777-24.422 0-43.777 19.816-43.777 43.777 0 23.965 19.816 43.777 43.777 43.777zm0-79.258c19.355 0 35.02 15.668 35.02 35.02 0 19.355-15.668 35.02-35.02 35.02-19.355 0-35.02-15.668-35.02-35.02 0-19.352 15.664-35.02 35.02-35.02z"/>
  <path d="m454.39 387.11c19.816 0 35.48-16.129 35.48-35.48 0-19.816-16.129-35.48-35.48-35.48-19.816 0-35.48 16.129-35.48 35.48 0 19.352 15.668 35.48 35.48 35.48zm0-62.672c14.746 0 26.727 11.98 26.727 26.727 0 14.746-11.98 26.727-26.727 26.727-14.746 0-26.727-11.98-26.727-26.727 0-14.746 11.984-26.727 26.727-26.727z"/>
  <path d="m543.32 595.39h173.26c2.3047 0 4.6094-1.8438 4.6094-4.6094l-0.003906-103.22c0-2.3047-1.8438-4.6094-4.6094-4.6094h-173.26c-2.3047 0-4.6094 1.8438-4.6094 4.6094v103.22c0.46094 2.3047 2.3047 4.6094 4.6094 4.6094zm4.6055-103.22h164.51v94.465l-164.51-0.003906z"/>
  <path d="m664.52 515.21c-13.363 0-23.961 10.598-23.961 23.961s10.598 23.961 23.961 23.961 23.961-10.598 23.961-23.961-10.598-23.961-23.961-23.961zm0 39.168c-8.293 0-15.207-6.9102-15.207-15.207 0-8.293 6.9102-15.207 15.207-15.207 8.293 0 15.207 6.9102 15.207 15.207-0.003906 8.7539-6.9141 15.207-15.207 15.207z"/>
  <path d="m595.86 515.21c-13.363 0-23.961 10.598-23.961 23.961s10.598 23.961 23.961 23.961 23.961-10.598 23.961-23.961-11.059-23.961-23.961-23.961zm0 39.168c-8.293 0-15.207-6.9102-15.207-15.207 0-8.293 6.9102-15.207 15.207-15.207 8.293 0 15.207 6.9102 15.207 15.207 0 8.7539-6.9141 15.207-15.207 15.207z"/>
  <path d="m426.28 595.39h38.707c11.52 0 20.734-9.2148 20.734-20.734v-38.707c0-11.52-9.2148-20.734-20.734-20.734h-38.707c-11.52 0-20.734 9.2148-20.734 20.734v38.707c-0.003906 11.516 9.2109 20.734 20.734 20.734zm-11.984-59.445c0-6.4531 5.5312-11.98 11.98-11.98h38.707c6.4531 0 11.98 5.5312 11.98 11.98v38.707c0 6.4531-5.5312 11.98-11.98 11.98h-38.707c-6.4531 0-11.98-5.5312-11.98-11.98z"/>
 </g>
</svg>
