<?xml version="1.0" encoding="UTF-8"?>
<svg width="1200pt" height="1200pt" version="1.1" viewBox="0 0 1200 1200" xmlns="http://www.w3.org/2000/svg">
 <g>
  <path d="m957.58 615.67c0-159.44-106.91-300.9-260.35-344.22-25.805-29.953-64.051-47-105.98-44.238h-0.92188c-34.559 2.7656-65.434 19.355-87.09 44.238-153.91 42.855-260.82 184.32-260.82 344.22 0 79.258 25.344 154.37 73.266 217.04-1.8438 3.6875-3.2266 8.293-3.2266 12.441 0 15.207 12.441 27.648 27.648 27.648h11.062c67.277 64.512 155.29 100.45 248.83 100.45 93.543 0 181.55-35.941 248.83-100.45h11.059c15.207 0 27.648-12.441 27.648-27.648 0-4.1484-0.92187-8.7539-3.2266-12.441 47.926-63.129 73.27-137.78 73.27-217.04zm-366.8-379.7h0.92188c71.426-5.0703 128.1 51.609 128.1 119.35 0 26.266-8.293 51.148-24.422 72.348-49.305 63.59-44.695 121.65-46.539 132.71h-97.691c-0.46094-1.3828 4.1484-68.66-45.16-131.79-17.973-23.039-26.727-52.07-24.883-81.562 3.6875-58.98 51.152-106.44 109.67-111.05zm57.602 414.72c-1.8438 19.816-10.137 55.297-15.207 76.031-2.3047-8.7539-5.0703-20.734-7.832-32.719-0.46094-1.8438-2.3047-3.6875-4.1484-3.6875-2.3047 0-3.6875 1.3828-4.1484 3.6875-5.0703 23.5-10.598 47-16.59 70.965-5.9922-23.5-11.98-47.461-16.59-70.965-0.46094-1.8438-2.3047-3.6875-4.1484-3.6875s-3.6875 1.3828-4.1484 3.2266c-2.7656 11.98-5.5312 23.5-7.832 32.719-5.0703-20.734-13.363-55.758-15.207-76.031h95.852zm-106.91-8.7578c-4.6094 0-7.832-3.6875-7.832-7.832l-0.003907-1.8438h132.71v1.8438c0 4.6094-3.6875 7.832-7.832 7.832zm-7.8359-18.43v-13.363h132.71v13.363zm0-22.582v-13.363h132.71v13.363zm0-22.117v-1.8438c0-4.6094 3.6875-7.832 7.832-7.832h19.355 97.23c4.6094 0 7.832 3.6875 7.832 7.832v1.8438zm-220.72 234.55c-40.09-58.523-61.746-126.26-61.746-197.68 0-151.61 99.074-286.62 242.84-332.24-12.441 17.973-20.273 39.629-21.656 62.668-2.3047 31.797 7.3711 62.668 26.727 88.012 27.648 35.941 43.316 80.18 43.316 124.88-7.3711 2.3047-31.336 11.059-51.609 29.031-0.46094 0.46094-13.824 11.52-11.059 40.09l8.7539 88.012c0.46094 6.4531 5.5312 11.52 11.98 12.441h1.3828c3.2266 0 5.9922-0.92188 8.293-3.2266 2.7656-2.3047 4.6094-5.5312 5.0703-9.2148l5.5312-52.992c0.46094-2.7656 1.8438-5.5312 4.6094-6.9102 3.6875-1.8438 9.6758-4.1484 17.051-5.0703 2.7656 29.953 19.355 91.699 19.816 94.465 0.46094 1.8438 2.3047 3.2266 4.1484 3.2266s3.6875-1.3828 4.1484-3.2266c0 0 3.6875-13.363 7.832-30.414v0.92188c-3.6875 35.02-16.129 113.36-57.141 124.42-0.46094-12.902-8.7539-24.422-20.734-29.031 5.5312-7.832 8.293-17.051 8.293-26.727 0-50.688-70.043-64.973-89.855-18.434-15.207-7.832-35.02-1.8438-42.855 14.285-26.277-20.734-64.523-0.91797-63.141 32.719zm210.12-225.79h1.8438v13.363h-1.8438c-2.3047 0-4.6094 1.8438-4.6094 4.6094 0 2.3047 1.8438 4.6094 4.6094 4.6094h1.8438v13.363h-1.8438c-2.3047 0-4.6094 1.8438-4.6094 4.6094 0 2.3047 1.8438 4.6094 4.6094 4.6094h1.8438v1.8438c0 4.1484 1.8438 8.293 4.1484 11.059-3.2266 0.92188-5.9922 2.3047-7.832 3.6875-5.0703 2.7656-8.293 7.832-9.2148 13.824l-5.5312 52.531c0 1.3828-0.92188 2.3047-1.8438 3.2266-0.92188 0.92188-2.3047 1.3828-3.6875 0.92188-2.3047-0.46094-4.1484-1.8438-4.1484-4.1484l-8.7539-88.012c-2.3047-23.5 7.3711-31.797 8.293-32.258 9.2148-8.293 19.355-14.746 28.57-18.895v1.8438 1.8438h-1.8438c-2.3047 0-4.6094 1.8438-4.6094 4.6094 0.003906 0.91797 1.8438 2.7578 4.6094 2.7578zm76.953 376.94c-88.012 0-171.42-32.719-235.47-91.699h471.4c-64.512 58.98-147.91 91.699-235.93 91.699zm274.18-131.33c2.7656 3.2266 4.1484 7.3711 4.1484 11.98 0 10.598-8.293 18.895-18.895 18.895h-12.902l-493.52-0.003907h-12.902c-10.598 0-18.895-8.293-18.895-18.895 0-4.1484 1.3828-8.293 4.1484-11.98 1.3828-1.3828 1.3828-3.6875 0.46094-5.0703-19.355-31.336 23.5-64.512 49.305-36.863 2.3047 2.7656 6.9102 1.3828 7.3711-1.8438 2.3047-10.598 11.52-17.512 22.117-17.512 11.98 0 13.363 6.9102 17.973 5.5312 1.3828-0.46094 2.3047-1.3828 2.7656-2.7656 11.98-42.395 74.648-33.176 74.648 10.598 0 20.734-13.824 24.883-11.52 30.875 0.46094 1.3828 1.8438 2.7656 3.6875 2.7656 12.441 1.8438 22.117 13.363 19.816 26.727-0.46094 2.7656 1.8438 5.5312 5.0703 5.0703 41.934-5.0703 59.902-63.129 67.277-109.67 3.2266 14.285 7.3711 29.492 11.059 43.777 0.46094 1.8438 2.3047 3.2266 4.1484 3.2266 4.6094 0 4.1484-1.8438 14.285-41.934 5.0703 38.707 19.816 95.387 68.199 104.6 1.3828 0.46094 2.7656 0 4.1484-1.3828 2.3047-2.3047 0.92188-4.1484 0.92188-7.832 0-11.52 8.7539-21.195 20.273-22.578 3.6875-0.46094 5.0703-4.6094 2.7656-7.3711-6.9102-6.9102-10.598-16.59-10.598-26.266 0-21.195 17.051-38.246 38.246-38.246 17.051 0 31.797 11.52 36.402 27.648 0.92188 3.2266 4.6094 4.1484 6.9102 2.3047 12.902-10.137 32.719-3.6875 36.402 12.902 0.92188 3.6875 5.0703 4.6094 7.3711 1.8438 18.895-20.734 53.914-7.3711 53.914 20.734 0 5.9922-1.3828 11.52-4.6094 16.129-1.3789 0.91797-1.3789 3.2227 0.003907 4.6055zm-50.688-52.992c-7.832-16.129-27.648-22.117-42.855-14.285-7.3711-17.051-24.422-28.57-43.316-28.57-25.805 0-47 21.195-47 47 0 9.6758 2.7656 18.895 8.293 26.727-11.98 4.6094-20.273 15.668-20.734 28.57-34.098-10.137-52.531-48.844-57.602-121.19 0.46094-0.92188 0.46094-2.3047 0.92188-3.2266 4.1484 17.051 7.832 29.953 7.832 30.414 0.46094 1.8438 2.3047 3.2266 4.1484 3.2266s3.6875-1.3828 4.1484-3.2266c0.92188-2.7656 17.512-64.512 19.816-94.465 7.832 0.92187 13.824 3.2266 17.051 5.0703 2.3047 1.3828 4.1484 3.6875 4.6094 6.9102l5.5312 52.992c0.46094 3.6875 2.3047 6.9102 5.0703 9.2148 2.3047 1.8438 5.5312 3.2266 8.293 3.2266h1.3828c6.4531-0.92188 11.52-5.9922 11.98-12.441l8.7539-88.012c2.7656-28.109-10.598-39.629-11.059-39.629-20.273-18.434-44.238-26.727-51.609-29.031 0.46094-44.699 15.668-88.473 44.238-126.26 17.051-22.578 26.266-49.305 26.266-77.414 0-25.805-7.832-50.688-22.117-71.887 143.31 45.621 242.38 180.63 242.38 332.24 0 71.426-21.195 139.62-61.746 197.68 2.293-34.098-36.414-53.914-62.68-33.637zm-146.54-156.67h-1.8438v-13.363h1.8438c2.3047 0 4.6094-1.8438 4.6094-4.6094 0-2.3047-1.8438-4.6094-4.6094-4.6094h-1.8438v-13.363h1.8438c2.3047 0 4.6094-1.8438 4.6094-4.6094 0-2.3047-1.8438-4.6094-4.6094-4.6094h-1.8438v-1.8438-1.8438c8.7539 4.6094 19.355 10.598 28.57 19.355 0.46094 0.46094 10.137 9.2148 7.832 32.258l-8.7539 88.012c0 2.3047-1.8438 4.1484-4.1484 4.1484-1.3828 0-2.3047 0-3.6875-0.92188-0.92188-0.92188-1.8438-1.8438-1.8438-3.2266l-5.5312-52.531c-0.46094-5.9922-4.1484-11.059-9.2148-13.824-1.8438-0.92188-4.6094-2.3047-7.832-3.6875 2.7656-2.7656 4.1484-6.9102 4.1484-11.059v-0.91797h1.8438c2.3047 0 4.6094-1.8438 4.6094-4.6094 0.45703-2.3008-1.3867-4.1445-4.1484-4.1445z"/>
  <path d="m478.35 903.67h106.91c2.3047 0 4.6094-1.8438 4.6094-4.6094 0-2.3047-1.8438-4.6094-4.6094-4.6094l-106.91 0.003906c-2.3047 0-4.6094 1.8438-4.6094 4.6094s2.3047 4.6055 4.6094 4.6055z"/>
  <path d="m602.3 903.67h17.512c2.3047 0 4.6094-1.8438 4.6094-4.6094 0-2.3047-1.8438-4.6094-4.6094-4.6094h-17.512c-2.3047 0-4.6094 1.8438-4.6094 4.6094 0.46484 2.7695 2.3047 4.6094 4.6094 4.6094z"/>
  <path d="m635.02 903.67h11.52c2.3047 0 4.6094-1.8438 4.6094-4.6094 0-2.3047-1.8438-4.6094-4.6094-4.6094h-11.52c-2.3047 0-4.6094 1.8438-4.6094 4.6094 0.46094 2.7695 2.3047 4.6094 4.6094 4.6094z"/>
  <path d="m610.14 921.18c0 2.3047 1.8438 4.6094 4.6094 4.6094h106.91c2.3047 0 4.6094-1.8438 4.6094-4.6094 0-2.3047-1.8438-4.6094-4.6094-4.6094h-106.91c-2.7617 0-4.6055 1.8438-4.6055 4.6094z"/>
  <path d="m575.58 921.18c0 2.3047 1.8438 4.6094 4.6094 4.6094h17.512c2.3047 0 4.6094-1.8438 4.6094-4.6094 0-2.3047-1.8438-4.6094-4.6094-4.6094h-17.512c-2.7656 0-4.6094 1.8438-4.6094 4.6094z"/>
  <path d="m564.98 916.57h-11.52c-2.3047 0-4.6094 1.8438-4.6094 4.6094 0 2.3047 1.8438 4.6094 4.6094 4.6094h11.52c2.3047 0 4.6094-1.8438 4.6094-4.6094-0.46094-2.7656-2.3047-4.6094-4.6094-4.6094z"/>
  <path d="m600 422.59c38.707 0 70.043-31.336 70.043-70.043s-31.336-70.043-70.043-70.043-70.043 31.336-70.043 70.043c0.003907 38.707 31.336 70.043 70.043 70.043zm0-130.87c33.637 0 61.285 27.648 61.285 61.285s-27.648 61.285-61.285 61.285-61.285-27.648-61.285-61.285c0-34.098 27.648-61.285 61.285-61.285z"/>
  <path d="m599.54 400.48c25.344 0 47.922-19.355 47.922-47.461 0-39.629-47.922-65.895-81.102-33.176-33.176 32.25-5.5273 80.637 33.18 80.637zm1.3828-87.094c18.434 0 37.785 16.59 37.785 39.168 0 35.02-42.855 52.07-66.816 26.727-27.645-29.031 0.003906-65.895 29.031-65.895z"/>
  <path d="m761.28 494.94c35.941 0 69.582 33.637 69.582 69.582 0 2.3047 1.8438 4.6094 4.6094 4.6094 2.3047 0 4.6094-1.8438 4.6094-4.6094 0-35.941 33.637-69.582 69.582-69.582 2.3047 0 4.6094-1.8438 4.6094-4.6094 0-2.3047-1.8438-4.6094-4.6094-4.6094-35.941 0-69.582-33.637-69.582-69.582 0-2.3047-1.8438-4.6094-4.6094-4.6094-2.3047 0-4.6094 1.8438-4.6094 4.6094 0 35.941-33.637 69.582-69.582 69.582-2.3047 0-4.6094 1.8438-4.6094 4.6094 0.003906 2.7695 1.8438 4.6094 4.6094 4.6094zm74.191-53.914c8.293 22.578 27.188 41.473 49.766 49.766-22.578 8.293-41.473 27.188-49.766 49.766-8.293-22.578-27.188-41.473-49.766-49.766 22.578-8.293 41.469-27.184 49.766-49.766z"/>
  <path d="m348.86 638.71c0 2.3047 1.8438 4.6094 4.6094 4.6094s4.6094-1.8438 4.6094-4.6094c0-35.941 33.637-69.582 69.582-69.582 2.3047 0 4.6094-1.8438 4.6094-4.6094 0-2.3047-1.8438-4.6094-4.6094-4.6094-35.941 0-69.582-33.637-69.582-69.582 0-2.3047-1.8438-4.6094-4.6094-4.6094s-4.6094 1.8438-4.6094 4.6094c0 35.941-33.637 69.582-69.582 69.582-2.3047 0-4.6094 1.8438-4.6094 4.6094 0 2.3047 1.8438 4.6094 4.6094 4.6094 35.484 0 69.582 34.098 69.582 69.582zm4.1484-123.5c8.293 22.578 27.188 41.473 49.766 49.766-22.578 8.293-41.473 27.188-49.766 49.766-8.293-22.578-27.188-41.473-49.766-49.766 23.039-8.293 41.934-27.188 49.766-49.766z"/>
 </g>
</svg>
