<?xml version="1.0" encoding="UTF-8"?>
<svg width="1200pt" height="1200pt" version="1.1" viewBox="0 0 1200 1200" xmlns="http://www.w3.org/2000/svg">
 <g>
  <path d="m585.26 893.07c0-2.3047-1.8438-4.6094-4.6094-4.6094h-110.59c-2.3047 0-4.6094 1.8438-4.6094 4.6094 0 2.3047 1.8438 4.6094 4.6094 4.6094h110.59c2.7656 0 4.6094-2.3047 4.6094-4.6094z"/>
  <path d="m621.2 893.07c0-2.3047-1.8438-4.6094-4.6094-4.6094h-17.973c-2.3047 0-4.6094 1.8438-4.6094 4.6094 0 2.3047 1.8438 4.6094 4.6094 4.6094h17.973c2.7656 0 4.6094-2.3047 4.6094-4.6094z"/>
  <path d="m632.26 897.68h11.98c2.3047 0 4.6094-1.8438 4.6094-4.6094 0-2.3047-1.8438-4.6094-4.6094-4.6094l-11.98 0.003906c-2.3047 0-4.6094 1.8438-4.6094 4.6094 0 2.3008 2.3047 4.6055 4.6094 4.6055z"/>
  <path d="m721.65 910.58h-110.59c-2.3047 0-4.6094 1.8438-4.6094 4.6094 0 2.3047 1.8438 4.6094 4.6094 4.6094h110.59c2.3047 0 4.6094-1.8438 4.6094-4.6094 0-2.3047-2.3047-4.6094-4.6094-4.6094z"/>
  <path d="m593.55 910.58h-17.973c-2.3047 0-4.6094 1.8438-4.6094 4.6094 0 2.3047 1.8438 4.6094 4.6094 4.6094h17.973c2.3047 0 4.6094-1.8438 4.6094-4.6094-0.46094-2.3047-2.3047-4.6094-4.6094-4.6094z"/>
  <path d="m559.45 910.58h-11.98c-2.3047 0-4.6094 1.8438-4.6094 4.6094 0 2.3047 1.8438 4.6094 4.6094 4.6094h11.98c2.3047 0 4.6094-1.8438 4.6094-4.6094 0-2.3047-1.8438-4.6094-4.6094-4.6094z"/>
  <path d="m461.3 455.77h-135.94c-2.3047 0-4.6094 1.8438-4.6094 4.6094l0.003906 33.637c0 2.3047 1.8438 4.6094 4.6094 4.6094h135.94c2.3047 0 4.6094-1.8438 4.6094-4.6094v-33.637c-0.46484-2.3047-2.3086-4.6094-4.6133-4.6094zm-4.6094 33.641h-126.72v-24.422h126.72z"/>
  <path d="m461.3 826.71c2.3047 0 4.6094-1.8438 4.6094-4.6094v-33.176c0-2.3047-1.8438-4.6094-4.6094-4.6094h-135.94c-2.3047 0-4.6094 1.8438-4.6094 4.6094v33.637c0 2.3047 1.8438 4.6094 4.6094 4.6094h135.94zm-131.33-33.176h126.72v24.422h-126.72z"/>
  <path d="m572.36 835.93c16.59 0 30.414-13.824 30.414-30.414 0-16.59-13.824-30.414-30.414-30.414-16.59 0-30.414 13.824-30.414 30.414 0 17.051 13.363 30.414 30.414 30.414zm0-51.613c11.98 0 21.195 9.6758 21.195 21.195s-9.6758 21.195-21.195 21.195c-11.98 0-21.195-9.6758-21.195-21.195-0.003906-11.516 9.2109-21.195 21.195-21.195z"/>
  <path d="m516.14 820.73c8.293 0 15.207-6.9102 15.207-15.207 0-8.293-6.9102-15.207-15.207-15.207-8.293 0-15.207 6.9102-15.207 15.207 0 8.293 6.9102 15.207 15.207 15.207zm0-21.199c3.2266 0 5.9922 2.7656 5.9922 5.9922 0 3.2266-2.7656 5.9922-5.9922 5.9922-3.2266 0-5.9922-2.7656-5.9922-5.9922 0-3.2266 2.7656-5.9922 5.9922-5.9922z"/>
  <path d="m461.3 565.44h-135.94c-2.3047 0-4.6094 1.8438-4.6094 4.6094v33.637c0 2.3047 1.8438 4.6094 4.6094 4.6094h135.94c2.3047 0 4.6094-1.8438 4.6094-4.6094v-33.637c-0.46094-2.7656-2.3047-4.6094-4.6094-4.6094zm-4.6094 33.637h-126.72v-24.422h126.72z"/>
  <path d="m572.36 556.23c-16.59 0-30.414 13.824-30.414 30.414s13.824 30.414 30.414 30.414c16.59 0 30.414-13.824 30.414-30.414-0.003906-16.59-13.828-30.414-30.414-30.414zm0 51.609c-11.98 0-21.195-9.6758-21.195-21.195 0-11.98 9.6758-21.195 21.195-21.195 11.98 0 21.195 9.6758 21.195 21.195 0 11.98-9.6758 21.195-21.195 21.195z"/>
  <path d="m516.14 571.43c-8.293 0-15.207 6.9102-15.207 15.207 0 8.293 6.9102 15.207 15.207 15.207 8.293 0 15.207-6.9102 15.207-15.207s-6.9141-15.207-15.207-15.207zm0 21.195c-3.2266 0-5.9922-2.7656-5.9922-5.9922 0-3.2266 2.7656-5.9922 5.9922-5.9922 3.2266 0 5.9922 2.7656 5.9922 5.9922-0.003906 3.2266-2.7656 5.9922-5.9922 5.9922z"/>
  <path d="m461.3 674.65h-135.94c-2.3047 0-4.6094 1.8438-4.6094 4.6094v33.637c0 2.3047 1.8438 4.6094 4.6094 4.6094h135.94c2.3047 0 4.6094-1.8438 4.6094-4.6094v-33.637c-0.46094-2.3047-2.3047-4.6094-4.6094-4.6094zm-4.6094 33.637h-126.72v-24.422h126.72z"/>
  <path d="m572.36 665.89c-16.59 0-30.414 13.824-30.414 30.414s13.824 30.414 30.414 30.414c16.59 0 30.414-13.824 30.414-30.414-0.003906-17.051-13.828-30.414-30.414-30.414zm0 51.613c-11.98 0-21.195-9.6758-21.195-21.195 0-11.98 9.6758-21.195 21.195-21.195 11.98 0 21.195 9.6758 21.195 21.195 0 11.516-9.6758 21.195-21.195 21.195z"/>
  <path d="m516.14 681.1c-8.293 0-15.207 6.9102-15.207 15.207 0 8.293 6.9102 15.207 15.207 15.207 8.293 0 15.207-6.9102 15.207-15.207 0-8.293-6.9141-15.207-15.207-15.207zm0 21.199c-3.2266 0-5.9922-2.7656-5.9922-5.9922 0-3.2266 2.7656-5.9922 5.9922-5.9922 3.2266 0 5.9922 2.7656 5.9922 5.9922-0.003906 3.2266-2.7656 5.9922-5.9922 5.9922z"/>
  <path d="m968.18 475.12c3.6875-8.7539 5.0703-17.512 5.0703-26.727 0-37.785-29.492-68.66-66.355-71.426v-0.46094c0-26.266-21.656-47.922-47.922-47.922-4.1484 0-8.293 0.46094-12.441 1.3828-14.285-53.453-63.59-91.699-119.35-91.699-12.441 0-24.883 1.8438-35.941 5.5312-30.875-8.293-63.129-12.441-95.387-12.441-203.68-0.46484-369.11 164.96-369.11 368.64 0 67.277 17.973 132.71 52.531 189.85v41.012c0 18.895 15.207 34.098 34.098 34.098h25.344c69.121 67.277 160.36 104.14 257.13 104.14 111.05 0 214.27-48.844 284.77-134.55l17.512 7.3711c1.8438 0.92188 3.6875 0.46094 5.0703-0.92188l26.266-26.266c1.3828-1.3828 1.8438-3.2266 0.92188-5.0703l-11.52-27.188c1.3828-2.7656 2.3047-5.0703 3.2266-7.832l27.188-11.059c1.8438-0.92188 2.7656-2.3047 2.7656-4.1484v-36.863c0-1.8438-0.92188-3.6875-2.7656-4.1484l-3.6875-1.3828c12.441-37.324 18.895-76.492 18.895-116.58 0-34.098-4.6094-67.738-13.824-99.992 7.8281-7.3672 13.359-15.664 17.508-25.34zm-129.03-138.7c0.46094 2.7656 3.6875 4.1484 5.9922 3.2266 4.6094-1.8438 9.2148-2.7656 13.824-2.7656 21.195 0 38.707 17.512 38.707 38.707 0 4.1484-0.92188 5.9922 0.92187 7.832 0.92188 0.92188 1.8438 1.3828 3.2266 1.3828 34.559 0.92578 62.207 29.035 62.207 63.133 0 8.293-1.3828 16.129-4.6094 23.5-3.6875 8.7539-9.2148 16.59-16.129 23.039 0 0-0.46094 0.46094-0.46094 0.46094-11.059 10.137-25.805 15.668-41.473 15.668h-104.14v-36.402h27.648c1.8438 0 3.2266-0.92188 4.1484-2.7656s0.46094-3.6875-0.92188-5.0703l-58.523-67.738c-1.8438-1.8438-5.0703-1.8438-6.9102 0l-58.523 67.738c-1.3828 1.3828-1.3828 3.2266-0.92188 5.0703 0.92188 1.8438 2.3047 2.7656 4.1484 2.7656h27.648v103.22c0 2.3047 1.8438 4.6094 4.6094 4.6094h22.117l-48.383 56.219-47.465-56.219h22.117c2.3047 0 4.6094-1.8438 4.6094-4.6094v-62.207c0-2.3047-1.8438-4.6094-4.6094-4.6094h-89.391c-47.461 0-87.09-38.707-87.09-87.09v-0.92188c0.46094-51.148 45.621-93.082 100.45-85.25 2.3047 0.46094 4.6094-1.3828 5.0703-3.2266 12.441-51.148 58.062-87.09 110.59-87.09 52.988 0 99.988 37.785 111.51 89.395zm-550.66 199.99h346.52v100.46h-346.52zm0 109.67h346.52v100.45h-346.52zm346.52-118.43h-346.52v-75.57c0-13.824 11.059-24.883 24.883-24.883h188.93c0.46094 13.363 3.6875 24.883 8.293 35.941-5.5312 2.3047-9.6758 7.832-9.6758 14.285 0 8.293 6.9102 15.207 15.207 15.207 4.1484 0 7.832-1.8438 10.598-4.6094 39.168 43.316 89.395 29.492 107.83 32.258v7.3711zm-119.81-56.219c1.8438 3.2266 4.1484 6.4531 5.9922 9.2148-0.92188 1.3828-2.7656 2.7656-5.0703 2.7656-3.2266 0-5.9922-2.7656-5.9922-5.9922 0-3.2227 2.3047-5.5273 5.0703-5.9883zm-279.25 128.56c0-198.61 161.28-359.88 359.89-359.88 27.188 0 54.375 3.2266 80.18 9.2148-32.258 14.746-57.602 42.855-67.277 78.797-56.68-5.9922-103.68 36.863-106.45 90.316h-188.93c-18.895 0-34.098 15.207-34.098 34.098v319.34c-28.57-52.992-43.316-111.51-43.316-171.88zm52.531 230.86v-75.57h346.52v75.57c0 13.824-11.059 24.883-24.883 24.883h-296.76c-13.824 0-24.883-11.059-24.883-24.883zm64.051 34.559h486.61c-65.895 60.824-152.07 94.926-243.3 94.926-90.773-0.46094-176.48-34.098-243.3-94.926zm505.5-18.891 5.0703-12.902c2.7656-0.92188 5.0703-1.8438 7.832-3.2266l0.92188 0.46094c-4.1484 5.5312-8.7539 10.598-13.824 15.668zm85.707-90.316-26.266 10.598c-1.3828 0.46094-2.3047 1.3828-2.7656 2.7656-1.3828 3.6875-2.7656 7.3711-4.6094 10.598-0.46094 1.3828-0.46094 2.7656 0 3.6875l11.059 26.266-21.656 21.656-26.266-11.059c-1.3828-0.46094-2.7656-0.46094-3.6875 0-3.6875 1.8438-6.9102 3.2266-10.598 4.6094-1.3828 0.46094-2.3047 1.3828-2.7656 2.7656l-10.598 26.266h-30.875l-10.598-26.266c-0.46094-1.3828-1.3828-2.3047-2.7656-2.7656-3.6875-1.3828-7.3711-2.7656-10.598-4.6094-1.3828-0.46094-2.7656-0.46094-3.6875 0l-26.266 11.059-21.656-21.656 11.059-26.266c0.46094-1.3828 0.46094-2.7656 0-3.6875-1.8438-3.6875-3.2266-7.3711-4.6094-10.598-0.46094-1.3828-1.3828-2.3047-2.7656-2.7656l-26.266-10.598v-30.875l26.266-10.598c1.3828-0.46094 2.3047-1.3828 2.7656-2.7656 1.3828-3.6875 2.7656-7.3711 4.6094-10.598 0.46094-1.3828 0.46094-2.7656 0-3.6875l-11.059-26.266 21.656-21.656 26.266 11.059c1.3828 0.46094 2.7656 0.46094 3.6875 0 3.6875-1.8438 7.3711-3.2266 10.598-4.6094 1.3828-0.46094 2.3047-1.3828 2.7656-2.7656l10.598-26.266h30.875l10.598 26.266c0.46094 1.3828 1.3828 2.3047 2.7656 2.7656 3.6875 1.3828 7.3711 2.7656 10.598 4.6094 1.3828 0.46094 2.7656 0.46094 3.6875 0l26.266-11.059 21.656 21.656-11.059 26.266c-0.46094 1.3828-0.46094 2.7656 0 3.6875 1.8438 3.6875 3.2266 7.3711 4.6094 10.598 0.46094 1.3828 1.3828 2.3047 2.7656 2.7656l26.266 10.598zm12.441-156.21c0 38.707-5.9922 76.953-18.434 113.36l-15.207-5.9922c-0.92188-2.7656-2.3047-5.5312-3.2266-7.832l11.52-27.188c0.92188-1.8438 0.46094-3.6875-0.92187-5.0703l-26.266-26.266c-1.3828-1.3828-3.2266-1.8438-5.0703-0.92187l-27.188 11.52c-2.7656-1.3828-5.0703-2.3047-7.832-3.2266l-11.059-27.188c-0.92188-1.8438-2.3047-2.7656-4.1484-2.7656h-36.863c-1.8438 0-3.6875 0.92188-4.1484 2.7656l-11.059 27.188c-2.7656 0.92188-5.0703 2.3047-7.832 3.2266l-27.188-11.52c-1.8438-0.92188-3.6875-0.46094-5.0703 0.92187l-26.266 26.266c-1.3828 1.3828-1.8438 3.2266-0.92188 5.0703l11.52 27.188c-1.3828 2.7656-2.3047 5.5312-3.2266 7.832l-27.188 11.059c-1.8438 0.92188-2.7656 2.3047-2.7656 4.1484v36.863c0 1.8438 0.92188 3.6875 2.7656 4.1484l27.188 11.059c0.92188 2.7656 2.3047 5.5312 3.2266 7.832l-11.52 27.188c-0.92188 1.8438-0.46094 3.6875 0.92188 5.0703l26.266 26.266c1.3828 1.3828 3.2266 1.8438 5.0703 0.92188l27.188-11.52c2.7656 1.3828 5.0703 2.3047 7.832 3.2266l9.2148 22.117-172.79 0.003906c6.9102-6.4531 11.52-15.207 11.52-25.344v-298.6-11.98h39.168v52.992h-27.648c-1.8438 0-3.2266 0.92188-4.1484 2.7656s-0.46094 3.6875 0.92188 5.0703l58.062 67.273c0.92188 0.92188 2.3047 1.3828 3.2266 1.3828 1.3828 0 2.7656-0.46094 3.2266-1.3828l58.523-67.738c1.3828-1.3828 1.3828-3.2266 0.46094-5.0703s-2.3047-2.7656-4.1484-2.7656h-27.648v-103.22c0-2.3047-1.8438-4.6094-4.6094-4.6094h-22.117l48.383-56.219 48.383 56.219h-22.117c-2.3047 0-4.6094 1.8438-4.6094 4.6094v45.621c0 2.3047 1.8438 4.6094 4.6094 4.6094h108.75c15.668 0 30.414-5.0703 42.395-13.824 8.293 30.871 12.898 62.668 12.898 94.461z"/>
  <path d="m829.48 687.55c-29.492 0-53.453 23.961-53.453 53.453 0 29.492 23.961 53.453 53.453 53.453 29.492 0 53.453-23.961 53.453-53.453 0-29.492-23.961-53.453-53.453-53.453zm0 97.688c-24.422 0-44.238-19.816-44.238-44.238s19.816-44.238 44.238-44.238 44.238 19.816 44.238 44.238c0 24.426-19.816 44.238-44.238 44.238z"/>
 </g>
</svg>
