<?xml version="1.0" encoding="UTF-8"?>
<svg width="1200pt" height="1200pt" version="1.1" viewBox="0 0 1200 1200" xmlns="http://www.w3.org/2000/svg">
 <g>
  <path d="m820.73 299.1c5.9922-5.9922 10.137-13.824 10.137-23.039 0-17.512-14.285-31.797-31.797-31.797-14.285 0-26.266 9.6758-30.414 22.578-51.605-26.262-110.13-40.086-168.65-40.086-58.52 0-117.04 13.824-169.11 40.551-3.6875-12.902-16.129-22.578-30.414-22.578-17.512 0-31.797 14.285-31.797 31.797 0 9.2148 3.6875 17.051 10.137 23.039-95.383 70.039-152.06 182.01-152.06 300.44 0 205.52 167.27 373.25 373.25 373.25 205.05 0 373.25-167.27 373.25-373.25-0.003906-118.43-56.684-230.4-152.53-300.9zm-21.199-45.617c12.441 0 22.578 10.137 22.578 22.578s-10.137 22.578-22.578 22.578-22.578-10.137-22.578-22.578 10.137-22.578 22.578-22.578zm-367.26 23.5c51.609-26.727 109.21-41.012 167.73-41.012 58.523 0 116.12 14.285 167.73 41.012 0.46094 15.668 11.98 28.57 27.188 30.414v75.109h-28.109v-12.441c0-21.656-17.512-39.168-39.168-39.168h-255.28c-21.656 0-39.168 17.512-39.168 39.168v12.441h-28.109v-75.109c15.207-2.3047 26.727-14.746 27.188-30.414zm372.33 114.74c15.207 0 27.188 11.98 27.188 27.188v74.648c0 12.441-8.293 23.039-20.273 26.266-2.3047 0.46094-4.6094 0.92188-6.9102 0.92188h-37.785v-129.02zm-129.02 338.69h99.074c35.02 0 63.59 28.57 63.59 63.59v64.973h-476.47v-64.973c0-10.598 2.7656-21.195 7.3711-29.953 11.059-20.734 32.719-33.637 56.219-33.637zm-146.54-9.2188v-56.676h141.93v56.68zm-56.68-65.895c-16.59 0-29.953-13.363-29.953-29.953v-255.28c0-16.59 13.363-29.953 29.953-29.953h255.75c16.59 0 29.953 13.363 29.953 29.953v255.75c0 16.59-13.363 29.953-29.953 29.953-32.719-0.46484-217.96-0.46484-255.75-0.46484zm-39.168-263.58v129.02h-37.785c-2.3047 0-4.6094-0.46094-6.9102-0.92188-11.98-3.2266-20.273-13.824-20.273-26.266l-0.003906-74.648c0-15.207 11.98-27.188 27.188-27.188zm-54.836-115.66c0-12.441 10.137-22.578 22.578-22.578s22.578 10.137 22.578 22.578-10.137 22.578-22.578 22.578-22.578-10.137-22.578-22.578zm-25.805 582.91h-7.832c-67.277-65.895-108.75-157.59-108.75-258.97 0-116.58 56.68-226.71 151.14-295.38 2.7656 1.3828 5.9922 2.3047 8.7539 2.7656v75.109h-0.92188c-20.273 0-36.402 16.129-36.402 36.402v74.648c0 16.59 11.059 30.875 26.727 35.02 2.7656 0.92188 5.9922 1.3828 9.6758 1.3828h37.785v95.848c0 21.656 17.512 39.168 39.168 39.168h47.922v56.68l-94.461 0.003906c-26.727 0-51.609 14.746-64.512 38.246-5.5312 10.598-8.7539 22.578-8.7539 34.559l-0.003906 64.516zm247.45 105.06c-94.465 0-181.09-36.402-245.61-95.848h2.7656 488.91c-64.973 59.445-151.61 95.848-246.07 95.848zm255.29-105.06h-7.832v-64.973c0-40.09-32.719-72.805-72.805-72.805l-94.469-0.003906v-56.676h47.922c21.656 0 39.168-17.512 39.168-39.168l0.003907-95.848h37.785c3.2266 0 6.4531-0.46094 9.2148-1.3828 16.129-4.1484 27.188-18.434 27.188-35.02v-74.191c0-20.273-16.129-36.402-36.402-36.402h-0.92188v-75.109c3.2266-0.46094 5.9922-1.3828 8.7539-2.7656 94.465 68.66 151.14 178.79 151.14 295.37 0 101.38-41.473 193.08-108.75 258.97z"/>
  <path d="m589.4 896.3c0-2.7656-1.8438-4.6094-4.6094-4.6094h-111.51c-2.7656 0-4.6094 1.8438-4.6094 4.6094s1.8438 4.6094 4.6094 4.6094h111.52c2.3008 0 4.6055-2.3047 4.6055-4.6094z"/>
  <path d="m625.8 896.3c0-2.7656-1.8438-4.6094-4.6094-4.6094h-18.434c-2.7656 0-4.6094 1.8438-4.6094 4.6094s1.8438 4.6094 4.6094 4.6094h18.434c2.3086 0 4.6094-2.3047 4.6094-4.6094z"/>
  <path d="m636.87 900.91h11.98c2.7656 0 4.6094-1.8438 4.6094-4.6094s-1.8438-4.6094-4.6094-4.6094h-11.98c-2.7656 0-4.6094 1.8438-4.6094 4.6094 0 2.3047 1.8438 4.6094 4.6094 4.6094z"/>
  <path d="m726.72 914.27h-111.52c-2.7656 0-4.6094 1.8438-4.6094 4.6094s1.8438 4.6094 4.6094 4.6094h111.52c2.7656 0 4.6094-1.8438 4.6094-4.6094-0.003906-2.7656-1.8438-4.6094-4.6094-4.6094z"/>
  <path d="m597.24 914.27h-18.434c-2.7656 0-4.6094 1.8438-4.6094 4.6094s1.8438 4.6094 4.6094 4.6094h18.434c2.7656 0 4.6094-1.8438 4.6094-4.6094-0.003906-2.7656-1.8477-4.6094-4.6094-4.6094z"/>
  <path d="m563.14 914.27h-11.98c-2.7656 0-4.6094 1.8438-4.6094 4.6094s1.8438 4.6094 4.6094 4.6094l11.98-0.003906c2.7656 0 4.6094-1.8438 4.6094-4.6094 0-2.7617-1.8438-4.6055-4.6094-4.6055z"/>
  <path d="m742.39 625.35v-255.29c0-7.832-6.4531-14.746-14.746-14.746h-255.29c-7.832 0-14.746 6.4531-14.746 14.746v255.75c0 7.832 6.4531 14.746 14.746 14.746h255.75c7.832-0.46484 14.285-6.9141 14.285-15.207zm-275.56 0v-255.29c0-2.7656 2.3047-5.5312 5.5312-5.5312h255.75c2.7656 0 5.5312 2.3047 5.5312 5.5312v255.75c0 2.7656-2.3047 5.5312-5.5312 5.5312l-255.75-0.003906c-3.2266-0.46094-5.5312-2.7656-5.5312-5.9883z"/>
  <path d="m588.02 443.33c0-29.492-23.961-53.453-53.453-53.453-29.492 0-53.453 23.961-53.453 53.453s23.961 53.453 53.453 53.453c29.492 0 53.453-23.961 53.453-53.453zm-97.688 0c0-24.422 19.816-44.238 44.238-44.238 24.422 0 44.238 19.816 44.238 44.238s-19.816 44.238-44.238 44.238c-24.426 0-44.238-19.816-44.238-44.238z"/>
  <path d="m570.05 452.55c8.293-32.719-27.188-57.141-54.375-40.551-11.059 6.9102-17.973 18.434-17.973 31.797 0 20.273 16.59 36.863 36.863 36.863 19.816-0.003906 32.258-14.285 35.484-28.109zm-35.484 18.891c-15.207 0-27.648-12.441-27.648-27.648 0-16.129 12.902-27.648 27.648-27.648 16.129 0 31.797 15.207 26.727 34.559-2.3008 9.2188-11.059 20.738-26.727 20.738z"/>
  <path d="m528.58 423.98c-8.293 0-15.207 6.9102-15.207 15.207 0 8.293 6.9102 15.207 15.207 15.207 8.293 0 15.207-6.9102 15.207-15.207-0.46094-8.7578-6.9141-15.207-15.207-15.207zm0 20.734c-3.2266 0-5.9922-2.7656-5.9922-5.9922s2.7656-5.9922 5.9922-5.9922 5.9922 2.7656 5.9922 5.9922c-0.46484 3.2266-2.7656 5.9922-5.9922 5.9922z"/>
  <path d="m674.19 531.8h-148.38c-7.3711 0-14.285 4.1484-17.512 11.059-3.2266 6.9102-2.3047 14.746 2.7656 20.273 22.117 26.727 54.375 41.934 88.934 41.934s66.816-15.207 88.934-41.934c4.6094-5.9922 5.9922-13.824 2.7656-20.273-3.2227-6.9141-10.137-11.059-17.508-11.059zm7.832 25.805c-20.273 24.422-50.227 38.707-82.023 38.707s-61.746-14.285-82.023-38.707c-2.3047-3.2266-3.2266-6.9102-1.3828-10.598s5.0703-5.9922 9.2148-5.9922h148.38c4.1484 0 7.3711 2.3047 9.2148 5.9922 1.8477 3.2227 0.92578 7.3711-1.3789 10.598z"/>
  <path d="m665.43 390.34c-29.492 0-53.453 23.961-53.453 53.453 0 29.492 23.961 53.453 53.453 53.453 29.492 0 53.453-23.961 53.453-53.453 0-29.492-23.961-53.453-53.453-53.453zm0 97.23c-24.422 0-44.238-19.816-44.238-44.238s19.816-44.238 44.238-44.238 44.238 19.816 44.238 44.238-19.812 44.238-44.238 44.238z"/>
  <path d="m646.54 412c-11.059 6.9102-17.973 18.434-17.973 31.797 0 20.273 16.59 36.863 36.863 36.863 19.816 0 32.258-13.824 35.48-27.648 8.7578-33.18-26.723-57.602-54.371-41.012zm45.617 38.246c-2.3047 9.6758-11.059 20.734-26.727 20.734-15.207 0-27.648-12.441-27.648-27.648 0-16.129 13.363-27.648 27.648-27.648 16.59 0 31.797 15.207 26.727 34.562z"/>
  <path d="m659.45 423.98c-8.293 0-15.207 6.9102-15.207 15.207 0 8.293 6.9102 15.207 15.207 15.207 8.293 0 15.207-6.9102 15.207-15.207-0.46094-8.7578-6.9141-15.207-15.207-15.207zm0 20.734c-3.2266 0-5.9922-2.7656-5.9922-5.9922s2.7656-5.9922 5.9922-5.9922c3.2266 0 5.9922 2.7656 5.9922 5.9922-0.46094 3.2266-2.7656 5.9922-5.9922 5.9922z"/>
 </g>
</svg>
