<?xml version="1.0" encoding="UTF-8"?>
<svg width="1200pt" height="1200pt" version="1.1" viewBox="0 0 1200 1200" xmlns="http://www.w3.org/2000/svg">
 <g>
  <path d="m973.25 600c0-57.602-12.902-113.36-38.246-164.51v-117.96c0-26.266-76.031-40.551-148.84-41.012-56.215-32.719-120.73-49.766-186.16-49.766s-129.95 17.047-186.16 49.766c-72.809 0.46094-148.84 14.746-148.84 41.012v117.96c-25.344 51.148-38.246 106.91-38.246 164.5 0 205.52 167.27 373.25 373.25 373.25 205.05 0 373.25-167.27 373.25-373.25zm-9.2148 0c0 101.38-41.473 193.07-108.75 258.97h-157.13c30.875-6.9102 52.531-17.512 52.531-31.336v-158.97c0-26.266-74.648-40.551-146.54-41.012v-21.656c16.59-2.3047 29.031-16.129 29.031-33.176 0-1.8438 0-4.1484-0.46094-5.9922l152.07-48.844c72.805 0 150.22-14.285 150.22-41.012l-0.003906-19.816c19.355 45.16 29.031 93.082 29.031 142.85zm-382 258.97c-76.953-2.3047-123.5-19.355-123.5-31.336v-64.512c22.578 16.59 83.406 25.805 141.46 25.805 58.062 0 118.89-9.2148 141.46-26.266v64.512c0 12.441-46.539 29.031-123.5 31.336h-35.938zm17.969-310.58c13.363 0 24.422 11.059 24.422 24.422s-11.059 24.422-24.422 24.422-24.422-11.059-24.422-24.422c0-13.82 11.059-24.422 24.422-24.422zm-0.46094 88.477c0.46094 0 0.46094 0 0 0 0.46094 0 0.46094 0 0 0 88.012 0 141.93 18.434 141.93 31.797 0 13.363-53.914 31.797-141.46 31.797s-141.46-18.434-141.46-31.797c0-13.367 53.453-31.797 141-31.797zm-141 46.539c30.875 22.578 113.36 26.727 151.14 25.805 33.176-0.46094 105.06-5.9922 131.79-25.805v64.512c0 13.363-53.914 31.797-141.46 31.797-87.551 0-141.46-18.434-141.46-31.797zm467.25-351.13v64.512c0 13.363-53.914 31.797-141.46 31.797s-141.46-18.434-141.46-31.797v-64.512c41.93 31.793 234.54 36.402 282.93 0zm-283.39 79.719c22.578 17.051 83.406 26.266 141.46 26.266 35.941 0 113.36-4.6094 141.46-26.266v64.512c0 13.363-53.914 31.797-141.46 31.797s-141.46-18.434-141.46-31.797zm283.39-94.465c0 13.363-53.914 31.797-141.46 31.797s-141.46-18.434-141.46-31.797 53.914-31.797 141.46-31.797h0.92188c87.09 0 140.54 18.434 140.54 31.797zm-158.52-40.551c-67.738 1.8438-134.09 16.129-134.09 40.551v159.44c0 23.5 59.445 37.324 123.5 40.551l-126.72 41.012c-5.5312-11.059-17.051-18.895-29.953-18.895-13.363 0-24.883 7.832-29.953 18.895l-127.18-41.473c64.051-3.2266 123.5-17.051 123.5-40.551v-158.98c0-24.422-66.355-38.707-134.09-40.551 51.609-26.727 109.21-41.012 167.73-41.012 58.523 0 116.12 14.285 167.27 41.012zm-209.66 55.297v64.512c0 13.363-53.914 31.797-141.46 31.797-71.887 0-141.46-15.668-141.46-31.797v-64.512c41.93 31.793 234.54 36.402 282.93 0zm-283.39 79.719c1.3828 1.3828 3.2266 2.3047 5.5312 3.6875 0.46094 0.46094 1.3828 0.92188 1.8438 0.92188 26.727 14.285 81.562 21.656 134.09 21.656 58.062 0 118.89-9.2148 141.46-26.266v64.512c0 13.363-53.914 31.797-141.46 31.797-87.551 0-141.46-18.434-141.46-31.797-0.003906-43.777-0.003906-16.59-0.003906-64.512zm141.46-126.26c87.551 0 141.46 18.434 141.46 31.797s-53.914 31.797-141.46 31.797c-87.551 0-141.46-18.434-141.46-31.797s53.914-31.797 141.46-31.797zm-179.71 314.27c0-49.766 9.6758-97.691 29.031-142.85v19.355c0 26.727 76.953 41.012 150.22 41.012l152.07 49.305c-0.46094 1.8438-0.46094 3.6875-0.46094 5.5312 0 16.59 12.441 30.875 28.57 33.176l-0.003907 22.117c-71.887 0.46094-146.07 14.746-146.07 41.012v159.44c0 13.824 21.656 24.422 52.531 31.336h-157.13c-67.277-66.355-108.75-158.05-108.75-259.43zm118.43 268.19h228.56c5.5312 0 11.52 0.46094 17.051 0.46094s11.52 0 17.051-0.46094h228.56c-64.516 59.445-151.15 95.848-245.61 95.848-94.461 0-181.09-36.402-245.61-95.848z"/>
  <path d="m589.4 896.3c0-2.7656-1.8438-4.6094-4.6094-4.6094h-111.51c-2.7656 0-4.6094 1.8438-4.6094 4.6094s1.8438 4.6094 4.6094 4.6094h111.52c2.3008 0 4.6055-2.3047 4.6055-4.6094z"/>
  <path d="m625.8 896.3c0-2.7656-1.8438-4.6094-4.6094-4.6094h-18.434c-2.7656 0-4.6094 1.8438-4.6094 4.6094s1.8438 4.6094 4.6094 4.6094h18.434c2.3086 0 4.6094-2.3047 4.6094-4.6094z"/>
  <path d="m636.87 900.91h11.98c2.7656 0 4.6094-1.8438 4.6094-4.6094s-1.8438-4.6094-4.6094-4.6094h-11.98c-2.7656 0-4.6094 1.8438-4.6094 4.6094 0 2.3047 1.8438 4.6094 4.6094 4.6094z"/>
  <path d="m726.72 914.27h-111.52c-2.7656 0-4.6094 1.8438-4.6094 4.6094s1.8438 4.6094 4.6094 4.6094h111.52c2.7656 0 4.6094-1.8438 4.6094-4.6094-0.003906-2.7656-1.8438-4.6094-4.6094-4.6094z"/>
  <path d="m597.24 914.27h-18.434c-2.7656 0-4.6094 1.8438-4.6094 4.6094s1.8438 4.6094 4.6094 4.6094h18.434c2.7656 0 4.6094-1.8438 4.6094-4.6094-0.003906-2.7656-1.8477-4.6094-4.6094-4.6094z"/>
  <path d="m563.14 914.27h-11.98c-2.7656 0-4.6094 1.8438-4.6094 4.6094s1.8438 4.6094 4.6094 4.6094l11.98-0.003906c2.7656 0 4.6094-1.8438 4.6094-4.6094 0-2.7617-1.8438-4.6055-4.6094-4.6055z"/>
  <path d="m523.05 761.28c11.059 0 20.273-9.2148 20.273-20.273 0-11.059-9.2148-20.273-20.273-20.273s-20.273 9.2148-20.273 20.273c0 11.059 9.2148 20.273 20.273 20.273zm0-31.332c5.9922 0 11.059 5.0703 11.059 11.059 0 5.9922-5.0703 11.059-11.059 11.059-5.9922 0-11.059-5.0703-11.059-11.059 0-5.9922 5.0703-11.059 11.059-11.059z"/>
  <path d="m600 768.2c11.059 0 20.273-9.2148 20.273-20.273s-9.2148-20.273-20.273-20.273-20.273 9.2148-20.273 20.273c0 11.055 9.2148 20.273 20.273 20.273zm0-31.336c5.9922 0 11.059 5.0703 11.059 11.059 0 5.9922-5.0703 11.059-11.059 11.059-5.9922 0-11.059-5.0703-11.059-11.059s5.0703-11.059 11.059-11.059z"/>
  <path d="m676.96 761.28c11.059 0 20.273-9.2148 20.273-20.273 0-11.059-9.2148-20.273-20.273-20.273-11.059 0-20.273 9.2148-20.273 20.273-0.46484 11.059 8.75 20.273 20.273 20.273zm0-31.332c5.9922 0 11.059 5.0703 11.059 11.059 0 5.9922-5.0703 11.059-11.059 11.059-5.9922 0-11.059-5.0703-11.059-11.059-0.46484-5.9922 4.6055-11.059 11.059-11.059z"/>
  <path d="m523.05 799.99c-11.059 0-20.273 9.2148-20.273 20.273 0 11.059 9.2148 20.273 20.273 20.273s20.273-9.2148 20.273-20.273c0.003907-11.055-8.7539-20.273-20.273-20.273zm0 31.797c-5.9922 0-11.059-5.0703-11.059-11.059 0-5.9922 5.0703-11.059 11.059-11.059 5.9922 0 11.059 5.0703 11.059 11.059 0 5.9883-4.6055 11.059-11.059 11.059z"/>
  <path d="m600 806.9c-11.059 0-20.273 9.2148-20.273 20.273 0 11.059 9.2148 20.273 20.273 20.273s20.273-9.2148 20.273-20.273c0.003906-11.059-9.2109-20.273-20.273-20.273zm0 31.793c-5.9922 0-11.059-5.0703-11.059-11.059 0-5.9922 5.0703-11.059 11.059-11.059 5.9922 0 11.059 5.0703 11.059 11.059 0.003906 5.9922-5.0664 11.059-11.059 11.059z"/>
  <path d="m676.96 799.99c-11.059 0-20.273 9.2148-20.273 20.273 0 11.059 9.2148 20.273 20.273 20.273 11.059 0 20.273-9.2148 20.273-20.273 0-11.055-9.2148-20.273-20.273-20.273zm0 31.797c-5.9922 0-11.059-5.0703-11.059-11.059 0-5.9922 5.0703-11.059 11.059-11.059 5.9922 0 11.059 5.0703 11.059 11.059 0 5.9883-5.0703 11.059-11.059 11.059z"/>
  <path d="m707.37 410.15c11.059 0 20.273-9.2148 20.273-20.273s-9.2148-20.273-20.273-20.273c-11.059 0-20.273 9.2148-20.273 20.273 0 11.516 9.2148 20.273 20.273 20.273zm0-31.336c5.9922 0 11.059 5.0703 11.059 11.059 0 5.9922-5.0703 11.059-11.059 11.059-5.9922 0-11.059-5.0703-11.059-11.059s5.0703-11.059 11.059-11.059z"/>
  <path d="m784.32 417.52c11.059 0 20.273-9.2148 20.273-20.273s-9.2148-20.273-20.273-20.273c-11.059 0-20.273 9.2148-20.273 20.273-0.46094 11.059 8.7539 20.273 20.273 20.273zm0-31.793c5.9922 0 11.059 5.0703 11.059 11.059 0 5.9922-5.0703 11.059-11.059 11.059-5.9922 0-11.059-5.0703-11.059-11.059-0.46094-5.9922 4.6094-11.059 11.059-11.059z"/>
  <path d="m860.82 410.15c11.059 0 20.273-9.2148 20.273-20.273s-9.2148-20.273-20.273-20.273-20.273 9.2148-20.273 20.273c-0.003907 11.516 9.2148 20.273 20.273 20.273zm0-31.336c5.9922 0 11.059 5.0703 11.059 11.059 0 5.9922-5.0703 11.059-11.059 11.059-5.9922 0-11.059-5.0703-11.059-11.059s5.0664-11.059 11.059-11.059z"/>
  <path d="m707.37 489.87c11.059 0 20.273-9.2148 20.273-20.273s-9.2148-20.273-20.273-20.273c-11.059 0-20.273 9.2148-20.273 20.273 0 11.055 9.2148 20.273 20.273 20.273zm0-31.336c5.9922 0 11.059 5.0703 11.059 11.059 0 5.9922-5.0703 11.059-11.059 11.059-5.9922 0-11.059-5.0703-11.059-11.059 0-6.4492 5.0703-11.059 11.059-11.059z"/>
  <path d="m784.32 496.78c11.059 0 20.273-9.2148 20.273-20.273 0-11.059-9.2148-20.273-20.273-20.273-11.059 0-20.273 9.2148-20.273 20.273-0.46094 11.059 8.7539 20.273 20.273 20.273zm0-31.332c5.9922 0 11.059 5.0703 11.059 11.059 0 5.9922-5.0703 11.059-11.059 11.059-5.9922 0-11.059-5.0703-11.059-11.059-0.46094-5.9922 4.6094-11.059 11.059-11.059z"/>
  <path d="m860.82 489.87c11.059 0 20.273-9.2148 20.273-20.273s-9.2148-20.273-20.273-20.273-20.273 9.2148-20.273 20.273c-0.003907 11.055 9.2148 20.273 20.273 20.273zm0-31.336c5.9922 0 11.059 5.0703 11.059 11.059 0 5.9922-5.0703 11.059-11.059 11.059-5.9922 0-11.059-5.0703-11.059-11.059 0-6.4492 5.0664-11.059 11.059-11.059z"/>
  <path d="m338.73 410.15c11.059 0 20.273-9.2148 20.273-20.273s-9.2148-20.273-20.273-20.273c-11.059 0-20.273 9.2148-20.273 20.273 0 11.516 9.2148 20.273 20.273 20.273zm0-31.336c5.9922 0 11.059 5.0703 11.059 11.059 0 5.9922-5.0703 11.059-11.059 11.059-5.9922 0-11.059-5.0703-11.059-11.059s5.0703-11.059 11.059-11.059z"/>
  <path d="m415.68 417.52c11.059 0 20.273-9.2148 20.273-20.273s-9.2148-20.273-20.273-20.273c-11.059 0-20.273 9.2148-20.273 20.273s9.2148 20.273 20.273 20.273zm0-31.793c5.9922 0 11.059 5.0703 11.059 11.059 0 5.9922-5.0703 11.059-11.059 11.059-5.9922 0-11.059-5.0703-11.059-11.059 0-5.9922 5.0703-11.059 11.059-11.059z"/>
  <path d="m492.64 410.15c11.059 0 20.273-9.2148 20.273-20.273s-9.2148-20.273-20.273-20.273c-11.059 0-20.273 9.2148-20.273 20.273-0.003906 11.516 9.2109 20.273 20.273 20.273zm0-31.336c5.9922 0 11.059 5.0703 11.059 11.059 0 5.9922-5.0703 11.059-11.059 11.059-5.9922 0-11.059-5.0703-11.059-11.059-0.003906-5.9883 5.0664-11.059 11.059-11.059z"/>
  <path d="m338.73 489.87c11.059 0 20.273-9.2148 20.273-20.273s-9.2148-20.273-20.273-20.273c-11.059 0-20.273 9.2148-20.273 20.273 0 11.055 9.2148 20.273 20.273 20.273zm0-31.336c5.9922 0 11.059 5.0703 11.059 11.059 0 5.9922-5.0703 11.059-11.059 11.059-5.9922 0-11.059-5.0703-11.059-11.059 0-6.4492 5.0703-11.059 11.059-11.059z"/>
  <path d="m415.68 496.78c11.059 0 20.273-9.2148 20.273-20.273 0-11.059-9.2148-20.273-20.273-20.273-11.059 0-20.273 9.2148-20.273 20.273 0 11.059 9.2148 20.273 20.273 20.273zm0-31.332c5.9922 0 11.059 5.0703 11.059 11.059 0 5.9922-5.0703 11.059-11.059 11.059-5.9922 0-11.059-5.0703-11.059-11.059 0-5.9922 5.0703-11.059 11.059-11.059z"/>
  <path d="m492.64 489.87c11.059 0 20.273-9.2148 20.273-20.273s-9.2148-20.273-20.273-20.273c-11.059 0-20.273 9.2148-20.273 20.273-0.003906 11.055 9.2109 20.273 20.273 20.273zm0-31.336c5.9922 0 11.059 5.0703 11.059 11.059 0 5.9922-5.0703 11.059-11.059 11.059-5.9922 0-11.059-5.0703-11.059-11.059-0.003906-6.4492 5.0664-11.059 11.059-11.059z"/>
 </g>
</svg>
