<?xml version="1.0" encoding="UTF-8"?>
<svg width="1200pt" height="1200pt" version="1.1" viewBox="0 0 1200 1200" xmlns="http://www.w3.org/2000/svg">
 <g>
  <path d="m589.4 896.3c0-2.7656-1.8438-4.6094-4.6094-4.6094h-111.51c-2.7656 0-4.6094 1.8438-4.6094 4.6094s1.8438 4.6094 4.6094 4.6094h111.52c2.3008 0 4.6055-2.3047 4.6055-4.6094z"/>
  <path d="m625.8 896.3c0-2.7656-1.8438-4.6094-4.6094-4.6094h-18.434c-2.7656 0-4.6094 1.8438-4.6094 4.6094s1.8438 4.6094 4.6094 4.6094h18.434c2.3086 0 4.6094-2.3047 4.6094-4.6094z"/>
  <path d="m636.87 900.91h11.98c2.7656 0 4.6094-1.8438 4.6094-4.6094s-1.8438-4.6094-4.6094-4.6094h-11.98c-2.7656 0-4.6094 1.8438-4.6094 4.6094 0 2.3047 1.8438 4.6094 4.6094 4.6094z"/>
  <path d="m610.6 918.88c0 2.7656 1.8438 4.6094 4.6094 4.6094h111.52c2.7656 0 4.6094-1.8438 4.6094-4.6094s-1.8438-4.6094-4.6094-4.6094l-111.52 0.003906c-2.3047 0-4.6055 1.8438-4.6055 4.6055z"/>
  <path d="m597.24 914.27h-18.434c-2.7656 0-4.6094 1.8438-4.6094 4.6094s1.8438 4.6094 4.6094 4.6094h18.434c2.7656 0 4.6094-1.8438 4.6094-4.6094-0.003906-2.7656-1.8477-4.6094-4.6094-4.6094z"/>
  <path d="m563.14 914.27h-11.98c-2.7656 0-4.6094 1.8438-4.6094 4.6094s1.8438 4.6094 4.6094 4.6094l11.98-0.003906c2.7656 0 4.6094-1.8438 4.6094-4.6094 0-2.7617-1.8438-4.6055-4.6094-4.6055z"/>
  <path d="m925.33 416.6v-67.738c0-31.797-25.805-57.602-57.602-57.602-2.7656 0-4.6094 1.8438-4.6094 4.6094v39.168c-70.5-69.578-163.58-108.29-263.12-108.29-56.676 0-111.05 12.441-161.74 36.863h-42.395c-24.883 0-45.16 20.273-45.16 45.16v13.363c-78.797 70.961-123.95 171.88-123.95 277.86 0 205.52 167.27 373.25 373.25 373.25 205.98 0 373.25-168.19 373.25-373.25-0.003906-64.051-16.594-127.64-47.926-183.4zm-52.992-115.66c24.422 2.3047 43.777 23.039 43.777 47.922v311.04c-9.6758-14.746-25.344-24.883-43.777-26.266zm-4.6094 341.45c26.727 0 48.383 21.656 48.383 48.383 0 26.727-21.656 48.383-48.383 48.383l-435 0.003906v-385.69h430.39v284.32c0.003906 2.7617 1.8438 4.6055 4.6094 4.6055zm-439.61 105.98h229.02v23.039h-256.66v-450.2h256.67v23.039h-229.02c-2.7656 0-4.6094 1.8438-4.6094 4.6094v394.91c0.003906 2.7617 2.3086 4.6055 4.6094 4.6055zm171.88-512.41c98.613 0 189.85 38.246 258.97 108.29h-151.61v-35.48c0-24.883-20.273-45.16-45.16-45.16h-201.36c43.777-18.434 90.777-27.648 139.16-27.648zm-240.07 72.805c0-19.816 16.129-35.941 35.941-35.941h265.88c19.816 0 35.941 16.129 35.941 35.941v35.48h-31.797v-27.648c0-2.7656-1.8438-4.6094-4.6094-4.6094l-265.42 0.003906c-2.7656 0-4.6094 1.8438-4.6094 4.6094v459.42c0 2.7656 1.8438 4.6094 4.6094 4.6094h265.88c2.7656 0 4.6094-1.8438 4.6094-4.6094v-27.648h31.797v74.648c0 19.816-16.129 35.941-35.941 35.941l-266.81 0.003906c-19.816 0-35.941-16.129-35.941-35.941v-514.26zm-123.96 291.23c0-100.45 41.473-196.3 114.74-264.96v487.99c0 14.746 6.9102 27.648 17.973 35.941h-23.961c-67.277-65.891-108.75-157.59-108.75-258.97zm364.03 364.04c-94.465 0-181.09-36.402-245.61-95.848h491.68c-64.973 59.445-151.61 95.848-246.07 95.848zm255.29-105.06h-166.35c11.059-8.293 17.973-21.195 17.973-35.941v-74.648h160.36c31.797 0 57.602-25.805 57.602-57.602l-0.003906-254.36c25.344 50.688 38.707 106.45 38.707 163.59 0.46094 101.38-41.012 193.07-108.29 258.97z"/>
  <path d="m483.88 296.79h89.855c2.7656 0 4.6094-1.8438 4.6094-4.6094s-1.8438-4.6094-4.6094-4.6094l-89.855 0.003906c-2.7656 0-4.6094 1.8438-4.6094 4.6094 0.003907 2.7617 2.3047 4.6055 4.6094 4.6055z"/>
  <path d="m507.84 846.53h42.395c15.207 0 27.188-12.441 27.188-27.188 0-15.207-12.441-27.188-27.188-27.188h-42.395c-15.207 0-27.648 12.441-27.648 27.188 0 15.207 12.445 27.188 27.648 27.188zm0-45.621h42.395c10.137 0 17.973 8.293 17.973 17.973 0 10.137-8.293 17.973-17.973 17.973h-42.395c-10.137 0-18.434-8.293-18.434-17.973 0.003906-9.6758 8.2969-17.973 18.434-17.973z"/>
  <path d="m818.88 475.59h-30.875v-36.863c0-1.3828-0.46094-2.3047-1.3828-3.2266l-31.336-31.336c2.7656-5.9922 2.3047-12.902-2.7656-17.973-5.9922-5.9922-15.668-5.9922-21.656 0-5.9922 5.9922-5.9922 15.668 0 21.656 3.2266 3.2266 6.9102 4.6094 11.059 4.6094 2.3047 0 5.0703-0.46094 7.3711-1.8438l29.953 29.953 0.003906 35.023h-54.836v-36.863c0-1.3828-0.46094-2.3047-1.3828-3.2266l-31.336-31.336c0.92188-2.3047 1.8438-4.6094 1.8438-6.9102 0-4.1484-1.3828-7.832-4.6094-11.059-5.9922-5.9922-15.668-5.9922-21.656 0-2.7656 2.7656-4.6094 6.9102-4.6094 11.059s1.3828 7.832 4.6094 11.059c3.2266 3.2266 6.9102 4.6094 11.059 4.6094 2.3047 0 5.0703-0.46094 7.3711-1.8438l29.953 29.953 0.003906 34.559h-54.836v-36.863c0-1.3828-0.46094-2.3047-1.3828-3.2266l-31.336-31.336c0.92188-2.3047 1.8438-4.6094 1.8438-6.9102 0-4.1484-1.3828-7.832-4.6094-11.059-5.9922-5.9922-15.668-5.9922-21.656 0-5.9922 5.9922-5.9922 15.668 0 21.656 3.2266 3.2266 6.9102 4.6094 11.059 4.6094 2.3047 0 5.0703-0.46094 7.3711-1.8438l29.953 29.953v35.02h-54.371v-36.863c0-1.3828-0.46094-2.3047-1.3828-3.2266l-31.336-31.336c2.7656-5.9922 2.3047-12.902-2.7656-17.973-5.9922-5.9922-15.668-5.9922-21.656 0-2.7656 2.7656-4.6094 6.9102-4.6094 11.059 0 4.1484 1.3828 7.832 4.6094 11.059 3.2266 3.2266 6.9102 4.6094 11.059 4.6094 2.3047 0 5.0703-0.46094 7.3711-1.8438l29.953 29.953v34.562h-58.52c-2.7656 0-4.6094 1.8438-4.6094 4.6094v29.953l-17.973-0.003907-29.949-29.953c1.3828-2.3047 1.8438-4.6094 1.8438-7.3711 0-4.1484-1.3828-7.832-4.6094-11.059-5.9922-5.9922-16.129-5.9922-21.656 0-2.7656 2.7656-4.6094 6.9102-4.6094 11.059 0 4.1484 1.3828 7.832 4.6094 11.059 3.2266 3.2266 6.9102 4.6094 11.059 4.6094 2.3047 0 4.6094-0.46094 6.9102-1.8438l31.336 31.336c0.92187 0.92188 1.8438 1.3828 3.2266 1.3828h19.816v22.117h-47.004c-0.92188-2.3047-1.8438-4.6094-3.6875-6.4531-5.9922-5.9922-15.668-5.9922-21.656 0-2.7656 2.7656-4.6094 6.9102-4.6094 11.059 0 4.1484 1.3828 7.832 4.6094 11.059 3.2266 3.2266 6.9102 4.6094 11.059 4.6094 4.1484 0 7.832-1.3828 11.059-4.6094 1.8438-1.8438 3.2266-4.1484 3.6875-6.4531h47v22.117h-19.816c-1.3828 0-2.3047 0.46094-3.2266 1.3828l-32.254 31.801c-5.9922-2.7656-12.902-2.3047-17.973 2.7656-2.7656 2.7656-4.6094 6.9102-4.6094 11.059 0 4.1484 1.3828 7.832 4.6094 11.059 3.2266 3.2266 6.9102 4.6094 11.059 4.6094s7.832-1.3828 11.059-4.6094c2.7656-2.7656 4.6094-6.9102 4.6094-11.059 0-2.7656-0.92188-5.0703-1.8438-7.3711l29.953-29.953h17.973v29.953c0 2.7656 1.8438 4.6094 4.6094 4.6094h58.062v35.02l-29.953 29.949c-5.9922-3.2266-13.363-2.3047-17.973 2.7656-2.7656 2.7656-4.6094 6.9102-4.6094 11.059 0 4.1484 1.3828 7.832 4.6094 11.059 3.2266 3.2266 6.9102 4.6094 11.059 4.6094 4.1484 0 7.832-1.3828 11.059-4.6094 5.0703-5.0703 5.5312-11.98 2.7656-17.973l31.336-31.336c0.92188-0.92188 1.3828-1.8438 1.3828-3.2266v-36.863h54.375v35.02l-29.953 29.953c-5.9922-3.2266-13.363-2.3047-17.973 2.7656-5.9922 5.9922-5.9922 15.668 0 21.656 3.2266 3.2266 6.9102 4.6094 11.059 4.6094 4.1484 0 7.832-1.3828 11.059-4.6094 2.7656-2.7656 4.6094-6.9102 4.6094-11.059 0-2.3047-0.46094-5.0703-1.8438-6.9102l31.336-31.336c0.92188-0.92188 1.3828-1.8438 1.3828-3.2266v-36.863l52.992 0.003907v35.02l-29.953 29.953c-5.9922-3.2266-13.363-2.3047-17.973 2.7656-2.7656 2.7656-4.6094 6.9102-4.6094 11.059 0 4.1484 1.3828 7.832 4.6094 11.059 3.2266 3.2266 6.9102 4.6094 11.059 4.6094 4.1484 0 7.832-1.3828 11.059-4.6094 2.7656-2.7656 4.6094-6.9102 4.6094-11.059 0-2.3047-0.46094-5.0703-1.8438-6.9102l31.336-31.336c0.92188-0.92188 1.3828-1.8438 1.3828-3.2266v-36.863h54.375v35.02l-29.953 29.953c-5.9922-3.2266-13.363-2.3047-17.973 2.7656-5.9922 5.9922-5.9922 15.668 0 21.656 3.2266 3.2266 6.9102 4.6094 11.059 4.6094 4.1484 0 7.832-1.3828 11.059-4.6094 5.0703-5.0703 5.5312-11.98 2.7656-17.973l31.336-31.336c0.92188-0.92188 1.3828-1.8438 1.3828-3.2266v-36.863h30.875c2.7656 0 4.6094-1.8438 4.6094-4.6094l-0.003906-133.17c-0.91797-2.3008-3.2227-4.6055-5.5273-4.6055zm-73.27-73.73c-2.3047 2.3047-6.4531 2.3047-8.7539 0-2.3047-2.3047-2.3047-6.4531 0-8.7539 1.3828-1.3828 2.7656-1.8438 4.6094-1.8438 1.3828 0 3.2266 0.46094 4.6094 1.8438 2.3008 2.3047 2.3008 6.4531-0.46484 8.7539zm-63.129 0c-2.3047 2.3047-6.4531 2.3047-8.7539 0-1.3828-1.3828-1.8438-2.7656-1.8438-4.6094s0.46094-3.2266 1.8438-4.6094c1.3828-1.3828 2.7656-1.8438 4.6094-1.8438s3.2266 0.46094 4.6094 1.8438c1.3828 1.3828 1.8438 2.7656 1.8438 4.6094-0.46484 1.8477-1.3867 3.2305-2.3086 4.6094zm-63.59 0c-2.3047 2.3047-6.4531 2.3047-8.7539 0-2.3047-2.3047-2.3047-6.4531 0-8.7539 1.3828-1.3828 2.7656-1.8438 4.6094-1.8438 1.3828 0 3.2266 0.46094 4.6094 1.8438 1.3828 1.3828 1.8438 2.7656 1.8438 4.6094-0.46484 1.3828-0.92578 2.7656-2.3086 4.1445zm-63.129 0c-2.3047 2.3047-6.4531 2.3047-8.7539 0-1.3828-1.3828-1.8438-2.7656-1.8438-4.6094s0.46094-3.2266 1.8438-4.6094c1.3828-1.3828 2.7656-1.8438 4.6094-1.8438 1.3828 0 3.2266 0.46094 4.6094 1.8438 1.8398 2.7695 1.8398 6.918-0.46484 9.2188zm-87.094 75.574c-2.3047 2.3047-6.4531 2.3047-8.7539 0-1.3828-1.3828-1.8438-2.7656-1.8438-4.6094s0.46094-3.2266 1.8438-4.6094c1.3828-1.3828 2.7656-1.8438 4.6094-1.8438s3.2266 0.46094 4.6094 1.8438c1.3828 1.3828 1.8438 2.7656 1.8438 4.6094-0.46484 1.8438-1.3867 3.6875-2.3086 4.6094zm0 73.266c-2.3047 2.3047-6.4531 2.3047-8.7539 0-1.3828-1.3828-1.8438-2.7656-1.8438-4.6094s0.46094-3.2266 1.8438-4.6094c1.3828-1.3828 2.7656-1.8438 4.6094-1.8438 1.3828 0 3.2266 0.46094 4.6094 1.8438 1.3828 1.3828 1.8438 2.7656 1.8438 4.6094-0.46484 1.8438-1.3867 3.6875-2.3086 4.6094zm0 73.27c-2.3047 2.3047-6.4531 2.3047-8.7539 0-1.3828-1.3828-1.8438-2.7656-1.8438-4.6094s0.46094-3.2266 1.8438-4.6094c1.3828-1.3828 2.7656-1.8438 4.6094-1.8438 1.3828 0 3.2266 0.46094 4.6094 1.8438 1.3828 1.3828 1.8438 2.7656 1.8438 4.6094-0.46484 1.8438-1.3867 3.6875-2.3086 4.6094zm87.094 76.031c-2.3047 2.3047-6.4531 2.3047-8.7539 0-1.3828-1.3828-1.8438-2.7656-1.8438-4.6094s0.46094-3.2266 1.8438-4.6094c1.3828-1.3828 2.7656-1.8438 4.6094-1.8438 1.3828 0 3.2266 0.46094 4.6094 1.8438 1.8398 2.7656 1.8398 6.4531-0.46484 9.2188zm63.129 0c-2.3047 2.3047-6.4531 2.3047-8.7539 0-2.3047-2.3047-2.3047-6.4531 0-8.7539 1.3828-1.3828 2.7656-1.8438 4.6094-1.8438 1.3828 0 3.2266 0.46094 4.6094 1.8438 1.3828 1.3828 1.8438 2.7656 1.8438 4.6094-0.46484 1.3789-0.92578 2.7617-2.3086 4.1445zm63.59 0c-2.3047 2.3047-6.4531 2.3047-8.7539 0-1.3828-1.3828-1.8438-2.7656-1.8438-4.6094s0.46094-3.2266 1.8438-4.6094c1.3828-1.3828 2.7656-1.8438 4.6094-1.8438s3.2266 0.46094 4.6094 1.8438c1.3828 1.3828 1.8438 2.7656 1.8438 4.6094-0.46484 1.8438-1.3867 3.2266-2.3086 4.6094zm63.129 0c-2.3047 2.3047-6.4531 2.3047-8.7539 0-2.3047-2.3047-2.3047-6.4531 0-8.7539 1.3828-1.3828 2.7656-1.8438 4.6094-1.8438 1.3828 0 3.2266 0.46094 4.6094 1.8438 2.3008 2.3008 2.3008 5.9883-0.46484 8.7539zm68.66-92.16h-279.25v-123.04h279.25z"/>
  <path d="m600.46 569.13h41.473l8.293 18.895h14.746l-36.402-82.945h-14.746l-36.402 82.945h14.746zm20.738-47.004 15.207 34.098h-29.953z"/>
  <path d="m690.78 563.6h14.746c11.98 0 21.195-2.3047 27.188-6.9102 5.9922-4.6094 8.7539-11.98 8.7539-22.117 0-10.137-2.7656-17.512-8.7539-22.117-5.9922-4.6094-14.746-7.3711-27.648-7.3711h-28.57v82.945h13.824v-24.43zm0-46.078h14.285c7.3711 0 13.363 1.3828 16.59 3.6875 3.6875 2.3047 5.5312 6.4531 5.5312 11.98 0 5.5312-1.3828 10.137-4.1484 12.902-2.7656 2.7656-8.293 4.6094-15.668 4.6094h-16.129v-33.18z"/>
  <path d="m757.6 505.08h13.824v82.945h-13.824z"/>
 </g>
</svg>
