<?xml version="1.0" encoding="UTF-8"?>
<svg width="1200pt" height="1200pt" version="1.1" viewBox="0 0 1200 1200" xmlns="http://www.w3.org/2000/svg">
 <g>
  <path d="m973.25 600c0-50.227-9.6758-99.074-29.492-145.15v-58.98c0-16.59-13.363-29.953-29.953-29.953h-23.5c-21.656-27.188-47.461-50.688-75.57-70.965-5.0703-8.7539-14.285-14.746-24.422-15.668-57.602-34.559-123.04-52.527-190.31-52.527-57.137 0-111.97 12.441-162.66 37.324-0.92188-2.3047-1.3828-4.6094-1.3828-6.9102 0-11.523 9.6758-21.199 21.195-21.199h17.973c2.7656 0 4.6094-1.8438 4.6094-4.6094s-1.8438-4.6094-4.6094-4.6094l-17.973 0.003906c-17.051 0-30.414 13.824-30.414 30.414 0 3.6875 0.92188 7.3711 2.3047 11.059-45.617 23.5-87.09 57.137-119.35 97.227h-23.5c-16.59 0-29.953 13.363-29.953 29.953v59.445c-19.812 46.078-29.488 94.922-29.488 145.15 0 205.05 166.81 373.25 373.25 373.25 205.98 0 373.25-168.19 373.25-373.25zm-9.2148 0c0 101.38-41.473 193.07-108.75 258.97l-1.8438 0.003906v-28.57c13.363-5.5312 22.117-18.895 22.117-33.637l0.003906-114.28h38.246c16.59 0 29.953-13.363 29.953-29.953l-0.003907-171.88c13.363 38.25 20.277 78.34 20.277 119.35zm-476.01 258.97v-22.117l81.562-63.59 0.46094-0.46094c4.6094-4.6094 7.3711-11.52 7.3711-18.434v-71.887h45.621v72.348c0 6.9102 2.7656 13.363 7.3711 18.434l0.46094 0.46094 81.562 63.59v22.117h-224.41zm-132.25 0v-31.797c0-1.8438-1.3828-3.6875-3.2266-4.6094-11.52-3.6875-18.895-13.824-18.895-25.805l0.003906-114.28h181.55v72.348c0 1.8438 0.92188 3.2266 2.7656 4.1484 1.3828 0.92188 3.2266 0.46094 4.6094-0.46094l18.895-14.285c1.3828-0.92188 1.8438-2.3047 1.8438-3.6875v-29.031c0-14.746 10.598-26.727 24.883-29.031v71.887c0 4.1484-1.8438 8.293-4.6094 11.52l-82.945 64.973c-0.92188 0.92188-1.8438 2.3047-1.8438 3.6875v24.422zm-31.336-221.64h-23.961v-26.266h24.422c-0.46094 1.3828-0.46094 2.7656-0.46094 4.1484zm9.2188-22.121c0-6.9102 5.0703-12.441 11.059-12.902 7.832-0.46094 13.824 5.0703 13.824 12.441v39.629c0 7.3711 5.9922 13.824 13.824 13.824 7.3711 0 13.824-5.9922 13.824-13.824v-84.785c0-6.9102 5.0703-12.441 11.059-12.902 3.6875-0.46094 6.9102 0.92188 9.6758 3.2266 2.7656 2.3047 4.1484 5.5312 4.1484 9.2148v85.25c0 7.3711 5.9922 13.824 13.824 13.824 7.3711 0 13.824-5.9922 13.824-13.824v-134.1c0-6.9102 5.0703-12.441 11.059-12.902 7.3711-0.46094 13.824 5.0703 13.824 12.441v134.55c0 7.3711 5.9922 13.824 13.824 13.824 7.3711 0 13.824-5.9922 13.824-13.824v-86.629c0-6.9102 5.0703-12.441 11.059-12.902 7.832-0.46094 13.824 5.0703 13.824 12.441v105.98h-182.48zm34.098 31.797h9.2148v6.9102c0 2.3047-1.8438 4.6094-4.6094 4.6094-2.3047 0-4.6094-1.8438-4.6094-4.6094zm8.7539-77.414v10.598h-16.125v-27.648h24.422c-5.0703 4.1484-8.2969 10.137-8.2969 17.051zm0 68.199h-9.2148v-23.5c0-1.3828 0-2.7656-0.46094-4.1484h9.6758zm71.426-139.62c-10.598 1.3828-19.355 11.059-19.355 22.117v2.3047h-8.293v-27.648h27.648zm-28.109 88.473c0.46094-0.46094 0.46094-0.91797 0.46094-1.8398v-32.258h8.293v101.38c0 2.3047-1.8438 4.6094-4.6094 4.6094-2.3047 0-4.6094-1.8438-4.6094-4.6094l0.003907-67.277zm104.6 95.848h23.5c-8.293 6.9102-13.824 17.512-13.824 29.492v26.727l-9.6758 7.3711zm151.14-102.3h-14.285v-27.648h19.816c-3.6875 4.1484-5.5312 9.2148-5.5312 14.285zm0 57.602h-14.285v-27.648h14.285zm-23.504 44.695h23.5v63.129l-9.6758-7.3711v-26.727c0-11.52-5.0664-22.117-13.824-29.031zm67.738 148.84-82.945-64.973c-2.7656-3.2266-4.6094-7.3711-4.6094-11.52l0.003906-72.348c13.824 2.3047 24.883 14.285 24.883 29.031v29.031c0 1.3828 0.46094 2.7656 1.8438 3.6875l18.895 14.285c1.3828 0.92188 3.2266 1.3828 4.6094 0.46094 1.3828-0.92188 2.7656-2.3047 2.7656-4.1484l-0.003906-188.01c0-6.9102 5.9922-12.902 13.824-12.441 6.4531 0.46094 11.059 6.4531 11.059 12.902v86.629c0 7.3711 5.9922 13.824 13.824 13.824 7.3711 0 13.824-5.9922 13.824-13.824v-134.55c0-7.3711 5.9922-12.902 13.824-12.441 6.4531 0.46094 11.059 6.4531 11.059 12.902v134.09c0 7.3711 5.9922 13.824 13.824 13.824 7.3711 0 13.824-5.9922 13.824-13.824v-84.789c0-6.9102 5.9922-12.902 13.824-12.441 6.4531 0.46094 11.059 6.4531 11.059 12.902v84.328c0 7.3711 5.9922 13.824 13.824 13.824 7.3711 0 13.824-5.9922 13.824-13.824v-39.629c0-7.3711 5.9922-12.902 13.824-12.441 6.4531 0.46094 11.059 6.4531 11.059 12.902v182.02c0 11.98-7.832 22.578-18.895 25.805-1.8438 0.46094-3.2266 2.3047-3.2266 4.6094v31.797h-122.57v-24.422c-1.8398-1.3867-2.3008-2.7695-3.2227-3.2305zm51.152-184.78h9.2148v7.832c0 2.3047-1.8438 4.6094-4.6094 4.6094-2.3047 0-4.6094-1.8438-4.6094-4.6094zm7.832-9.2148h-7.832v-26.266h7.832zm-26.266-139.16v-2.7656h26.266v26.266h-7.832v-1.3828c0-11.059-7.8359-20.273-18.434-22.117zm70.965 148.38h9.2148v7.832c0 2.3047-1.8438 4.6094-4.6094 4.6094-2.3047 0-4.6094-1.8438-4.6094-4.6094zm8.7539-32.258v23.039h-9.2148v-26.266h9.2148c0.46094 0.92578 0 2.3047 0 3.2266zm-16.129-60.824h22.578v25.805h-15.668v-9.6758c0.46484-6.4531-2.3008-11.98-6.9102-16.129zm58.984 56.68h24.883v27.648h-24.422v-23.039c0-1.3867 0-2.7656-0.46094-4.6094zm3.2227-244.69h-273.25c1.3828-11.98 11.52-20.734 23.5-20.734h158.05c18.434 0 33.176-14.746 33.176-33.176v-2.3047c21.199 16.586 41.016 35.48 58.523 56.215zm-278.32-129.48c59.902 0 118.43 14.746 170.96 42.855h-313.8c-5.9922 0-11.52-2.7656-15.207-6.4531 49.309-24.422 102.76-36.402 158.05-36.402zm-166.35 40.551c5.5312 6.9102 14.285 11.52 23.961 11.52h329.01c12.902 0 23.961 10.598 23.961 23.961 0 12.902-10.598 23.961-23.961 23.961h-158.05c-17.051 0-31.336 13.363-32.719 29.953h-274.18c30.875-36.863 69.582-67.738 111.98-89.395zm-147.46 98.148h627.61c11.52 0 20.734 9.2148 20.734 20.734v256.21c0 11.52-9.2148 20.734-20.734 20.734h-38.246v-25.805h29.031c2.7656 0 4.6094-1.8438 4.6094-4.6094v-36.863c0-2.7656-1.8438-4.6094-4.6094-4.6094h-34.098c-3.6875-4.6094-8.7539-7.832-14.746-8.293-7.832-0.92187-15.207 2.7656-19.816 8.7539h-12.902v-13.363h20.273c2.7656 0 4.6094-1.8438 4.6094-4.6094v-35.02c0-2.7656-1.8438-4.6094-4.6094-4.6094h-35.02c-2.3047 0-3.6875 1.3828-4.1484 3.2266-12.441-1.3828-23.5 8.7539-23.5 21.656v32.719h-9.2148l-0.003906-70.035h12.441c2.7656 0 4.6094-1.8438 4.6094-4.6094v-35.48c0-2.7656-1.8438-4.6094-4.6094-4.6094h-35.48c-2.7656 0-4.6094 1.8438-4.6094 4.6094v7.832c-9.6758 2.7656-15.668 11.52-15.668 20.734v134.55c0 2.3047-1.8438 4.6094-4.6094 4.6094-2.3047 0-4.6094-1.8438-4.6094-4.6094l0.003907-86.168c0-11.52-8.7539-21.195-19.355-22.117h-1.8438c-2.3047-3.6875-4.1484-1.3828-40.551-2.3047-2.7656 0-4.6094 1.8438-4.6094 4.6094v36.863c0 2.7656 1.8438 4.6094 4.6094 4.6094h18.895v11.52h-18.895c-2.7656 0-4.6094 1.8438-4.6094 4.6094v36.863c0 2.7656 1.8438 4.6094 4.6094 4.6094h18.895v25.805l-151.6-0.003906v-105.98c0-12.902-11.059-22.578-23.5-21.656-11.059 0.92188-19.355 10.598-19.355 22.117v86.629c0 2.3047-1.8438 4.6094-4.6094 4.6094-2.3047 0-4.6094-1.8438-4.6094-4.6094l0.003906-124.41c0.92188 1.3828 2.3047 2.3047 3.6875 2.3047h36.863c2.7656 0 4.6094-1.8438 4.6094-4.6094v-36.863c0-2.7656-1.8438-4.6094-4.6094-4.6094h-36.863c-2.7656 0-4.6094 1.8438-4.6094 4.6094v23.961c-1.8438-7.3711-6.9102-12.902-14.285-15.207v-8.7539c0-2.7656-1.8438-4.6094-4.6094-4.6094h-36.863c-2.7656 0-4.6094 1.8438-4.6094 4.6094v36.863c0 2.7656 1.8438 4.6094 4.6094 4.6094h12.902v11.52h-12.902c-2.7656 0-4.6094 1.8438-4.6094 4.6094v3.6875c-4.1484-3.2266-9.2148-4.6094-14.285-4.1484 0-2.3047-2.3047-4.1484-4.6094-4.1484h-36.863c-2.7656 0-4.6094 1.8438-4.6094 4.6094v36.863c0 2.7656 1.8438 4.6094 4.6094 4.6094h21.195v11.52h-13.824c-5.0703-6.4531-11.98-8.7539-18.895-8.293-5.9922 0.46094-11.52 4.1484-15.207 8.7539l-32.711-0.003907c-2.7656 0-4.6094 1.8438-4.6094 4.6094v35.48c0 2.7656 1.8438 4.6094 4.6094 4.6094h28.57v26.727h-38.246c-11.52 0-20.734-9.2148-20.734-20.734v-256.21c-0.46094-11.52 9.2148-21.199 20.734-21.199zm194.46 147.92v-27.648h27.648v27.648zm-244.68 77.414c0-41.012 6.9102-81.102 19.816-118.89v171.42c0 16.59 13.363 29.953 29.953 29.953h38.246v114.74c0 14.746 8.7539 28.109 22.117 33.637v28.57h-2.3047c-66.355-66.352-107.83-158.05-107.83-259.43zm118.43 268.19h491.68c-64.973 59.445-151.61 95.848-246.07 95.848-94.461 0-181.09-36.402-245.61-95.848z"/>
  <path d="m589.4 896.3c0-2.7656-1.8438-4.6094-4.6094-4.6094h-111.51c-2.7656 0-4.6094 1.8438-4.6094 4.6094s1.8438 4.6094 4.6094 4.6094h111.52c2.3008 0 4.6055-2.3047 4.6055-4.6094z"/>
  <path d="m625.8 896.3c0-2.7656-1.8438-4.6094-4.6094-4.6094h-18.434c-2.7656 0-4.6094 1.8438-4.6094 4.6094s1.8438 4.6094 4.6094 4.6094h18.434c2.3086 0 4.6094-2.3047 4.6094-4.6094z"/>
  <path d="m636.87 900.91h11.98c2.7656 0 4.6094-1.8438 4.6094-4.6094s-1.8438-4.6094-4.6094-4.6094h-11.98c-2.7656 0-4.6094 1.8438-4.6094 4.6094 0 2.3047 1.8438 4.6094 4.6094 4.6094z"/>
  <path d="m726.72 914.27h-111.52c-2.7656 0-4.6094 1.8438-4.6094 4.6094s1.8438 4.6094 4.6094 4.6094h111.52c2.7656 0 4.6094-1.8438 4.6094-4.6094-0.003906-2.7656-1.8438-4.6094-4.6094-4.6094z"/>
  <path d="m597.24 914.27h-18.434c-2.7656 0-4.6094 1.8438-4.6094 4.6094s1.8438 4.6094 4.6094 4.6094h18.434c2.7656 0 4.6094-1.8438 4.6094-4.6094-0.003906-2.7656-1.8477-4.6094-4.6094-4.6094z"/>
  <path d="m563.14 914.27h-11.98c-2.7656 0-4.6094 1.8438-4.6094 4.6094s1.8438 4.6094 4.6094 4.6094l11.98-0.003906c2.7656 0 4.6094-1.8438 4.6094-4.6094 0-2.7617-1.8438-4.6055-4.6094-4.6055z"/>
  <path d="m892.61 417.06c8.293 0 14.746-6.4531 14.746-14.746 0-8.293-6.4531-14.746-14.746-14.746s-14.746 6.4531-14.746 14.746c0 8.2969 6.4531 14.746 14.746 14.746zm0-20.734c3.2266 0 5.5312 2.3047 5.5312 5.5312s-2.3047 5.5312-5.5312 5.5312-5.5312-2.3047-5.5312-5.5312c0.003906-3.2266 2.3086-5.5312 5.5312-5.5312z"/>
  <path d="m847.91 417.06c8.293 0 14.746-6.4531 14.746-14.746 0-8.293-6.4531-14.746-14.746-14.746-8.293 0-14.746 6.4531-14.746 14.746 0 8.2969 6.4492 14.746 14.746 14.746zm0-20.734c3.2266 0 5.5312 2.3047 5.5312 5.5312s-2.3047 5.5312-5.5312 5.5312c-3.2266 0-5.5312-2.3047-5.5312-5.5312s2.3047-5.5312 5.5312-5.5312z"/>
  <path d="m802.75 417.06c8.293 0 14.746-6.4531 14.746-14.746 0-8.293-6.4531-14.746-14.746-14.746-8.293 0-14.746 6.4531-14.746 14.746 0 8.2969 6.4531 14.746 14.746 14.746zm0-20.734c3.2266 0 5.5312 2.3047 5.5312 5.5312s-2.3047 5.5312-5.5312 5.5312c-3.2266 0-5.5312-2.3047-5.5312-5.5312 0.003906-3.2266 2.3047-5.5312 5.5312-5.5312z"/>
  <path d="m758.05 417.06c8.293 0 14.746-6.4531 14.746-14.746 0-8.293-6.4531-14.746-14.746-14.746-8.293 0-14.746 6.4531-14.746 14.746 0.003906 8.2969 6.4531 14.746 14.746 14.746zm0-20.734c3.2266 0 5.5312 2.3047 5.5312 5.5312s-2.3047 5.5312-5.5312 5.5312c-3.2266 0-5.5312-2.3047-5.5312-5.5312 0.003906-3.2266 2.3086-5.5312 5.5312-5.5312z"/>
  <path d="m295.41 473.74h36.863c2.7656 0 4.6094-1.8438 4.6094-4.6094v-36.863c0-2.7656-1.8438-4.6094-4.6094-4.6094h-36.863c-2.7656 0-4.6094 1.8438-4.6094 4.6094v36.863c0.003907 2.7656 1.8477 4.6094 4.6094 4.6094zm4.6094-36.863h27.648v27.648h-27.648z"/>
  <path d="m295.41 531.8h36.863c2.7656 0 4.6094-1.8438 4.6094-4.6094v-36.863c0-2.7656-1.8438-4.6094-4.6094-4.6094h-36.863c-2.7656 0-4.6094 1.8438-4.6094 4.6094v36.863c0.003907 2.3047 1.8477 4.6094 4.6094 4.6094zm4.6094-36.867h27.648v27.648h-27.648z"/>
  <path d="m295.41 589.4h36.863c2.7656 0 4.6094-1.8438 4.6094-4.6094v-36.863c0-2.7656-1.8438-4.6094-4.6094-4.6094h-36.863c-2.7656 0-4.6094 1.8438-4.6094 4.6094v36.863c0.003907 2.7656 1.8477 4.6094 4.6094 4.6094zm4.6094-36.863h27.648v27.648h-27.648z"/>
  <path d="m355.78 473.74h36.863c2.7656 0 4.6094-1.8438 4.6094-4.6094v-36.863c0-2.7656-1.8438-4.6094-4.6094-4.6094h-36.863c-2.7656 0-4.6094 1.8438-4.6094 4.6094v36.863c0 2.7656 1.8438 4.6094 4.6094 4.6094zm4.6094-36.863h27.648v27.648h-27.648z"/>
  <path d="m355.78 531.8h36.863c2.7656 0 4.6094-1.8438 4.6094-4.6094v-36.863c0-2.7656-1.8438-4.6094-4.6094-4.6094h-36.863c-2.7656 0-4.6094 1.8438-4.6094 4.6094v36.863c0 2.3047 1.8438 4.6094 4.6094 4.6094zm4.6094-36.867h27.648v27.648h-27.648z"/>
  <path d="m415.68 473.74h36.863c2.7656 0 4.6094-1.8438 4.6094-4.6094v-36.863c0-2.7656-1.8438-4.6094-4.6094-4.6094h-36.863c-2.7656 0-4.6094 1.8438-4.6094 4.6094v36.863c0.003907 2.7656 2.3086 4.6094 4.6094 4.6094zm4.6094-36.863h27.648v27.648h-27.648z"/>
  <path d="m476.05 473.74h36.863c2.7656 0 4.6094-1.8438 4.6094-4.6094v-36.863c0-2.7656-1.8438-4.6094-4.6094-4.6094h-36.863c-2.7656 0-4.6094 1.8438-4.6094 4.6094v36.863c0 2.7656 1.8438 4.6094 4.6094 4.6094zm4.6055-36.863h27.648v27.648h-27.648z"/>
  <path d="m536.87 473.28h35.484c2.7656 0 4.6094-1.8438 4.6094-4.6094v-35.48c0-2.7656-1.8438-4.6094-4.6094-4.6094h-35.48c-2.7656 0-4.6094 1.8438-4.6094 4.6094v35.48c0 2.3047 2.3008 4.6094 4.6055 4.6094zm4.6094-35.48h26.266v26.266h-26.266z"/>
  <path d="m536.41 531.8h36.863c2.7656 0 4.6094-1.8438 4.6094-4.6094v-36.863c0-2.7656-1.8438-4.6094-4.6094-4.6094h-36.863c-2.7656 0-4.6094 1.8438-4.6094 4.6094v36.863c0.003907 2.3047 1.8438 4.6094 4.6094 4.6094zm4.6094-36.867h27.648v27.648h-27.648z"/>
  <path d="m536.41 589.4h36.863c2.7656 0 4.6094-1.8438 4.6094-4.6094v-36.863c0-2.7656-1.8438-4.6094-4.6094-4.6094h-36.863c-2.7656 0-4.6094 1.8438-4.6094 4.6094v36.863c0.003907 2.7656 1.8438 4.6094 4.6094 4.6094zm4.6094-36.863h27.648v27.648h-27.648z"/>
  <path d="m536.41 647h36.863c2.7656 0 4.6094-1.8438 4.6094-4.6094v-36.863c0-2.7656-1.8438-4.6094-4.6094-4.6094h-36.863c-2.7656 0-4.6094 1.8438-4.6094 4.6094v36.863c0.003907 2.7656 1.8438 4.6094 4.6094 4.6094zm4.6094-36.863h27.648v27.648h-27.648z"/>
  <path d="m597.24 473.28h35.02c2.7656 0 4.6094-1.8438 4.6094-4.6094v-35.02c0-2.7656-1.8438-4.6094-4.6094-4.6094h-35.02c-2.7656 0-4.6094 1.8438-4.6094 4.6094v35.02c0 2.3047 2.3047 4.6094 4.6094 4.6094zm4.6055-35.48h25.805v25.805h-25.805z"/>
  <path d="m596.32 531.8h36.863c2.7656 0 4.6094-1.8438 4.6094-4.6094v-36.863c0-2.7656-1.8438-4.6094-4.6094-4.6094h-36.863c-2.7656 0-4.6094 1.8438-4.6094 4.6094v36.863c0 2.3047 2.3047 4.6094 4.6094 4.6094zm4.6055-36.867h27.648v27.648h-27.648z"/>
  <path d="m596.32 589.4h36.863c2.7656 0 4.6094-1.8438 4.6094-4.6094v-36.863c0-2.7656-1.8438-4.6094-4.6094-4.6094h-36.863c-2.7656 0-4.6094 1.8438-4.6094 4.6094v36.863c0 2.7656 2.3047 4.6094 4.6094 4.6094zm4.6055-36.863h27.648v27.648h-27.648z"/>
  <path d="m596.32 647h36.863c2.7656 0 4.6094-1.8438 4.6094-4.6094v-36.863c0-2.7656-1.8438-4.6094-4.6094-4.6094h-36.863c-2.7656 0-4.6094 1.8438-4.6094 4.6094v36.863c0 2.7656 2.3047 4.6094 4.6094 4.6094zm4.6055-36.863h27.648v27.648h-27.648z"/>
  <path d="m656.68 473.74h36.863c2.7656 0 4.6094-1.8438 4.6094-4.6094v-36.863c0-2.7656-1.8438-4.6094-4.6094-4.6094h-36.863c-2.7656 0-4.6094 1.8438-4.6094 4.6094v36.863c0 2.7656 2.3047 4.6094 4.6094 4.6094zm4.6094-36.863h27.648v27.648h-27.648z"/>
  <path d="m656.68 531.8h36.863c2.7656 0 4.6094-1.8438 4.6094-4.6094v-36.863c0-2.7656-1.8438-4.6094-4.6094-4.6094h-36.863c-2.7656 0-4.6094 1.8438-4.6094 4.6094v36.863c0 2.3047 2.3047 4.6094 4.6094 4.6094zm4.6094-36.867h27.648v27.648h-27.648z"/>
  <path d="m747.46 473.74h36.863c2.7656 0 4.6094-1.8438 4.6094-4.6094v-36.863c0-2.7656-1.8438-4.6094-4.6094-4.6094h-36.863c-2.7656 0-4.6094 1.8438-4.6094 4.6094v36.863c0.003906 2.7656 1.8438 4.6094 4.6094 4.6094zm4.6094-36.863h27.648v27.648h-27.648z"/>
  <path d="m844.23 427.66h-36.863c-2.7656 0-4.6094 1.8438-4.6094 4.6094v36.863c0 2.7656 1.8438 4.6094 4.6094 4.6094h36.863c2.7656 0 4.6094-1.8438 4.6094-4.6094v-36.863c0-2.3047-1.8438-4.6094-4.6094-4.6094zm-4.6094 36.867h-27.648v-27.648h27.648z"/>
  <path d="m844.23 485.72h-36.863c-2.7656 0-4.6094 1.8438-4.6094 4.6094v36.863c0 2.7656 1.8438 4.6094 4.6094 4.6094h36.863c2.7656 0 4.6094-1.8438 4.6094-4.6094v-36.863c0-2.7656-1.8438-4.6094-4.6094-4.6094zm-4.6094 36.863h-27.648v-27.648h27.648z"/>
  <path d="m868.65 473.28h35.48c2.7656 0 4.6094-1.8438 4.6094-4.6094v-35.48c0-2.7656-1.8438-4.6094-4.6094-4.6094h-35.48c-2.7656 0-4.6094 1.8438-4.6094 4.6094v35.48c0 2.3047 1.8438 4.6094 4.6094 4.6094zm4.6094-35.48h26.266v26.266h-26.266z"/>
  <path d="m867.73 531.8h36.863c2.7656 0 4.6094-1.8438 4.6094-4.6094v-36.863c0-2.7656-1.8438-4.6094-4.6094-4.6094h-36.863c-2.7656 0-4.6094 1.8438-4.6094 4.6094v36.863c0.003906 2.3047 2.3047 4.6094 4.6094 4.6094zm4.6094-36.867h27.648v27.648h-27.648z"/>
 </g>
</svg>
