<?xml version="1.0" encoding="UTF-8"?>
<svg width="1200pt" height="1200pt" version="1.1" viewBox="0 0 1200 1200" xmlns="http://www.w3.org/2000/svg">
 <g>
  <path d="m583.88 891.69c0-2.3047-1.8438-4.6094-4.6094-4.6094l-110.13 0.003906c-2.3047 0-4.6094 1.8438-4.6094 4.6094 0 2.3047 1.8438 4.6094 4.6094 4.6094h110.13c2.3047-0.003906 4.6094-2.3086 4.6094-4.6133z"/>
  <path d="m619.36 891.69c0-2.3047-1.8438-4.6094-4.6094-4.6094h-17.973c-2.3047 0-4.6094 1.8438-4.6094 4.6094 0 2.3047 1.8438 4.6094 4.6094 4.6094h17.973c2.7656 0 4.6094-2.3047 4.6094-4.6094z"/>
  <path d="m630.41 896.3h11.98c2.3047 0 4.6094-1.8438 4.6094-4.6094 0-2.3047-1.8438-4.6094-4.6094-4.6094h-11.98c-2.3047 0-4.6094 1.8438-4.6094 4.6094 0 2.3047 2.3047 4.6094 4.6094 4.6094z"/>
  <path d="m719.35 909.2h-110.13c-2.3047 0-4.6094 1.8438-4.6094 4.6094 0 2.3047 1.8438 4.6094 4.6094 4.6094h110.13c2.3047 0 4.6094-1.8438 4.6094-4.6094-0.46484-2.7656-2.3086-4.6094-4.6133-4.6094z"/>
  <path d="m591.71 909.2h-17.973c-2.3047 0-4.6094 1.8438-4.6094 4.6094 0 2.3047 1.8438 4.6094 4.6094 4.6094h17.973c2.3047 0 4.6094-1.8438 4.6094-4.6094s-2.3047-4.6094-4.6094-4.6094z"/>
  <path d="m558.07 909.2h-11.98c-2.3047 0-4.6094 1.8438-4.6094 4.6094 0 2.3047 1.8438 4.6094 4.6094 4.6094h11.98c2.3047 0 4.6094-1.8438 4.6094-4.6094-0.003907-2.7656-2.3086-4.6094-4.6094-4.6094z"/>
  <path d="m960.35 500.47-12.902-2.3047c-45.16-156.21-189.85-265.42-352.97-265.42-84.789 0-167.73 29.492-233.16 83.406l-62.668-14.746c-5.9922-1.3828-12.441-0.46094-17.973 3.2266-5.0703 3.6875-8.7539 9.2148-9.6758 15.207l-28.113 172.34c-10.598 35.02-16.125 70.961-16.125 107.82 0 202.29 164.51 367.26 367.26 367.26 215.66 0 387.54-187.09 365.41-404.58 4.1484-2.3047 6.9102-6.4531 7.832-11.059l5.5312-33.637c1.8438-8.2969-4.1445-16.129-12.441-17.512zm-366.34-258.97c157.59 0 297.68 104.14 342.84 254.36l-74.188-13.824 0.92188-6.4531c2.3047-12.902-6.4531-25.344-18.895-28.109-9.6758-2.3047-76.492-16.59-76.953-16.59l4.1484-19.355 33.637 7.3711c1.8438 0.46094 3.6875 0.46094 5.0703 0.46094 11.52 0 21.656-7.832 23.961-19.355 2.7656-13.363-5.5312-26.266-18.895-29.031l-109.67-23.961c-13.363-2.7656-26.266 5.5312-29.031 18.895-2.7656 13.363 5.5312 26.266 18.895 29.031l34.098 7.3711-4.1484 19.355-286.15-62.203 0.46094-3.2266c1.8438-11.98-5.5312-23.039-17.512-25.805l-50.688-11.98c63.59-49.309 141.93-76.953 222.11-76.953zm48.844 360.8 88.473 18.434c6.9102 1.3828 11.52 8.293 10.137 15.668-1.3828 6.4531-7.832 11.52-15.668 10.137l-102.3-21.656c-5.9922-1.3828-10.598-6.4531-10.598-12.902v-57.141l26.266 2.7656v40.09c0 2.3008 1.8438 4.1445 3.6875 4.6055zm14.746 252.52v-119.35h36.863v119.35zm-9.2148-98.148v98.613h-36.863zm-46.082 98.148h-28.109l44.238-119.35h28.109zm101.38-98.148 36.863 98.613h-36.863zm1.8398-20.738h28.109l44.238 119.35h-28.109zm-103.68-9.2148c-7.3711 0-13.363-5.9922-13.363-13.363s5.9922-13.363 13.363-13.363h148.38c7.3711 0 13.363 5.9922 13.363 13.363s-5.9922 13.363-13.363 13.363h-148.38zm55.758-36.402v-48.848l36.863 7.832v41.473l-36.863 0.003906zm-219.8-317.95 0.46094-3.6875 177.87 38.707-22.117 136.4-181.09-19.816zm164.96 172.34 22.117-135.48 47 10.137-21.191 130.41zm77.875-123.5c58.062 12.441 85.25 18.434 135.94 29.492l-18.895 115.2-138.24-15.207zm17.512-34.559c-8.293-1.8438-13.824-10.137-11.98-18.434 1.8438-8.293 10.137-13.824 18.434-11.98l109.67 23.961c8.293 1.8438 13.824 10.137 11.98 18.434-1.8438 8.293-10.137 13.824-18.434 11.98-0.46094-0.46094-18.434-4.1484-109.67-23.961zm64.973 23.039-4.1484 19.355-24.422-5.5312 4.1484-19.355zm79.719 47c7.832 1.8438 13.363 9.6758 11.98 17.512l-13.363 81.562c-1.3828 8.293-8.7539 13.824-17.051 12.902l-17.512-1.8438 18.434-114.28zm-563.1-135.47c0.46094-3.6875 2.7656-6.9102 5.9922-9.2148 3.2266-2.3047 6.9102-2.7656 10.598-1.8438l124.42 29.031c6.9102 1.8438 11.52 8.293 10.598 15.668-14.746 91.238-13.363 82.484-29.492 179.71-1.3828 6.9102-7.832 11.98-14.746 11.52l-127.18-11.984c-3.6875-0.46094-7.3711-2.3047-9.6758-5.0703-2.3047-3.2266-3.2266-6.9102-2.7656-10.598zm-43.777 278.78c0-22.578 2.3047-45.16 6.4531-67.277 4.1484 6.4531 10.598 10.137 17.051 10.598 132.25 12.441 127.18 11.98 129.02 11.98 11.059 0 20.734-7.832 22.578-19.355l0.46094-2.7656 192.61 20.742v58.062c0 10.598 7.3711 19.355 17.512 21.656l26.727 5.5312v51.148h-46.543c-12.441 0-22.578 10.137-22.578 22.578 0 12.441 10.137 22.578 22.578 22.578h6.9102l-44.238 119.35h-221.64c-65.895-64.973-106.91-155.29-106.91-254.82zm116.12 264.04h483.84c-63.59 58.523-148.84 94.465-241.92 94.465-93.078 0-177.87-35.941-241.92-94.465zm493.52-9.2148h-58.062l-44.238-119.35h6.9102c12.441 0 22.578-10.137 22.578-22.578 0-12.441-10.137-22.578-22.578-22.578h-46.539v-39.629l20.734 4.6094c12.902 2.3047 23.961-5.9922 26.266-17.051 2.3047-11.98-5.0703-23.5-17.051-26.266l-84.789-17.973v-35.48l175.11 19.355h2.7656c2.7656 0 5.9922-0.46094 8.7539-1.3828 5.0703-1.8438 9.2148-5.5312 11.98-10.137 1.8438-2.7656 2.7656-5.5312 3.6875-9.2148l0.92188-6.4531 98.152 13.824h0.92188c10.602 109.67-29.027 215.19-105.52 290.3zm118.43-338.23-5.5312 33.637c-0.46094 3.6875-4.1484 5.9922-7.3711 5.5312l-98.152-13.824 8.293-51.148 97.23 17.973c3.6875 0.91797 5.9922 4.6055 5.5312 7.832z"/>
 </g>
</svg>
