<?xml version="1.0" encoding="UTF-8"?>
<svg width="1200pt" height="1200pt" version="1.1" viewBox="0 0 1200 1200" xmlns="http://www.w3.org/2000/svg">
 <defs>
  <clipPath id="a">
   <path d="m226 222.14h748v755.71h-748z"/>
  </clipPath>
 </defs>
 <path d="m589.4 900.45c0-2.7656-1.8438-4.6094-4.6094-4.6094h-111.51c-2.7656 0-4.6094 1.8438-4.6094 4.6094 0 2.7656 1.8438 4.6094 4.6094 4.6094h111.52c2.3008-0.003907 4.6055-2.3047 4.6055-4.6094z"/>
 <path d="m625.8 900.45c0-2.7656-1.8438-4.6094-4.6094-4.6094h-18.434c-2.7656 0-4.6094 1.8438-4.6094 4.6094 0 2.7656 1.8438 4.6094 4.6094 4.6094h18.434c2.3086-0.003907 4.6094-2.3047 4.6094-4.6094z"/>
 <path d="m636.87 905.05h11.98c2.7656 0 4.6094-1.8438 4.6094-4.6094s-1.8438-4.6094-4.6094-4.6094l-11.98 0.003907c-2.7656 0-4.6094 1.8438-4.6094 4.6094 0 2.7656 1.8438 4.6055 4.6094 4.6055z"/>
 <path d="m726.72 918.41h-111.52c-2.7656 0-4.6094 1.8438-4.6094 4.6094 0 2.7656 1.8438 4.6094 4.6094 4.6094h111.52c2.7656 0 4.6094-1.8438 4.6094-4.6094-0.003906-2.7656-1.8438-4.6094-4.6094-4.6094z"/>
 <path d="m597.24 918.41h-18.434c-2.7656 0-4.6094 1.8438-4.6094 4.6094 0 2.7656 1.8438 4.6094 4.6094 4.6094h18.434c2.7656 0 4.6094-1.8438 4.6094-4.6094-0.003906-2.7656-1.8477-4.6094-4.6094-4.6094z"/>
 <path d="m563.14 918.41h-11.98c-2.7656 0-4.6094 1.8438-4.6094 4.6094 0 2.7656 1.8438 4.6094 4.6094 4.6094h11.98c2.7656 0 4.6094-1.8438 4.6094-4.6094 0-2.7656-1.8438-4.6094-4.6094-4.6094z"/>
 <g clip-path="url(#a)">
  <path d="m898.6 828.1c48.844-64.973 74.648-142.39 74.648-223.95 0-205.98-167.27-373.25-373.25-373.25-21.656 0-43.316 1.8438-64.512 5.5312-4.1484-3.2266-8.293-6.9102-12.441-12.441-1.3828-1.3828-3.2266-1.8438-5.0664-1.3828-1.8438 0.46094-3.2266 2.3047-3.2266 4.1484v13.824c-80.18 18.891-152.53 64.512-204.6 128.56-53.914 66.355-83.402 149.76-83.402 235.01 0 81.562 25.805 158.98 74.648 223.95l-18.434 37.785c-0.46094 1.3828-0.46094 3.2266 0.46094 4.6094 0.92187 1.3828 2.3047 2.3047 3.6875 2.3047h53.453c70.043 67.738 162.2 105.06 259.43 105.06 97.23 0 189.39-37.324 259.43-105.06h53.453c1.3828 0 3.2266-0.92188 3.6875-2.3047 0.92188-1.3828 0.92188-3.2266 0.46094-4.6094zm-298.6-587.98c200.91 0 364.03 163.12 364.03 364.03 0 77.875-24.422 152.07-70.043 214.27l-139.16-288.46c55.297-54.375 16.129-147.46-60.363-147.46-47.461 0-86.168 38.707-86.168 86.168 0 49.305 41.934 89.395 92.621 85.711l-29.031 59.441-18.895 39.168-55.297-113.82-73.727-152.98v-54.375c1.3828 0 2.7656 0.46094 4.1484 0.46094 17.051 0 32.719-13.824 48.383-27.188 17.512-15.207 34.098-29.492 49.766-23.961 1.8438 0.92188 4.1484 0 5.5312-1.8438s1.3828-4.1484 0-5.5312c-19.355-24.883-38.707-25.344-57.602-26.266-8.293-0.46094-16.59-0.92188-24.883-3.2266 16.59-2.7617 33.641-4.1445 50.688-4.1445zm182.02 367.26-27.648-10.598c-2.3047-0.92188-4.6094 0-5.5312 1.8438l-14.746 25.805-14.746-25.805c-0.92188-1.3828-2.3047-2.3047-4.1484-2.3047-0.46094 0-0.92188 0-1.8438 0.46094l-27.648 10.598 47.926-99.535 3.6875 7.832zm-40.09-103.22-4.1484-8.7539c-0.92188-1.3828-2.3047-2.7656-4.1484-2.7656s-3.2266 0.92188-4.1484 2.7656l-23.961 49.305c-46.539 6.9102-88.012-29.492-88.012-76.031 0-42.395 34.559-76.953 76.953-76.953 66.816 0 102.3 80.18 56.219 129.48zm-313.35 255.28c0 4.6094-3.6875 7.832-7.832 7.832-4.6094 0-7.832-3.6875-7.832-7.832 0-4.6094 3.6875-7.832 7.832-7.832 4.1484-0.46094 7.832 3.2266 7.832 7.832zm5.5312-10.598 135.48-129.48c2.3047 0.92188 5.0703 1.8438 7.3711 1.8438 9.6758 0 17.051-7.832 17.051-17.051 0-8.7539-6.9102-16.129-15.207-17.051l-14.285-52.07 25.805 9.6758 152.52 315.19-305.05-98.609v-1.8438c0-4.1445-1.3828-7.832-3.6875-10.598zm143.31-152.52c4.6094 0 7.832 3.6875 7.832 7.832 0 4.6094-3.6875 7.832-7.832 7.832-4.6094 0-7.832-3.6875-7.832-7.832-0.46094-4.1484 3.2227-7.832 7.832-7.832zm-58.059-198.61 65.434 135.02-39.168-14.746c-2.3047-0.92188-4.6094 0-5.5312 1.8438l-20.273 35.941-20.273-35.941c-0.92188-1.3828-2.3047-2.3047-4.1484-2.3047-0.46094 0-0.92188 0-1.8438 0.46094l-39.168 14.746zm4.6055-158.52c16.59 15.668 33.176 16.59 49.766 17.512 14.746 0.46094 28.57 1.3828 42.855 13.824-15.668 1.3828-30.875 14.746-45.621 27.188-16.59 14.285-31.797 27.648-46.539 24.883-0.46094-62.672-0.46094-53.918-0.46094-83.406zm-288 364.95c0-167.27 117.04-315.19 278.79-353.89v135.93l-73.727 152.98-135.02 279.25c-45.621-62.203-70.043-136.39-70.043-214.27zm212.43-59.441 44.699-17.051 22.578 39.168c0.92188 1.3828 2.3047 2.3047 4.1484 2.3047s3.2266-0.92188 4.1484-2.3047l22.578-39.168 8.293 3.2266 15.668 57.602c-5.9922 2.7656-10.137 8.7539-10.137 15.668 0 3.2266 0.92188 6.4531 2.7656 9.2148l-135.94 129.95c-1.8438-0.92188-4.1484-1.3828-5.9922-1.3828-9.6758 0-17.051 7.832-17.051 17.051 0 9.6758 7.832 17.051 17.051 17.051 5.5312 0 10.598-2.7656 13.363-6.9102l288.46 93.543h-428.09zm151.6 423.48c-91.699 0-178.33-34.098-245.61-95.848h491.68c-67.738 61.746-154.37 95.848-246.07 95.848zm154.37-105.06-96.309-199.07 21.195-44.238 33.176-12.441 17.051 29.492c0.92188 1.3828 2.3047 2.3047 4.1484 2.3047s3.2266-0.92188 4.1484-2.3047l17.051-29.492 33.176 12.441 117.5 243.77c-15.664-0.46094 55.758-0.46094-151.14-0.46094z"/>
 </g>
</svg>
