<?xml version="1.0" encoding="UTF-8"?>
<svg width="1200pt" height="1200pt" version="1.1" viewBox="0 0 1200 1200" xmlns="http://www.w3.org/2000/svg">
 <g>
  <path d="m623.5 255.78c2.3047 0 4.1484-1.8438 4.1484-4.1484l-0.003906-20.734c0-2.3008-1.8438-4.1445-4.1445-4.1445-2.3047 0-4.1484 1.8438-4.1484 4.1484v20.273c-0.46094 2.3047 1.8438 4.6055 4.1484 4.6055z"/>
  <path d="m946.98 626.27c0-133.63-77.414-253.9-194.46-311.5l5.9922-3.2266c1.8438-1.3828 2.7656-3.6875 1.3828-5.9922-1.3828-1.8438-3.6875-2.7656-5.9922-1.3828l-11.059 6.4531c-16.129-7.3711-32.719-13.363-49.766-17.973-16.129-12.441-35.48-20.273-56.68-22.578-22.578-2.3047-44.699 1.3828-64.512 11.059-13.824 0.92188-27.648 3.2266-41.012 5.9922l-12.902-14.285c-1.8438-1.8438-4.6094-1.8438-5.9922 0-1.8438 1.8438-1.8438 4.6094 0 5.9922l9.6758 9.6758c-66.816 15.668-127.64 50.688-175.11 101.84-59.902 64.512-93.082 148.38-93.082 236.39-0.45703 190.31 155.29 346.52 346.52 346.52 191.7 0 346.98-156.21 346.98-346.98zm-311.5-348.36c49.766 5.5312 89.395 45.621 94.465 95.387 3.2266 32.258-7.3711 63.59-29.953 86.629-19.816 20.273-32.719 46.543-37.324 75.57h-21.656l-0.003906-111.97h13.824c12.441 0 22.578-10.137 22.578-22.578s-10.137-22.578-22.578-22.578c-12.441 0-22.578 10.137-22.578 22.578v13.824h-17.512v-13.824c0-12.441-10.137-22.578-22.578-22.578-12.441 0-22.578 10.137-22.578 22.578s10.137 22.578 22.578 22.578h13.824v111.97h-22.117c-5.0703-28.57-18.434-55.297-39.168-77.414-18.895-19.816-29.031-46.082-29.031-73.266 0-30.414 12.902-59.902 35.941-80.18 7.3711-6.4531 15.207-11.98 23.5-16.129h0.46094c18.434-9.2148 38.707-12.902 59.906-10.598zm-39.629 340.53h54.836v8.293c0 3.6875-2.7656 6.4531-6.4531 6.4531h-42.395c-3.6875 0-6.4531-2.7656-6.4531-6.4531l0.003906-8.293zm59.441-8.293h-79.258c-4.1484 0-7.3711-3.2266-7.3711-7.3711v-8.7539l109.67-0.003906v8.7539c0 4.1484-3.2266 7.3711-7.3711 7.3711zm23.043-24.883h-109.67v-15.668h109.67zm0-24.887h-109.67v-8.7539c0-4.1484 3.2266-7.3711 7.3711-7.3711h94.926c4.1484 0 7.3711 3.2266 7.3711 7.3711zm-72.348-145.15h-13.824c-7.832 0-13.824-6.4531-13.824-13.824 0-7.3711 6.4531-13.824 13.824-13.824 7.3711 0 13.824 6.4531 13.824 13.824zm26.266 120.27h-17.512v-111.97h17.512zm8.293-120.27v-13.824c0-7.832 6.4531-13.824 13.824-13.824 7.832 0 13.824 6.4531 13.824 13.824 0 7.3711-6.4531 13.824-13.824 13.824zm-378.78 211.05c0-145.15 93.543-271.41 224.41-318.41 0 1.3828 0.92188 2.7656 1.8438 3.6875l17.512 10.137c1.8438 1.3828 4.6094 0.46094 5.9922-1.3828s0.46094-4.6094-1.3828-5.9922l-16.133-9.2109c19.355-6.4531 39.629-11.059 60.824-13.824-3.2266 2.3047-5.9922 4.6094-8.7539 7.3711-24.422 22.117-38.707 53.453-38.707 86.629 0 29.492 11.059 57.602 31.336 79.258 19.355 20.734 31.797 45.16 36.402 71.887-8.7539 0.46094-15.207 7.3711-15.207 16.129v51.148c0 8.7539 7.3711 16.129 16.129 16.129h11.52v8.293c0 8.293 6.9102 14.746 14.746 14.746h42.395c8.293 0 14.746-6.9102 14.746-14.746v-9.6758h11.52c8.7539 0 16.129-7.3711 16.129-16.129v-50.688c0-8.7539-6.9102-15.668-15.668-16.129 4.6094-26.727 16.59-51.148 35.02-70.043 23.961-24.883 35.941-58.984 32.258-93.543-2.7656-25.344-13.824-48.383-30.414-66.355 9.2148 3.2266 17.973 6.4531 26.727 10.137-0.46094 1.3828-0.46094 2.7656 0 4.1484 1.3828 1.8438 3.6875 2.7656 5.9922 1.3828l2.7656-1.8438c117.04 54.836 194.46 173.72 194.46 306.43 0 94.004-38.707 179.25-100.91 240.54h-47.922c1.8438-3.2266 3.2266-6.9102 3.2266-10.598v-31.797c0-10.598-8.7539-19.355-19.355-19.355h-19.816v-9.2148c0-6.9102 2.3047-13.363 6.9102-19.355 5.0703-6.9102 8.293-15.207 8.293-23.961v-66.816c0-7.3711-3.2266-14.746-8.293-19.816-4.1484-4.1484-6.4531-9.2148-6.4531-14.285l0.003906-117.96c0-2.3047-1.8438-4.1484-4.1484-4.1484-29.953 0-54.375 24.422-54.375 54.375v55.297c0 10.598-8.7539 19.355-19.355 19.355h-84.785c-5.0703 0-9.6758-1.8438-13.363-5.5312 0 0-0.46094-0.46094-0.46094-0.46094l-28.109-28.566-12.902-39.629 13.824-43.777c3.2266-9.6758-0.92188-20.273-9.6758-24.883-11.98-6.4531-26.266-0.46094-30.414 11.98l-16.129 50.688c-1.3828 4.1484-1.3828 8.7539 0 12.902l12.902 40.551-17.973-18.434-7.832-45.621c-0.92188-5.5312-4.1484-10.598-8.7539-13.824-4.6094-3.2266-10.137-4.6094-15.668-3.6875-11.52 1.8438-19.355 12.902-17.512 24.422l8.7539 52.531c0.92188 4.1484 2.7656 8.293 5.9922 11.52l37.785 37.785c2.3047 2.3047 5.0703 4.1484 8.293 5.0703l17.051 5.5312-4.1484 0.92188-40.09-11.98-28.109-36.402c-5.9844-8.7539-17.047-11.52-25.801-6.9102-5.9922 2.7656-10.137 8.293-11.52 14.285-1.3828 5.9922 0 12.441 4.1484 17.512l32.719 41.934c2.7656 3.2266 6.4531 5.9922 10.598 6.9102l51.148 15.207c0.92188 0.46094 2.3047 0.46094 3.2266 0.92188l-12.441 5.9922-50.688-13.363c-5.5312-1.3828-11.52-0.46094-16.59 2.3047-5.0703 3.2266-8.293 7.832-9.6758 13.824-2.3047 10.598 5.0703 22.117 16.129 24.883l57.141 15.207c4.6094 1.3828 9.6758 0.92188 14.285-1.3828l47.922-22.578c30.414 11.52 54.836 28.57 72.805 51.148h-7.3711c-10.598 0-19.355 8.7539-19.355 19.355v31.797c0 4.1484 1.3828 7.832 3.2266 10.598l-241.93-0.007812c-62.207-61.285-100.91-146.54-100.91-240.54zm348.37 229.94v-31.797c0-5.9922 4.6094-10.598 10.598-10.598h152.52c5.9922 0 10.598 4.6094 10.598 10.598v31.797c0 5.9922-4.6094 10.598-10.598 10.598h-152.06c-5.9922 0.46094-11.059-4.6055-11.059-10.598zm-69.582-136.4c-0.46094-1.8438-2.7656-3.2266-4.6094-2.7656l-21.656 3.6875c-1.8438 0.46094-3.6875 0.46094-5.9922-0.46094l-51.148-15.207c-2.3047-0.92188-4.6094-2.3047-6.4531-4.1484l-32.719-41.934c-2.3047-2.7656-3.2266-6.9102-2.3047-10.598s3.2266-6.9102 6.9102-8.293c5.0703-2.7656 11.52-0.92188 15.668 3.6875l29.031 37.324c0.46094 0.92188 1.3828 1.3828 2.3047 1.3828l42.395 12.902c0.46094 0 1.3828 0.46094 1.8438 0l21.656-3.6875c1.8438-0.46094 3.2266-1.8438 3.6875-3.6875 0-1.8438-0.92188-3.6875-2.7656-4.1484l-33.172-11.516c-1.8438-0.46094-3.6875-1.8438-5.0703-3.2266l-37.785-37.785c-1.8438-1.8438-3.2266-4.1484-3.2266-6.9102l-8.7539-52.531c-0.92188-6.9102 3.6875-13.363 10.137-14.285 3.2266-0.46094 6.4531 0 9.2148 2.3047 2.7656 1.8438 4.6094 4.6094 5.0703 8.293l7.832 47c0 0.92188 0.46094 1.8438 1.3828 2.3047 32.719 32.719 30.875 31.797 32.719 32.258 0.92188 0 5.0703 2.7656 7.3711-0.92188 0.92188-1.8438 0.92188-3.6875-0.46094-5.5312-1.3828-1.3828-2.3047-3.2266-3.2266-5.0703l-16.129-51.148c-0.92188-2.3047-0.92188-5.0703 0-7.3711l16.129-50.688c0.92188-3.6875 3.6875-6.4531 7.3711-7.832 3.6875-1.3828 7.3711-0.92188 10.598 0.92188 5.0703 2.7656 7.3711 9.2148 5.5312 15.207l-14.285 45.16c-0.46094 0.92188-0.46094 1.8438 0 2.7656l13.363 41.934c0 0.46094 0.46094 1.3828 0.92188 1.8438l28.57 29.031 0.92188 0.92188c5.0703 5.0703 11.98 7.3711 18.895 7.3711h84.789c15.207 0 28.109-12.441 28.109-28.109v-55.297c0-23.961 18.434-43.316 41.473-45.621v114.28c0 7.3711 3.2266 14.746 9.2148 20.734 3.6875 3.6875 5.9922 8.7539 5.9922 13.824v66.816c0 6.9102-2.3047 13.363-6.4531 18.434-5.5312 7.3711-8.7539 15.668-8.7539 24.422v9.2148h-105.98c-19.355-27.188-47-47.461-82.023-59.902-0.92188-0.46094-2.3047-0.46094-3.2266 0l-49.305 23.5c-2.7656 1.3828-5.9922 1.3828-8.7539 0.92188l-57.141-15.207c-6.9102-1.8438-11.059-8.293-10.137-14.746 0.92188-3.2266 2.7656-6.4531 5.5312-8.293 2.7656-1.8438 6.4531-2.3047 9.6758-1.3828l52.07 13.824c0.92188 0.46094 1.8438 0 2.7656-0.46094l39.629-18.434c2.7617-0.92188 3.6836-3.2266 2.7617-5.0703zm-169.11 155.75h456.65c-60.363 55.297-140.54 88.934-228.56 88.934-88.012 0-167.73-33.641-228.09-88.934z"/>
  <path d="m589.86 901.83c0-2.3047-1.8438-4.1484-4.1484-4.1484h-103.68c-2.3047 0-4.1484 1.8438-4.1484 4.1484s1.8438 4.1484 4.1484 4.1484h103.68c2.3047-0.003906 4.1484-1.8477 4.1484-4.1484z"/>
  <path d="m623.96 901.83c0-2.3047-1.8438-4.1484-4.1484-4.1484h-17.051c-2.3047 0-4.1484 1.8438-4.1484 4.1484s1.8438 4.1484 4.1484 4.1484h17.051c2.3047-0.003906 4.1484-1.8477 4.1484-4.1484z"/>
  <path d="m634.1 905.97h11.52c2.3047 0 4.1484-1.8438 4.1484-4.1484 0-2.3047-1.8438-4.1484-4.1484-4.1484h-11.52c-2.3047 0-4.1484 1.8438-4.1484 4.1484 0 2.3047 1.8438 4.1484 4.1484 4.1484z"/>
  <path d="m717.97 918.41h-103.68c-2.3047 0-4.1484 1.8438-4.1484 4.1484s1.8438 4.1484 4.1484 4.1484h103.68c2.3047 0 4.1484-1.8438 4.1484-4.1484s-1.8438-4.1484-4.1445-4.1484z"/>
  <path d="m597.7 918.41h-17.051c-2.3047 0-4.1484 1.8438-4.1484 4.1484s1.8438 4.1484 4.1484 4.1484h17.051c2.3047 0 4.1484-1.8438 4.1484-4.1484-0.003906-2.3047-1.8477-4.1484-4.1484-4.1484z"/>
  <path d="m565.9 918.41h-11.52c-2.3047 0-4.1484 1.8438-4.1484 4.1484s1.8438 4.1484 4.1484 4.1484h11.52c2.3047 0 4.1484-1.8438 4.1484-4.1484s-1.8438-4.1484-4.1484-4.1484z"/>
  <path d="m656.68 259.93c2.3047 0.46094 4.6094-0.92188 5.0703-3.2266l5.0703-19.816c0.46094-2.3047-0.92187-4.6094-3.2266-5.0703-2.3047-0.46094-4.6094 0.92188-5.0703 3.2266l-5.0703 19.816c-0.46094 2.3047 0.92188 4.6094 3.2266 5.0703z"/>
  <path d="m688.02 272.83c1.8438 1.3828 4.6094 0.46094 5.9922-1.3828l10.137-17.512c1.3828-1.8438 0.46094-4.6094-1.3828-5.9922-1.8438-1.3828-4.6094-0.46094-5.9922 1.3828l-10.137 17.512c-1.3828 2.3047-0.92187 5.0703 1.3828 5.9922z"/>
  <path d="m720.73 293.57 14.285-14.285c1.8438-1.8438 1.8438-4.6094 0-5.9922-1.8438-1.8438-4.6094-1.8438-5.9922 0l-14.285 14.285c-1.8438 1.8438-1.8438 4.6094 0 5.9922 1.8477 1.3789 4.1484 1.3789 5.9922 0z"/>
  <path d="m752.99 354.39 19.816-5.0703c2.3047-0.46094 3.6875-2.7656 3.2266-5.0703-0.46094-2.3047-2.7656-3.6875-5.0703-3.2266l-19.816 5.0703c-2.3047 0.46094-3.6875 2.7656-3.2266 5.0703 0.46094 2.3047 3.2266 3.6875 5.0703 3.2266z"/>
  <path d="m752.53 384.35c0 2.3047 1.8438 4.1484 4.1484 4.1484h20.273c2.3047 0 4.1484-1.8438 4.1484-4.1484 0-2.3047-1.8438-4.1484-4.1484-4.1484h-20.273c-2.3047 0-4.1484 1.8438-4.1484 4.1484z"/>
  <path d="m751.14 423.05 19.816 5.0703c2.3047 0.46094 4.6094-0.92188 5.0703-3.2266 0.46094-2.3047-0.92188-4.6094-3.2266-5.0703l-19.816-5.0703c-2.3047-0.46094-4.6094 0.92188-5.0703 3.2266-0.46094 2.3047 0.92188 4.6094 3.2266 5.0703z"/>
  <path d="m736.86 454.85 17.512 10.137c1.8438 1.3828 4.6094 0.46094 5.9922-1.3828 1.3828-1.8438 0.46094-4.6094-1.3828-5.9922l-17.512-10.137c-1.8438-1.3828-4.6094-0.46094-5.9922 1.3828-1.3828 2.3086-0.92187 4.6133 1.3828 5.9922z"/>
  <path d="m584.8 257.16c0.46094 2.3047 2.7656 3.6875 5.0703 3.2266 2.3047-0.46094 3.6875-2.7656 3.2266-5.0703l-5.0703-19.816c-0.46094-2.3047-2.7656-3.6875-5.0703-3.2266-2.3047 0.46094-3.6875 2.7656-3.2266 5.0703z"/>
  <path d="m553 271.45c1.3828 1.8438 3.6875 2.7656 5.9922 1.3828 1.8438-1.3828 2.7656-3.6875 1.3828-5.9922l-10.137-17.512c-0.92578-1.8398-3.6914-2.7617-5.5312-1.3789-1.8438 1.3828-2.7656 3.6875-1.3828 5.9922z"/>
  <path d="m474.2 348.86 19.816 5.0703c2.3047 0.46094 4.6094-0.92188 5.0703-3.2266 0.46094-2.3047-0.92188-4.6094-3.2266-5.0703l-19.816-5.0703c-2.3047-0.46094-4.6094 0.92188-5.0703 3.2266-0.46094 2.3086 0.92188 4.6094 3.2266 5.0703z"/>
  <path d="m470.05 388.95h20.273c2.3047 0 4.1484-1.8438 4.1484-4.1484 0-2.3047-1.8438-4.1484-4.1484-4.1484h-20.273c-2.3047 0-4.1484 1.8438-4.1484 4.1484 0.003906 2.3086 1.8438 4.1484 4.1484 4.1484z"/>
  <path d="m499.09 417.98c-0.46094-2.3047-2.7656-3.6875-5.0703-3.2266l-19.812 5.5312c-2.3047 0.46094-3.6875 2.7656-3.2266 5.0703 0.46094 2.3047 2.7656 3.6875 5.0703 3.2266l19.816-5.0703c2.3008-0.92188 3.6836-3.2266 3.2227-5.5312z"/>
  <path d="m486.64 463.61c1.3828 1.8438 3.6875 2.7656 5.9922 1.3828l17.512-10.137c1.8438-1.3828 2.7656-3.6875 1.3828-5.9922-1.3828-1.8438-3.6875-2.7656-5.9922-1.3828l-17.512 10.137c-1.8438 0.92188-2.3047 3.6875-1.3828 5.9922z"/>
 </g>
</svg>
