<?xml version="1.0" encoding="UTF-8"?>
<svg width="1200pt" height="1200pt" version="1.1" viewBox="0 0 1200 1200" xmlns="http://www.w3.org/2000/svg">
 <g>
  <path d="m582.95 890.77c0-2.3047-1.8438-4.6094-4.6094-4.6094l-109.67 0.003906c-2.3047 0-4.6094 1.8438-4.6094 4.6094 0 2.3047 1.8438 4.6094 4.6094 4.6094h109.67c2.3047-0.003906 4.6094-2.3086 4.6094-4.6133z"/>
  <path d="m618.43 890.77c0-2.3047-1.8438-4.6094-4.6094-4.6094h-17.973c-2.3047 0-4.6094 1.8438-4.6094 4.6094 0 2.3047 1.8438 4.6094 4.6094 4.6094h17.973c2.3047 0 4.6094-2.3047 4.6094-4.6094z"/>
  <path d="m629.49 895.38h11.98c2.3047 0 4.6094-1.8438 4.6094-4.6094 0-2.3047-1.8438-4.6094-4.6094-4.6094h-11.98c-2.3047 0-4.6094 1.8438-4.6094 4.6094 0.003907 2.3047 1.8438 4.6094 4.6094 4.6094z"/>
  <path d="m717.97 908.28h-109.67c-2.3047 0-4.6094 1.8438-4.6094 4.6094 0 2.3047 1.8438 4.6094 4.6094 4.6094h109.67c2.3047 0 4.6094-1.8438 4.6094-4.6094-0.46484-2.3047-2.3086-4.6094-4.6094-4.6094z"/>
  <path d="m590.79 908.28h-18.43c-2.3047 0-4.6094 1.8438-4.6094 4.6094 0 2.3047 1.8438 4.6094 4.6094 4.6094l18.43-0.003906c2.3047 0 4.6094-1.8438 4.6094-4.6094-0.46094-2.3008-2.3047-4.6055-4.6094-4.6055z"/>
  <path d="m557.15 908.28h-11.98c-2.3047 0-4.6094 1.8438-4.6094 4.6094 0 2.3047 1.8438 4.6094 4.6094 4.6094h11.98c2.3047 0 4.6094-1.8438 4.6094-4.6094-0.003906-2.3047-2.3086-4.6094-4.6094-4.6094z"/>
  <path d="m537.79 608.3c-2.3047-0.46094-5.0703 0.92188-5.5312 3.2266-3.6875 13.363-15.668 22.578-29.492 22.578s-25.805-9.2148-29.492-22.578c-0.46094-2.3047-3.2266-3.6875-5.5312-3.2266-2.3047 0.46094-3.6875 3.2266-3.2266 5.5312 4.6094 17.512 20.273 29.492 38.246 29.492s33.637-11.98 38.246-29.492c0.46875-2.7656-0.91406-5.0703-3.2188-5.5312z"/>
  <path d="m505.54 593.09c2.3047 0 4.6094-1.8438 4.6094-4.6094 0-2.3047-1.8438-4.6094-4.6094-4.6094-3.2266 0-5.9922-2.7656-5.9922-5.9922 0-3.2266 2.7656-5.9922 5.9922-5.9922 2.3047 0 4.6094-1.8438 4.6094-4.6094 0-2.3047-1.8438-4.6094-4.6094-4.6094-8.293 0-14.746 6.4531-14.746 14.746 0 8.7617 6.4492 15.676 14.746 15.676z"/>
  <path d="m547.01 535.03c-7.832 0-14.285 6.4531-14.285 14.285s6.4531 14.285 14.285 14.285c7.832 0 14.285-6.4531 14.285-14.285-0.46094-8.293-6.9102-14.285-14.285-14.285zm0 18.895c-2.7656 0-5.0703-2.3047-5.0703-5.0703 0-2.7656 2.3047-5.0703 5.0703-5.0703 2.7656 0 5.0703 2.3047 5.0703 5.0703 0 2.7656-2.3047 5.0703-5.0703 5.0703z"/>
  <path d="m526.73 535.03c2.3047 1.3828 5.0703 0.46094 5.9922-1.8438 2.7656-5.5312 7.832-8.7539 13.824-8.7539 5.9922 0 11.059 3.2266 13.824 8.7539 0.92188 2.3047 3.6875 3.2266 5.9922 1.8438 2.3047-0.92188 3.2266-3.6875 1.8438-5.9922-4.1484-8.293-12.441-13.363-21.656-13.363-9.2148 0-17.512 5.0703-21.656 13.363-0.92969 2.3086-0.007813 4.6094 1.8359 5.9922z"/>
  <path d="m473.28 548.85c0-7.832-6.4531-14.285-14.285-14.285-7.832 0-14.285 6.4531-14.285 14.285 0 7.832 6.4531 14.285 14.285 14.285 7.832 0 14.285-6.4492 14.285-14.285zm-14.285 5.0703c-2.7656 0-5.0703-2.3047-5.0703-5.0703 0-2.7656 2.3047-5.0703 5.0703-5.0703s5.0703 2.3047 5.0703 5.0703c0 2.7656-2.3047 5.0703-5.0703 5.0703z"/>
  <path d="m439.18 535.03c2.3047 0.92188 5.0703 0.46094 5.9922-1.8438 2.7656-5.5312 7.832-8.7539 13.824-8.7539s11.059 3.2266 13.824 8.7539c0.92188 2.3047 3.6875 3.2266 5.9922 1.8438 2.3047-0.92188 3.2266-3.6875 1.8438-5.9922-4.1484-8.293-12.441-13.363-21.656-13.363s-17.512 5.0703-21.656 13.363c-1.3906 2.3086-0.46875 4.6094 1.8359 5.9922z"/>
  <path d="m502.77 814.27c7.3711 0 13.363-5.9922 13.363-13.363s-5.9922-13.363-13.363-13.363c-7.3711 0-13.363 5.9922-13.363 13.363 0.46094 7.8359 6.4492 13.363 13.363 13.363zm0-17.508c2.3047 0 4.1484 1.8438 4.1484 4.1484 0 2.3047-1.8438 4.1484-4.1484 4.1484-2.3047 0-4.1484-1.8438-4.1484-4.1484 0-1.8477 1.8438-4.1484 4.1484-4.1484z"/>
  <path d="m502.77 782.94c7.3711 0 13.363-5.9922 13.363-13.363s-5.9922-13.363-13.363-13.363c-7.3711 0-13.363 5.9922-13.363 13.363 0.46094 7.3711 6.4492 13.363 13.363 13.363zm0-17.512c2.3047 0 4.1484 1.8438 4.1484 4.1484s-1.8438 4.1484-4.1484 4.1484c-2.3047 0-4.1484-1.8438-4.1484-4.1484s1.8438-4.1484 4.1484-4.1484z"/>
  <path d="m502.77 846.07c7.3711 0 13.363-5.9922 13.363-13.363 0-7.3711-5.9922-13.363-13.363-13.363-7.3711 0-13.363 5.9922-13.363 13.363 0.46094 7.3711 6.4492 13.363 13.363 13.363zm0-17.512c2.3047 0 4.1484 1.8438 4.1484 4.1484 0 2.3047-1.8438 4.1484-4.1484 4.1484-2.3047 0-4.1484-1.8438-4.1484-4.1484 0-2.3047 1.8438-4.1484 4.1484-4.1484z"/>
  <path d="m973.25 578.34c0-9.6758-6.9102-17.512-16.129-19.355-4.1484-36.863-13.824-72.348-28.57-105.98v-130.87c0-2.3047-1.8438-4.6094-4.6094-4.6094h-58.062v-32.258c0-2.3047-1.8438-4.6094-4.6094-4.6094h-88.934c-53.91-30.867-116.12-46.996-179.25-46.996-201.83 0-366.34 164.51-366.34 366.34 0 81.102 25.805 158.05 75.109 222.11 0 2.7656-0.46094 5.9922-0.46094 8.7539v27.648c0 2.3047 1.8438 4.6094 4.6094 4.6094h32.258c68.66 66.355 158.98 103.22 254.82 103.22 99.074 0 189.39-39.629 255.29-103.68 0.46094-0.46094 0.92188-0.46094 1.3828-0.92188 67.73-66.812 109.66-159.43 109.66-261.73v-3.2266c7.8359-2.7617 13.824-10.137 13.824-18.43zm-24.883-19.812h-19.355v-81.562c9.6797 26.266 16.129 53.914 19.355 81.562zm-180.17 0v-39.168h88.934v39.168zm-62.211-51.613h53.453v11.059l-53.453 0.003907zm53.453-131.33h-53.453v-10.598h53.453zm0 9.2188v112.89h-53.453v-112.89zm-53.453 141.93h53.453v29.492h-53.453zm62.211-29.492h88.934v12.902h-88.934v-12.902zm98.148 9.6758h53.453v11.059h-53.453v-11.059zm53.453-9.2148h-53.453v-112.89h53.453zm0-122.11h-53.453v-10.598h53.453zm-62.668 4.6094v107.83h-88.934v-128.56h88.934v20.734zm0-29.492h-88.934v-12.902h88.934zm-97.691 4.6094v0.46094h-53.453v-29.492h53.453v29.031zm106.91 171.42h53.453v31.797h-53.453zm53.453-200.45v29.492h-53.453v-29.492zm-62.668 2.3047h-88.934v-39.168h88.934v39.168zm-546.51 502.73c0-70.043 55.758-127.18 125.34-129.95v70.043c0 1.3828 0.92188 3.2266 2.3047 3.6875 1.3828 0.92188 3.2266 0.92188 4.6094 0l60.363-30.414 60.363 30.414c1.3828 0.92188 3.2266 0.46094 4.6094 0 1.3828-0.92188 2.3047-2.3047 2.3047-3.6875v-70.043c69.582 2.3047 125.34 59.445 125.34 129.95v23.039h-384.77l-0.003906-23.039zm106.91-157.13c-4.6094-0.46094-10.598-1.8438-16.129-5.9922-9.2148-6.9102-15.207-18.895-17.512-35.48-1.3828-11.52-0.46094-4.1484-0.92187-200.91v-8.293c0-4.6094 0.46094-15.668 7.3711-22.578 3.6875-3.6875 8.7539-5.5312 14.746-5.9922 0 2.3047 0.46094 4.6094 0.92188 6.9102 1.8438 7.832 5.5312 16.129 10.598 23.961-5.0703 5.5312-14.285 19.816-16.129 48.383-0.46094 0.46094-0.46094 1.3828-0.46094 2.3047 0.46094 135.94-1.8438 150.68 5.9922 179.25 0.92188 4.1484 2.3047 7.832 3.6875 11.52 0.46094 1.8438 2.3047 2.7656 4.1484 2.7656h1.8438c0.46094 0.92578 0.92187 2.7695 1.8438 4.1523zm217.5-34.562c-5.5312-4.1484-12.441-10.598-18.895-18.895-1.3828-1.3828-3.6875-2.3047-5.5312-1.3828-1.8438 0.92188-2.7656 2.7656-2.3047 5.0703 3.6875 18.434 9.2148 32.258 14.746 41.473-13.824-10.137-28.57-25.805-33.637-41.934-8.293-23.961 0.92188-133.63 0.92188-134.55 0.46094-2.7656-2.3047-5.0703-5.0703-5.0703-62.668 1.8438-158.52-29.953-170.5-84.328-0.46094-3.2266-0.92187-6.4531-0.46094-9.2148 0.46094-6.9102 3.6875-13.824 8.293-18.895 30.414-33.637 79.258-26.266 79.719-26.266 122.11 18.434 124.42 131.33 124.42 135.94v87.09c-1.8398 38.715 2.7656 59.91 8.2969 70.969zm-33.18 20.738h-33.176c6.9102-5.9922 12.441-12.902 17.512-20.734 4.1445 7.3711 9.6758 14.742 15.664 20.734zm-41.012 43.316v60.363l-55.758-28.109c-0.46094-0.46094-1.3828-0.46094-1.8438-0.46094-0.92188 0-1.3828 0-1.8438 0.46094l-55.758 28.109v-60.363l56.219 23.5c0.46094 0.46094 1.3828 0.46094 1.8438 0.46094h0.46094c0.46094 0 0.92188 0 1.3828-0.46094l17.051-7.3711zm0-10.141-58.062 24.422-58.062-24.422v-23.5c16.59 11.059 35.941 17.051 55.758 17.051 20.273 0 40.09-5.9922 56.68-17.512h3.6875zm-139.16-260.35c35.02 41.934 103.68 60.363 158.52 60.363-1.8438 25.344-8.293 112.89 0.92188 135.94-16.129 30.414-47.465 48.387-80.641 48.387-22.578 0-44.238-8.293-61.285-23.5-17.973-16.129-28.57-38.246-30.414-61.746v-109.21c0-29.031 8.293-43.773 12.902-50.227zm-5.0703 227.18c-0.92187-2.3047-1.8438-5.0703-2.3047-7.832-1.8438-6.9102-3.2266-14.285-4.1484-22.117 5.5312 11.059 12.902 21.195 22.117 29.492l-15.664-0.003906zm-64.973 202.75h482.92c-63.59 58.523-148.38 94.004-241.46 94.004-89.852 0.45703-175.1-33.18-241.46-94.004zm492.6-8.7578h-139.62v-23.039c0-75.109-59.902-136.4-134.55-138.7v-22.578h41.934c7.832 6.4531 16.129 11.98 24.422 15.207 2.3047 0.92188 4.6094 0 5.5312-1.8438 1.3828-1.8438 0.92188-4.1484-0.92188-5.9922 0 0-11.52-10.598-19.816-36.863 9.6758 9.2148 20.734 16.59 29.492 12.902 1.8438-0.92188 3.2266-2.7656 2.7656-4.6094-0.46094-1.8438-1.8438-3.6875-3.6875-3.6875 0 0-17.051-5.5312-14.285-76.031v-87.551c0-1.3828-1.8438-125.34-131.79-144.69-2.3047-0.46094-54.375-7.832-88.012 29.031-5.0703 5.5312-8.7539 12.441-10.137 19.816-9.2148 0.46094-16.59 3.2266-22.117 8.7539-9.2148 9.2148-10.137 23.5-9.6758 29.492v7.832 186.62c0 5.5312 0.46094 10.137 0.92188 15.207 2.7656 19.355 9.6758 33.176 20.734 41.934 9.2148 6.9102 19.355 7.832 24.883 7.832 3.2266 0 6.9102 0 8.293-2.7656 0.46094-1.3828 0.46094-2.7656-0.46094-4.1484-1.3828-2.3047-2.3047-4.6094-3.6875-6.9102h10.598v22.578c-66.816 2.3047-122.11 52.07-132.71 116.58-43.316-60.824-66.355-132.71-66.355-208.74 0-197.22 160.36-357.58 357.12-357.58 58.062 0 115.2 14.285 166.35 41.012 0 0.46094-0.46094 0.92187-0.46094 1.3828v32.258h-57.598c-2.3047 0-4.6094 1.8438-4.6094 4.6094v236.85h-24.883c-10.598 0-19.355 8.7539-19.355 19.355 0 10.598 8.7539 19.355 19.355 19.355h278.79v2.3047c0 99.988-41.012 189.84-106.45 254.82zm109.67-265.88h-282.01c-5.5312 0-10.598-4.6094-10.598-10.598 0-5.5312 4.6094-10.598 10.598-10.598h282.01c5.5312 0 10.598 4.6094 10.598 10.598-0.46094 5.9922-5.0703 10.598-10.598 10.598z"/>
  <path d="m812.89 476.97c18.434 0 33.176-23.039 33.176-52.531s-14.746-52.531-33.176-52.531c-18.434 0-33.176 23.039-33.176 52.531 0 29.488 14.285 52.531 33.176 52.531zm0-96.309c12.902 0 23.961 19.816 23.961 43.777 0 23.5-11.059 43.777-23.961 43.777s-23.961-19.816-23.961-43.777c-0.46094-23.961 10.598-43.777 23.961-43.777z"/>
  <path d="m713.82 442.87 14.285 41.934c0.46094 1.8438 2.3047 3.2266 4.1484 3.2266s3.6875-1.3828 4.1484-3.2266l14.285-41.934c0.46094-0.92188 0.46094-1.8438 0-2.7656-14.285-38.707-12.902-44.699-18.895-44.699-5.9922 0-4.1484 5.9922-18.895 44.699 0.46094 0.46094 0.46094 1.8438 0.92187 2.7656zm18.891-29.488 9.6758 28.109-9.6758 28.109-9.6758-28.109z"/>
  <path d="m874.18 442.87 14.285 41.934c0.46094 1.8438 2.3047 3.2266 4.1484 3.2266s3.6875-1.3828 4.1484-3.2266l14.285-41.934c0.46094-0.92188 0.46094-1.8438 0-2.7656l-14.285-41.934c-0.46094-1.8438-2.3047-3.2266-4.1484-3.2266s-3.6875 1.3828-4.1484 3.2266l-14.285 41.934v2.7656zm18.891-29.488 9.6758 28.109-9.6758 28.109-9.6758-28.109z"/>
  <path d="m880.17 634.1h-150.22c-11.52 0-21.195 9.2148-21.195 21.195v78.336c0 11.52 9.2148 21.195 21.195 21.195h5.0703v49.766c0 1.8438 0.92188 3.2266 2.7656 4.1484 1.3828 0.92187 3.2266 0.46094 4.6094-0.46094l64.973-53.453h72.805c11.52 0 21.195-9.2148 21.195-21.195l0.003907-78.336c-0.46094-11.98-9.6797-21.195-21.199-21.195zm11.98 99.531c0 6.4531-5.5312 11.98-11.98 11.98h-74.648c-0.92188 0-1.8438 0.46094-2.7656 0.92188l-58.523 48.383v-44.699c0-2.3047-1.8438-4.6094-4.6094-4.6094h-9.6758c-6.4531 0-11.98-5.5312-11.98-11.98l0.003906-78.332c0-6.4531 5.5312-11.98 11.98-11.98h150.22c6.4531 0 11.98 5.5312 11.98 11.98z"/>
  <path d="m756.21 674.19c-11.059 0-20.273 9.2148-20.273 20.273s9.2148 20.273 20.273 20.273 20.273-9.2148 20.273-20.273-9.2148-20.273-20.273-20.273zm0 31.332c-6.4531 0-11.52-5.0703-11.52-11.52 0-6.4531 5.0703-11.52 11.52-11.52 6.4531 0 11.52 5.0703 11.52 11.52-0.46094 6.4531-5.5312 11.52-11.52 11.52z"/>
  <path d="m805.06 674.19c-11.059 0-20.273 9.2148-20.273 20.273s9.2148 20.273 20.273 20.273 20.273-9.2148 20.273-20.273-9.2148-20.273-20.273-20.273zm0 31.332c-6.4531 0-11.52-5.0703-11.52-11.52 0-6.4531 5.0703-11.52 11.52-11.52 6.4531 0 11.52 5.0703 11.52 11.52-0.46094 6.4531-5.5312 11.52-11.52 11.52z"/>
  <path d="m853.9 674.19c-11.059 0-20.273 9.2148-20.273 20.273s9.2148 20.273 20.273 20.273 20.273-9.2148 20.273-20.273c0.003907-11.059-9.2148-20.273-20.273-20.273zm0 31.332c-6.4531 0-11.52-5.0703-11.52-11.52 0-6.4531 5.0703-11.52 11.52-11.52 6.4531 0 11.52 5.0703 11.52 11.52-0.46094 6.4531-5.5273 11.52-11.52 11.52z"/>
 </g>
</svg>
