<?xml version="1.0" encoding="UTF-8"?>
<svg width="1200pt" height="1200pt" version="1.1" viewBox="0 0 1200 1200" xmlns="http://www.w3.org/2000/svg">
 <g>
  <path d="m970.99 600c0-80.152-25.191-156.64-72.824-220.76v-85.645c0-19.695-16.031-36.184-36.184-36.184h-119.08c-45.344-18.777-93.434-28.398-142.9-28.398-47.176 0-93.434 8.7031-136.95 26.105l-4.1211-11.449c-0.45703-1.8281-2.2891-3.2031-4.1211-3.2031h-27.938c-1.832 0-3.6641 1.375-4.1211 3.207l-5.9531 16.945c-5.0391 1.375-10.078 3.6641-14.656 5.9531l-15.574-7.7852c-1.832-0.91797-3.6641-0.45703-5.0391 0.91797l-19.695 19.695c-1.375 1.375-1.832 3.6641-0.91797 5.0391l7.7852 16.031c-2.2891 4.582-4.582 9.6172-5.9531 14.656l-16.945 5.9531c-1.832 0.45703-3.207 2.2891-3.207 4.1211v7.7852c-73.277 70.531-113.58 165.34-113.58 267.02 0 57.711 12.824 113.13 38.473 164.88v63.664c0 21.07 16.945 38.016 38.016 38.016h36.641c68.242 65.953 158.01 103.05 252.82 104.43h5.0391c204.27 0 370.98-166.26 370.98-370.99zm-9.1602 0c0 100.76-41.223 191.91-108.09 257.4h-20.152c8.2461-6.8711 13.281-17.406 13.281-28.855v-113.59h15.113c19.695 0 36.184-16.031 36.184-36.184v-283.96c41.68 60.457 63.664 130.99 63.664 205.19zm-361.83 361.83c-90.688 0-178.16-33.895-244.58-95.266h488.7c-67.324 61.832-154.8 95.266-244.12 95.266zm-38.012-349.92v-39.391c0-24.273-19.695-43.969-43.969-43.969h-60.918c-19.238 0-34.809-15.574-34.809-34.809 0-19.238 15.574-34.809 34.809-34.809h111.75v152.52l-6.8672 0.003906zm16.027-290.38h310.99v357.25c0 14.656-11.91 27.023-27.023 27.023h-15.113v-55.875c0-21.07-16.945-38.016-38.016-38.016h-230.84zm310.99-27.938v18.777h-310.99v-18.777c0-14.656 11.91-27.023 27.023-27.023h256.95c15.113 0 27.02 12.367 27.02 27.023zm-537.24 34.809 16.031-5.4961c1.375-0.45703 2.75-1.832 2.75-3.207 1.832-5.9531 4.1211-11.449 6.8711-16.945 0.91797-1.375 0.91797-2.75 0-4.1211l-7.3281-15.113 15.113-15.113 15.113 7.3281c1.375 0.45703 2.75 0.45703 4.1211 0 5.4961-3.207 10.992-5.4961 16.945-6.8711 1.375-0.45703 2.75-1.375 3.207-2.75l5.9531-16.488h21.07l5.4961 16.031c0.45703 1.375 1.832 2.75 3.207 2.75 5.9531 1.832 11.449 4.1211 16.945 6.8711 1.375 0.91797 2.75 0.91797 4.1211 0l15.113-7.3281 15.113 15.113-7.3281 15.113c-0.45703 1.375-0.45703 2.75 0 4.1211 3.207 5.4961 5.4961 10.992 6.8711 16.945 0.45703 1.375 1.375 2.75 2.75 3.207l16.031 5.4961v21.07l-16.031 5.4961c-1.375 0.45703-2.75 1.832-2.75 3.207-1.832 5.9531-4.1211 11.449-6.8711 16.945-0.91797 1.375-0.91797 2.75 0 4.1211l7.3281 15.113-15.113 16.031-15.113-7.3281c-1.375-0.45703-3.207-0.45703-4.1211 0-5.4961 3.207-10.992 5.4961-16.945 6.8711-1.375 0.45703-2.75 1.375-3.207 2.75l-5.4961 16.031h-21.07l-5.4961-16.031c-0.45703-1.375-1.832-2.75-3.207-2.75-5.9531-1.832-11.449-4.1211-16.945-6.8711-1.375-0.91797-2.75-0.91797-4.1211 0l-15.574 7.3281-15.113-15.113 7.3281-15.113c0.45703-1.375 0.45703-2.75 0-4.1211-3.207-5.4961-5.4961-10.992-6.8711-16.945-0.45703-1.375-1.375-2.75-2.75-3.207l-16.031-5.4961zm-113.59 271.6c0-96.184 37.098-185.95 104.43-254.2v6.8711c0 1.832 1.375 3.6641 3.207 4.1211l16.945 5.9531c1.375 5.0391 3.6641 10.078 5.9531 14.656l-7.7852 16.031c-0.91797 1.832-0.45703 3.6641 0.91797 5.0391l19.695 19.695c1.375 1.375 3.6641 1.832 5.0391 0.91797l16.031-7.7852c4.582 2.2891 9.6172 4.582 14.656 5.9531l5.9531 16.945c0.45703 1.832 2.2891 3.207 4.1211 3.207h27.938c1.832 0 3.6641-1.375 4.1211-3.207l5.9531-16.945c5.0391-1.375 10.078-3.6641 14.656-5.9531l16.031 7.7852c1.832 0.91797 3.6641 0.45703 5.0391-0.91797l19.695-19.695c1.375-1.375 1.832-3.6641 0.91797-5.0391l-8.25-15.57c2.2891-4.582 4.582-9.6172 5.9531-14.656l16.945-5.9531c1.832-0.45703 3.207-2.2891 3.207-4.1211v-27.938c0-1.832-1.375-3.6641-3.207-4.1211l-16.945-5.9531c-1.375-5.0391-3.6641-10.078-5.9531-14.656l7.7852-16.031c0.91797-1.832 0.45703-3.6641-0.91797-5.0391l-19.695-19.695c-1.375-1.375-3.6641-1.832-5.0391-0.91797l-16.031 7.7852c-3.207-1.832-6.4141-3.207-9.6172-4.1211 41.223-16.031 85.191-24.273 130.07-24.273 40.305 0 79.234 6.4141 116.79 19.238l-111.75-0.003906c-19.695 0-36.184 16.031-36.184 36.184v156.64h-111.75c-24.273 0-43.969 19.695-43.969 43.969s19.695 43.969 43.969 43.969h60.914c19.238 0 34.809 15.574 34.809 34.809v39.391h-247.32c-21.07 0-38.016 16.945-38.016 38.016v92.977c-19.234-45.348-29.309-93.438-29.309-143.36zm38.473 228.55v-178.62c0-16.031 12.824-28.855 28.855-28.855h503.81c16.031 0 28.855 12.824 28.855 28.855v178.62c0 16.031-12.824 28.855-28.855 28.855h-503.81c-16.031 0-28.855-12.824-28.855-28.855z"/>
  <path d="m589.47 894.5c0-2.75-1.832-4.582-4.582-4.582l-110.84 0.003906c-2.75 0-4.582 1.832-4.582 4.582 0 6.4141-2.2891 4.582 115.42 4.582 2.2891-0.003907 4.582-2.293 4.582-4.5859z"/>
  <path d="m625.65 894.5c0-2.75-1.832-4.582-4.582-4.582h-18.32c-2.75 0-4.582 1.832-4.582 4.582s1.832 4.582 4.582 4.582h18.32c2.293 0 4.582-2.2891 4.582-4.582z"/>
  <path d="m636.64 899.08h11.91c2.75 0 4.582-1.832 4.582-4.582s-1.832-4.582-4.582-4.582h-11.91c-2.75 0-4.582 1.832-4.582 4.582 0.003906 2.293 1.8359 4.582 4.582 4.582z"/>
  <path d="m615.12 912.36c-2.75 0-4.582 1.832-4.582 4.582s1.832 4.582 4.582 4.582c117.71 0 115.42 1.832 115.42-4.582 0-6.4141 2.2891-4.582-115.42-4.582z"/>
  <path d="m597.25 912.36h-18.32c-2.75 0-4.582 1.832-4.582 4.582s1.832 4.582 4.582 4.582h18.32c2.75 0 4.582-1.832 4.582-4.582-0.003907-2.75-1.8359-4.582-4.582-4.582z"/>
  <path d="m563.36 912.36h-11.91c-2.75 0-4.582 1.832-4.582 4.582s1.832 4.582 4.582 4.582h11.91c2.75 0 4.582-1.832 4.582-4.582s-1.832-4.582-4.582-4.582z"/>
  <path d="m604.58 275.73c-7.7852 0-14.199 6.4141-14.199 14.199 0 7.7852 6.4141 14.199 14.199 14.199 7.7852 0 14.199-6.4141 14.199-14.199-0.46094-8.2422-6.8711-14.199-14.199-14.199zm0 18.781c-2.75 0-5.0391-2.2891-5.0391-5.0391s2.2891-5.0391 5.0391-5.0391 5.0391 2.2891 5.0391 5.0391c0 2.7461-2.75 5.0391-5.0391 5.0391z"/>
  <path d="m641.22 275.73c-7.7852 0-14.199 6.4141-14.199 14.199 0 7.7852 6.4141 14.199 14.199 14.199s14.199-6.4141 14.199-14.199c0-8.2422-6.4141-14.199-14.199-14.199zm0 18.781c-2.75 0-5.0391-2.2891-5.0391-5.0391s2.2891-5.0391 5.0391-5.0391 5.0391 2.2891 5.0391 5.0391c0 2.7461-2.293 5.0391-5.0391 5.0391z"/>
  <path d="m678.32 275.73c-7.7852 0-14.199 6.4141-14.199 14.199 0 7.7852 6.4141 14.199 14.199 14.199 7.7852 0 14.199-6.4141 14.199-14.199-0.45703-8.2422-6.4141-14.199-14.199-14.199zm0 18.781c-2.75 0-5.0391-2.2891-5.0391-5.0391s2.2891-5.0391 5.0391-5.0391 5.0391 2.2891 5.0391 5.0391c0 2.7461-2.75 5.0391-5.0391 5.0391z"/>
  <path d="m702.59 289.47c0 7.7852 6.4141 14.199 14.199 14.199h146.11c7.7852 0 14.199-6.4141 14.199-14.199s-6.4141-14.199-14.199-14.199h-146.11c-7.7852 0.45703-14.199 6.4141-14.199 14.199zm164.89 0c0 2.75-2.2891 5.0391-5.0391 5.0391h-145.65c-2.75 0-5.0391-2.2891-5.0391-5.0391s2.2891-5.0391 5.0391-5.0391h146.11c2.75 0.45703 4.582 2.2891 4.582 5.0391z"/>
  <path d="m635.73 337.56h-29.312c-2.75 0-4.582 1.832-4.582 4.582s1.832 4.582 4.582 4.582h29.312c2.75 0 4.582-1.832 4.582-4.582-0.003906-2.75-2.293-4.582-4.582-4.582z"/>
  <path d="m649.46 346.72h21.07c2.75 0 4.582-1.832 4.582-4.582s-1.832-4.582-4.582-4.582h-21.07c-2.75 0-4.582 1.832-4.582 4.582 0.003907 2.293 1.8359 4.582 4.582 4.582z"/>
  <path d="m635.73 360.46h-29.312c-2.75 0-4.582 1.832-4.582 4.582s1.832 4.582 4.582 4.582h29.312c2.75 0 4.582-1.832 4.582-4.582-0.003906-2.75-2.293-4.582-4.582-4.582z"/>
  <path d="m649.46 369.62h21.07c2.75 0 4.582-1.832 4.582-4.582s-1.832-4.582-4.582-4.582h-21.07c-2.75 0-4.582 1.832-4.582 4.582 0.003907 2.2891 1.8359 4.582 4.582 4.582z"/>
  <path d="m648.55 392.52h63.207c2.75 0 4.582-1.832 4.582-4.582s-1.832-4.582-4.582-4.582l-63.207 0.003906c-2.75 0-4.582 1.832-4.582 4.582 0 2.2891 1.832 4.5781 4.582 4.5781z"/>
  <path d="m728.7 392.52h131.91c2.75 0 4.582-1.832 4.582-4.582s-1.832-4.582-4.582-4.582h-131.91c-2.75 0-4.582 1.832-4.582 4.582 0 2.293 2.2891 4.582 4.582 4.582z"/>
  <path d="m648.55 415.43h37.098c2.75 0 4.582-1.832 4.582-4.582s-1.832-4.582-4.582-4.582h-37.098c-2.75 0-4.582 1.832-4.582 4.582 0 2.2891 1.832 4.582 4.582 4.582z"/>
  <path d="m791.45 410.84c0-2.75-1.832-4.582-4.582-4.582h-85.191c-2.75 0-4.582 1.832-4.582 4.582s1.832 4.582 4.582 4.582h85.191c2.75 0 4.582-2.293 4.582-4.582z"/>
  <path d="m861.07 406.27h-59.543c-2.75 0-4.582 1.832-4.582 4.582s1.832 4.582 4.582 4.582h59.543c2.75 0 4.582-1.832 4.582-4.582s-2.293-4.582-4.582-4.582z"/>
  <path d="m648.55 437.87h97.098c2.75 0 4.582-1.832 4.582-4.582s-1.832-4.582-4.582-4.582l-97.098 0.003906c-2.75 0-4.582 1.832-4.582 4.582 0 2.7461 1.832 4.5781 4.582 4.5781z"/>
  <path d="m861.07 428.71h-99.848c-2.75 0-4.582 1.832-4.582 4.582s1.832 4.582 4.582 4.582h99.848c2.75 0 4.582-1.832 4.582-4.582 0-2.293-2.293-4.582-4.582-4.582z"/>
  <path d="m648.55 460.77h122.29c2.75 0 4.582-1.832 4.582-4.582s-1.832-4.582-4.582-4.582l-122.29 0.003907c-2.75 0-4.582 1.832-4.582 4.582 0 2.7461 1.832 4.5781 4.582 4.5781z"/>
  <path d="m861.07 451.61h-76.488c-2.75 0-4.582 1.832-4.582 4.582s1.832 4.582 4.582 4.582h76.488c2.75 0 4.582-1.832 4.582-4.582 0-2.2891-2.293-4.582-4.582-4.582z"/>
  <path d="m635.73 474.96h-29.312c-2.75 0-4.582 1.832-4.582 4.582s1.832 4.582 4.582 4.582h29.312c2.75 0 4.582-1.832 4.582-4.582-0.003906-2.75-2.293-4.582-4.582-4.582z"/>
  <path d="m670.54 474.96h-21.07c-2.75 0-4.582 1.832-4.582 4.582s1.832 4.582 4.582 4.582h21.07c2.75 0 4.582-1.832 4.582-4.582-0.003907-2.75-2.293-4.582-4.582-4.582z"/>
  <path d="m635.73 497.87h-29.312c-2.75 0-4.582 1.832-4.582 4.582s1.832 4.582 4.582 4.582h29.312c2.75 0 4.582-1.832 4.582-4.582-0.003906-2.75-2.293-4.582-4.582-4.582z"/>
  <path d="m670.54 497.87h-21.07c-2.75 0-4.582 1.832-4.582 4.582s1.832 4.582 4.582 4.582h21.07c2.75 0 4.582-1.832 4.582-4.582-0.003907-2.75-2.293-4.582-4.582-4.582z"/>
  <path d="m648.55 529.47h63.207c2.75 0 4.582-1.832 4.582-4.582s-1.832-4.582-4.582-4.582l-63.207 0.003906c-2.75 0-4.582 1.832-4.582 4.582 0 2.7461 1.832 4.5781 4.582 4.5781z"/>
  <path d="m861.07 520.31h-131.91c-2.75 0-4.582 1.832-4.582 4.582s1.832 4.582 4.582 4.582h131.91c2.75 0 4.582-1.832 4.582-4.582 0-2.293-2.293-4.582-4.582-4.582z"/>
  <path d="m648.55 552.37h37.098c2.75 0 4.582-1.832 4.582-4.582s-1.832-4.582-4.582-4.582h-37.098c-2.75 0-4.582 1.832-4.582 4.582s1.832 4.582 4.582 4.582z"/>
  <path d="m791.45 547.79c0-2.75-1.832-4.582-4.582-4.582h-85.191c-2.75 0-4.582 1.832-4.582 4.582s1.832 4.582 4.582 4.582h85.191c2.75-0.003906 4.582-1.8359 4.582-4.582z"/>
  <path d="m861.07 543.21h-59.543c-2.75 0-4.582 1.832-4.582 4.582s1.832 4.582 4.582 4.582h59.543c2.75 0 4.582-1.832 4.582-4.582 0-2.2891-2.293-4.582-4.582-4.582z"/>
  <path d="m648.55 575.27h97.098c2.75 0 4.582-1.832 4.582-4.582s-1.832-4.582-4.582-4.582l-97.098 0.003906c-2.75 0-4.582 1.832-4.582 4.582 0 2.7461 1.832 4.5781 4.582 4.5781z"/>
  <path d="m760.76 575.27h99.848c2.75 0 4.582-1.832 4.582-4.582s-1.832-4.582-4.582-4.582h-99.848c-2.75 0-4.582 1.832-4.582 4.582 0.003906 2.75 2.293 4.582 4.582 4.582z"/>
  <path d="m770.84 589.01h-122.29c-2.75 0-4.582 1.832-4.582 4.582s1.832 4.582 4.582 4.582h122.29c2.75 0 4.582-1.832 4.582-4.582-0.003906-2.2891-2.293-4.582-4.582-4.582z"/>
  <path d="m865.65 593.59c0-2.75-1.832-4.582-4.582-4.582h-76.488c-2.75 0-4.582 1.832-4.582 4.582s1.832 4.582 4.582 4.582h76.488c2.2891-0.003906 4.582-1.8359 4.582-4.582z"/>
  <path d="m441.07 387.03c26.566 0 48.09-21.527 48.09-48.09 0-26.566-21.527-48.09-48.09-48.09-26.566 0-48.09 21.527-48.09 48.09-0.003906 26.562 21.523 48.09 48.09 48.09zm0-87.02c21.527 0 38.93 17.406 38.93 38.93 0 21.527-17.406 38.93-38.93 38.93-21.527 0-38.93-17.406-38.93-38.93-0.003906-21.07 17.402-38.93 38.93-38.93z"/>
  <path d="m332.98 796.95h-24.273c-2.75 0-4.582 1.832-4.582 4.582v24.273c0 2.75 1.832 4.582 4.582 4.582h24.273c2.75 0 4.582-1.832 4.582-4.582v-24.273c-0.003906-2.75-2.293-4.582-4.582-4.582zm-4.582 23.816h-15.113v-15.113h15.113z"/>
  <path d="m332.98 747.48h-24.273c-2.75 0-4.582 1.832-4.582 4.582v24.273c0 2.75 1.832 4.582 4.582 4.582h24.273c2.75 0 4.582-1.832 4.582-4.582v-24.273c-0.003906-2.75-2.293-4.582-4.582-4.582zm-4.582 23.816h-15.113v-15.113h15.113z"/>
  <path d="m332.98 698.02h-24.273c-2.75 0-4.582 1.832-4.582 4.582v24.273c0 2.75 1.832 4.582 4.582 4.582h24.273c2.75 0 4.582-1.832 4.582-4.582v-24.273c-0.003906-2.293-2.293-4.582-4.582-4.582zm-4.582 24.273h-15.113v-15.113h15.113z"/>
  <path d="m332.98 648.55h-24.273c-2.75 0-4.582 1.832-4.582 4.582v24.273c0 2.75 1.832 4.582 4.582 4.582h24.273c2.75 0 4.582-1.832 4.582-4.582v-24.273c-0.003906-2.293-2.293-4.582-4.582-4.582zm-4.582 24.273h-15.113v-15.113h15.113z"/>
  <path d="m354.97 829.92h24.273c2.75 0 4.582-1.832 4.582-4.582v-24.273c0-2.75-1.832-4.582-4.582-4.582l-24.273 0.003906c-2.75 0-4.582 1.832-4.582 4.582v24.273c0 2.7461 2.2891 4.5781 4.582 4.5781zm4.5781-23.816h15.113v15.113h-15.113z"/>
  <path d="m354.97 780.46h24.273c2.75 0 4.582-1.832 4.582-4.582v-24.273c0-2.75-1.832-4.582-4.582-4.582l-24.273 0.003907c-2.75 0-4.582 1.832-4.582 4.582v24.273c0 2.7461 2.2891 4.5781 4.582 4.5781zm4.5781-23.816h15.113v15.113h-15.113z"/>
  <path d="m354.97 731.45h24.273c2.75 0 4.582-1.832 4.582-4.582v-24.273c0-2.75-1.832-4.582-4.582-4.582l-24.273 0.003906c-2.75 0-4.582 1.832-4.582 4.582v24.273c0 2.2891 2.2891 4.5781 4.582 4.5781zm4.5781-24.273h15.113v15.113h-15.113z"/>
  <path d="m354.97 681.98h24.273c2.75 0 4.582-1.832 4.582-4.582v-24.273c0-2.75-1.832-4.582-4.582-4.582l-24.273 0.003906c-2.75 0-4.582 1.832-4.582 4.582v24.273c0 2.7461 2.2891 4.5781 4.582 4.5781zm4.5781-24.273h15.113v15.113h-15.113z"/>
  <path d="m401.68 780.46h24.273c2.75 0 4.582-1.832 4.582-4.582v-24.273c0-2.75-1.832-4.582-4.582-4.582h-24.273c-2.75 0-4.582 1.832-4.582 4.582v24.273c0.003907 2.75 1.8359 4.582 4.582 4.582zm4.582-23.816h15.113v15.113h-15.113z"/>
  <path d="m401.68 731.45h24.273c2.75 0 4.582-1.832 4.582-4.582v-24.273c0-2.75-1.832-4.582-4.582-4.582h-24.273c-2.75 0-4.582 1.832-4.582 4.582v24.273c0.003907 2.293 1.8359 4.582 4.582 4.582zm4.582-24.273h15.113v15.113h-15.113z"/>
  <path d="m401.68 681.98h24.273c2.75 0 4.582-1.832 4.582-4.582v-24.273c0-2.75-1.832-4.582-4.582-4.582h-24.273c-2.75 0-4.582 1.832-4.582 4.582v24.273c0.003907 2.75 1.8359 4.582 4.582 4.582zm4.582-24.273h15.113v15.113h-15.113z"/>
  <path d="m447.94 780.46h24.273c2.75 0 4.582-1.832 4.582-4.582v-24.273c0-2.75-1.832-4.582-4.582-4.582h-24.273c-2.75 0-4.582 1.832-4.582 4.582v24.273c0.003906 2.75 2.293 4.582 4.582 4.582zm4.582-23.816h15.113v15.113h-15.113z"/>
  <path d="m447.94 731.45h24.273c2.75 0 4.582-1.832 4.582-4.582v-24.273c0-2.75-1.832-4.582-4.582-4.582h-24.273c-2.75 0-4.582 1.832-4.582 4.582v24.273c0.003906 2.293 2.293 4.582 4.582 4.582zm4.582-24.273h15.113v15.113h-15.113z"/>
  <path d="m447.94 681.98h24.273c2.75 0 4.582-1.832 4.582-4.582v-24.273c0-2.75-1.832-4.582-4.582-4.582h-24.273c-2.75 0-4.582 1.832-4.582 4.582v24.273c0.003906 2.75 2.293 4.582 4.582 4.582zm4.582-24.273h15.113v15.113h-15.113z"/>
  <path d="m494.2 780.46h24.273c2.75 0 4.582-1.832 4.582-4.582v-24.273c0-2.75-1.832-4.582-4.582-4.582h-24.273c-2.75 0-4.582 1.832-4.582 4.582v24.273c0 2.75 2.2891 4.582 4.582 4.582zm4.5781-23.816h15.113v15.113h-15.113z"/>
  <path d="m494.2 731.45h24.273c2.75 0 4.582-1.832 4.582-4.582v-24.273c0-2.75-1.832-4.582-4.582-4.582h-24.273c-2.75 0-4.582 1.832-4.582 4.582v24.273c0 2.293 2.2891 4.582 4.582 4.582zm4.5781-24.273h15.113v15.113h-15.113z"/>
  <path d="m494.2 681.98h24.273c2.75 0 4.582-1.832 4.582-4.582v-24.273c0-2.75-1.832-4.582-4.582-4.582h-24.273c-2.75 0-4.582 1.832-4.582 4.582v24.273c0 2.75 2.2891 4.582 4.582 4.582zm4.5781-24.273h15.113v15.113h-15.113z"/>
  <path d="m401.68 829.92h163.51c2.75 0 4.582-1.832 4.582-4.582v-24.273c0-2.75-1.832-4.582-4.582-4.582l-163.51 0.003906c-2.75 0-4.582 1.832-4.582 4.582v24.273c0.003907 2.7461 1.8359 4.5781 4.582 4.5781zm4.582-24.273h154.35v15.113h-154.35z"/>
  <path d="m540.92 780.46h24.273c2.75 0 4.582-1.832 4.582-4.582v-24.273c0-2.75-1.832-4.582-4.582-4.582h-24.273c-2.75 0-4.582 1.832-4.582 4.582v24.273c0.003906 2.75 1.8359 4.582 4.582 4.582zm4.582-23.816h15.113v15.113h-15.113z"/>
  <path d="m540.92 731.45h24.273c2.75 0 4.582-1.832 4.582-4.582v-24.273c0-2.75-1.832-4.582-4.582-4.582h-24.273c-2.75 0-4.582 1.832-4.582 4.582v24.273c0.003906 2.293 1.8359 4.582 4.582 4.582zm4.582-24.273h15.113v15.113h-15.113z"/>
  <path d="m540.92 681.98h24.273c2.75 0 4.582-1.832 4.582-4.582v-24.273c0-2.75-1.832-4.582-4.582-4.582h-24.273c-2.75 0-4.582 1.832-4.582 4.582v24.273c0.003906 2.75 1.8359 4.582 4.582 4.582zm4.582-24.273h15.113v15.113h-15.113z"/>
  <path d="m587.18 829.92h24.277c2.75 0 4.582-1.832 4.582-4.582v-24.273c0-2.75-1.832-4.582-4.582-4.582h-24.273c-2.75 0-4.582 1.832-4.582 4.582v24.273c0 2.75 1.832 4.582 4.5781 4.582zm4.582-23.816h15.113v15.113h-15.113z"/>
  <path d="m587.18 780.46h24.277c2.75 0 4.582-1.832 4.582-4.582v-24.273c0-2.75-1.832-4.582-4.582-4.582h-24.273c-2.75 0-4.582 1.832-4.582 4.582v24.273c0 2.75 1.832 4.582 4.5781 4.582zm4.582-23.816h15.113v15.113h-15.113z"/>
  <path d="m587.18 731.45h24.277c2.75 0 4.582-1.832 4.582-4.582v-24.273c0-2.75-1.832-4.582-4.582-4.582h-24.273c-2.75 0-4.582 1.832-4.582 4.582v24.273c0 2.293 1.832 4.582 4.5781 4.582zm4.582-24.273h15.113v15.113h-15.113z"/>
  <path d="m587.18 681.98h24.277c2.75 0 4.582-1.832 4.582-4.582v-24.273c0-2.75-1.832-4.582-4.582-4.582h-24.273c-2.75 0-4.582 1.832-4.582 4.582v24.273c0 2.75 1.832 4.582 4.5781 4.582zm4.582-24.273h15.113v15.113h-15.113z"/>
  <path d="m633.44 829.92h24.273c2.75 0 4.582-1.832 4.582-4.582v-24.273c0-2.75-1.832-4.582-4.582-4.582h-24.273c-2.75 0-4.582 1.832-4.582 4.582v24.273c0 2.75 2.2891 4.582 4.582 4.582zm4.5781-23.816h15.113v15.113h-15.113z"/>
  <path d="m633.44 780.46h24.273c2.75 0 4.582-1.832 4.582-4.582v-24.273c0-2.75-1.832-4.582-4.582-4.582h-24.273c-2.75 0-4.582 1.832-4.582 4.582v24.273c0 2.75 2.2891 4.582 4.582 4.582zm4.5781-23.816h15.113v15.113h-15.113z"/>
  <path d="m633.44 731.45h24.273c2.75 0 4.582-1.832 4.582-4.582v-24.273c0-2.75-1.832-4.582-4.582-4.582h-24.273c-2.75 0-4.582 1.832-4.582 4.582v24.273c0 2.293 2.2891 4.582 4.582 4.582zm4.5781-24.273h15.113v15.113h-15.113z"/>
  <path d="m633.44 681.98h24.273c2.75 0 4.582-1.832 4.582-4.582v-24.273c0-2.75-1.832-4.582-4.582-4.582h-24.273c-2.75 0-4.582 1.832-4.582 4.582v24.273c0 2.75 2.2891 4.582 4.582 4.582zm4.5781-24.273h15.113v15.113h-15.113z"/>
  <path d="m689.31 829.92h24.273c2.75 0 4.582-1.832 4.582-4.582v-24.273c0-2.75-1.832-4.582-4.582-4.582l-24.273 0.003906c-2.75 0-4.582 1.832-4.582 4.582v24.273c0.003906 2.7461 1.8359 4.5781 4.582 4.5781zm4.582-23.816h15.113v15.113h-15.113z"/>
  <path d="m689.31 731.45h24.273c2.75 0 4.582-1.832 4.582-4.582v-24.273c0-2.75-1.832-4.582-4.582-4.582l-24.273 0.003906c-2.75 0-4.582 1.832-4.582 4.582v24.273c0.003906 2.2891 1.8359 4.5781 4.582 4.5781zm4.582-24.273h15.113v15.113h-15.113z"/>
  <path d="m689.31 681.98h24.273c2.75 0 4.582-1.832 4.582-4.582v-24.273c0-2.75-1.832-4.582-4.582-4.582l-24.273 0.003906c-2.75 0-4.582 1.832-4.582 4.582v24.273c0.003906 2.7461 1.8359 4.5781 4.582 4.5781zm4.582-24.273h15.113v15.113h-15.113z"/>
  <path d="m735.57 829.92h24.273c2.75 0 4.582-1.832 4.582-4.582v-24.273c0-2.75-1.832-4.582-4.582-4.582h-24.273c-2.75 0-4.582 1.832-4.582 4.582v24.273c0.003907 2.75 1.8359 4.582 4.582 4.582zm4.582-23.816h15.113v15.113h-15.113z"/>
  <path d="m735.57 780.46h24.273c2.75 0 4.582-1.832 4.582-4.582v-24.273c0-2.75-1.832-4.582-4.582-4.582h-24.273c-2.75 0-4.582 1.832-4.582 4.582v24.273c0.003907 2.75 1.8359 4.582 4.582 4.582zm4.582-23.816h15.113v15.113h-15.113z"/>
  <path d="m735.57 731.45h24.273c2.75 0 4.582-1.832 4.582-4.582v-24.273c0-2.75-1.832-4.582-4.582-4.582h-24.273c-2.75 0-4.582 1.832-4.582 4.582v24.273c0.003907 2.293 1.8359 4.582 4.582 4.582zm4.582-24.273h15.113v15.113h-15.113z"/>
  <path d="m735.57 681.98h24.273c2.75 0 4.582-1.832 4.582-4.582v-24.273c0-2.75-1.832-4.582-4.582-4.582h-24.273c-2.75 0-4.582 1.832-4.582 4.582v24.273c0.003907 2.75 1.8359 4.582 4.582 4.582zm4.582-24.273h15.113v15.113h-15.113z"/>
  <path d="m781.83 829.92h24.273c2.75 0 4.582-1.832 4.582-4.582v-24.273c0-2.75-1.832-4.582-4.582-4.582h-24.273c-2.75 0-4.582 1.832-4.582 4.582v24.273c0 2.75 2.293 4.582 4.582 4.582zm4.5781-23.816h15.113v15.113h-15.113z"/>
  <path d="m781.83 731.45h24.273c2.75 0 4.582-1.832 4.582-4.582v-24.273c0-2.75-1.832-4.582-4.582-4.582h-24.273c-2.75 0-4.582 1.832-4.582 4.582v24.273c0 2.293 2.293 4.582 4.582 4.582zm4.5781-24.273h15.113v15.113h-15.113z"/>
  <path d="m781.83 681.98h24.273c2.75 0 4.582-1.832 4.582-4.582v-24.273c0-2.75-1.832-4.582-4.582-4.582h-24.273c-2.75 0-4.582 1.832-4.582 4.582v24.273c0 2.75 2.293 4.582 4.582 4.582zm4.5781-24.273h15.113v15.113h-15.113z"/>
 </g>
</svg>
