<?xml version="1.0" encoding="UTF-8"?>
<svg width="1200pt" height="1200pt" version="1.1" viewBox="0 0 1200 1200" xmlns="http://www.w3.org/2000/svg">
 <g>
  <path d="m941 448.4v-97.23c11.52-1.3828 20.734-11.52 20.734-23.5 0-13.363-10.598-23.961-23.961-23.961h-111.05c-65.434-50.227-143.77-76.953-226.71-76.953-205.98 0-373.25 167.27-373.25 373.25 0 84.789 27.648 164.05 79.719 230.4 0 32.719-1.3828 37.785 4.6094 37.785h29.492c70.039 67.738 161.74 105.06 258.96 105.06 268.65 0 451.59-277.86 341.46-524.85zm-85.711 410.57h-200.45v-121.65c0-23.039-12.441-43.316-30.875-54.836h62.668l0.003906 46.543c-9.2148 2.3047-16.129 10.137-16.129 20.273 0 11.52 9.2148 20.734 20.734 20.734s20.734-9.2148 20.734-20.734c0-9.6758-6.9102-17.973-16.129-20.273l0.003906-46.543h194.46c28.109 0 50.688-22.578 50.688-50.688l0.003906-158.98c49.305 131.79 18.43 283.39-85.711 386.15zm-255.29 105.06c-91.238 0-178.79-34.098-246.07-95.848h491.68c-67.277 61.746-155.29 95.848-245.61 95.848zm-38.707-531.3c9.6758 0 17.973 7.832 17.973 17.973 0 95.848 3.6875 90.777-9.6758 90.777v-48.844c-1.3828-3.6875-5.9922-4.1484-7.832-1.3828-4.6094 6.9102-25.344 23.961-58.984 23.961-28.57 0-57.141-11.52-82.023-25.344-1.8438-0.92188-4.1484-0.92188-5.5312 0.46094-0.92188 0.92188-1.3828 1.8438-1.3828 3.2266 0 1.3828-0.92188 11.52-11.98 11.52-1.8438 0-4.6094-0.46094-5.9922-0.46094 0 0-1.3828 0.92187-1.8438 0.92187-0.92188 0.92188-1.8438 1.8438-1.8438 3.6875v31.797h-5.0703c-0.92188 0-1.8438 0-2.7656-0.92188-1.8438-0.92187-2.7656-2.7656-2.7656-4.6094l0.007812-64.977c0-9.6758 7.832-17.973 17.973-17.973 7.832 0 14.285-6.4531 14.285-14.746 0-2.7656 2.3047-5.0703 5.0703-5.0703zm8.2969 118.43c3.2266 0 5.9922 0 8.7539-0.46094 9.2148 9.6758 4.1484 25.805-8.7539 29.492zm-187.09-0.92188c1.3828 0.46094 2.7656 0.46094 4.1484 0.46094h4.6094v28.57c-7.832-1.8438-13.363-9.2148-13.363-17.512-0.003907-3.6836 1.8398-8.293 4.6055-11.52zm18.43-35.48c9.6758 0 17.051-5.0703 20.273-13.363 29.492 15.668 56.68 23.5 81.102 23.5 29.492 0 48.383-11.059 58.062-19.355v79.258c0 43.777-35.941 79.719-79.719 79.719s-79.719-35.941-79.719-79.719zm28.109 142.39c14.746 10.598 32.258 16.59 51.609 16.59 19.355 0 36.863-5.9922 51.609-16.59v36.863c0 17.512-25.805 26.727-51.609 26.727-25.805 0-51.609-9.2148-51.609-26.727zm112.44-7.3711c16.129-15.207 26.727-36.863 28.109-60.363 20.734-3.2266 29.953-28.109 16.129-44.238 3.6875-5.5312 2.7656-1.8438 2.7656-94.004 0-14.746-11.98-27.188-27.188-27.188h-111.05v-72.348h481.54v280.63c0 23.039-18.434 41.473-41.473 41.473h-348.82zm149.3 88.012c6.4531 0 11.52 5.0703 11.52 11.52 0 6.4531-5.0703 11.52-11.52 11.52-6.4531 0-11.52-5.0703-11.52-11.52-0.003907-6.4492 5.5273-11.52 11.52-11.52zm261.73-410.11c0 8.293-6.4531 14.746-14.746 14.746h-493.52c-8.293 0-14.746-6.4531-14.746-14.746s6.4531-14.746 14.746-14.746h493.52c7.832 0 14.746 6.4531 14.746 14.746zm-716.55 272.33c0-200.91 163.12-364.03 364.03-364.03 76.953 0 149.76 23.5 211.51 67.738h-367.26c-13.363 0-23.961 10.598-23.961 23.961 0 11.98 9.2148 22.117 20.734 23.5v72.348h-22.117c-7.832 0-14.285 6.4531-14.285 14.285 0 2.7656-2.3047 5.5312-5.0703 5.5312-14.746 0-27.188 11.98-27.188 27.188v65.895c0 3.2266 0.92188 6.4531 2.7656 8.7539-4.1484 4.6094-5.9922 10.598-5.9922 17.051 0 13.363 10.137 24.883 23.039 26.727 0.92188 23.961 11.52 45.16 28.109 60.363v23.961h-50.223c-35.02 0-64.051 28.57-64.051 64.051v77.875c-46.082-62.668-70.043-136.86-70.043-215.2zm79.719 137.32c0-29.953 24.422-54.836 54.836-54.836h49.766v11.52c0 11.52 6.9102 21.195 20.273 27.648 10.598 5.5312 25.344 8.293 40.551 8.293 29.492 0 60.824-11.059 60.824-35.941v-11.52h48.848c29.953 0 54.836 24.422 54.836 54.836v121.65h-53.453v-82.484c0-2.7656-1.8438-4.6094-4.6094-4.6094s-4.6094 1.8438-4.6094 4.6094v82.484h-205.05v-82.484c0-2.7656-1.8438-4.6094-4.6094-4.6094s-4.6094 1.8438-4.6094 4.6094v82.484h-53.453l0.003906-121.65z"/>
  <path d="m588.94 896.3c0-2.7656-1.8438-4.6094-4.6094-4.6094h-111.51c-2.7656 0-4.6094 1.8438-4.6094 4.6094s1.8438 4.6094 4.6094 4.6094h111.52c2.7617 0 4.6055-2.3047 4.6055-4.6094z"/>
  <path d="m625.35 896.3c0-2.7656-1.8438-4.6094-4.6094-4.6094h-18.434c-2.7656 0-4.6094 1.8438-4.6094 4.6094s1.8438 4.6094 4.6094 4.6094h18.434c2.7656 0 4.6094-2.3047 4.6094-4.6094z"/>
  <path d="m636.41 891.69c-2.7656 0-4.6094 1.8438-4.6094 4.6094s1.8438 4.6094 4.6094 4.6094h11.98c2.7656 0 4.6094-1.8438 4.6094-4.6094s-1.8438-4.6094-4.6094-4.6094z"/>
  <path d="m610.6 918.88c0 2.7656 1.8438 4.6094 4.6094 4.6094 118.43 0 116.12 1.8438 116.12-4.6094 0-2.7656-1.8438-4.6094-4.6094-4.6094l-111.52 0.003906c-2.7656 0-4.6055 1.8438-4.6055 4.6055z"/>
  <path d="m597.24 914.27h-18.434c-2.7656 0-4.6094 1.8438-4.6094 4.6094s1.8438 4.6094 4.6094 4.6094h18.434c2.7656 0 4.6094-1.8438 4.6094-4.6094-0.003906-2.7656-2.3086-4.6094-4.6094-4.6094z"/>
  <path d="m563.14 914.27h-11.98c-2.7656 0-4.6094 1.8438-4.6094 4.6094s1.8438 4.6094 4.6094 4.6094l11.98-0.003906c2.7656 0 4.6094-1.8438 4.6094-4.6094 0-2.7617-2.3047-4.6055-4.6094-4.6055z"/>
  <path d="m511.99 604.61c-2.3047-0.46094-5.0703 0.92188-5.5312 3.2266-3.2266 11.98-13.824 20.273-25.805 20.273-11.98 0-23.039-8.293-25.805-20.273-0.46094-2.3047-3.2266-4.1484-5.5312-3.2266-2.3047 0.46094-4.1484 3.2266-3.2266 5.5312 4.1484 15.668 18.434 27.188 35.02 27.188 16.59 0 30.875-11.059 35.02-27.188 0.007813-2.3047-1.8359-5.0703-4.1406-5.5312z"/>
  <path d="m482.96 599.08c2.7656 0 4.6094-1.8438 4.6094-4.6094s-1.8438-4.6094-4.6094-4.6094-4.6094-2.3047-4.6094-4.6094c0-2.7656 2.3047-4.6094 4.6094-4.6094 2.7656 0 4.6094-1.8438 4.6094-4.6094s-1.8438-4.6094-4.6094-4.6094c-7.832 0-13.824 6.4531-13.824 13.824 0 7.3828 5.9922 13.832 13.824 13.832z"/>
  <path d="m519.82 545.63c-7.3711 0-13.363 5.9922-13.363 13.363 0 7.3711 5.9922 13.363 13.363 13.363 7.3711 0 13.363-5.9922 13.363-13.363 0-7.375-5.9883-13.363-13.363-13.363zm0 17.047c-2.3047 0-4.1484-1.8438-4.1484-4.1484 0-2.3047 1.8438-4.1484 4.1484-4.1484 2.3047 0 4.1484 1.8438 4.1484 4.1484 0 2.3047-1.8438 4.1484-4.1484 4.1484z"/>
  <path d="m507.84 541.94c2.3047-3.2266 6.9102-5.0703 12.441-5.0703s10.137 1.8438 12.441 5.0703c0.92188 1.3828 2.3047 1.8438 3.6875 1.8438 0.92188 0 1.8438-0.46094 2.7656-0.92188 1.8438-1.3828 2.3047-4.6094 0.92188-6.4531-4.1484-5.5312-11.52-8.7539-19.816-8.7539-8.293 0-15.668 3.2266-19.816 8.7539-1.3828 1.8438-0.92188 5.0703 0.92188 6.4531 1.8477 1.3828 4.6133 0.92188 6.4531-0.92188z"/>
  <path d="m454.39 558.99c0-7.3711-5.9922-13.363-13.363-13.363-7.3711 0-13.363 5.9922-13.363 13.363 0 7.3711 5.9922 13.363 13.363 13.363 7.375-0.46094 13.363-6.4531 13.363-13.363zm-13.363 3.6836c-2.3047 0-4.1484-1.8438-4.1484-4.1484 0-2.3047 1.8438-4.1484 4.1484-4.1484 2.3047 0 4.1484 1.8438 4.1484 4.1484 0 2.3047-1.8438 4.1484-4.1484 4.1484z"/>
  <path d="m428.58 541.94c2.3047-3.2266 6.9102-5.0703 12.441-5.0703s10.137 1.8438 12.441 5.0703c0.92188 1.3828 2.3047 1.8438 3.6875 1.8438 0.92188 0 1.8438-0.46094 2.7656-0.92188 1.8438-1.3828 2.3047-4.6094 0.92188-6.4531-4.1484-5.5312-11.52-8.7539-19.816-8.7539-8.293 0-15.668 3.2266-19.816 8.7539-1.3828 1.8438-0.92188 5.0703 0.92188 6.4531 2.3086 1.3828 5.0703 0.92188 6.4531-0.92188z"/>
 </g>
</svg>
