<?xml version="1.0" encoding="UTF-8"?>
<svg width="1200pt" height="1200pt" version="1.1" viewBox="0 0 1200 1200" xmlns="http://www.w3.org/2000/svg">
 <g>
  <path d="m478.81 904.13h106.45c2.3047 0 4.6094-1.8438 4.6094-4.6094 0-2.3047-1.8438-4.6094-4.6094-4.6094l-106.45 0.003906c-2.3047 0-4.6094 1.8438-4.6094 4.6094 0 2.7656 2.3047 4.6055 4.6094 4.6055z"/>
  <path d="m602.3 904.13h17.512c2.3047 0 4.6094-1.8438 4.6094-4.6094 0-2.3047-1.8438-4.6094-4.6094-4.6094h-17.512c-2.3047 0-4.6094 1.8438-4.6094 4.6094 0.46484 2.7695 2.3047 4.6094 4.6094 4.6094z"/>
  <path d="m635.02 904.13h11.52c2.3047 0 4.6094-1.8438 4.6094-4.6094 0-2.3047-1.8438-4.6094-4.6094-4.6094h-11.52c-2.3047 0-4.6094 1.8438-4.6094 4.6094 0.46094 2.7695 2.3047 4.6094 4.6094 4.6094z"/>
  <path d="m610.14 921.18c0 2.3047 1.8438 4.6094 4.6094 4.6094h106.45c2.3047 0 4.6094-1.8438 4.6094-4.6094 0-2.3047-1.8438-4.6094-4.6094-4.6094h-106.45c-2.7617 0-4.6055 2.3047-4.6055 4.6094z"/>
  <path d="m575.58 921.18c0 2.3047 1.8438 4.6094 4.6094 4.6094h17.512c2.3047 0 4.6094-1.8438 4.6094-4.6094 0-2.3047-1.8438-4.6094-4.6094-4.6094h-17.512c-2.7656 0-4.6094 2.3047-4.6094 4.6094z"/>
  <path d="m564.98 916.57h-11.52c-2.3047 0-4.6094 1.8438-4.6094 4.6094 0 2.3047 1.8438 4.6094 4.6094 4.6094h11.52c2.3047 0 4.6094-1.8438 4.6094-4.6094-0.46094-2.3047-2.3047-4.6094-4.6094-4.6094z"/>
  <path d="m920.72 772.8c23.961-48.844 35.941-101.38 35.941-156.21 0-54.836-11.98-107.37-35.941-155.75v-96.309c0-33.637-27.188-60.824-60.824-60.824-2.3047 0-4.6094 1.8438-4.6094 4.6094v59.902c-47.461-48.844-107.37-82.945-174.18-98.613-16.129-23.039-41.473-39.168-70.043-42.395-28.57-3.2266-56.219 5.5312-77.414 24.883-5.9922 5.0703-11.059 11.059-15.207 17.512-66.352 15.668-126.26 49.309-174.18 98.613v-59.902c0-2.3047-1.8438-4.6094-4.6094-4.6094-33.637 0-60.824 27.188-60.824 60.824v96.309c-23.961 48.844-35.941 101.38-35.941 155.75 0 54.836 11.98 107.37 35.941 156.21v39.629c0 33.637 27.188 60.824 60.824 60.824h11.98c67.277 64.516 155.29 99.996 248.37 99.996s181.09-35.48 247.91-100.45h11.98c33.637 0 60.824-27.188 60.824-60.824zm27.188-156.21c0 47-9.2148 92.16-27.188 134.55v-269.11c17.973 42.395 27.188 87.555 27.188 134.55zm-35.941-252.06v416.11c-10.137-16.129-27.188-27.648-47.461-29.031v-438.68c26.262 2.3047 47.461 24.422 47.461 51.609zm-58.523 14.285h-169.57c11.98-18.895 17.051-41.012 14.746-63.59-1.3828-12.441-5.0703-23.961-10.598-34.559 63.129 16.125 120.27 49.766 165.43 98.148zm-313.8-120.27c19.355-17.512 44.699-25.344 70.504-22.578 41.473 4.6094 75.109 38.246 79.719 79.719 2.7656 27.188-5.9922 53.914-24.883 73.266-19.816 20.273-31.336 46.082-32.258 73.266h-15.207v-88.008h9.2148c9.6758 0 17.973-7.832 17.973-17.973 0-9.6758-7.832-17.973-17.973-17.973-9.6758 0-17.973 7.832-17.973 17.973v9.2148h-16.59v-9.2148c0-9.6758-7.832-17.973-17.973-17.973-9.6758 0-17.973 7.832-17.973 17.973 0 9.6758 7.832 17.973 17.973 17.973h9.2148v87.551h-15.207c-1.3828-27.648-12.441-53.453-31.336-71.887-17.051-17.051-26.727-40.09-26.727-64.051-0.45312-25.344 10.605-50.227 29.5-67.277zm22.117 511.03v-38.246l38.246-0.003906h38.246v76.492l-76.492 0.003907zm38.246-110.59-36.402-36.402 36.402-36.406 36.402 36.402zm-42.852-140.54c-2.3047 0-4.6094-1.8438-4.6094-4.6094v-5.5312h94.465v5.5312c0 2.3047-1.8438 4.6094-4.6094 4.6094zm90.316-18.895h-94.926v-10.137h94.465v10.137zm0-18.895h-94.926v-5.5312c0-2.3047 1.8438-4.6094 4.6094-4.6094h85.711c2.3047 0 4.6094 1.8438 4.6094 4.6094zm-64.512-115.2h-9.2148c-5.0703 0-9.2148-4.1484-9.2148-9.2148 0-5.0703 4.1484-9.2148 9.2148-9.2148 5.0703 0 9.2148 4.1484 9.2148 9.2148zm25.344 96.77h-16.59v-88.012h16.59zm8.7539-96.77v-9.2148c0-5.0703 4.1484-9.2148 9.2148-9.2148 5.0703 0 9.2148 4.1484 9.2148 9.2148 0 5.0703-4.1484 9.2148-9.2148 9.2148zm-105.06-85.246c-7.3711 13.824-11.059 29.492-11.059 45.621 0 18.895 5.5312 36.863 15.207 52.531l-169.57-0.003906c45.156-47.922 101.84-81.562 165.43-98.148zm-176.49 32.715v438.68c-20.273 1.3828-37.785 12.902-47.461 29.031v-416.11c0-27.188 21.195-49.305 47.461-51.609zm-83.402 303.67c0-47 9.2148-92.16 27.188-134.55v269.57c-17.973-42.855-27.188-88.012-27.188-135.02zm347.9 347.91c-87.551 0-170.5-32.258-235.01-91.238h470.02c-64.508 58.52-147.45 91.238-235.01 91.238zm259.89-100.46h-519.79c-28.57 0-52.07-23.5-52.07-52.07s23.5-51.609 52.07-51.609c2.3047 0 4.6094-1.8438 4.6094-4.6094v-368.18h177.87c2.3047 3.2266 5.0703 5.9922 7.832 8.7539 17.051 16.59 27.188 40.551 28.57 65.895h-1.3828c-7.3711 0-13.363 5.9922-13.363 13.363v38.707c0 7.3711 5.9922 13.363 13.363 13.363l37.785 0.003906v50.688l-40.09 40.09h-47.926c-2.3047-23.961-22.578-42.855-47-42.855-25.805 0-47 21.195-47 47s21.195 47 47 47c24.422 0 44.699-18.895 47-42.855h48.383l40.09 40.09v55.297h-38.246c-2.3047 0-4.6094 1.8438-4.6094 4.6094v38.246h-45.621c-2.3047-23.961-22.578-42.855-47-42.855-25.805 0-47 21.195-47 47 0.003906 25.812 21.199 47.469 47.004 47.469 24.422 0 44.699-18.895 47-42.855h45.621v38.246c0 2.3047 1.8438 4.6094 4.6094 4.6094h85.25c2.3047 0 4.6094-1.8438 4.6094-4.6094v-85.25c0-2.3047-1.8438-4.6094-4.6094-4.6094l-38.25 0.003906v-55.297l40.09-40.09h47.922v38.246c0 2.3047 1.8438 4.6094 4.6094 4.6094h38.246v52.992c-23.961 2.3047-42.855 22.578-42.855 47 0 25.805 21.195 47 47 47 25.805 0 47-21.195 47-47 0-24.422-18.895-44.699-42.855-47l0.007813-52.992h38.246c2.3047 0 4.6094-1.8438 4.6094-4.6094l-0.003906-85.246c0-2.3047-1.8438-4.6094-4.6094-4.6094h-85.25c-2.3047 0-4.6094 1.8438-4.6094 4.6094v38.246h-47.457l-40.09-40.09v-50.688h38.246c7.3711 0 13.363-5.9922 13.363-13.363v-38.707c0-7.3711-5.9922-13.363-13.363-13.363h-1.3828c1.3828-24.422 11.52-47.922 29.953-66.816 2.3047-2.3047 4.6094-5.0703 6.4531-7.3711h177.87v368.18c0 2.3047 1.8438 4.6094 4.6094 4.6094 28.57 0 51.609 23.039 52.07 51.609-0.46484 29.027-23.965 52.066-52.535 52.066zm-361.27-241.46c0 21.195-17.051 38.246-38.246 38.246-21.195 0-38.246-17.051-38.246-38.246 0-21.195 17.051-38.246 38.246-38.246 21.195 0 38.246 17.047 38.246 38.246zm0 147c0 21.195-17.051 38.246-38.246 38.246-21.195 0-38.246-17.051-38.246-38.246s17.051-38.246 38.246-38.246c21.195-0.003906 38.246 17.047 38.246 38.246zm241-38.25c21.195 0 38.246 17.051 38.246 38.246 0 21.195-17.051 38.246-38.246 38.246s-38.246-17.051-38.246-38.246c0-21.195 17.047-38.246 38.246-38.246zm-38.246-70.5v-76.492h76.492v76.492z"/>
 </g>
</svg>
