<?xml version="1.0" encoding="UTF-8"?>
<svg width="1200pt" height="1200pt" version="1.1" viewBox="0 0 1200 1200" xmlns="http://www.w3.org/2000/svg">
 <g>
  <path d="m973.25 600c0-71.887-20.273-141.46-58.984-201.37v-14.746l0.003906-28.105v-6.9102c0-21.656-17.512-39.168-39.168-39.168-10.598 0-20.273 4.1484-27.188 11.059-68.199-60.367-156.21-94.004-247.91-94.004-56.215 0-110.13 11.98-160.36 36.402h-96.77c-2.7656 0-4.6094 1.8438-4.6094 4.6094v66.816c-71.883 70.5-111.51 164.5-111.51 265.42 0 205.52 167.27 373.25 373.25 373.25 206.44 0 373.25-168.19 373.25-373.25zm-104.14 177.41h11.98l-5.9922 11.98-4.6094-9.2148zm16.59-9.2148h-21.195l-16.59-33.176h53.914zm-40.551-379.7h59.902v336.85h-59.902zm59.902-9.2148h-59.902v-18.891h59.902zm-29.949-59.902c16.59 0 29.953 13.363 29.953 29.953l-0.003907 1.8398h-59.902v-2.3047c0-16.125 13.363-29.488 29.953-29.488zm-275.1-83.406c89.395 0 175.57 32.719 241.92 92.16-3.6875 5.9922-5.9922 13.363-5.9922 20.734l0.003906 6.9141v374.17c0 0.46094 0 0.92188 0.46094 1.3828v0.46094c8.293 16.59 29.492 59.445 34.559 69.121 0.92188 1.3828 2.3047 2.7656 4.1484 2.7656s3.2266-0.92188 4.1484-2.7656c51.148-102.3 0.46094-0.92187 34.559-69.121v-0.46094c0-0.46094 0.46094-0.92188 0.46094-1.3828v-313.81c32.715 55.758 49.766 118.89 49.766 183.86 0 101.38-41.473 193.07-108.75 258.97h-58.523l0.003906-462.64c0-0.92188-0.46094-2.3047-1.3828-3.2266l-128.11-128.56c-0.92188-0.92187-2.3047-1.3828-3.2266-1.3828h-201.83c43.316-17.973 89.855-27.188 137.78-27.188zm68.66 42.855 113.36 113.36-113.36-0.003906zm-321.64-6.4531h312.42v123.96c0 2.7656 1.8438 4.6094 4.6094 4.6094h123.96v458.04h-440.99zm-111.05 327.63c0-94.926 35.941-184.32 101.84-252.52v504.58c-63.129-65.434-101.84-154.37-101.84-252.06zm118.43 268.19h491.68c-64.973 59.445-151.61 95.848-246.07 95.848-94.461 0-181.09-36.402-245.61-95.848z"/>
  <path d="m589.4 896.3c0-2.7656-1.8438-4.6094-4.6094-4.6094h-111.51c-2.7656 0-4.6094 1.8438-4.6094 4.6094s1.8438 4.6094 4.6094 4.6094h111.52c2.3008 0 4.6055-2.3047 4.6055-4.6094z"/>
  <path d="m625.8 896.3c0-2.7656-1.8438-4.6094-4.6094-4.6094h-18.434c-2.7656 0-4.6094 1.8438-4.6094 4.6094s1.8438 4.6094 4.6094 4.6094h18.434c2.3086 0 4.6094-2.3047 4.6094-4.6094z"/>
  <path d="m636.87 900.91h11.98c2.7656 0 4.6094-1.8438 4.6094-4.6094s-1.8438-4.6094-4.6094-4.6094h-11.98c-2.7656 0-4.6094 1.8438-4.6094 4.6094 0 2.3047 1.8438 4.6094 4.6094 4.6094z"/>
  <path d="m726.72 914.27h-111.52c-2.7656 0-4.6094 1.8438-4.6094 4.6094s1.8438 4.6094 4.6094 4.6094h111.52c2.7656 0 4.6094-1.8438 4.6094-4.6094-0.003906-2.7656-1.8438-4.6094-4.6094-4.6094z"/>
  <path d="m597.24 914.27h-18.434c-2.7656 0-4.6094 1.8438-4.6094 4.6094s1.8438 4.6094 4.6094 4.6094h18.434c2.7656 0 4.6094-1.8438 4.6094-4.6094-0.003906-2.7656-1.8477-4.6094-4.6094-4.6094z"/>
  <path d="m563.14 914.27h-11.98c-2.7656 0-4.6094 1.8438-4.6094 4.6094s1.8438 4.6094 4.6094 4.6094l11.98-0.003906c2.7656 0 4.6094-1.8438 4.6094-4.6094 0-2.7617-1.8438-4.6055-4.6094-4.6055z"/>
  <path d="m587.1 494.48c22.578-24.422 33.176-57.602 29.031-90.777-5.9922-51.609-47.922-93.543-99.992-99.531-32.719-3.6875-64.512 6.4531-88.934 28.109-23.961 21.656-37.785 52.531-37.785 84.789 0 27.648 10.137 53.914 28.109 74.648 22.578 26.266 35.48 58.523 35.48 90.777v1.3828c-6.9102 0.92188-11.98 6.4531-11.98 13.363v4.1484h-10.598c-2.7656 0-4.6094 1.8438-4.6094 4.6094s1.8438 4.6094 4.6094 4.6094h10.598v6.9102h-10.598c-2.7656 0-4.6094 1.8438-4.6094 4.6094s1.8438 4.6094 4.6094 4.6094h10.598v6.9102h-10.598c-2.7656 0-4.6094 1.8438-4.6094 4.6094s1.8438 4.6094 4.6094 4.6094h10.598c0 7.3711 5.9922 13.363 13.363 13.363h11.98l4.6094 7.832c3.2266 5.9922 9.6758 9.6758 17.051 9.6758h31.336c6.9102 0 13.363-3.6875 17.051-9.6758l4.6094-7.832h11.98c7.3711 0 13.363-5.9922 13.363-13.363h14.746c2.7656 0 4.6094-1.8438 4.6094-4.6094s-1.8438-4.6094-4.6094-4.6094h-14.746v-6.9102h14.746c2.7656 0 4.6094-1.8438 4.6094-4.6094s-1.8438-4.6094-4.6094-4.6094h-14.746v-6.9102h14.746c2.7656 0 4.6094-1.8438 4.6094-4.6094s-1.8438-4.6094-4.6094-4.6094h-14.746v-4.1484c0-6.9102-5.5312-12.441-11.98-13.363v-1.3828c-0.92969-33.18 11.051-64.973 32.707-88.016zm-162.66-8.293c-16.59-18.895-25.805-43.316-25.805-68.66 0-29.492 12.902-58.062 35.02-77.875 22.578-20.273 51.609-29.492 81.562-25.805 47.461 5.5312 86.168 43.777 91.699 91.238 3.6875 30.414-5.9922 60.824-26.727 83.406-23.039 24.883-35.941 58.984-35.941 94.926v1.3828h-28.109v-98.613h8.293c8.293 0 15.207-6.9102 15.207-15.207 0-8.293-6.9102-15.207-15.207-15.207-8.293 0-15.207 6.9102-15.207 15.207v8.293h-13.363v-8.293c0-8.293-6.9102-15.207-15.207-15.207-8.293 0-14.281 6.9141-14.281 15.207 0 8.293 6.9102 15.207 15.207 15.207h8.293v98.152h-28.109v-1.3828c0-34.562-13.363-69.121-37.324-96.77zm65.434-6.9102h-8.293c-4.6094 0-8.293-3.6875-8.293-8.293 0-4.6094 3.6875-8.293 8.293-8.293 4.6094 0 8.293 3.6875 8.293 8.293zm19.812 105.06h-13.363v-98.152h13.363zm6.9141-105.06v-8.2969c0-4.6094 3.6875-8.293 8.293-8.293 4.6094 0 8.293 3.6875 8.293 8.293 0 4.6094-3.6875 8.293-8.293 8.293zm11.059 180.63c-1.8438 3.2266-5.0703 5.0703-8.7539 5.0703h-31.336c-3.6875 0-6.9102-1.8438-8.7539-5.0703l-1.8438-3.2266h52.992zm24.422-12.441h-98.152c-2.3047 0-4.1484-1.8438-4.1484-4.1484h106.45c0.003906 2.3047-1.8398 4.1484-4.1445 4.1484zm4.1484-13.363h-106.45v-6.9102h106.45zm0-16.129h-106.45v-6.9102h106.45zm0-20.273v4.1484l-106.45-0.003906v-4.1484c0-2.3047 1.8438-4.1484 4.1484-4.1484l3.2227 0.003906h94.926c2.3047 0 4.1484 1.8438 4.1484 4.1484z"/>
  <path d="m680.64 688.48c-41.473 0-75.57 33.637-75.57 75.57 0 20.273 7.832 39.168 22.117 53.453s33.176 22.117 53.453 22.117c41.473 0 75.57-33.637 75.57-75.57 0.003906-41.934-33.637-75.57-75.57-75.57zm-4.6055 9.6758v64.051l-45.16 45.16c-10.598-11.98-16.129-27.188-16.129-43.316-0.46094-35.02 27.188-63.59 61.289-65.895zm4.6055 132.25c-16.129 0-31.336-5.5312-43.316-16.129l45.16-45.16h64.051c-2.3008 34.102-30.871 61.289-65.895 61.289zm4.6094-70.965v-61.285c32.719 2.3047 58.984 28.57 61.285 61.285z"/>
 </g>
</svg>
