<?xml version="1.0" encoding="UTF-8" standalone="no"?>
<!-- Generator: Adobe Illustrator 26.0.3, SVG Export Plug-In . SVG Version: 6.00 Build 0)  -->

<svg
   version="1.1"
   id="Layer_1_copy_2"
   x="0px"
   y="0px"
   viewBox="0 0 31.999999 31.999999"
   xml:space="preserve"
   width="32"
   height="32"
   xmlns="http://www.w3.org/2000/svg"
   xmlns:svg="http://www.w3.org/2000/svg"><defs
   id="defs1137" />
<style
   type="text/css"
   id="style824">
	.st0{fill:#C3C3C3;}
	.st1{fill:#A4A4A4;}
	.st2{fill:#474747;}
	.st3{fill:#8F8F8F;}
	.st4{fill:#7B7B7B;}
	.st5{fill:#A7A7A7;}
	.st6{fill:#9B9B9B;}
	.st7{fill:#B2B2B2;}
	.st8{fill:#BBBBBB;}
	.st9{fill:#686868;}
	.st10{fill:#595959;}
	.st11{fill:#BEBEBE;}
	.st12{fill:#3E3E3E;}
	.st13{fill:#4F4F4F;}
	.st14{fill:#4A4A4A;}
	.st15{fill:#A8A8A8;}
	.st16{fill:#484848;}
	.st17{fill:#E4E4E4;}
	.st18{fill:#CFCFCF;}
	.st19{fill:#E0E0E0;}
	.st20{fill:#A3A3A3;}
	.st21{fill:#BFBFBF;}
	.st22{fill:#616161;}
	.st23{fill:#7C7C7C;}
	.st24{fill:#494949;}
	.st25{fill:#404040;}
	.st26{fill:#959595;}
	.st27{fill:#AFAFAF;}
	.st28{fill:#C9C9C9;}
	.st29{fill:#E2E2E2;}
	.st30{fill:#C5C5C5;}
	.st31{fill:#3C3C3C;}
	.st32{fill:#636363;}
	.st33{fill:#5E5E5E;}
	.st34{fill:#8B8B8B;}
	.st35{fill:#4C4C4C;}
	.st36{fill:#6A6A6A;}
	.st37{fill:#878787;}
	.st38{fill:#C0C0C0;}
	.st39{fill:#6E6E6E;}
	.st40{fill:#C2C2C2;}
	.st41{fill:#D4D4D4;}
	.st42{fill:#979797;}
	.st43{fill:#A2A2A2;}
	.st44{fill:#DBDBDB;}
	.st45{fill:#7F7F7F;}
	.st46{fill:#515151;}
	.st47{fill:#8A8A8A;}
	.st48{fill:#DEDEDE;}
	.st49{fill:#3A3A3A;}
	.st50{fill:#545454;}
	.st51{fill:#D1D1D1;}
	.st52{fill:#797979;}
	.st53{fill:#777777;}
	.st54{fill:#909090;}
	.st55{fill:#969696;}
	.st56{fill:#A6A6A6;}
	.st57{fill:#B4B4B4;}
	.st58{fill:#4E4E4E;}
	.st59{fill:#DCDCDC;}
	.st60{fill:#C4C4C4;}
	.st61{fill:#757575;}
	.st62{fill:#666666;}
	.st63{fill:#656565;}
	.st64{fill:#808080;}
	.st65{fill:#8E8E8E;}
	.st66{fill:#848484;}
	.st67{fill:#787878;}
	.st68{fill:#747474;}
	.st69{fill:#919191;}
	.st70{fill:#444444;}
	.st71{fill:#CACACA;}
	.st72{fill:#D7D7D7;}
	.st73{fill:#505050;}
	.st74{fill:#D3D3D3;}
	.st75{fill:#ADADAD;}
	.st76{fill:#DDDDDD;}
	.st77{fill:#9C9C9C;}
	.st78{fill:#AAAAAA;}
	.st79{fill:#A0A0A0;}
	.st80{fill:#707070;}
	.st81{fill:#434343;}
	.st82{fill:#828282;}
	.st83{fill:#464646;}
	.st84{fill:#D2D2D2;}
	.st85{fill:#939393;}
	.st86{fill:#999999;}
	.st87{fill:#5F5F5F;}
	.st88{fill:#626262;}
	.st89{fill:#676767;}
	.st90{fill:#4D4D4D;}
	.st91{fill:#CECECE;}
	.st92{fill:#3F3F3F;}
	.st93{fill:#ABABAB;}
	.st94{fill:#424242;}
	.st95{fill:#454545;}
</style>
<path
   d="m 30.510377,24.373087 c -0.724095,-0.917187 -2.039534,-1.062006 -2.944653,-0.325843 0,0 0,0 0,0 -2.099876,-0.941324 -7.470247,-3.367042 -9.123597,-4.235956 -0.34998,-0.181024 -0.615481,-0.446525 -0.724095,-0.832709 -0.02414,-0.08448 -0.04827,-0.181024 -0.07241,-0.265502 -0.01207,-0.02414 -0.01207,-0.04827 -0.02414,-0.08448 -0.02414,-0.06034 -0.04827,-0.120682 -0.07241,-0.181023 -0.27757,-0.675822 -0.7603,-1.255098 -1.411985,-1.653351 0,0 -0.01207,-0.01207 -0.01207,-0.01207 -0.34998,-0.193092 -0.55514,-0.48273 -0.651686,-0.905119 -0.506866,-1.967125 -1.737828,-8.2788196 -2.075739,-10.1011254 0.27757,-0.2292968 0.506867,-0.531003 0.639617,-0.8809823 0.422389,-1.0982107 -0.120682,-2.3291722 -1.194756,-2.751561 -1.074075,-0.4223887 -2.292968,0.1206825 -2.715357,1.206825 -0.4223884,1.0861425 0.120683,2.3291723 1.194757,2.751561 0,0 0,0 0,0 0.241365,2.3171041 0.868914,8.2426157 0.953392,10.1373307 0.02414,0.398252 -0.07241,0.7603 -0.349979,1.049938 -0.34998,0.337911 -0.627549,0.760299 -0.808573,1.243029 -0.168956,0.422389 -0.241365,0.868914 -0.241365,1.303371 0,0.386184 -0.144819,0.699959 -0.446525,0.989597 C 9.0047551,22.261143 4.225728,26.48503 2.8499475,27.703924 2.5241047,27.571173 2.1499889,27.5229 1.7758732,27.583241 c -1.1464838,0.181024 -1.93092007,1.267166 -1.74989631,2.425718 0.18102375,1.158552 1.24302981,1.955057 2.38951361,1.774033 1.1464837,-0.181024 1.93092,-1.267166 1.7498962,-2.425718 0,0 0,0 0,0 1.8585106,-1.375781 6.6013333,-4.887641 8.1702053,-5.913443 0.301706,-0.20516 0.639617,-0.301706 1.001665,-0.241365 0.880982,0.27757 1.85851,0.181024 2.703288,-0.289638 0.01207,0 0.01207,0 0.02414,-0.01207 0.337911,-0.217229 0.687891,-0.241365 1.098211,-0.120682 1.93092,0.531003 7.928841,2.61881 9.6546,3.222222 0.04827,0.362048 0.193092,0.699959 0.434457,1.001665 0.724095,0.917187 2.039535,1.062006 2.944653,0.325843 0.893051,-0.699959 1.03787,-2.039534 0.313775,-2.956721 z"
   id="path826"
   style="stroke-width:0.120683" />

























































































































































</svg>
