<?xml version="1.0" encoding="UTF-8" standalone="no"?>
<!-- Generator: Adobe Illustrator 22.1.0, SVG Export Plug-In . SVG Version: 6.00 Build 0)  -->

<svg
   version="1.1"
   id="Black_Outline_Layer"
   x="0px"
   y="0px"
   viewBox="0 0 577 164"
   style="enable-background:new 0 0 577 164;"
   xml:space="preserve"
   sodipodi:docname="utl-logo.svg"
   inkscape:version="1.2.2 (b0a8486, 2022-12-01)"
   xmlns:inkscape="http://www.inkscape.org/namespaces/inkscape"
   xmlns:sodipodi="http://sodipodi.sourceforge.net/DTD/sodipodi-0.dtd"
   xmlns="http://www.w3.org/2000/svg"
   xmlns:svg="http://www.w3.org/2000/svg"><defs
   id="defs380" /><sodipodi:namedview
   id="namedview378"
   pagecolor="#505050"
   bordercolor="#eeeeee"
   borderopacity="1"
   inkscape:showpageshadow="0"
   inkscape:pageopacity="0"
   inkscape:pagecheckerboard="0"
   inkscape:deskcolor="#505050"
   showgrid="false"
   inkscape:zoom="1.4390244"
   inkscape:cx="212.99153"
   inkscape:cy="83.389831"
   inkscape:window-width="1753"
   inkscape:window-height="756"
   inkscape:window-x="0"
   inkscape:window-y="25"
   inkscape:window-maximized="0"
   inkscape:current-layer="g375" />
<style
   type="text/css"
   id="style182">
	.st0{display:none;fill:none;}
	.st1{display:none;fill:#282E75;}
	.st2{fill:#FFFFFF;}
</style>
<rect
   y="-12.6"
   class="st0"
   width="109.3"
   height="197.1"
   id="rect184" />
<rect
   x="-184.8"
   y="-65"
   class="st1"
   width="965"
   height="351"
   id="rect186" />
<path
   id="University_of_Toronto_Mark_Stacked"
   class="st2"
   d="M560.6,56.4c6.6,0,10.7,5.3,10.7,10.6c0,5.9-5.2,10.9-11,10.9  c-6,0-10.4-4.9-10.4-10.9C549.9,61.3,554.9,56.4,560.6,56.4 M561.7,76.5c3.9,0,6.3-3.8,6.3-7.5c0-5.8-3.4-11.3-8.4-11.3  c-4,0-6.4,3.5-6.4,7.6C553.2,70.7,556.3,76.5,561.7,76.5z M540.2,56.8h-4.4c-1.9,0-3.4,0-4.6-0.1c-1.1-0.1-1.3-0.3-1.5-0.5h-0.6  c-0.1,0.3-1.5,4-1.5,4.2l0.7,0.4c0.7-1.8,1.4-2.7,5.1-2.7c0.3,0,1.5,0,2.9,0.2c0.2,2.6,0.3,5.2,0.3,7.9c0,1.7-0.1,7.9-0.3,9.2  c-0.1,0.6-0.4,0.9-2.1,1.2c-0.7,0.1-1.2,0.2-1.6,0.2l0.2,0.8c0.6,0,1.2-0.1,2-0.1c0.8-0.1,1.8-0.1,3.3-0.1c0.6,0,1.5,0,2.4,0  c0.9,0.1,1.7,0.1,2.7,0.1l0.1-0.9c-0.2,0-0.5,0-1-0.1c-0.6-0.1-1.5-0.3-1.9-0.6c-0.7-0.8-0.7-6.4-0.7-7.9c0-1.3,0.2-7.8,0.2-9.3  c0-0.6,0.2-0.6,2.1-0.6h0.1c0.8,0,1.1,0,1.4,0c3.7,0,3.8,0.9,4.4,2.7l0.7-0.4c-0.1-0.2-0.8-3.9-0.9-4.2h-0.6  c-0.2,0.2-0.4,0.5-1.5,0.5c-1.4,0.1-3.1,0.1-4.8,0.1H540.2L540.2,56.8z M506.1,56.8c-0.8,0.1-1.5,0.1-2.5,0.1c-0.5,0-1,0-1.5-0.1  s-0.6,0-1.1-0.1v0.9c3,0.6,3.3,1,3.2,7v3.7c0,1.4-0.1,5.5-0.3,6.7c-0.2,1.3-0.7,1.4-1.5,1.6c-0.4,0.1-0.9,0.2-1.2,0.3v0.8  c0.8,0,1.6-0.1,2.3-0.1c0.8-0.1,1.8-0.1,2.6-0.1c0.8,0,1.6,0.1,2.3,0.1c0.7,0,1.1,0.1,1.4,0.1v-0.9c-4.1-0.7-4.1-1.3-4-4.8v-8.7  l0.1-1.7c0,0,0,0,15.2,16.1h1.1c-0.1-1.7-0.1-6.1-0.1-8c0-2.7,0-9.8,0.1-10.7c0.2-1.3,2-1.5,3-1.5v-0.8c-2.2,0-3.4,0.1-4.4,0  c-0.9-0.1-1.6-0.2-2.2-0.2c-0.5,0-1-0.1-1.3,0l-0.2,0.8c3.5,0.2,3.4,0.5,3.4,8.3c0,0.9,0,5.5,0,6.4L506.1,56.8z M487.4,56.4  c6.6,0,10.7,5.3,10.7,10.6c0,5.9-5.2,10.9-11,10.9c-6.1,0-10.4-4.9-10.4-10.9C476.7,61.3,481.7,56.4,487.4,56.4z M488.5,76.5  c3.9,0,6.3-3.8,6.3-7.5c0-5.8-3.4-11.3-8.4-11.3c-4,0-6.4,3.5-6.4,7.6C480,70.7,483.1,76.5,488.5,76.5z M454.6,56.7  c0.7,0.1,1.3,0.1,2,0.1c0.6,0.1,1.3,0.1,1.9,0.1c0.5,0,1.7-0.1,2.8-0.2c1.2-0.1,2.1-0.1,2.8-0.1c4.4,0,7.2,2.4,7.2,5.6  c0,2.9-2.6,4.7-4.7,5.2c4.3,6.2,5.1,7.1,6.7,8.7c0.2,0.2,1.5,1.4,3.1,1.5l-0.1,0.8c-3.6,0-5.3-1.4-6.3-2.1c-3.2-2.5-6.3-7.4-6.8-8.4  c-0.9,0-1.2,0-2.7-0.1v3c0,1.3-0.1,4.3,0.4,5.2c0.3,0.5,1.8,0.9,2.8,1.2l0.1,0.8c-1.2-0.2-3.2-0.4-4.6-0.4c-0.7,0-3.9,0.2-4.6,0.3  l-0.2-0.6c0.3-0.1,2.2-0.5,2.6-1.3s0.3-5.1,0.3-6.5v-5c0-6.4-0.3-6.5-2.9-6.7L454.6,56.7z M460.6,66.4c0.6,0.1,1.6,0.1,2.2,0.1  c0.8,0,5.1,0,5.1-4.1c0-1.9-1.4-4.7-5.1-4.7c-2.2,0-2.2,0.3-2.2,3.8V66.4z M440.2,56.4c6.6,0,10.7,5.3,10.7,10.6  c0,5.9-5.2,10.9-11,10.9c-6,0-10.4-4.9-10.4-10.9C429.5,61.3,434.5,56.4,440.2,56.4z M441.3,76.5c3.9,0,6.3-3.8,6.3-7.5  c0-5.8-3.4-11.3-8.4-11.3c-4,0-6.4,3.5-6.4,7.6C432.8,70.7,435.9,76.5,441.3,76.5z M419.3,56.8h-4.4c-1.9,0-3.4,0-4.6-0.1  c-1.1-0.1-1.3-0.3-1.5-0.5h-0.6c-0.1,0.3-1.5,4-1.6,4.2l0.7,0.4c0.7-1.8,1.5-2.7,5.1-2.7c0.3,0,1.5,0,2.9,0.2  c0.2,2.6,0.3,5.2,0.3,7.9c0,1.7-0.1,7.9-0.3,9.2c-0.1,0.6-0.4,0.9-2.1,1.2c-0.7,0.1-1.2,0.2-1.6,0.2l0.2,0.8c0.6,0,1.2-0.1,2-0.1  c0.8-0.1,1.8-0.1,3.3-0.1c0.6,0,1.5,0,2.4,0c0.9,0.1,1.7,0.1,2.7,0.1l0.1-0.9c-0.2,0-0.5,0-1-0.1c-0.6-0.1-1.5-0.3-1.9-0.6  c-0.7-0.8-0.7-6.4-0.7-7.9c0-1.3,0.2-7.8,0.2-9.3c0-0.6,0.2-0.6,2.1-0.6h0.1c0.8,0,1.1,0,1.4,0c3.7,0,3.8,0.9,4.4,2.7l0.7-0.4  c-0.1-0.2-0.8-3.9-0.9-4.2h-0.6c-0.2,0.2-0.4,0.5-1.5,0.5c-1.4,0.1-3.1,0.1-4.8,0.1H419.3L419.3,56.8z M380.7,56.3  c-3,0.3-3.8,0.3-7.1,0.3l-3.6-0.1l-3.7-0.1l-1.2,0.1l-1,0.1v0.2v0.7h0.2c0.9,0,1.8,0.1,2.2,0.7c0.5,0.8,0.6,1.7,0.6,9.1  c0,3.5-0.3,7.4-0.4,8c-0.2,0.8-1.3,1.1-2.2,1.3h-0.1l-0.1,1.1h0.2c2.1-0.2,4.3-0.2,4.9-0.2l1.8,0.1l3.4,0.2v-0.2v-1h-0.2  c-2.4-0.2-3.2-0.7-3.5-1s-0.4-1.6-0.4-2.9c0-0.4,0-0.8,0-1.2c0,0,0.1-3.1,0.1-3.9c0.3,0,1.7-0.1,1.7-0.1c1.9,0,4.3,0.4,4.9,0.7  c0.3,0.1,0.6,0.8,0.7,1.7v0.2h1v-0.2c0.2-2.2,0.1-4.3,0.1-6v-0.2h-1.1v0.1c-0.3,1.5-0.4,2.2-4.5,2.2c-1.2,0-1.6,0-2.8-0.2  c0,0,0,0-0.1,0c0-0.4,0-0.8,0-1.2c0-0.5,0-1,0-1.5c0,0,0.1-4.4,0.1-5C372,58,373,58,373.3,58c2.3,0,4.3,0.4,5.1,1  c0.7,0.5,0.9,1.3,1.1,2.1v0.1l1.2-0.1v-0.2c0-0.3,0-1.5,0.1-2.5l0.1-2.2L380.7,56.3z M348.8,56.1c6.9,0,11.1,5.5,11.1,10.8  c0,6-5.2,11-11.4,11c-6,0-10.8-4.8-10.8-11C337.7,61.2,342.9,56.1,348.8,56.1z M349.9,76.3c3.9,0,6.2-3.8,6.2-7.3  c0-5.5-3.1-11.1-8.4-11.1c-4.2,0-6.4,3.7-6.4,7.4C341.4,70.7,344.6,76.3,349.9,76.3z M309.5,56.6v1h0.2c1.1,0,2.5,0.1,2.5,1  c0,0.3-0.4,1.5-4.4,7.2c-1.7-2.1-5.5-6.9-5.5-7.6c0-0.2,0-0.5,2.4-0.5h0.2v-1.2h-2l-3.9,0.1l-4.2-0.1v0.2v0.9h0.2  c1.1,0,1.7,0.1,2.2,0.5c1.3,0.9,5.8,6.7,5.9,6.9c0,0,1.8,2.3,2,2.6c0.1,1.5,0.2,3.2,0.2,5.2c0,3.2,0,3.8-2.9,3.9h-0.2l-0.1,1.1h0.2  c0.4,0,1.8-0.1,3.1-0.2l2.2-0.1l1.7,0.1h0.3l2.3,0.1v-0.2v-0.9h-0.2c-2.9-0.2-2.9-0.6-3-1.2v-0.2c-0.1-1.3-0.1-2.7-0.1-4.3  c0-1.2,0-2.4,0.1-3.8c0.1-0.1,4.1-6.3,4.1-6.3c1.3-2,2-3.1,4.9-3.2h0.2v-1.2h-0.2c-0.4,0-1.5,0-2.5,0.1l-1.4,0.1l-1.6-0.1l-1.1-0.1  l-1.6-0.1h-0.2L309.5,56.6L309.5,56.6z M290.8,56h-0.7v0.1c-0.1,0.1-0.3,0.4-1.4,0.4l-4.2,0.1h-5.9l-4.6-0.1  c-1.1-0.1-1.3-0.3-1.4-0.4l-0.1-0.1h-0.8v0.1c-0.1,0.2-1.5,4-1.6,4.2v0.1l1,0.6l0.1-0.2c0.7-1.7,1.4-2.6,5-2.6  c1.2,0,2.2,0.1,2.8,0.1c0.2,2.9,0.3,5.6,0.3,7.7c0,2-0.1,7.9-0.3,9.2c-0.1,0.5-0.2,0.8-2,1.1l-1.3,0.2l-0.5,0.1l0.2,1.2l1.7-0.1h0.5  l3.4-0.1h0.5h1.9l1.4,0.1l1.5,0.1v-0.2l0.1-1l-1-0.1h-0.2c-0.9-0.1-1.5-0.3-1.8-0.6c-0.2-0.3-0.6-1.6-0.6-7.7l0.1-4.3L283,59  c0-0.4,0-0.4,1.9-0.4h0.1h1.2h0.2c3.4,0,3.7,0.7,4.3,2.3l0.2,0.5l1-0.6l-0.2-1.1c-0.3-1.7-0.6-3-0.7-3.2v-0.1L290.8,56L290.8,56z   M255.6,56.6v1h0.2c2.8,0.1,3.2,0.7,3.4,1.2c0.4,0.9,0.5,6.9,0.5,9.1v0.4c0,1.8,0,6.1-0.6,7c-0.2,0.3-0.9,0.9-3.6,1.1h-0.2v1.1  l3.3-0.1h3.1l5.1,0.2v-0.2l-0.1-1h-0.2c-2.2,0-2.9,0-3.2-0.9c-0.1-0.5-0.2-2.5-0.2-5.9c0-8.2,0-10.4,0.5-11.2  c0.6-0.9,2.5-0.8,3.1-0.7h0.2v-1.2h-2.5l-3.5,0.1l-2.3-0.1h-1l-1.8-0.1h-0.2V56.6z M237,62.2c0,3.6,3.1,4.8,5.3,5.8l0.2,0.1  c3.8,1.6,5.6,2.3,5.6,4.9c0,1.6-1.2,3.2-3.7,3.2c-2.3,0-3.9-1-4.9-1.8c-1.2-1-1.5-2.5-1.6-3v-0.1h-1.3l0.1,0.2  c0.7,2.3,0.9,3.4,0.9,6v0.2l1,0.1l0.1-0.1c0-0.1,0.2-0.5,0.5-0.5c0.2,0,1,0.2,1.3,0.3h0.1l0.3,0.1c0.5,0.2,1.2,0.4,2.6,0.4  c5.1,0,7.9-3.1,7.9-6.1c0-4.1-4.1-5.7-6.8-6.8c-2.6-1-4.5-1.9-4.5-4s1.6-3.4,3.9-3.4c2.1,0,3.6,1.2,4,1.6c0.9,0.8,1.1,1.7,1.3,2.6  V62h0.1h0.9l-0.3-2.8c0-1,0.2-2.1,0.3-2.5v-0.2l-0.9-0.1c0,0-0.6,0.4-0.7,0.5c-1.9-0.5-2.9-0.7-4.2-0.7  C240.1,56.2,237,58.7,237,62.2z M246.1,95.5c0,3.2,2.9,4.2,5,5.1l0.2,0.1c3.6,1.4,5.2,2,5.2,4.3c0,1.4-1.1,2.8-3.5,2.8  c-2.2,0-3.6-0.9-4.6-1.6c-1.1-0.9-1.4-2.2-1.5-2.6v-0.1h-1.2l0.1,0.2c0.7,2,0.8,3,0.8,5.3v0.2l0.9,0.1l0.1-0.1  c0-0.1,0.2-0.4,0.5-0.4c0.2,0,0.9,0.2,1.2,0.3h0.1l0.3,0.1c0.5,0.2,1.1,0.4,2.4,0.4c4.8,0,7.4-2.7,7.4-5.4c0-3.6-3.8-5-6.4-6  c-2.4-0.9-4.2-1.7-4.2-3.5c0-1.8,1.5-3,3.6-3c2,0,3.4,1.1,3.7,1.4c0.8,0.7,1,1.5,1.2,2.3v0.1h0.1h0.8l-0.3-2.5  c0-0.9,0.2-1.8,0.3-2.2v-0.2l-0.8-0.1c0,0-0.6,0.4-0.7,0.4c-1.8-0.4-2.7-0.6-3.9-0.6C249,90.2,246.1,92.4,246.1,95.5z M222.2,56.3  c4.4,0,7.5,2.4,7.5,5.8c0,2.7-2.4,4.6-4.7,5.3c4.2,6,5,6.9,6.7,8.5c0.1,0.1,1.4,1.3,3,1.4h0.2l-0.1,1.1h-0.2c-3.7,0-5.5-1.4-6.5-2.2  c-3.2-2.5-6.3-7.3-6.9-8.4c-0.2,0-2.2-0.1-2.5-0.1c0,0.3,0,2.8,0,2.8s0,0.8,0,1c0,1.4,0,3.5,0.4,4.1c0.2,0.4,1.9,0.9,2.8,1.2h0.1  l0.1,1.1h-0.2c-1.3-0.2-3.2-0.4-4.6-0.4c-0.7,0-4,0.2-4.7,0.3h-0.1l-0.2-0.9h0.2c0.4-0.1,2.1-0.5,2.6-1.2c0.3-0.7,0.3-4.4,0.3-5.9  v-0.5v-5c0-6.3-0.3-6.3-2.8-6.5h-0.2l0.1-1.2h0.3l1.9,0.1l1.9,0.1c0.5,0,1.7-0.1,2.9-0.2l0,0l0,0L222.2,56.3z M218.8,66.2  c0.6,0.1,1.5,0.1,2.1,0.1c1.9,0,5-0.5,5-4c0-1.8-1.3-4.5-5-4.5c-2,0-2,0.1-2.1,3.6C218.8,61.4,218.8,65.9,218.8,66.2z M206.3,56.4  c-2.6,0.2-6.7,0.2-9.4,0.2c-1.6,0-5.7-0.1-7.3-0.2h-0.2v1.1h0.1c1.8,0.3,1.9,0.4,2,0.8c0.2,0.5,0.4,2.4,0.4,8.8c0,2.7-0.2,7-0.5,8.5  c-0.1,0.7-1,0.9-2.4,1.1h-0.2l0.1,1.2h0.2c2.8-0.3,6.3-0.3,8.3-0.3l8.4,0.1l0.1-0.1c0.4-0.7,1.1-1.8,1.6-5.1v-0.2l-1-0.1v0.1  c-0.7,1.9-2.1,3.9-7.3,3.9c-1.8,0-2.6-0.2-3.6-0.6c-0.1-0.6-0.2-1.5-0.2-4.1c0,0,0-3.1,0-3.9c1.4-0.2,2.6-0.2,3.1-0.2  c4.1,0,4.4,0.3,5,2.9v0.1h1v-0.2c-0.1-2.8-0.1-3.4,0.1-6.3v-0.2h-1.1v0.1c-0.4,1.5-0.7,1.8-1.3,1.9c-3,0.4-5.9,0.3-6.6,0.2  c0-0.3-0.1-2.8-0.1-2.8c0-1.3,0.1-3.4,0.4-4.9c1.1-0.2,3.2-0.4,4.1-0.4c2.3,0,3.7,0.3,4.3,1c0.5,0.5,0.5,1.3,0.5,2.2v0.2l1.2,0.1  v-0.2c0-0.2,0.1-1.1,0.2-1.7l0.1-0.8c0.2-1.1,0.2-1.6,0.2-2.1v-0.2L206.3,56.4z M242.2,90.4c-2.4,0.2-6.3,0.2-8.8,0.2  c-1.5,0-5.3-0.1-6.8-0.2h-0.2v1h0.1c1.7,0.3,1.8,0.4,1.9,0.7c0.2,0.4,0.4,2.1,0.4,7.7c0,2.4-0.2,6.2-0.5,7.5c-0.1,0.6-0.9,0.8-2.2,1  h-0.2l0.1,1.1h0.2c2.6-0.3,5.9-0.3,7.8-0.3l7.9,0.1l0.1-0.1c0.4-0.6,1-1.6,1.5-4.5v-0.2l-0.9-0.1v0.1c-0.7,1.7-2,3.4-6.8,3.4  c-1.7,0-2.4-0.2-3.4-0.5c-0.1-0.5-0.2-1.3-0.2-3.6c0,0,0-2.7,0-3.4c1.3-0.2,2.4-0.2,2.9-0.2c3.8,0,4.1,0.3,4.7,2.5v0.1h0.9v-0.2  c-0.1-2.5-0.1-3,0.1-5.5v-0.2h-1v0.1c-0.4,1.3-0.7,1.6-1.2,1.7c-2.8,0.4-5.5,0.3-6.2,0.2c0-0.3-0.1-2.5-0.1-2.5c0-1.1,0.1-3,0.4-4.3  c1-0.2,3-0.4,3.8-0.4c2.2,0,3.5,0.3,4,0.9c0.5,0.4,0.5,1.1,0.5,1.9v0.2l1.1,0.1v-0.2c0-0.2,0.1-1,0.2-1.5l0.1-0.7  c0.2-1,0.2-1.4,0.2-1.8v-0.2L242.2,90.4z M160.7,56.6l0.1,0.9h0.1c2.8,0.4,2.9,0.4,5.2,5.1l4.7,9.7v0.1c0.8,1.7,2,4.2,2.4,5.7v0.1h1  v-0.1c0.7-2.1,1.2-3.6,2.9-6.8l5.1-10c1.2-2.4,1.7-3,4-3.4h0.1v-1.2h-0.2c-1.3,0.1-2.6,0.1-3.9,0l-4-0.1v0.2l-0.1,1.1h0.2  c1.1,0,2.5,0.1,2.5,1.3c0,0.6-0.5,1.7-0.8,2.3l-0.1,0.2c-1,2.4-1.7,3.6-2.4,5l-2.3,4.8c0,0-0.3,0.8-0.5,1.2  c-2.3-3.7-6.5-13.6-6.5-14.2c0-0.2,0.1-0.3,1.8-0.5l0.5-0.1v-1.2h-3.2h-1.7c-1.2,0-3.7-0.1-4.9-0.2h-0.2L160.7,56.6z M146.5,56.6v1  h0.2c2.8,0.1,3.2,0.7,3.4,1.2c0.4,0.9,0.5,6.9,0.5,9.1v0.4c0,1.8,0,6.1-0.6,7c-0.2,0.3-0.9,0.9-3.6,1.1h-0.2v1.1l3.3-0.1h3.1  l5.1,0.2v-0.2l-0.1-1h-0.2c-2.2,0-2.9,0-3.2-0.9c-0.1-0.5-0.2-2.5-0.2-5.9c0-8.2,0.1-10.4,0.5-11.2c0.6-0.9,2.5-0.8,3.1-0.7h0.2  v-1.2h-2.5l-3.5,0.1l-2.3-0.1h-1l-1.8-0.1h-0.2V56.6L146.5,56.6z M134.4,56.3h-0.1v0.1l-0.2,1h0.2c4.1,0.2,3.4,0.3,3.5,8.7  c0,0,0.1,5.1,0,5.7c-0.3-0.3-14.6-15.3-14.6-15.3l-0.1-0.1l-2.3,0.1l-1.6-0.1h-0.1l-1.4-0.1v0.2v1h0.1c2.9,0.5,3.4,0.9,3.3,6.8  L121,68c0,1.4-0.2,5.5-0.3,6.7c-0.1,1.2-0.6,1.3-1.4,1.4l-1.4,0.3v0.1v1l4.9-0.2l2.4,0.1l1.6,0.1v-0.2v-1h-0.1c-4-0.7-4-1.1-4-4.6  l0.1-8.7c0,0,0-0.8,0-1.2c0.8,0.8,15.3,15.8,15.2,15.8v0.1h1.4v-0.2c-0.1-1.7-0.1-6.1-0.1-8c0-2.8,0.1-9.5,0.3-10.3  c0.2-1.4,1.4-1.8,2.6-1.8h0.2v-1.1h-0.2c-2.3,0-3.4,0.1-4.4,0l-0.7-0.1l-1.6-0.1L134.4,56.3z M96.1,56.5h-1.2c-1.4,0-4.3,0-4.8,0.1  h-0.2l0.1,1.2h0.2c1.4,0,1.8,0,2.2,0.2c0.4,0.3,0.7,2.7,0.7,5.9l-0.3,6.9c0,4.7,3,7.2,8.8,7.2c9.1,0,9.6-4.9,9.7-14.9l0.1-3V60  c0-1.5,0.1-2.1,2.5-2.2h0.2l0.1-1.2h-0.5l-3.7,0.1l-2.8-0.1H106v0.2v1.1h0.2c1.1,0,2.1,0.1,2.6,0.5c0.7,0.7,0.8,3.5,0.8,4.9V65  c0,7-0.5,11.2-7,11.2c-5.9,0-5.9-4.7-5.9-7v-3.9c0-7.3,0.3-7.3,3.5-7.6h0.2v-1.2h-0.2C99.3,56.4,97.5,56.4,96.1,56.5z"
   style="fill:#002a5c;fill-opacity:1" />
<g
   id="g359"
   style="fill:#002a5c;fill-opacity:1">
	<g
   id="g193"
   style="fill:#002a5c;fill-opacity:1">
		<g
   id="g191"
   style="fill:#002a5c;fill-opacity:1">
			<path
   class="st2"
   d="M13.2,24.3c-0.6,0.2-1,0.6-1.1,1.2c-0.4,0-0.9,0-1.3,0.3c-0.5,0.3-0.7,0.8-0.9,1.4v0.4c0,0.6,0.3,1.4,1.4,2     c0,0.1,0,0.2,0,0.2c0,0.3,0.1,0.9,0.6,1.3c0.3,0.2,0.5,0.4,0.8,0.5c-0.1,0.2-0.1,0.6-0.1,0.6l0.1,0.7c0.2,0.7,0.8,1.4,2.1,1.5     c0.1,0.3,0.2,0.6,0.5,0.9c0.4,0.4,1.1,0.7,2,0.4c-0.1,0.2-0.2,0.5-0.2,0.8c0,0.4,0.1,0.9,0.4,1.3c0.8,1.2,2.2,0.6,3.1,0.2     c0.4,0.5,1,0.8,1.8,0.6c1.2-0.2,1.8-1,2.1-1.7c0.1,0,0.9-0.1,0.9-0.1l0.1-0.1c0.5-0.3,0.9-1,1.3-1.8c0.9,0.8,1.6,1.9,1.7,2.1     c0.1,0.4,0.5,1,1.5,2.5c0,0,0.7,1.2,0.9,1.5c-0.3,1.6-1,2.7-2.1,3.2l-0.6,0.3c-1.4,0.7-3,1.5-4,2.3l0,0c-0.7,0-1.2,0.2-1.5,0.3     c-0.4-0.2-1-0.3-1.5-0.3c-1.9,0-2.8,1.1-3.1,1.7c-0.6,1.2-0.4,2.7,0.1,3.5c0.7,1,1.7,1.5,3,1.5c0.5,0,1-0.1,1.4-0.3     c0.4,0.2,0.8,0.3,1.4,0.3c0.5,0,1-0.1,1.5-0.3c0.4,0.2,0.9,0.4,1.3,0.4c0.5,0,0.9-0.1,1.3-0.3c0.4,0.1,0.8,0.3,1.3,0.3     c0.7,0,1.1-0.2,1.4-0.3c0.4,0.2,0.8,0.3,1.3,0.3c0.5,0,0.9-0.1,1.3-0.3c0.4,0.1,0.8,0.3,1.3,0.3c0.7,0,1.1-0.1,1.4-0.3     c0.4,0.2,0.8,0.3,1.3,0.3s0.9-0.1,1.3-0.3c0.4,0.1,0.8,0.3,1.3,0.3c0.7,0,1.1-0.1,1.4-0.3c0.4,0.2,0.8,0.3,1.3,0.3     s0.9-0.1,1.3-0.3c0.4,0.1,0.8,0.3,1.3,0.3c0.7,0,1.2-0.2,1.5-0.3c0.4,0.2,1,0.4,1.6,0.4c1.5,0,2.6-0.6,3.2-1.8     c0.6-1.2,0.4-2.7-0.2-3.4c-0.7-1-1.7-1.5-3-1.5c-0.5,0-0.9,0.1-1.4,0.3c-0.1,0-0.4-0.1-0.5-0.1c-0.6-0.8-1.5-1.3-3.4-2.1L42.8,45     c-2.1-0.9-2.5-1.6-2.9-2.3l-0.1-0.1c-0.1-0.2-0.4-1.4-0.4-2.9c0-1,0.2-2.5,0.9-3.6c0.4-0.6,0.9-1.1,1.5-1.5     c0.2,0.6,0.4,1.1,0.6,1.3l0,0l0.1,0.1l0.9,0.5l-0.1-0.2c0.4,0.9,0.9,1.9,2,2c0.4,0.1,0.7-0.1,1.1-0.2c0.4,0.3,0.9,0.6,1.5,0.6     s1-0.3,1.2-0.5c1.2,0.2,1.9-0.3,2.2-0.8l0.3-1v-0.1c0-0.4-0.2-0.7-0.3-1c0.1,0,0.1,0,0.1,0c0.3-0.2,0.5-0.4,0.7-0.7     c1-0.1,1.4-0.6,1.6-1.1c0,0,0.1-0.2,0.1-0.3c0,0,0,0,0.1-0.1c0.5,0.2,1.1,0.3,1.7,0c0.4-0.2,0.7-0.6,0.9-1c0.4,0,0.9,0,1.4-0.4     c0.5-0.3,0.8-0.9,0.9-1.5v-0.4c0-0.6-0.3-1.7-1.9-2.2c-0.1-0.4-0.2-0.9-0.6-1.2c-0.8-0.8-1.8-0.7-2.5-0.4     c0.2-0.2,0.4-0.4,0.5-0.6c0.9,0.2,2.5,0.4,3.2-0.9l0.2-0.7c0-0.1-0.1-0.4-0.1-0.6c0.9-0.7,1.1-1.4,1.1-1.9l-0.2-1.1     c-0.4-1-1.2-1.3-2.2-1.2c-0.3-0.6-0.3-0.8-0.5-1c0,0-0.1,0-0.1-0.1c0.1-0.3,0.2-0.7,0.2-0.7l-0.2-0.9c-0.2-0.6-0.6-1-1.1-1.2     c-0.4-0.2-0.9-0.2-1.5,0c0.4-0.4,0.8-0.8,0.8-1.3v-0.3l0,0c0-0.5-0.2-0.9-0.5-1.3c-0.6-0.8-1.5-1-2.6-0.7c-0.2-0.2-0.5-0.5-1-0.6     c-0.9-0.2-1.7,0.3-2.2,0.8c-0.2-0.1-0.5-0.3-0.5-0.3H47c0,0-0.1,0-0.3,0c0-0.5-0.2-1-0.6-1.4c-0.5-0.5-1.1-0.8-1.8-0.8     c-0.2,0-0.5,0.1-0.7,0.1C44,9,44.2,8.6,44.2,8.2L44,7.4c-0.3-0.6-0.7-0.9-1-1l0,0c0-1.7-1.1-2.1-1.6-2.3C40.6,3.9,39.8,4.2,39,5     c-0.2-0.1-0.3-0.1-0.5-0.2c-0.4-0.4-0.8-0.7-1.4-0.8c-1.5-0.2-2,1.1-2.3,1.9c-0.3,0-0.6,0-1,0.2c0,0-0.2,0.3-0.5,0.5     c-0.1-0.1-0.1-0.1-0.2-0.1c-0.2-1.4-1-1.9-1.4-2.1c-0.4-0.1-0.8-0.1-1.1,0c-1.2-1.2-2.2-1.2-2.9-0.9l0,0c-0.7,0.3-1.1,1-1.1,1.8     c0,0,0.1,0.6,0.2,1c-0.2,0.1-0.4,0.3-0.5,0.5c-0.7-0.2-1.4-0.1-2.1,0.4c-0.6,0.4-0.9,1.1-0.9,1.8c0,0.6,0.2,1,0.4,1.5     c-0.4,0.3-0.6,0.7-0.6,1.1v0.3c0,0,0.1,0.3,0.1,0.5c-0.5,0.1-1.1,0.3-1.5,0.7c-0.3,0.3-0.4,0.7-0.5,1c-0.3-0.9-0.9-1.4-1.7-1.5     c-0.4,0-0.8,0.2-1.1,0.5c-0.7-0.5-1.4-0.5-1.8-0.3c-0.5,0.2-1.3,0.8-1.3,2.2c0,0,0,0.4,0.1,0.7c-0.3,0.2-0.6,0.4-0.7,0.8l0,0     c0,0,0,0,0,0.1l0,0c0,0.1-0.1,0.3-0.1,0.6l0,0c0,0.4,0.2,0.8,0.4,1.1l0,0c-0.2,0.1-0.8,0.4-1,1.1c-0.7,0.1-1.3,0.5-1.7,1.2     c0,0.1-0.3,1-0.3,1v0.1l0.2,0.9c0.2,0.5,0.6,0.8,1.1,1.1c0,0,0.1,0.1,0.1,0.2S13.2,24.3,13.2,24.3z M14.1,23.5l-0.3-0.2     c-0.6-0.3-0.9-0.5-1.1-0.9c0,0-0.1-0.5-0.2-0.7c0-0.1,0.2-1,0.2-1v0.2c0.3-0.6,0.7-0.8,1.3-0.8h0.3l0.1-0.3     c0.1-0.5,0.5-0.7,0.6-0.8l1.2-0.2l-0.5-0.5c-0.4-0.3-0.6-0.7-0.6-1l0.1-0.4c0.1-0.3,0.3-0.4,0.7-0.6l0.2-0.1L16,15.1     c0-0.7,0.3-1.2,0.9-1.4c0.4-0.2,0.9-0.1,1.3,0.3l0.3,0.3l0.2-0.3c0.2-0.3,0.5-0.5,0.8-0.4c0.4,0,0.9,0.2,1.2,1.4l0.1,0.3     c0,0,0.4-0.2,0.6-0.1s0.5,0.3,0.5,0.3l0.2-0.3L22,14.5l0,0c0-0.3,0.1-0.5,0.4-0.8c0.4-0.4,0.8-0.6,1.4-0.6h0.5L24,12.6l-0.1-0.7     v-0.2c0-0.3,0.2-0.5,0.6-0.8l0.3-0.2l-0.1-0.3C24.4,10,24.2,9.6,24.2,9c0-0.5,0.2-0.9,0.6-1.2s0.9-0.5,1.7-0.2l0.3,0.1l0.1-0.3     C27,7.2,27.2,7,27.5,6.9l0.3-0.1l-0.1-0.3l-0.2-1c0-0.4,0.1-0.9,0.7-1.1c0.7-0.3,1.4,0,2.2,0.9l0.2,0.2l0.2-0.1     c0.3-0.1,0.5-0.1,0.8,0c0.4,0,0.8,0.6,0.9,1.5v0.2l0.3,0.1L33,7.3l0.4,0.3l0.2,0.1l0.3-0.4l0.4-0.4c0.3-0.2,0.5-0.2,0.8-0.1     l0.3,0.1l0.1-0.3c0.4-1.1,0.8-1.8,1.6-1.7c0.4,0,0.7,0.2,1,0.6l0.1,0.1h0.2c0.2,0,0.4,0.1,0.6,0.2L39.3,6l0.2-0.3     c0.6-0.7,1.2-1,1.8-0.8c0.5,0.1,1,0.5,1,1.5v0.5L42.5,7c0.3,0.1,0.6,0.3,0.9,0.8l0.2,0.6c0,0.3-0.2,0.7-0.7,1.1l-0.1,0.1l0.1,0.2     l0.2,1l0.5-0.4c0.4-0.3,0.8-0.5,1.1-0.5c0.4,0,0.9,0.2,1.2,0.6c0.3,0.3,0.5,0.6,0.5,1l-0.1,0.6l0.6,0.1l0.4-0.1l0.5,0.3l0.2,0.2     l0.2-0.2c0.5-0.5,1.1-0.9,1.7-0.8c0.4,0.1,0.6,0.3,0.8,0.5l0.2,0.2l0.3-0.1c0.9-0.3,1.6-0.1,2,0.4c0.2,0.2,0.3,0.5,0.3,0.8v0.3     c-0.1,0.3-0.3,0.6-0.8,1L52.3,15l0.2,1.2l0.4-0.1c0.6-0.2,1-0.2,1.4-0.1c0.3,0.1,0.6,0.4,0.7,0.7l0.1,0.7c0-0.1-0.2,0.6-0.2,0.6     l-0.1,0.3l0.2,0.2l0.2,0.2c0,0.1,0.1,0.3,0.1,0.5l0.1,0.4l0.4-0.1c0.9-0.2,1.4,0,1.7,0.7l0.2,0.9c0,0.5-0.3,1-1,1.4l-0.2,0.1     l0.1,0.3l0.1,0.5l-0.1,0.5c-0.4,0.8-1.5,0.6-2.6,0.4l-0.3-0.1l-0.1,0.4c-0.1,0.3-0.3,0.5-0.7,0.7l-0.3,0.1l0.1,0.4l0.1,0.3v0.2     l-0.1,0.8l0.7-0.4c1.1-0.6,1.8-0.7,2.3-0.1c0.3,0.3,0.4,0.6,0.4,0.9v0.3l0.3,0.1c1.1,0.3,1.6,0.8,1.6,1.6v0.3     c-0.1,0.4-0.3,0.7-0.6,1C57,31,56.6,31,56.2,31h-0.3l-0.1,0.3c-0.1,0.4-0.3,0.7-0.6,0.8c-0.4,0.2-0.9,0.1-1.3-0.1l-0.2-0.1     l-0.2,0.2l-0.3,0.3l-0.1,0.1L53,32.9c-0.2,0.4-0.5,0.6-1.1,0.6h-0.3l-0.1,0.2c-0.1,0.2-0.2,0.3-0.4,0.5l-0.4,0.1l-0.2,0.1     l-0.1,0.5l0.1,0.2c0.2,0.2,0.4,0.4,0.4,0.8c0,0.1-0.3,0.8-0.3,0.8C50.4,36.8,50,37.2,49,37h-0.2l-0.1,0.2     c-0.2,0.2-0.4,0.4-0.9,0.4s-0.8-0.2-1.2-0.5l-0.2-0.2l-0.2,0.2c-0.2,0.2-0.5,0.2-0.8,0.2c-0.7-0.1-1.1-0.8-1.4-1.6l-0.1-0.1h-0.2     l-0.9-0.5c-0.1-0.1-0.3-0.4-0.5-1.5L42.1,33l-0.4,0.2c-0.8,0.5-1.6,1.2-2.2,2c-0.8,1.3-1,2.9-1,4c0,1.5,0.3,2.9,0.5,3.3l0.1,0.1     c0.4,0.7,0.9,1.7,3.3,2.6l0.3,0.1c2,0.9,2.8,1.2,3.2,1.9l0.1,0.1l1,0.3l0.1-0.1c0.4-0.2,0.8-0.3,1.2-0.3c1,0,1.8,0.4,2.4,1.2     c0.4,0.6,0.6,1.7,0.1,2.7c-0.4,0.9-1.3,1.4-2.5,1.3c-0.4,0-0.9-0.1-1.4-0.3L46.7,52l-0.2,0.1c-0.3,0.1-0.6,0.3-1.3,0.3     c-0.4,0-0.8-0.1-1.1-0.3L43.9,52l-0.2,0.1c-0.4,0.2-0.7,0.3-1.2,0.3c-0.4,0-0.7-0.2-1.1-0.3L41.2,52L41,52.1     c-0.2,0.1-0.6,0.3-1.3,0.3c-0.4,0-0.8-0.1-1.1-0.3L38.4,52l-0.2,0.1c-0.4,0.2-0.7,0.3-1.2,0.3c-0.4,0-0.7-0.2-1.1-0.3L35.7,52     l-0.2,0.1c-0.2,0.1-0.6,0.3-1.3,0.3c-0.4,0-0.7-0.1-1.1-0.3L32.9,52l-0.2,0.1c-0.4,0.2-0.7,0.3-1.2,0.3c-0.4,0-0.7-0.2-1.1-0.3     L30.2,52L30,52.1c-0.2,0.1-0.6,0.3-1.3,0.3c-0.4,0-0.8-0.1-1.1-0.3L27.4,52l0.6,0.2c-0.4,0.2-0.7,0.3-1.2,0.3     c-0.4,0-0.7-0.2-1.1-0.3l-0.2-0.1l-0.2,0.1c-0.4,0.2-0.9,0.3-1.4,0.3c-0.4,0-0.8-0.1-1.2-0.3l-0.2-0.1l-0.2,0.1     c-0.4,0.2-0.8,0.3-1.2,0.3c-1,0-1.9-0.4-2.4-1.2c-0.4-0.6-0.5-1.8-0.1-2.7c0.3-0.5,0.9-1.3,2.5-1.3c0.4,0,0.9,0.1,1.4,0.3     l0.2,0.1l0.2-0.1c0.3-0.1,0.6-0.3,1.3-0.3h0.3l0.1-0.1c1-0.8,2.9-1.7,4-2.3l0.6-0.3c1.3-0.7,2.2-2,2.5-3.9v-0.1L30.6,39     c-0.9-1.4-1.3-2.1-1.4-2.4c-0.2-0.4-1.2-1.9-2.3-2.7l-0.4-0.3L26.3,34c-0.4,1.3-0.9,1.8-1.2,1.9c0,0-0.4,0.1-0.6,0.1     c-0.1-0.1-0.4-0.4-0.4-0.4L24,36.2c-0.3,0.7-0.7,1.4-1.7,1.6c-0.4,0.1-0.9,0.1-1.2-0.5L20.9,37l-0.3,0.2c-1,0.5-1.9,0.8-2.4,0.2     c-0.2-0.3-0.3-0.6-0.3-0.9c0-0.5,0.2-0.9,0.7-1.4l-0.5-0.6c-1,0.7-1.7,0.8-2.3,0.3c-0.3-0.2-0.3-0.5-0.4-0.7l-0.1-0.3H15     c-0.9,0-1.4-0.3-1.7-1c0,0-0.1-0.4-0.1-0.5s0.1-0.4,0.1-0.5l0.8-0.6l-0.9-0.1c-0.3,0-0.6-0.2-0.9-0.4c-0.3-0.2-0.4-0.5-0.4-0.8     l0.1-0.6l-0.3-0.2c-0.8-0.3-1.2-0.8-1.2-1.4v-0.4c0.1-0.3,0.2-0.6,0.5-0.8c0.3-0.2,0.7-0.2,1.1-0.2l0.4,0.1V26     c0-0.4,0.2-0.9,0.8-1l0.7-0.1h0.2L14,24.7c0,0-0.3-0.5-0.2-0.7S14.1,23.5,14.1,23.5z"
   id="path189"
   style="fill:#002a5c;fill-opacity:1" />
		</g>
	</g>
	<path
   class="st2"
   d="M30.5,50.8c0.4,0.5,1,0.8,1.6,0.8c0.7,0,0.9-0.3,1-0.3c0.1-0.1,0.4-0.2,0.5-0.1c0,0,0.4,0.3,1.1,0.3   c0.3,0,0.6-0.1,0.7-0.1c-0.1-0.1-0.2-0.2-0.2-0.3L33.6,49c-0.4-0.5-1-0.8-1.6-0.8c-0.7,0-0.9,0.3-1,0.3c-0.1,0.1-0.4,0.2-0.5,0.1   c0,0-0.4-0.3-1.1-0.3c-0.3,0-0.6,0.1-0.7,0.1c0.1,0.1,0.2,0.2,0.2,0.2L30.5,50.8z"
   id="path195"
   style="fill:#002a5c;fill-opacity:1" />
	<path
   class="st2"
   d="M19.6,50.8c-0.2-0.3-0.3-1.2,0-1.8s0.9-0.8,1.7-0.8c0.6,0,1.5,0.3,1.9,0.8l1.5,2.2c0.1,0.1,0.2,0.1,0.3,0.2   c-0.2,0.1-0.5,0.1-0.9,0.1c-0.8,0-1.2-0.3-1.2-0.3c-0.1-0.1-0.4-0.1-0.5,0.1c0,0-0.3,0.3-1.1,0.3C20.5,51.6,20,51.4,19.6,50.8z"
   id="path197"
   style="fill:#002a5c;fill-opacity:1" />
	<path
   class="st2"
   d="M28.1,17.6c0.3-0.2,0.7-0.5,1.2-0.8c0.6-0.3,1.2-0.6,1.7-0.7c-0.6-1.2-1.4-1.2-1.8-1.3l-0.4-0.1   c-0.1,0-0.1-0.1-0.1-0.1c-0.1-0.1-0.4-0.3-0.5-0.3c0,0.1,0,0.4,0,0.5v0.4L28,15.5C27.8,15.9,27.5,16.5,28.1,17.6z"
   id="path199"
   style="fill:#002a5c;fill-opacity:1" />
	<path
   class="st2"
   d="M36,14.6L36,14.6C35.9,14.6,35.9,14.5,36,14.6L36,14.6z"
   id="path201"
   style="fill:#002a5c;fill-opacity:1" />
	<path
   class="st2"
   d="M20.8,22.1l-0.1,0.3l-0.6,0.3c-0.1,0.1-0.2,0.1-0.3,0.1l0,0c-0.3,0.1-0.6,0.2-0.7,0.5   c-0.1,0.4,0.2,0.6,0.6,0.9l0.4,0.4c0,0.1,0,0.2,0,0.3c0.4-0.1,0.9-0.1,1.4,0.1c0.1-0.1,0.2-0.1,0.3-0.1c0.6-0.1,1.2,0.2,1.5,0.5   c0.1-0.3,0.4-0.7,0.8-0.6c0.6,0.1,1,0.6,1.3,1.1c0.1-0.1,0.2-0.3,0.4-0.4v-0.1c0-0.2,0-0.5,0.2-0.6c0,0,0.2-0.2,0.3-0.2l0,0   c-0.2-0.2-0.4-0.4-0.6-0.7c-0.7,0.3-1.9,0.5-2.7,0.2c-0.5-0.2-0.8-0.6-0.9-1.1c-0.5-0.3-0.8-0.7-1-1.1   C20.9,21.8,20.9,21.9,20.8,22.1z"
   id="path203"
   style="fill:#002a5c;fill-opacity:1" />
	<path
   class="st2"
   d="M18.9,26.2c-0.2,0-0.5,0-0.6,0.2s0,0.4,0.1,0.6l0.1,0.1l0.1,0.4l0.3,0.8c0.3,0.5,0.8,0.8,1.1,1l1.3-2.2   c-0.2-0.2-0.5-0.6-0.5-1c0-0.2,0-0.3,0.1-0.5c-0.8-0.2-1.3,0.2-1.6,0.4l-0.2,0.2H18.9z"
   id="path205"
   style="fill:#002a5c;fill-opacity:1" />
	<path
   class="st2"
   d="M41.3,23.4C41.3,23.3,41.3,23.3,41.3,23.4c0.5-0.5,1.1-1.1,1.7-1.1c-0.3-0.4-0.4-0.9-0.4-1.4   c-0.2,0.5-0.8,0.9-1.3,1.1c0.1,0.1,0.2,0.2,0.3,0.4c0,0.1,0,0.2,0,0.2C41.6,22.8,41.5,23,41.3,23.4C41.3,23.3,41.3,23.3,41.3,23.4z   "
   id="path207"
   style="fill:#002a5c;fill-opacity:1" />
	<path
   class="st2"
   d="M47,25.1c0,0,0,0,0-0.1C47,25,47,25,47,25.1L47,25.1z"
   id="path209"
   style="fill:#002a5c;fill-opacity:1" />
	<path
   class="st2"
   d="M44,24.7c0.1,0.2-1.1,0.7-2,1c-0.4,0.1-0.8,0.3-1.2,0.5l0,0c-0.3,0.2-0.6,0.5-0.9,0.9c0.4,0.2,1.7,0.5,2,0.5   v-0.2c0-0.2,0.1-0.5,0.3-0.6h0.6c0.5,0.1,1.2,0.3,1.7,0l-0.1-0.1l-0.2-0.5c0-0.1-0.1-0.1-0.1-0.2c0.1-0.1,0.1,0,0.2-0.1H45   c0.3,0,0.5,0.1,0.7,0.1c0.1,0,0.1,0,0.2,0c0.2,0,0.3-0.1,0.3-0.3l-0.1-0.3l0.2-0.4c0-0.3,0.3-0.4,0.5-0.6c0.5-0.3,0.8-0.5,0.6-0.9   c-0.1-0.2-0.8-0.1-1.1,0h-0.7l-0.3-0.4c-0.1-0.1-0.1-0.2-0.3-0.3c-0.1-0.1-0.5,0.2-0.7,0.3c-0.3,0.2-0.5,0.3-0.8,0.2L43.2,23   l-0.1-0.1c-0.1-0.1-0.4,0.1-1.3,0.9l-0.7,0.5c-0.1,0-0.3,0-0.4-0.3c-0.4,0.1-0.9,1.1-1.1,1.9c0.5-0.2,1.5-0.6,2.3-0.8   C42.7,24.8,44,24.5,44,24.7z"
   id="path211"
   style="fill:#002a5c;fill-opacity:1" />
	<path
   class="st2"
   d="M22,19.5l-0.3,0.1h-0.3h-0.2v0.1l0.1,0.5l0,0c0,0.7,0.3,1.7,1.1,2.1l0,0c0,0,0.2,0,0.4-0.3   c0.7-0.7,1.3-2,1.3-2.4C23.2,19.3,22.4,19.4,22,19.5z"
   id="path213"
   style="fill:#002a5c;fill-opacity:1" />
	<path
   class="st2"
   d="M53.7,19.1c-0.1,0.1-0.2,0.1-0.3,0.2c0.3,0.2,0.6,0.5,0.6,1.1v0.1c-0.1,1-1.6,1.1-2.6,1.1   c0.1,0.2,0.2,0.4,0.2,0.7c0,0.1,0,0.2-0.1,0.3c-0.5,1.2-2.5,1.1-3.4,1.1c0,0.1,0,0.1,0,0.2s0,0.3-0.1,0.4c0.2,0,0.5,0.1,0.6,0.2   l0.1,0.1c1-0.1,1.8,0,2.3,0.2c0.1-0.2,0.4-0.2,0.7-0.2c0.6,0.1,1,0.1,1.1-0.2v-0.2c0-0.2,0-0.5,0.3-0.7c0.2-0.2,0.6-0.1,1.2,0   c0.6,0.1,1.5,0.3,1.7,0c0-0.1-0.1-0.3-0.2-0.4c-0.1-0.2-0.3-0.5-0.2-0.8L56,22c0.8-0.4,1.1-0.7,0.8-1.4c-0.2-0.3-0.4-0.3-1.1-0.1   c-0.4,0.1-0.9,0.3-1.1-0.2v-0.6c0-0.2,0-0.4,0-0.5c0,0-0.2-0.2-0.6-0.2C53.9,18.9,53.8,19,53.7,19.1z"
   id="path215"
   style="fill:#002a5c;fill-opacity:1" />
	<path
   class="st2"
   d="M42.3,19.8c0.1,0.1,0.3,0.3,0.3,0.3c0.1-0.3,0.2-0.6,0.3-0.9c0.5-0.9,1.5-1.2,1.8-1.1c0.6-0.4,1.3-0.5,2-0.4   c0.1-0.3,0.5-0.9,1-1.2c0-0.1,0-0.3-0.3-0.6c-0.4-0.3-0.8-0.1-1.3,0.2c-0.3,0.2-0.6,0.4-0.9,0.3c0,0-0.3-0.3-0.4-0.4   c-0.1-0.2-0.3-0.6-0.5-0.7c-0.2,0.1-0.3,0.2-0.5,0.3c0.1,0.1,0.2,0.3,0.2,0.6c0,0.1,0,0.2-0.1,0.3c-0.1,0.4-0.6,0.8-0.8,1   c0.1,0.2,0.1,0.4,0.1,0.6C43.2,18.8,42.9,19.3,42.3,19.8z"
   id="path217"
   style="fill:#002a5c;fill-opacity:1" />
	<path
   class="st2"
   d="M39.4,16.1c0.1-1-0.2-1.6-0.3-1.9l0-0.2c0-0.2-0.1-0.3-0.3-0.4c-0.2-0.1-0.4,0.1-0.5,0.2l-0.2,0.1   c-0.4,0.1-1.3,0.6-1.6,1.4C37.5,15.4,39.1,15.9,39.4,16.1L39.4,16.1z"
   id="path219"
   style="fill:#002a5c;fill-opacity:1" />
	<path
   class="st2"
   d="M48,18.5l-0.2,0.1l-0.5,0.1c-0.1,0-0.1,0-0.1,0c-0.3-0.1-1.1-0.3-2.1,0.3c-0.1,1.5,0.9,2.1,2,2.5   c0.7-0.6,0.8-1.3,0.8-1.8c0-0.1,0-0.3,0-0.3v-0.2l0.1-0.3C47.9,18.8,47.9,18.5,48,18.5z"
   id="path221"
   style="fill:#002a5c;fill-opacity:1" />
	<path
   class="st2"
   d="M40.2,28.5c0.2-0.1,0.3-0.1,0.3-0.4c-0.3-0.1-0.7-0.2-0.9-0.4c-0.2,0.4-0.5,0.9-0.6,1.4   c-0.3,0.7-0.3,1.7-0.4,2.5c0,0.1,0,0.2,0,0.3c0.3-0.3,0.6-0.7,0.9-1.1c-0.3-0.5-0.4-1.3,0-1.9L40.2,28.5z"
   id="path223"
   style="fill:#002a5c;fill-opacity:1" />
	<path
   class="st2"
   d="M45.6,27.4c0.2-0.2,0.4-0.3,0.4-0.4c0,0,0,0,0-0.1s0-0.1,0-0.2c-0.2,0-0.5,0-0.7,0c0,0.1,0.1,0.2,0.1,0.2   c0,0.2-0.1,0.3-0.2,0.5c-0.8,0.7-1.8,0.4-2.4,0.3c0,0,0,0-0.1,0c0,0.2-0.1,0.5-0.4,0.7c-0.2,0.1-0.6,0.1-1.1,0   c-0.1,0.5-0.4,0.7-0.7,0.9l-0.4,0.3c-0.2,0.3-0.2,0.6-0.1,0.9c0.3-0.3,0.7-0.6,1-0.8c0,0,0.6-0.4,1.1-0.6c0.1-0.1,1.1-0.5,1.3-0.2   s-0.8,0.8-0.9,0.9c-0.4,0.2-0.6,0.4-0.8,0.6c-0.2,0.4-0.4,0.9-0.6,1.3c0.3-0.1,0.7-0.1,1.1-0.1l0.5-0.1c0.3-0.1,0.9-0.2,1-0.3   l0.1-0.1l-0.2-0.2c-0.1-0.1-0.2-0.3-0.2-0.5c0-0.1,0-0.2,0.1-0.3l0.7-0.2c0.8-0.1,1.2-0.2,1.3-0.6c0,0,0,0,0-0.1   c0-0.2-0.1-0.2-0.2-0.4c-0.1-0.1-0.2-0.2-0.2-0.5c0-0.1,0-0.1,0-0.2L45.6,27.4z"
   id="path225"
   style="fill:#002a5c;fill-opacity:1" />
	<path
   class="st2"
   d="M51.7,16.7c-0.1-0.2-0.1-0.4-0.3-0.4c-0.5-0.1-0.9,0.3-1.3,0.8c-0.3,0.3-0.5,0.6-0.9,0.5l-0.5-0.3   c-0.2-0.2-0.4-0.3-0.7-0.2c-0.2,0.1-0.5,0.4-0.7,0.7c0.2-0.1,0.6-0.2,0.9,0.1c0.4,0.4,0.2,0.8,0.1,1.1c0,0,0,0.1,0,0.2   c0,0.2,0,0.5,0,0.8c0.7-0.4,1.9-1.3,2.1-1.2c0.2,0.1-0.9,1.3-2,2c-0.2,0.1-0.5,0.3-0.5,0.3c-0.2,0.3-0.4,0.5-0.6,0.8   c0,0.2,0,0.5-0.1,0.7c0.2,0,0.4,0.1,0.5,0.2H48c0.6,0,2.5,0.1,2.8-0.6c0.1-0.2-0.2-0.5-0.3-0.6c-0.1-0.2-0.2-0.3-0.2-0.6   c0.1-0.3,0.3-0.2,0.8-0.2c1.8,0,2.1-0.2,2.1-0.4c0-0.4-0.2-0.5-0.5-0.6l-0.3-0.3c-0.1-0.1-0.1-0.1,0-0.3c0.1-0.3,0.4-0.5,0.8-0.8   c0.1-0.1,0.2-0.1,0.3-0.2l0.1-0.1c0.5-0.4,0.7-0.7,0.5-1.2c-0.1-0.2-0.2-0.2-0.2-0.2c-0.4-0.2-1.1,0.2-1.4,0.3l-0.4,0.1   C51.9,17.1,51.8,16.9,51.7,16.7z"
   id="path227"
   style="fill:#002a5c;fill-opacity:1" />
	<path
   class="st2"
   d="M51.3,25.8c-0.4-0.5-1.3-0.6-2.6-0.5c-0.1,0.4-0.2,1-0.1,1.8c0.1,0.6,0.3,1,0.6,1.4c0,0.1,0.1,0.1,0.1,0.2   c1.6-0.3,1.9-1.2,2.1-1.6l0.1-0.3l0.3-0.3l0.2-0.2c0-0.1-0.3-0.2-0.3-0.2C51.7,26,51.3,25.8,51.3,25.8z"
   id="path229"
   style="fill:#002a5c;fill-opacity:1" />
	<path
   class="st2"
   d="M38.1,26.6c0.1,0,0.2-0.1,0.2-0.1c0.1-0.1,0.3-0.1,0.4-0.2c0.1-0.3,0.2-0.8,0.4-1.4c-0.5,0.3-1,0.4-1.2,0.5   C38,25.7,38.1,26.1,38.1,26.6C38.1,26.5,38.1,26.6,38.1,26.6z"
   id="path231"
   style="fill:#002a5c;fill-opacity:1" />
	<path
   class="st2"
   d="M40.8,22.4L40.8,22.4l-0.5-0.2c-0.1-0.1-0.2,0-0.2-0.1s0-0.1,0.1-0.2l0.5-0.5c0.3-0.2,1.3-0.7,1.2-1l-0.2-0.1   L41.4,20c-0.1-0.2,0.1-0.4,0.3-0.5c0.6-0.4,1.1-1,0.8-1.6h-0.3l-0.5-0.1c-0.2-0.1-0.3-0.4-0.3-0.7c0-0.2,0-0.7-0.2-0.7   c0,0-0.2-0.1-1,0.6l-0.1,0c-0.2,0.1-0.4,0-0.5-0.1l-0.2-0.1c-0.4,0-0.6,1-0.6,1.4l-0.2,0.4c-0.2,0.2-0.4,0.2-0.6,0l-0.1-0.1   c-0.2,0.1-0.4,0.2-0.5,0.4c-0.1,0.1-0.1,0.3-0.1,0.4c0,0.5,0.2,1.1,0.4,1.4c0.1,0.1,0.1,0.3,0.1,0.5c0,0.1-0.1,0.2-0.2,0.3   l-0.3,0.1c-0.1,0-0.2,0-0.3,0.1s-0.2,0.3-0.2,0.5c0,0.5,0.3,1.2,0.5,1.7c0.1-0.2,0.1-0.4,0.2-0.6c0.2-0.7,1.4-2.9,1.7-2.7   s-1,2.3-1.2,3c-0.1,0.4-0.2,0.7-0.3,1.1C38.9,24.3,41,23.2,40.8,22.4z"
   id="path233"
   style="fill:#002a5c;fill-opacity:1" />
	<path
   class="st2"
   d="M29.1,24.8c0-0.4,0.3-0.8,0.5-1c-0.1-0.3-0.3-0.6-0.3-0.9s0.1-0.7,0.5-1c-0.2-0.2-0.5-0.2-0.8,0   c-0.2,0.1-0.4,0.2-0.6,0c0,0-0.1-0.1-0.1-0.2c-0.1-0.4-0.5-1.1-0.8-1.2h-0.2c-0.6,0.3-0.6,0.9-0.6,1.6c0,0.3,0,0.5-0.1,0.7L26.3,23   c-0.1,0-0.1,0-0.2,0c-0.1,0.3,0.2,0.7,0.5,1c0.2,0.2,0.4,0.4,0.3,0.6c0,0-0.4,0.5-0.5,0.6c0,0.1,0,0.3,0,0.4v0.1   c0.4,0.4,0.7,1,0.8,1.7l0.1-0.1l0.5,0.1c0.1,0,0.1,0.1,0.2,0.1c-0.1-0.3-0.1-0.6-0.2-1c-0.2-1.6-0.1-2.1,0.1-2.2s0.3,0.5,0.6,2.2   c0.1,0.9,0.4,1.6,0.4,1.8c0.1,0.1,0.3,0.2,0.4,0.3c0.3-0.2,1-0.7,1-1.2v-0.2l0,0c-0.1-0.2-0.1-0.4-0.1-0.5c0-0.3,0.1-0.6,0.3-0.7   C30.1,26,29.1,25.8,29.1,24.8z"
   id="path235"
   style="fill:#002a5c;fill-opacity:1" />
	<path
   class="st2"
   d="M33.2,36.7c0-0.1,0.1-0.4,0.1-0.7c0-0.5-0.1-1.4-0.3-2.6c-0.5-2.8-2-3.3-2.7-3.5c0,0,0,0-0.1,0   c0.2,0.5,0.3,1.1,0.3,1.9c0,0.1,0,0.3,0,0.4C30.5,34.3,32.5,36.1,33.2,36.7z"
   id="path237"
   style="fill:#002a5c;fill-opacity:1" />
	<path
   class="st2"
   d="M25.4,28.9c0.5,0.4,0.9,0.7,1.3,0.9c0,0,0.1,0,0.1,0.1l0,0c0.6,0.4,1.2,0.6,1.3,0.5v-0.2   c-0.1-1.5-0.4-2-0.5-2.1c-0.1,0-0.2,0.2-0.3,0.3c-0.1,0.1-0.3,0.2-0.4,0.2s-0.3-0.2-0.3-0.4c0.1-1-0.5-1.9-0.7-2.1   c-0.1,0-0.3,0.4-0.3,0.6S25.4,27,25.2,27c-0.2,0-0.3-0.2-0.3-0.3c0-0.4-0.2-1-0.9-1.3c0,0.1-0.1,0.2-0.1,0.2   c-0.1,0.2-0.3,0.6-0.6,0.4h-0.2c-0.2-0.1-0.8-0.5-1.1-0.5c-0.1,0-0.2,0.1-0.3,0.2c-0.2,0.4-0.1,0.7,0.4,1.1l0.3,0.5   c0,0.3-0.3,0.5-0.5,0.5c-0.1,0.1-0.3,0.1-0.3,0.2c0,0.3,0.2,0.4,0.9,0.5l0.5,0.2c0.3,0.3-0.1,0.6-0.2,0.8c0,0-0.2,0.3-0.2,0.2   c0.2,0.5,0.6,0.6,1.2,0.7h0.1l0,0c0.2,0,0.3,0,0.5,0c0.3,0,0.7,0,0.7,0.3l-0.2,0.6c0,0-0.1,0.2-0.2,0.2c0.3,0.4,1.2,0.4,2.5-0.1   c0-0.2-0.4-0.7-0.8-1.1c0,0-0.1,0-0.1-0.1c-0.4-0.2-0.9-0.6-1.3-0.9c0,0-1.1-0.9-0.9-1.2C24.2,28.1,25.4,28.9,25.4,28.9z"
   id="path239"
   style="fill:#002a5c;fill-opacity:1" />
	<path
   class="st2"
   d="M33.7,28.7L33.7,28.7c0,0.6,0.1,1.5,0.7,2.4c0,0,1.1,1.9,1.2,2c0.2-0.7,0.5-1.7,0.5-2.2c0-0.1,0-0.3,0-0.5   c0-0.5,0-1-0.2-1.6h-0.2C35,29,34.7,29.1,33.7,28.7z"
   id="path241"
   style="fill:#002a5c;fill-opacity:1" />
	<path
   class="st2"
   d="M37,20.9c-0.2-0.4-0.4-1-0.4-1.6c0-0.2,0-0.4,0.1-0.6c0-0.2-0.2-0.6-0.5-0.7c-0.1,0-0.1,0-0.3,0.2   s-0.4,0.4-0.7,0.4l-0.5-0.5c-0.5-0.6-1-1.2-1.6-1.1c-0.5,0.1-0.5,0.7-0.4,1.5c0,0.4,0.1,0.7-0.3,0.9c-0.2,0.1-0.5,0.2-0.5,0.4   c-0.1,0.5,0.2,0.8,0.5,1l0.1,0.1c0.7,0.2,1.3,1.1,1.6,1.7c0.3-0.2,0.9-0.6,1.4-0.2s0.8,1.5,0.8,2.1l0,0c0.1,0,0.3-0.1,0.5,0   c-0.3-0.5-0.7-1.4-0.7-2.2c0-0.4,0.1-0.7,0.3-1C36.7,21,36.9,21,37,20.9z"
   id="path243"
   style="fill:#002a5c;fill-opacity:1" />
	<path
   class="st2"
   d="M36.4,27.3c0.4-1.3,0.4-2,0.5-2.1h-0.3c-0.2,0-0.5,0.1-0.7-0.1c-0.1-0.1-0.2-0.3-0.2-0.4   c0-0.3-0.3-1.5-0.6-1.8c-0.1,0-0.4,0.2-0.5,0.3c-0.2,0.2-0.4,0.3-0.6,0.2c-0.1,0-0.2-0.2-0.3-0.3c-0.2-0.7-1-1.6-1.3-1.6   c-0.3,0.1-0.4,0.6-0.4,0.6c0,0.2-0.1,0.3-0.2,0.3c-0.1,0.1-0.3,0-0.4-0.1s-0.4-0.4-0.9,0c-0.6,0.4,0,1.2,0,1.2   c0.1,0.1,0.1,0.2,0.1,0.3S30.5,24,30.5,24c-0.2,0.1-0.5,0.4-0.5,0.6c0,0.3,0.4,0.5,1.1,0.6c0.4,0.1,0.7,0.1,0.7,0.4   s-0.1,0.4-0.2,0.5c-0.2,0.2-0.3,0.3-0.2,0.9c0.1,0.3,0.2,0.3,0.3,0.3c0.3,0.1,0.9-0.1,1.3-0.3l0.7-0.1c0.1,0,0.1-0.1,0.2,0   s0,0.1,0,0.2c0,0,0,0.4,0,0.5L34,28c0.7,0.3,1,0.3,1.6,0.1h0.1c0-0.1-0.1-0.2-0.1-0.4c0,0,0-0.1-0.1-0.1c-0.2-0.4-0.5-0.9-1-1.3   c-0.7-0.6-1.7-1.3-1.6-1.5c0.1-0.2,1.2,0.4,2,1c0.5,0.4,0.8,0.8,0.9,0.9C36,27,36.2,27.2,36.4,27.3z"
   id="path245"
   style="fill:#002a5c;fill-opacity:1" />
	<path
   class="st2"
   d="M36,47.8L36,47.8c0.1-0.4,0-0.7-0.2-1c-0.1-0.1-0.3-0.2-0.5-0.2c-0.5,0-0.8,0.4-1,0.8c0.1,0,0.3,0,0.4,0   C35.4,47.5,35.8,47.7,36,47.8z"
   id="path247"
   style="fill:#002a5c;fill-opacity:1" />
	<path
   class="st2"
   d="M44.2,49c-0.4-0.5-1-0.8-1.6-0.8c-0.7,0-0.9,0.3-1,0.3c-0.1,0.1-0.4,0.2-0.5,0.1c0,0-0.4-0.3-1.1-0.3   c-0.4,0-0.6,0.1-0.8,0.1c0.1,0.1,0.2,0.1,0.2,0.2l1.5,2.2c0.4,0.5,1,0.8,1.6,0.8c0.7,0,0.9-0.3,1-0.3c0.1-0.1,0.4-0.2,0.5-0.1   c0,0,0.4,0.3,1.1,0.3c0.4,0,0.6-0.1,0.8-0.1c-0.1-0.1-0.2-0.1-0.2-0.2C45.8,51.3,44.2,49,44.2,49z"
   id="path249"
   style="fill:#002a5c;fill-opacity:1" />
	<path
   class="st2"
   d="M29.3,47.5c0.1,0,0.1,0,0.2,0c0.6,0,1,0.2,1.3,0.3c0.1-0.1,0.3-0.2,0.6-0.3c0-0.1,0-0.3,0-0.4   C30.9,47.1,29.9,47,29.3,47.5z"
   id="path251"
   style="fill:#002a5c;fill-opacity:1" />
	<path
   class="st2"
   d="M21.4,34.8c0-0.2,0.8-0.9,1.1-1.2c0.7-0.5,1.1-0.8,2-1.1c-0.2-0.1-0.4-0.3-0.5-0.5c0-0.1,0-0.2,0-0.3   c0-0.2,0.1-0.4,0.2-0.5c-0.1,0-0.3,0-0.4,0s-0.3,0-0.4,0.1l0.2,0.4c0.1,0.2,0.2,0.4,0.1,0.6c0,0.1-0.1,0.2-0.2,0.2   c-0.2,0.1-0.3,0-0.5-0.1c-0.3-0.2-1.2-0.6-1.7-0.3l-0.1,0.1l0.2,0.2c0.1,0.1,0.3,0.3,0.3,0.5c0,0.1,0,0.2-0.1,0.3   c-0.2,0.2-0.4,0.2-0.6,0.1c-0.4-0.1-0.8-0.1-1.1,0.3c-0.3,0.4-0.2,0.5,0,0.7c0.1,0.1,0.3,0.4,0.2,0.7l-0.3,0.3   c-0.6,0.6-0.9,1-0.6,1.5c0.2,0.1,1-0.3,1.3-0.4l0.8-0.3c0.5,0,0.7,0.4,0.7,0.7c0.1,0.3,0.1,0.3,0.4,0.2c0.8-0.2,1-0.7,1.2-1.3   c0.1-0.4,0.3-0.8,0.6-1c0.2-0.1,0.3-0.1,0.5-0.1c0.3,0.1,0.4,0.3,0.5,0.5c0,0,0,0,0,0.1c0.3-0.3,0.7-1.1,0.9-2.1c0,0,0-0.1,0.1-0.1   c-0.4,0.1-0.9,0.2-1.2,0.3C23.7,33.7,21.4,35,21.4,34.8z"
   id="path253"
   style="fill:#002a5c;fill-opacity:1" />
	<path
   class="st2"
   d="M20.4,32.5c0-0.1-0.1-0.2-0.1-0.3v-0.1c0-0.2,0.2-0.3,0.3-0.5c-0.3-0.1-0.5-0.3-0.6-0.4   c-0.4-0.4-0.5-0.9-0.4-1.2c-0.2-0.1-0.5-0.3-0.8-0.6c0,0,0,0-0.1,0c-0.3-0.3-0.9-0.2-1.1,0c0,0.1,0,0.4,0,0.6c0,0.4,0,0.8-0.2,1   c-0.3,0.2-0.6,0-1-0.2c-0.4-0.3-0.8-0.5-1-0.3l0.1,0.4v0.8L14.9,32c-0.2,0.1-0.5,0.2-0.6,0.3c0,0.1,0,0.2,0,0.3   c0.1,0.4,0.5,0.4,1.1,0.4l0.7,0.1l0.2,0.6c0,0.2,0,0.4,0.2,0.5c0.4,0.4,1.3-0.4,1.7-0.6l0.5-0.2c0.1-0.1,0.1,0.1,0.3,0.1l0.1,0.1   c0-0.1,0.1-0.2,0.2-0.3C19.5,32.6,20,32.5,20.4,32.5z"
   id="path255"
   style="fill:#002a5c;fill-opacity:1" />
	<path
   class="st2"
   d="M55.7,28.6l-0.4-0.1c-0.2-0.1-0.3-0.3-0.2-0.7c0.1-0.2,0.2-0.4-0.1-0.7c-0.3-0.4-1.3,0.2-1.7,0.5   c-0.3,0.2-0.5,0.3-0.7,0.2c-0.2-0.1-0.3-0.3-0.3-0.5c-0.1-0.2-0.1-0.4-0.2-0.4L52,27v0.1c-0.1,0.3-0.3,0.8-0.8,1.3   c1,0.1,2.5,0.4,2.5,0.6c0,0.3-2.5-0.1-3.2-0.1c-0.1,0-0.3,0-0.4,0c-0.2,0.1-0.4,0.1-0.6,0.2c0.1,0.2,0.2,0.4,0.2,0.4l0.5-0.1   c0.5-0.1,1.1-0.2,1.5,0.1c0.4,0.3,0.5,0.6,0.5,0.9c0,0.2-0.1,0.4-0.1,0.5l0,0c0.2,0.1,0.5,0.2,0.7,0.5c0-0.1,0.1-0.1,0.1-0.3   l0.2-0.3c0.2-0.2,0.5-0.1,0.8,0.1c0.2,0.1,0.8,0.4,1,0.3C55,31.3,55,31,55,30.7c0-0.2,0.1-0.5,0.3-0.6h0.6c0.3,0.1,0.8,0.2,1,0   c0.1-0.1,0.2-0.2,0.2-0.4C57.2,29.1,56.8,28.8,55.7,28.6z"
   id="path257"
   style="fill:#002a5c;fill-opacity:1" />
	<path
   class="st2"
   d="M16.8,30.1L16.8,30.1c0.1,0,0.1-0.1,0.1-0.1c0-0.1,0-0.2,0-0.3c0-0.3,0.1-0.7,0.3-0.9c-0.2,0-0.3-0.1-0.5-0.1   c-0.6-0.1-2.6-0.1-2.6-0.4s2.2-0.4,3-0.3c0.3,0.1,0.7,0.1,1,0.2l-0.2-0.6c0,0-0.1-0.3-0.1-0.4c0,0,0-0.1-0.1-0.1l0,0   c-0.5-0.7-1.1-1.2-1.3-1.2c-0.2,0-0.2,0.1-0.3,0.4c0,0.2-0.1,0.5-0.4,0.5c-0.2,0-0.4-0.1-0.7-0.3c-0.3-0.3-0.9-0.8-1.3-0.7   c-0.1,0-0.2,0-0.1,0.6c0,0.3,0.1,0.7-0.2,0.8h-0.7c-0.3-0.1-0.7-0.2-0.9,0c0,0-0.1,0.1-0.2,0.3c-0.1,0.5,0.3,0.7,1.1,1l0.5,0.2   c0.2,0.3,0,0.6-0.1,0.7c-0.3,0.4-0.3,0.4-0.1,0.6c0.4,0.4,0.8,0.2,1.3-0.1l0.5-0.2c0.1,0,0.2,0,0.3,0   C15.7,29.3,16.4,29.8,16.8,30.1z"
   id="path259"
   style="fill:#002a5c;fill-opacity:1" />
	<path
   class="st2"
   d="M42.1,32c-0.8-0.1-1.4,0.2-1.4,0.2c-0.1,0.1-0.3,0.1-0.4,0c-0.1-0.1-0.2-0.2-0.2-0.3c0,0,0,0,0-0.1   c0-0.2,0.2-0.6,0.3-0.9c-0.8,0.8-1.7,2-2.1,2.5c-0.1,0.1-0.3,0.2-0.5,0.1c-0.1-0.1-0.2-0.2-0.2-0.3v-0.1c0.1-0.3,0.2-0.9,0.2-1.5   c0-0.9,0.1-1.8,0.4-2.7c0.3-0.9,0.7-1.6,1.1-2.1c-0.3,0.1-0.6,0.3-0.8,0.4c-0.7,0.3-0.9,0.4-1.1,0.2l-0.1-0.8c0-0.1,0-0.2,0-0.3   c-0.1,0.4-0.2,0.9-0.4,1.5c-0.1,0.2-0.3,0.3-0.4,0.2c-0.1,0-0.1-0.1-0.2-0.1l0,0c0.3,0.9,0.5,1.9,0.5,2.6c0,0.2,0,0.4,0,0.5   c0,0-0.5,3.1-1,3.3c-0.2,0-0.3,0-0.4-0.2l-0.5-0.9l-1-1.7C33,30,33,28.7,33,28l0,0c-0.5,0.2-1.1,0.5-1.7,0.2l-0.1-0.1   c-0.2,0.4-0.6,0.8-0.9,1l0.2,0.1c0.7,0.2,2.7,0.8,3.2,4c0.2,0.9,0.3,1.9,0.3,2.7c0,0.7-0.1,1.2-0.3,1.5c-0.1,0.1-0.3,0.1-0.4,0.1   c-0.2-0.1-3.6-2.3-3.5-5.6c0.1-2.2-0.7-2.8-0.9-2.8l0,0c0.1,0.4,0.1,0.7,0.1,1.1c0,0.5-0.2,0.7-0.4,0.9c-0.2,0.1-0.4,0.1-0.7,0   c0.1,0.2,0.2,0.4,0.2,0.6v0.1c0,0.2-0.2,0.4-0.4,0.5c-0.4,0.1-0.8,0.2-1.1,0.3c1.8,0.6,3.3,3.1,3.5,3.7c0.1,0.3,0.8,1.4,1.4,2.3   c1.2,1.9,1.2,2,1.2,2.2c-0.3,2.3-1.4,4-3,4.8L29,45.8c-1.1,0.5-2.6,1.3-3.5,2c0,0,0.1,0,0.1,0.1c0.2-0.2,0.6-0.4,1.3-0.4   c0.5,0,0.9,0.1,1.3,0.4v-0.1c0.8-1.4,2.5-1.4,3.3-1.3c0.1-0.2,0.1-0.5,0.2-0.7s0.3-0.5,0.4-0.8c0.5-0.8,1.1-2.5,1.3-2.5   s0.1,1.4-0.7,2.8c-0.2,0.3-0.3,0.5-0.4,0.8c-0.1,0.3-0.2,0.5-0.2,0.8c0,0,0,0,0,0.1l0,0c0,0.2,0,0.4,0,0.6c0.4,0,0.9,0.1,1.2,0.4   c0,0,0,0,0.1,0c0,0,0,0,0-0.1c0.4-1.1,1.1-1.8,1.9-1.8c0.4,0,0.8,0.1,1,0.4c0.3,0.3,0.5,0.8,0.5,1.1c0.1,0,0.3,0,0.4,0   c0.5,0,0.9,0.1,1.3,0.4c0.2-0.2,0.7-0.3,1.4-0.3c0.5,0,0.9,0.1,1.1,0.2v-0.1c-0.3-0.7-0.8-0.9-1.6-1.2c-1-0.4-2.2-0.9-2.9-2.7   c-0.3-0.9-0.5-2-0.6-3.1c0-0.7,0.1-3,0.3-3s0.4,2.2,0.4,2.9c0.1,1,0.2,2.1,0.5,2.9c0.6,1.5,1.5,1.9,2.5,2.3   c0.7,0.3,1.4,0.6,1.8,1.4c0,0,0.1,0.2,0.2,0.4c0.2-0.1,0.4-0.1,0.7-0.1c0.5,0,0.9,0.2,1.3,0.4c0.2-0.1,0.5-0.3,1-0.3   c-0.3-0.4-1-0.7-2.7-1.4L42,46c-2.6-1.1-3.2-2.2-3.7-3l-0.1-0.1c-0.5-0.8-1.4-5.2,0.5-8.1C39.9,33,41.3,32.3,42.1,32   C42.1,32.1,42.1,32,42.1,32L42.1,32z"
   id="path261"
   style="fill:#002a5c;fill-opacity:1" />
	<path
   class="st2"
   d="M51.8,31.8c-0.2-0.1-0.4-0.2-0.4-0.4l0.1-0.6c0.1-0.2,0.1-0.3-0.2-0.5c-0.1-0.1-0.6,0-0.9,0.1h-0.8   c-0.2-0.1-0.3-0.2-0.4-0.4l-0.1,0.1c-0.7,0.3-2,0.4-3.1-0.3c-0.4,0.3-1.1,0.4-1.5,0.5c0,0,0,0-0.1,0c0.1,0.1,0.1,0.3,0.2,0.4   c1-0.2,1.7-0.1,2,0.1c0.2,0.2,0.3,0.4,0.3,0.6c0,0.1,0,0.2,0,0.2c0.2,0,0.5,0.1,0.5,0.1c0.9,0.1,1.4,0.2,1.7,0.5   c0.1,0.2,0.2,0.3,0.2,0.5s-0.1,0.4-0.2,0.5c0.1,0,0.2,0.1,0.2,0.1c0.2,0.1,0.4,0.1,0.6,0.2h0.3c0.3,0,0.5,0.1,0.7,0   c0,0,0.1-0.1,0.1-0.2l0.2-0.5l0.6-0.1c0.4,0.1,0.6,0,0.6-0.1C52.4,32.1,52.3,32,51.8,31.8z"
   id="path263"
   style="fill:#002a5c;fill-opacity:1" />
	<path
   class="st2"
   d="M49.6,35.5L49.3,35v-0.1c0-0.2,0.2-0.4,0.3-0.5l0.1-0.1c-0.1-0.1-0.5-0.2-0.7-0.3c-0.4-0.1-0.7-0.2-0.8-0.4   c0-0.1,0-0.1,0-0.2c0-0.2,0.1-0.3,0.1-0.4c0.1-0.1,0.1-0.2,0.1-0.3l0,0c-0.1-0.1-0.9-0.2-1.2-0.2c-0.8-0.1-1.1-0.1-1.1-0.5v-0.4   c0,0,0-0.1,0-0.2c-0.1-0.1-1-0.2-2.4,0.3c0.5,0.2,0.9,0.5,1.4,0.9c0.5,0.3,1.1,1.2,0.9,1.3c-0.2,0.2-0.9-0.4-1.3-0.7   c-0.5-0.4-1.3-0.7-1.8-0.9c0.1,0.8,0.3,1.9,0.6,2.1c0.1-0.1,0.3-0.3,0.6-0.2c0.2,0.1,0.3,0.3,0.5,0.7s0.5,1.3,0.9,1.3   c0.3,0,0.4-0.1,0.5-0.2c0.1-0.1,0.2-0.4,0.5-0.3L47,36c0.2,0.2,0.6,0.6,0.9,0.6c0.3,0,0.4-0.1,0.5-0.3c0.1-0.1,0.2-0.3,0.5-0.3   l0.3,0.1c0.5,0.2,0.7,0.2,0.9-0.1c0-0.1,0.1-0.1,0.1-0.2C50,35.8,49.9,35.7,49.6,35.5z"
   id="path265"
   style="fill:#002a5c;fill-opacity:1" />
	<path
   class="st2"
   d="M38.4,7.3c0.3-0.1,0.6-0.1,0.9,0.3c0.3,0.4,0.4,0.8,0.4,1.2c0,0.7-0.4,1.3-0.7,1.7c0.3,0,0.6,0.2,0.7,0.5   c0,0.1,0.1,0.2,0.1,0.3c0,0.4-0.2,0.8-0.4,1.2c0.3-0.1,0.6-0.1,0.8-0.1v-0.1c0.2-0.6,0.5-1.5,1.3-1.8H42c0-0.1,0-0.2,0-0.3   c0,0,0-0.1-0.1-0.1c-0.2,0-0.3-0.1-0.3-0.3s0-0.3,0.2-0.4c0.4-0.3,1.2-1,1-1.3c-0.2-0.4-0.5-0.5-0.7-0.5l-0.4-0.1   c-0.2-0.2-0.2-0.4-0.1-0.7c0.1-0.7,0-1.1-0.3-1.2c-0.4-0.1-0.8,0.3-1.1,0.8C40,6.7,39.8,7,39.5,6.9l-0.4-0.3   c-0.1-0.1-0.2-0.2-0.3-0.2c0,0.2,0.1,0.4,0.1,0.6C38.5,7.1,38.4,7.2,38.4,7.3z"
   id="path267"
   style="fill:#002a5c;fill-opacity:1" />
	<path
   class="st2"
   d="M34.9,10.9c0.6,0.4,0.8,0.9,0.8,1.4c0,0.6-0.3,1.2-0.4,1.5l0,0c0.1,0,0.3,0,0.3,0c0.1,0,0.2,0,0.2,0   c0.1-0.3,0.3-1.3,0.6-2.3c0.2-1,0.3-1.9,0.5-1.9c0.3,0,0.3,0.7,0.2,1.7s-0.4,2.1-0.5,2.6c0.5-0.4,1-0.7,1.4-0.8   c0.1-0.1,0.3-0.2,0.4-0.2c0.5-0.8,0.8-1.6,0.7-1.8c0-0.1-0.2-0.1-0.5-0.1c-0.2,0-0.4,0-0.6-0.2c-0.1-0.2,0-0.4,0.2-0.6   c0.5-0.7,1-1.4,0.5-2.3c-0.1,0-0.3,0.1-0.4,0.1c-0.1,0.1-0.4,0.2-0.6,0c-0.1-0.1-0.2-0.3-0.1-0.4c0.1-0.3,0.2-1.1-0.1-1.6   c-0.1-0.2-0.3-0.3-0.6-0.4c-0.3,0-0.6,0.8-0.7,1.2c-0.1,0.4-0.2,0.7-0.4,0.8h-0.7c-0.2-0.1-0.3-0.1-0.5,0c-0.4,0.2,0.1,1.1,0.4,1.6   c0.2,0.5,0.4,0.7,0.2,1c-0.1,0.1-0.2,0.2-0.3,0.2c-0.3,0-0.6,0.1-0.8,0.3c0,0.1-0.1,0.1-0.1,0.2C34.3,10.8,34.6,10.7,34.9,10.9z"
   id="path269"
   style="fill:#002a5c;fill-opacity:1" />
	<path
   class="st2"
   d="M42.1,11.5c0-0.1-0.1-0.3-0.2-0.4h-0.2c-0.5,0.2-0.7,1-0.9,1.4c-0.1,0.4-0.2,0.6-0.5,0.6h-0.2   c-0.2-0.1-0.4-0.1-0.6,0.1c0.2,0.2,0.2,0.4,0.3,0.5v0.1c0.2,0.4,0.3,0.9,0.4,1.4c0.2-0.2,0.4-0.5,0.7-0.8c0.7-0.6,1.5-1.2,1.6-1   c0.1,0.1-0.5,0.8-1.1,1.4c-0.2,0.2-0.4,0.4-0.5,0.6c0.2-0.1,0.5-0.1,0.7,0c0.5,0.3,0.5,0.9,0.6,1.3c0,0,0,0.1,0,0.2   c0.1,0,0.1,0,0.1,0c0.1,0,0.2,0,0.3,0c0.2-0.1,0.6-0.4,0.7-0.7c0.1-0.2,0-0.3-0.1-0.4c-0.1-0.1-0.2-0.3-0.1-0.5   c0-0.1,0.2-0.2,0.3-0.3c0.3-0.1,0.6-0.3,0.8-0.4l0.1-0.1c0.5-0.3,0.6-0.6,0.7-0.7c0-0.3-0.1-0.3-0.3-0.5c-0.1-0.1-0.4-0.3-0.4-0.5   l0.4-0.6c0.3-0.2,0.6-0.6,0.6-0.9c0-0.1-0.1-0.3-0.2-0.4c-0.2-0.2-0.4-0.3-0.6-0.3c-0.4,0-0.9,0.5-1.2,0.8l-0.7,0.5   C42.3,12.1,42.2,11.7,42.1,11.5z"
   id="path271"
   style="fill:#002a5c;fill-opacity:1" />
	<path
   class="st2"
   d="M45.4,15.8c0.1-0.1,0.3-0.1,0.3-0.1c0.4-0.2,1-0.6,1.7-0.4c0.2-0.1,0.4-0.3,0.8-0.5c0.7-0.3,1.5-0.6,1.6-0.5   s-0.6,0.6-1.2,1c-0.2,0.1-0.4,0.2-0.5,0.3c0.3,0.3,0.4,0.6,0.4,0.8c0.4,0,0.7,0.2,0.9,0.4c0,0,0.1,0,0.1,0.1   c0.1-0.1,0.2-0.2,0.2-0.2c0.4-0.5,1-1.3,2-1.1c0-0.2-0.1-0.5-0.2-0.7c0-0.1-0.1-0.2,0-0.3c0-0.1,0.1-0.2,0.2-0.2   c0.3-0.1,0.8-0.5,0.9-0.9c0-0.1,0-0.2-0.1-0.3c-0.3-0.4-0.8-0.3-1.4-0.1l-0.6,0.1L50,12.9c-0.1-0.2-0.2-0.3-0.5-0.4   c-0.3-0.1-0.8,0.4-1.1,0.7l-0.7,0.4l-0.6-0.3c0,0-0.3-0.2-0.3-0.3c-0.2,0-0.7,0.6-0.8,0.8l-0.3,0.3h-0.2c0,0.3-0.3,0.7-0.7,1   C45.1,15.3,45.3,15.6,45.4,15.8z"
   id="path273"
   style="fill:#002a5c;fill-opacity:1" />
	<path
   class="st2"
   d="M17.5,24.3c0.3,0.4,0,0.9-0.3,1.3c0.2,0.1,0.4,0.3,0.5,0.5l0,0c0.3-0.6,0.9-0.5,1.2-0.6   c0.1-0.1,0.2-0.2,0.4-0.3v-0.1c0-0.1,0-0.1,0-0.2l-0.1-0.1c-0.3-0.2-0.9-0.6-0.9-1.3c0-0.1,0-0.2,0-0.3c0.1-0.5,0.4-0.7,0.8-0.9   c-0.1-0.2-0.2-0.5-0.2-0.7c0,0-0.1-0.3-0.1-0.4l0,0l-0.5,0.1c-0.4,0.1-0.8,0.3-1.1,0L17.1,21l-0.5-0.7c-0.3-0.3-0.9-0.6-1.2-0.4   c-0.1,0.1-0.2,0.2-0.1,0.6c0,0.2,0.1,0.5-0.2,0.6h-0.5c-0.5-0.2-0.8-0.2-1,0.3c-0.1,0.3-0.2,0.5,0,0.7c0.3,0.5,1.2,0.7,1.5,0.8   c0.1,0,0.3,0.1,0.3,0.3c0,0.1,0,0.3-0.1,0.4s-0.3,0.3-0.4,0.5l0.1,0.2c0.1,0.1,0.4,0.1,0.9-0.1C16.3,23.9,17,23.6,17.5,24.3z"
   id="path275"
   style="fill:#002a5c;fill-opacity:1" />
	<path
   class="st2"
   d="M31.8,10.7c-0.4,0.1-0.3,0.8-0.3,1.4c0,0.4,0.1,0.6-0.1,0.8C31.2,13.1,31,13,30.8,13s-0.3,0-0.3,0.1   c-0.1,0.2,0.2,0.6,0.8,1.3c0.2,0.3,0.3,0.4,0.3,0.6c0,0.1,0,0.2-0.2,0.3c0.1,0.2,0.2,0.4,0.3,0.6c0.1,0,0.3,0.1,0.4,0.2   c0.1,0.1,0.2,0.3,0.3,0.5c0.1-0.1,0.3-0.3,0.5-0.3c-0.1-0.3-0.1-0.6-0.2-1c-0.1-0.9-0.1-1.9,0-1.9c0.2-0.1,0.5,1,0.7,1.9   c0.1,0.4,0.2,0.7,0.3,1c0.4,0.1,0.7,0.3,1,0.5c0-0.4,0.1-0.7,0.3-1c0.2-0.2,0.4-0.3,0.7-0.4c0.1-0.3,0.2-0.6,0.3-0.8h-0.4   c-0.4,0-1,0-1.1-0.5l0.1-0.5c0.4-0.9,0.5-1.5-0.1-2l-0.3,0.2c-0.2,0.2-0.3,0.3-0.6,0.3l-0.5-0.4C32.8,11.3,32.3,10.5,31.8,10.7z"
   id="path277"
   style="fill:#002a5c;fill-opacity:1" />
	<path
   class="st2"
   d="M27,13.6l-0.4,0.7c-0.2,0.1-0.3,0.2-0.3,0.3s0.2,0.2,1,0.3c-0.1-0.4-0.1-1,0.4-1.2c0.3-0.1,0.7,0,0.9,0.1   c-0.1-0.2-0.2-0.5-0.4-0.8c-0.2-0.4-0.9-1.2-0.7-1.4s1.1,0.7,1.4,1.2c0.3,0.6,0.5,1.1,0.6,1.4c0.2,0,0.4,0.1,0.7,0.2   c-0.3-0.4-0.5-0.8-0.5-1.2c0-0.1,0-0.2,0.1-0.4c0.3-0.5,0.7-0.6,1-0.6c0-0.1,0-0.1,0-0.1c0-0.2,0-0.4,0-0.7c0-0.2,0-0.3,0-0.5   c-0.3-0.2-0.5-0.1-0.7,0C30,11,29.8,11.1,29.6,11c-0.2-0.1-0.2-0.3-0.3-0.6c0-0.5-0.1-1.8-0.6-1.9c-0.1,0-0.3,0.3-0.4,0.5   c-0.2,0.3-0.3,0.5-0.6,0.6c-0.2,0-0.4-0.1-0.6-0.4c-0.7-0.8-1.2-1.1-1.9-0.7c-0.5,0.3-0.1,1.1,0.3,1.9l0.2,0.6   c-0.1,0.2-0.2,0.3-0.4,0.4c-0.3,0.1-0.5,0.2-0.5,0.5c-0.1,0.6,0.6,0.9,1.4,1.1C26.6,13.1,27,13.2,27,13.6z"
   id="path279"
   style="fill:#002a5c;fill-opacity:1" />
	<path
   class="st2"
   d="M17.6,20.4L17.6,20.4c-0.2-0.2-0.5-0.6-0.5-0.6l0,0c0.2-0.2,0.5-0.4,0.7-0.4s0.4-0.1,0.4-0.3   c0.1-0.3-0.2-0.4-0.4-0.5c-1.5-0.7-1.7-1.1-1.6-1.3c0-0.1,0.3-0.2,0.5-0.3l0.4-0.3c0.2-0.2,0.1-0.4,0-0.8c-0.2-0.8-0.2-1.3,0.2-1.5   c0.2-0.1,0.4,0.1,0.7,0.5l0.5,0.5c0.4,0.1,0.6-0.3,0.8-0.6c0.1-0.1,0.2-0.4,0.3-0.4c0.3,0,0.4,0.9,0.5,1.3c0.1,0.5,0.1,0.8,0.4,0.9   c0.4,0.1,0.6-0.2,0.8-0.4c0.1-0.1,0.2-0.2,0.2-0.2c0.3,0.1,0.3,0.7,0.3,1.1s0,0.8,0.3,0.9c0.1,0.1,0.5,0.3,1-0.1   c0.4,0.4,1,0.4,1.4,0.4c0,0,0.2,0,0.3,0l0,0c0,0.2-0.1,0.4-0.1,0.5c-1.3-0.4-2.2-0.2-2.7-0.1h-0.2h-0.3L20.8,19c0,0,0,0,0,0.1   c-0.4-0.3-0.8-0.7-1.2-1.1c-0.6-0.7-0.9-1.6-1.1-1.5c-0.4,0.2,0.1,1.3,0.4,1.8c0.4,0.6,1.3,1.4,1.9,1.7l0,0c0,0.3,0,0.6,0.1,1   c-0.5,0.2-0.6,0.6-0.6,0.9l0,0c-0.1,0-0.2,0-0.2,0l0,0c-0.1-0.1-0.2-0.5-0.2-0.6c-0.1-0.4-0.2-0.7-0.4-0.9   c-0.3-0.2-0.7-0.1-1.1,0.1L18,20.6L17.6,20.4z"
   id="path281"
   style="fill:#002a5c;fill-opacity:1" />
	<path
   class="st2"
   d="M23.7,16.1l-0.2,0.7l-0.1,0.4c0,0.4,0.3,0.5,1,0.6c0.4,0,0.9,0.1,1,0.5c0.1,0.2,0,0.4,0,0.6h0.1   c0.5,0.1,1,0.6,1.3,1.2c0.1-0.1,0.2-0.1,0.3-0.2h0.7c0.5,0.2,0.9,0.9,1.1,1.3c0.4-0.1,1.1-0.4,1.6,0.4c0.3-0.1,0.6,0,0.8,0.1   c0.1-0.2,0.2-0.4,0.4-0.5c-0.2-0.2-0.5-0.6-0.5-1c-0.7,0.3-1.6,0.3-2.5,0c-0.7-0.3-1.2-0.8-1.3-1.3c-0.1-0.3,0-0.5,0.2-0.7l0,0l0,0   c-0.6-1.1-0.6-2-0.4-2.5c-0.7-0.1-1.5-0.3-1.6-0.9c-0.1,0-0.1,0-0.1,0l-0.6-0.3c-0.7-0.4-1.3-0.8-1.9-0.2c-0.3,0.3-0.1,0.6,0.4,1.1   C23.3,15.4,23.7,16.1,23.7,16.1z"
   id="path283"
   style="fill:#002a5c;fill-opacity:1" />
	<path
   class="st2"
   d="M28.9,7.9c1.1,0.2,1.2,1.5,1.3,2.3c0.2-0.1,0.6-0.1,1,0.1c0.1-0.1,0.3-0.3,0.5-0.3c0.3-0.1,0.7,0,0.9,0.1   c0.1-0.8,0.2-1.9,0.1-2.1c-0.1,0-0.2,0.1-0.3,0.2c-0.1,0.1-0.3,0.2-0.4,0.1s-0.2-0.2-0.2-0.4c0.1-0.7,0-1.7-0.4-1.9   c-0.4,0-0.5,0-0.5,0.2c-0.2,0.3-0.4,0.3-0.6,0.3l-0.4-0.4c-0.3-0.4-1-1.2-1.5-1c-0.4,0.2,0,1.1,0.1,1.5c0.2,0.4,0.2,0.6,0.1,0.8   c-0.1,0.2-0.4,0.2-0.6,0.2c-0.4,0-0.5,0.1-0.5,0.2c-0.1,0.2,0.1,0.5,0.2,0.6C28.1,8.2,28.4,7.8,28.9,7.9z"
   id="path285"
   style="fill:#002a5c;fill-opacity:1" />
	<path
   class="st2"
   d="M36,14.6L36,14.6C35.9,14.5,35.9,14.6,36,14.6L36,14.6z"
   id="path287"
   style="fill:#002a5c;fill-opacity:1" />
	<path
   class="st2"
   d="M47,25.1L47,25.1V25C47,25.1,47,25.1,47,25.1z"
   id="path289"
   style="fill:#002a5c;fill-opacity:1" />
	<path
   class="st2"
   d="M40.6,123.4c0.1,0.3-0.8,0.4-1.3,0.4c-0.7,0-1.5-0.1-1.4-0.4c0-0.3,0.7-0.2,1.4-0.2   C39.8,123.2,40.6,123.2,40.6,123.4L40.6,123.4z"
   id="path291"
   style="fill:#002a5c;fill-opacity:1" />
	<path
   class="st2"
   d="M20.1,95.2L20.1,95.2h-0.4c-0.1,0-0.2,0-0.3-0.1c0,0-0.9-1-2.1-1c-0.8,0-1.6,0.3-2.3,0.6   c-0.6,0.3-1.3,0.5-1.9,0.5h-1.8c-0.2,0-0.4-0.2-0.4-0.4V84.6c-0.3,0.2-0.7,0.4-0.8,0.5c0,0.4,0,9.7,0,10.3c0.7,0,8.1,0,8.1,0   c0.1,0,0.2,0,0.3,0.1c0,0,0.6,0.6,1.4,0.7h0.4c0.8-0.1,1.3-0.7,1.3-0.7c0.1-0.1,0.2-0.1,0.3-0.1c0,0,7.5,0,8.1,0c0-0.7,0-10,0-10.3   c-0.1-0.1-0.5-0.3-0.8-0.5v10.2c0,0.2-0.2,0.4-0.4,0.4H27c-0.6,0-1.2-0.3-1.9-0.5c-0.7-0.3-1.5-0.6-2.3-0.6c-1.2,0-2.1,1-2.1,1   c-0.1,0.1-0.2,0.1-0.3,0.1H20.1C20.2,95.2,20.1,95.2,20.1,95.2z"
   id="path293"
   style="fill:#002a5c;fill-opacity:1" />
	<path
   class="st2"
   d="M30.8,95.9c0,0.2-0.2,0.4-0.4,0.4c0,0-8.1,0-8.3,0c-0.2,0.2-0.8,0.7-1.7,0.8h-0.5c-0.9-0.1-1.5-0.6-1.7-0.8   c-0.3,0-8.3,0-8.3,0c-0.2,0-0.4-0.2-0.4-0.4V85.3c-0.2,0-0.5,0-0.7,0c0,0.7,0,11.1,0,11.7c0.7,0,9.4,0,9.4,0c0.1,0,0.2,0,0.3,0.1   c0,0,0.4,0.5,1.2,0.6c0.3,0,0.8,0,1.1,0c0.8-0.1,1.2-0.6,1.2-0.6c0.1-0.1,0.2-0.1,0.3-0.1c0,0,8.7,0,9.4,0c0-0.7,0-11.1,0-11.7   c-0.2,0-0.5,0-0.7,0L30.8,95.9L30.8,95.9z"
   id="path295"
   style="fill:#002a5c;fill-opacity:1" />
	<path
   class="st2"
   d="M17.2,82.8c-1.3,0-1.9,0.5-2.5,0.9c-0.5,0.3-0.9,0.6-1.5,0.6c0,0-1,0-1.4,0c0,0.7,0,9.5,0,10.1   c0.5,0,1.5,0,1.5,0c0.5,0,1-0.2,1.6-0.5c0.7-0.3,1.6-0.7,2.6-0.7c1.1,0,1.9,0.6,2.4,1c0-0.9,0-10.2,0-10.2   C19.8,84,19.4,82.8,17.2,82.8z M18.4,91.3c0,0.1,0,0.1-0.1,0.1c-0.2,0-0.9-0.1-1.6,0l-1.1,0.5L15,92.2c-0.8,0.4-1.4,0.4-1.6,0.4   c-0.1,0-0.2-0.1-0.2-0.2s0.1-0.2,0.2-0.2c0.2,0,0.8-0.1,1.5-0.4l0.6-0.3l1.2-0.5c0.9-0.2,1.7-0.1,1.7-0.1   C18.4,91.1,18.4,91.2,18.4,91.3z M18.4,89.1c0,0.1,0,0.1-0.1,0.1c-0.2,0-0.9-0.1-1.6,0l-1.1,0.5L15,90c-0.8,0.4-1.4,0.4-1.6,0.4   c-0.1,0-0.2-0.1-0.2-0.2s0.1-0.2,0.2-0.2c0.2,0,0.8-0.1,1.5-0.4l0.6-0.3l1.2-0.5c0.9-0.2,1.7-0.1,1.7-0.1   C18.4,89,18.4,89,18.4,89.1z M18.4,87c0,0.1,0,0.1-0.1,0.1c-0.2,0-0.9-0.1-1.6,0l-1.1,0.5L15,87.9c-0.8,0.4-1.4,0.4-1.6,0.4   c-0.1,0-0.2-0.1-0.2-0.2s0.1-0.2,0.2-0.2c0.2,0,0.8-0.1,1.5-0.4l0.6-0.3l1.2-0.5c0.9-0.2,1.7-0.1,1.7-0.1   C18.4,86.9,18.4,86.9,18.4,87z M18.4,84.8c0,0.1,0,0.1-0.1,0.1c-0.2,0-0.9-0.1-1.6,0l-1.1,0.5L15,85.7c-0.8,0.4-1.4,0.4-1.6,0.4   c-0.1,0-0.2-0.1-0.2-0.2s0.1-0.2,0.2-0.2c0.2,0,0.8-0.1,1.5-0.4l0.6-0.3l1.2-0.5c0.9-0.2,1.7-0.1,1.7-0.1   C18.4,84.7,18.4,84.7,18.4,84.8z"
   id="path297"
   style="fill:#002a5c;fill-opacity:1" />
	<path
   class="st2"
   d="M20.5,95.2h-0.4l0,0l0,0h-0.4c-0.1,0-0.2,0-0.3-0.1c0,0-0.9-1-2.1-1c-0.8,0-1.6,0.3-2.3,0.6   c-0.6,0.3-1.3,0.5-1.9,0.5h-1.8c-0.2,0-0.4-0.2-0.4-0.4V84.6c-0.3,0.2-0.7,0.4-0.8,0.5c0,0.4,0,9.7,0,10.3c0.7,0,8.1,0,8.1,0   c0.1,0,0.2,0,0.3,0.1c0,0,0.6,0.6,1.4,0.7h0.4c0.8-0.1,1.3-0.7,1.3-0.7c0.1-0.1,0.2-0.1,0.3-0.1c0,0,7.5,0,8.1,0c0-0.7,0-10,0-10.3   c-0.1-0.1-0.5-0.3-0.8-0.5v10.2c0,0.2-0.2,0.4-0.4,0.4H27c-0.6,0-1.2-0.3-1.9-0.5c-0.7-0.3-1.5-0.6-2.3-0.6c-1.2,0-2.1,1-2.1,1   S20.6,95.2,20.5,95.2z"
   id="path299"
   style="fill:#002a5c;fill-opacity:1" />
	<path
   class="st2"
   d="M31.5,85.3c-0.2,0-0.5,0-0.7,0v10.6c0,0.2-0.2,0.4-0.4,0.4c0,0-8.1,0-8.3,0c-0.2,0.2-0.8,0.7-1.7,0.8h-0.5   c-0.9-0.1-1.5-0.6-1.7-0.8c-0.3,0-8.3,0-8.3,0c-0.2,0-0.4-0.2-0.4-0.4V85.3c-0.2,0-0.5,0-0.7,0c0,0.7,0,11.1,0,11.7   c0.7,0,9.4,0,9.4,0c0.1,0,0.2,0,0.3,0.1c0,0,0.4,0.5,1.2,0.6c0.3,0,0.8,0,1.1,0c0.8-0.1,1.2-0.6,1.2-0.6c0.1-0.1,0.2-0.1,0.3-0.1   c0,0,8.7,0,9.4,0C31.5,96.4,31.5,86,31.5,85.3z"
   id="path301"
   style="fill:#002a5c;fill-opacity:1" />
	<path
   class="st2"
   d="M27.1,84.3c-0.6,0-1-0.3-1.5-0.6c-0.6-0.4-1.3-0.9-2.5-0.9c-2.2,0-2.6,1.2-2.6,1.2s0,9.4,0,10.3   c0.4-0.4,1.3-1,2.4-1c1,0,1.8,0.4,2.6,0.7c0.6,0.3,1.1,0.5,1.6,0.5c0,0,1,0,1.5,0c0-0.7,0-9.5,0-10.1   C28.1,84.3,27.1,84.3,27.1,84.3z M26.9,92.6c-0.2,0-0.8-0.1-1.6-0.4l-0.6-0.3l-1.1-0.5c-0.7-0.2-1.3-0.1-1.6,0   c-0.1,0-0.2,0-0.2-0.1s0-0.2,0.1-0.2c0,0,0.9-0.2,1.7,0.1l1.2,0.5l0.6,0.3c0.7,0.3,1.3,0.4,1.5,0.4c0.1,0,0.2,0.1,0.2,0.2   S27,92.6,26.9,92.6z M26.9,90.4c-0.2,0-0.8-0.1-1.6-0.4l-0.6-0.3l-1.1-0.5c-0.7-0.2-1.3-0.1-1.6,0c-0.1,0-0.2,0-0.2-0.1   s0-0.2,0.1-0.2c0,0,0.9-0.2,1.7,0.1l1.2,0.5l0.6,0.3c0.7,0.3,1.3,0.4,1.5,0.4c0.1,0,0.2,0.1,0.2,0.2S27,90.4,26.9,90.4z M26.9,88.3   c-0.2,0-0.8-0.1-1.6-0.4l-0.6-0.3l-1.1-0.4c-0.7-0.2-1.3-0.1-1.6,0c-0.1,0-0.2,0-0.2-0.1s0-0.2,0.1-0.2c0,0,0.8-0.2,1.7,0l1.2,0.5   l0.6,0.3c0.7,0.3,1.3,0.4,1.5,0.4c0.1,0,0.2,0.1,0.2,0.2S27,88.3,26.9,88.3z M26.9,86.1c-0.2,0-0.8-0.1-1.6-0.4l-0.6-0.3l-1.1-0.5   c-0.7-0.2-1.3-0.1-1.6,0c-0.1,0-0.2-0.1-0.2-0.1s0-0.1,0.1-0.2c0,0,0.8-0.2,1.7,0l1.2,0.5l0.6,0.3c0.8,0.3,1.3,0.4,1.5,0.4   c0.1,0,0.2,0.1,0.2,0.2S27,86.2,26.9,86.1z"
   id="path303"
   style="fill:#002a5c;fill-opacity:1" />
	<path
   class="st2"
   d="M49.3,95.2h0.4c0.1,0,0.2,0,0.3-0.1c0,0,0.9-1,2.1-1c0.9,0,1.6,0.3,2.3,0.6c0.6,0.3,1.3,0.5,1.9,0.5H58   c0.2,0,0.4-0.2,0.4-0.4V84.6c0.3,0.2,0.7,0.4,0.8,0.5c0,0.4,0,9.7,0,10.3c-0.7,0-8.1,0-8.1,0c-0.1,0-0.2,0-0.3,0.1   c0,0-0.6,0.6-1.3,0.7h-0.4c-0.8-0.1-1.4-0.7-1.4-0.7c-0.1-0.1-0.2-0.1-0.3-0.1c0,0-7.5,0-8.1,0c0-0.7,0-10,0-10.3   c0.1-0.1,0.5-0.3,0.8-0.5v10.2c0,0.2,0.2,0.4,0.4,0.4h1.8c0.6,0,1.2-0.3,1.9-0.5c0.7-0.3,1.5-0.6,2.3-0.6c1.2,0,2.1,1,2.1,1   c0.1,0.1,0.2,0.1,0.3,0.1H49.3L49.3,95.2L49.3,95.2z"
   id="path305"
   style="fill:#002a5c;fill-opacity:1" />
	<path
   class="st2"
   d="M59.9,95.9c0,0.2-0.2,0.4-0.4,0.4c0,0-8.1,0-8.3,0c-0.2,0.2-0.8,0.7-1.7,0.8H49c-0.9-0.1-1.5-0.6-1.7-0.8   c-0.3,0-8.3,0-8.3,0c-0.2,0-0.4-0.2-0.4-0.4V85.3c-0.2,0-0.5,0-0.7,0c0,0.7,0,11.1,0,11.7c0.7,0,9.4,0,9.4,0c0.1,0,0.2,0,0.3,0.1   c0,0,0.4,0.5,1.2,0.6c0.3,0,0.8,0,1.1,0c0.8-0.1,1.2-0.6,1.2-0.6c0.1-0.1,0.2-0.1,0.3-0.1c0,0,8.7,0,9.4,0c0-0.7,0-11.1,0-11.7   c-0.2,0-0.5,0-0.7,0L59.9,95.9L59.9,95.9z"
   id="path307"
   style="fill:#002a5c;fill-opacity:1" />
	<path
   class="st2"
   d="M49.6,95.2h-0.4l0,0l0,0h-0.4c-0.1,0-0.2,0-0.3-0.1c0,0-0.9-1-2.1-1c-0.8,0-1.6,0.3-2.3,0.6   c-0.6,0.3-1.3,0.5-1.9,0.5h-1.8c-0.2,0-0.4-0.2-0.4-0.4V84.6c-0.3,0.2-0.7,0.4-0.8,0.5c0,0.4,0,9.7,0,10.3c0.7,0,8.1,0,8.1,0   c0.1,0,0.2,0,0.3,0.1c0,0,0.6,0.6,1.4,0.7h0.4c0.8-0.1,1.3-0.7,1.3-0.7c0.1-0.1,0.2-0.1,0.3-0.1c0,0,7.4,0,8.1,0c0-0.7,0-10,0-10.3   c-0.1-0.1-0.5-0.3-0.8-0.5v10.2c0,0.2-0.2,0.4-0.4,0.4h-1.8c-0.6,0-1.2-0.3-1.9-0.5C53.6,94.3,52.8,94,52,94c-1.2,0-2.1,1-2.1,1   C49.8,95.1,49.7,95.2,49.6,95.2z"
   id="path309"
   style="fill:#002a5c;fill-opacity:1" />
	<path
   class="st2"
   d="M60.6,85.3c-0.2,0-0.5,0-0.7,0v10.6c0,0.2-0.2,0.4-0.4,0.4c0,0-8.1,0-8.3,0c-0.2,0.2-0.8,0.7-1.7,0.8H49   c-0.9-0.1-1.5-0.6-1.7-0.8c-0.3,0-8.3,0-8.3,0c-0.2,0-0.4-0.2-0.4-0.4V85.3c-0.2,0-0.5,0-0.7,0c0,0.7,0,11.1,0,11.7   c0.7,0,9.4,0,9.4,0c0.1,0,0.2,0,0.3,0.1c0,0,0.4,0.5,1.2,0.6c0.3,0,0.8,0,1.1,0c0.8-0.1,1.2-0.6,1.2-0.6c0.1-0.1,0.2-0.1,0.3-0.1   c0,0,8.7,0,9.4,0C60.6,96.4,60.6,86,60.6,85.3z"
   id="path311"
   style="fill:#002a5c;fill-opacity:1" />
	<path
   class="st2"
   d="M46.3,82.8c-1.3,0-1.9,0.5-2.5,0.9c-0.5,0.3-0.9,0.6-1.5,0.6c0,0-1,0-1.4,0c0,0.7,0,9.5,0,10.1   c0.5,0,1.5,0,1.5,0c0.5,0,1-0.2,1.6-0.5c0.7-0.3,1.6-0.7,2.6-0.7c1.1,0,1.9,0.6,2.4,1c0-0.9,0-10.2,0-10.2   C48.9,84,48.5,82.8,46.3,82.8z M42.4,85.8c0.2,0,0.8-0.1,1.5-0.4l0.6-0.3l1.2-0.5c0.9-0.2,1.7-0.1,1.7-0.1c0.1,0,0.1,0.1,0.1,0.2   s-0.1,0.1-0.2,0.1c-0.2,0-0.9-0.1-1.6,0l-1.1,0.5L44,85.6C43.2,86,42.6,86,42.4,86c-0.1,0-0.2-0.1-0.2-0.2S42.4,85.8,42.4,85.8z    M42.4,88c0.2,0,0.8-0.1,1.5-0.4l0.6-0.3l1.2-0.5c0.9-0.2,1.7-0.1,1.7-0.1c0.1,0,0.1,0.1,0.1,0.2S47.4,87,47.3,87   c-0.2,0-0.9-0.1-1.6,0l-1.1,0.4L44,87.7C43.2,88.1,42.6,88.1,42.4,88c-0.1,0.1-0.2,0-0.2-0.1S42.4,88,42.4,88z M47.4,91.4   c-0.2,0-0.9-0.1-1.6,0l-1.1,0.5l-0.6,0.3c-0.8,0.4-1.4,0.4-1.6,0.4c-0.1,0-0.2-0.1-0.2-0.2s0.1-0.2,0.2-0.2c0.2,0,0.8-0.1,1.5-0.4   l0.6-0.3l1.2-0.5c0.9-0.2,1.7-0.1,1.7-0.1s0.1,0,0.1,0.2C47.5,91.4,47.4,91.4,47.4,91.4z M47.4,89.2c-0.2,0-0.9-0.1-1.6,0l-1.1,0.5   L44.1,90c-0.8,0.4-1.4,0.4-1.6,0.4c-0.1,0-0.2-0.1-0.2-0.2s0.1-0.2,0.2-0.2c0.2,0,0.8-0.1,1.5-0.4l0.6-0.3l1.2-0.5   c0.9-0.2,1.7-0.1,1.7-0.1c0.1,0,0.1,0.1,0.1,0.2C47.5,89.2,47.4,89.3,47.4,89.2z"
   id="path313"
   style="fill:#002a5c;fill-opacity:1" />
	<path
   class="st2"
   d="M52,93.3c-1.1,0-1.9,0.6-2.4,1c0-0.9,0-10.3,0-10.3s0.4-1.2,2.6-1.2c1.3,0,1.9,0.5,2.5,0.9   c0.5,0.3,0.9,0.6,1.5,0.6c0,0,1,0,1.4,0c0,0.7,0,9.5,0,10.1c-0.5,0-1.5,0-1.5,0c-0.5,0-1-0.2-1.6-0.5C53.8,93.7,53,93.3,52,93.3z    M51,86.8c-0.1,0-0.1,0.1-0.1,0.2s0.1,0.1,0.2,0.1c0.2,0,0.9-0.1,1.6,0l1.1,0.5l0.6,0.3c0.8,0.4,1.4,0.4,1.6,0.4   c0.1,0,0.2-0.1,0.2-0.2S56.1,88,56,88c-0.2,0-0.8-0.1-1.5-0.4l-0.6-0.3l-1.2-0.5C51.9,86.6,51.1,86.8,51,86.8z M51,84.6   c-0.1,0-0.1,0.1-0.1,0.2s0.1,0.1,0.2,0.1c0.2,0,0.9-0.1,1.6,0l1.1,0.4l0.6,0.3C55.2,86,55.8,86,56,86c0.1,0,0.2-0.1,0.2-0.2   s-0.1-0.2-0.2-0.2c-0.2,0-0.8-0.1-1.5-0.4l-0.6-0.3l-1.2-0.5C51.9,84.4,51.1,84.6,51,84.6z M51,88.9c-0.1,0-0.1,0.1-0.1,0.2   s0.1,0.1,0.2,0.1c0.2,0,0.9-0.1,1.6,0l1.1,0.5l0.6,0.3c0.8,0.4,1.4,0.4,1.6,0.4c0.1,0,0.2-0.1,0.2-0.2S56.1,90,56,90   c-0.2,0-0.8-0.1-1.5-0.4l-0.6-0.3L52.8,89C52.1,88.8,51.3,88.9,51,88.9z M51,91.1c-0.1,0-0.1,0.1-0.1,0.2s0.1,0.1,0.2,0.1   c0.2,0,0.9-0.1,1.6,0l1.1,0.4l0.6,0.3c0.8,0.4,1.4,0.4,1.6,0.4c0.1,0,0.2-0.1,0.2-0.2s-0.1-0.2-0.2-0.2c-0.2,0-0.8-0.1-1.5-0.4   l-0.6-0.3l-1.2-0.5C52.1,90.9,51.3,91,51,91.1z"
   id="path315"
   style="fill:#002a5c;fill-opacity:1" />
	<g
   id="g319"
   style="fill:#002a5c;fill-opacity:1">
		<path
   class="st2"
   d="M27.4,115c-0.1-0.1-0.3-0.3-0.5-0.5c-0.1,0.2-0.3,0.3-0.6,0.4l-0.6,0.1c-0.7,0.1-1.6,0.3-1.9,1    c-0.1,0.3-0.2,0.6-0.2,0.8c0,0.4,0.1,0.6,0.2,0.8c0.1,0,0.2-0.1,0.3-0.1c-0.2-0.8,0.2-1.5,0.3-1.4c0.1,0,0,0.5,0.1,0.8    c0,0.1,0.1,0.2,0.1,0.3c0.1-0.1,0.3-0.2,0.3-0.3c0.1-0.6,0.5-1,0.9-1l0.4,0.1c0.4,0.2,1.3,0.6,1.7,0.2    C27.8,116,27.5,115.3,27.4,115z"
   id="path317"
   style="fill:#002a5c;fill-opacity:1" />
	</g>
	<g
   id="g323"
   style="fill:#002a5c;fill-opacity:1">
		<path
   class="st2"
   d="M37.9,118.6c-0.1,0-0.2-0.1-0.2-0.1l0,0c-0.5,0-2.6-0.4-2.9-0.4c0,0-0.3-0.1-1,0.2c-0.6,0.2-1,0.7-1.2,1.1    c0.1,0.1,0.2,0.1,0.3,0.2c0.2-0.3,0.5-0.6,1-0.8c0.4-0.2,1-0.2,1.3-0.1c0.2,0.1-0.5,0.3-1.1,0.7c-0.2,0.2-0.4,0.4-0.5,0.6l0,0    c0.1,0,0.5-0.1,0.8-0.1l0.8-0.2c0.4,0,4.1,0,5.2,0c0.1-0.1,0.1-0.3,0.1-0.4C39.8,119.2,38.8,119,37.9,118.6z"
   id="path321"
   style="fill:#002a5c;fill-opacity:1" />
	</g>
	<path
   class="st2"
   d="M39.2,125.1c0.1,0.3-1,0.4-1.6,0.4c-0.9,0-1.8-0.1-1.7-0.4s0.9-0.2,1.7-0.2C38.1,124.8,39.1,124.8,39.2,125.1   L39.2,125.1z M37.6,126.7c-0.1-0.3-1-0.2-1.5-0.3c-0.8,0-1.6-0.1-1.6,0.2c-0.1,0.3,0.8,0.4,1.6,0.4C36.6,127.1,37.6,127,37.6,126.7   L37.6,126.7z M35.8,128.4c0-0.2-0.7-0.2-1.1-0.2c-0.6,0-1.2-0.1-1.2,0.2s0.6,0.3,1.2,0.4C35.1,128.7,35.8,128.6,35.8,128.4   L35.8,128.4z M21.3,108.2l-0.2,0.1c-0.2,0.1-0.3,0.3-0.2,0.5c0.1,0.2,0.3,0.3,0.5,0.2l0.2-0.1c0.2-0.1,0.3-0.3,0.2-0.5   S21.5,108.1,21.3,108.2z M32.5,105.1c-0.1-0.1-0.2-0.1-0.3-0.1l-2,0.7c-0.2,0.1-0.2,0.3-0.1,0.5s0.3,0.3,0.5,0.2l1.9-1   C32.5,105.4,32.5,105.2,32.5,105.1L32.5,105.1z M32.8,106.9c0-0.1-0.2-0.2-0.3-0.1L31,107c-0.2,0-0.3,0.3-0.2,0.5   c0,0.2,0.3,0.4,0.5,0.3l1.5-0.6C32.7,107.1,32.8,107,32.8,106.9L32.8,106.9z M32.8,108.7c0-0.1-0.2-0.2-0.3-0.2l-1.2-0.1   c-0.2,0-0.3,0.2-0.3,0.4c0,0.2,0.2,0.4,0.4,0.4l1.2-0.3C32.7,109,32.8,108.9,32.8,108.7L32.8,108.7z M32.5,110.5   c0-0.1-0.1-0.2-0.2-0.2l-0.9-0.2c-0.2,0-0.3,0.2-0.3,0.3c0,0.2,0.1,0.4,0.3,0.4l1-0.1C32.4,110.7,32.5,110.6,32.5,110.5L32.5,110.5   z M40.1,104.3c0,0.2,0.1,0.4,0.3,0.4c0,0,1.1,0.3,1.9,0.7c0.2,0.1,0.3,0,0.4-0.1c0.1-0.1,0-0.3-0.1-0.4c-0.9-0.5-1.9-0.8-2-0.8   C40.4,104,40.2,104.1,40.1,104.3L40.1,104.3z M40.6,106c0,0.2,0.1,0.4,0.2,0.4c0,0,0.8,0.2,1.4,0.5c0.1,0.1,0.3,0,0.4-0.1   c0.1-0.1,0-0.3-0.1-0.4c-0.8-0.4-1.5-0.6-1.5-0.6C40.8,105.7,40.6,105.8,40.6,106L40.6,106z M40.7,107.5c0,0.1,0.1,0.3,0.2,0.3   c0,0,0.7,0.2,1,0.3c0.1,0.1,0.3,0,0.3-0.1s0-0.3-0.1-0.3c-0.7-0.4-0.9-0.4-1.1-0.4C40.9,107.3,40.8,107.3,40.7,107.5L40.7,107.5z    M40.7,108.9c0,0.1,0,0.3,0.2,0.3c0,0,0.4,0.1,0.6,0.2c0.1,0,0.2,0,0.3-0.1s0-0.2-0.1-0.3c-0.2-0.1-0.6-0.2-0.7-0.2   C40.9,108.7,40.7,108.7,40.7,108.9L40.7,108.9z M44.1,106.9c-0.1,0.2,0,0.4,0.1,0.5c0,0,0.4,0.2,1.1,0.8c0.1,0.1,0.3,0.1,0.4,0   c0.1-0.1,0.1-0.3,0-0.4c-0.7-0.7-1.1-0.9-1.1-1C44.4,106.7,44.2,106.7,44.1,106.9L44.1,106.9z M43.9,108.6c-0.1,0.2,0,0.4,0.1,0.4   c0,0,0.2,0.1,0.8,0.5c0.1,0.1,0.3,0.1,0.4,0s0.1-0.3,0-0.4c-0.7-0.6-0.8-0.7-0.8-0.7C44.2,108.4,44,108.4,43.9,108.6L43.9,108.6z    M43.5,109.9c-0.1,0.1,0,0.3,0.1,0.4c0,0,0.3,0.2,0.5,0.3c0.1,0.1,0.2,0.1,0.3,0s0.1-0.2,0-0.3c-0.1-0.1-0.4-0.4-0.5-0.4   C43.7,109.8,43.6,109.8,43.5,109.9L43.5,109.9z M43,111c-0.1,0.1-0.1,0.3,0.1,0.3c0,0,0.1,0,0.3,0.2c0.1,0.1,0.2,0.1,0.3,0   s0.1-0.2,0-0.3c-0.2-0.2-0.2-0.2-0.3-0.3C43.2,110.9,43,110.9,43,111L43,111z M46.4,110.5c-0.1,0.1-0.1,0.3,0,0.4   c0,0,0.1,0.1,0.3,0.3c0.1,0.1,0.2,0.2,0.3,0.1s0.1-0.2,0.1-0.3c-0.1-0.1-0.2-0.4-0.3-0.5S46.5,110.4,46.4,110.5L46.4,110.5z    M45.7,111.5c-0.1,0.1-0.1,0.2,0,0.3s0.1,0.1,0.2,0.1c0.1,0.1,0.2,0.1,0.3,0.1s0.1-0.2,0.1-0.3c0-0.1-0.1-0.2-0.2-0.3   C45.9,111.4,45.8,111.4,45.7,111.5L45.7,111.5z M21.8,111.3c0.3-0.1-0.4-0.8-0.2-1.2c0.2-0.5,1.7-1.1,1.7-1.4s-2.1,0.4-2.4,1.1   C20.5,110.5,21.4,111.4,21.8,111.3L21.8,111.3z M24,107.3c0.3,0.1,0.4-0.2,0.5-0.2c0,0,0.1-0.1,0.3,0c0.2,0.1,0.2,0.2,0.2,0.2   c0,0.1,0,0.3,0.2,0.4s0.7-0.8-0.1-1.2c-0.3-0.1-0.5-0.1-0.8-0.1C23.9,106.6,23.7,107.2,24,107.3L24,107.3z M46.1,106.7   c-5.4-6.6-13-3.4-13.3-3.2c-1.5,0.3-2.8,1-3.6,1.4l-0.9,0.4l-2.8,0.3c-0.8,0.2-1.9,0.8-3.4,1.6l-1.1,0.6c-1.7,0.9-2,1.7-2,1.7   c0,0.1-0.1,0.2-0.2,0.2c-0.2,0.1-0.4,0.2-0.4,0.4c0,0,0,0,0,0.1v0.1l0.4-0.2c0.2-0.1,0.4,0,0.5,0.1c0.1,0.2,0,0.4-0.1,0.5l-0.4,0.2   c0.3,0.5,0.7,0.6,0.7,0.6h0.2c0.3-0.1,1.3-0.4,1.7,0.7v0.6c-0.1,0.2-0.3,0.4-0.5,0.5c0.3,0.1,0.9,0.1,1.1,0h0.2l0.4-0.1   c1-0.2,2.1-0.4,2.7-0.2c0.9,0.2,2.3,1.1,2.7,1.6c0.3,0.4,0.8,2.1,0.7,2.4c0,0.2-0.1,0.9-0.9,1.4c-0.5,0.2-1,0.2-1.4,0.2H26   c-0.1,0.1-0.4,0.5-0.6,0.8c0.1,0,0.3,0,0.4,0c0.3-0.3,0.6-0.6,0.7-0.5s0,0.3-0.1,0.5c0.4,0,0.8,0,0.8,0h0.3c0.5,0,1.3,0,1.6-0.2   l0.4-0.3l1.2-1l1.3-1l0.5-0.4c0.2-0.2,0.3-1.8,0.1-3.5c0-0.2,0.1-0.4,0.3-0.4s0.4,0.1,0.4,0.3c0.1,0.7,0.2,2,0.1,3h0.1   c1,0.7,2.1,1.1,3,1.3c-0.3-0.4-0.6-0.9-0.8-1.5c-0.2-0.4-0.2-0.8-0.2-1.2c0-1.3,0.8-2.2,1.4-3.1c0.5-0.6,1-1.2,1-1.8   c0-0.1,0-0.1,0-0.2c0,0,0,0,0-0.1c0-0.2,0.1-0.3,0.3-0.4c0.2,0,0.4,0.1,0.4,0.3c0.1,0.9-0.5,1.7-1.1,2.5c-0.8,1-1.6,2-1.1,3.6   c0.3,1,0.9,1.7,1.5,2.1c0,0,0.1,0,0.1,0.1c0.1,0,0.1,0.1,0.2,0.1c1.2,0.6,2.6,0.6,2.6,0.6c0.1,0,0.2,0.1,0.3,0.1   c0.1,0.1,0.1,0.2,0.1,0.3c0,0-0.1,0.6-0.4,1.1c0,0.1-0.1,0.1-0.1,0.2c-0.1,0.1-0.2,0.2-0.3,0.3l-1.3,0.9c-1,0.7-2.6,1.7-4.3,3.1   c-2,1.7-3.2,4.1-2.9,5.1c0.1,0.2,0.2,0.4,0.6,0.5c3.4,0.4,5.5-1.8,7.2-3.7l0.5-0.5c1.2-1.3,2.1-2.8,2.7-3.9c0.4-0.7,0.6-1,0.8-1.2   c1.4-1,3.7-4,4.1-7.5C48.3,110.8,47.7,108.6,46.1,106.7z"
   id="path325"
   style="fill:#002a5c;fill-opacity:1" />
	<path
   class="st2"
   d="M55.2,120.5c0.6,0.1,1.3,0,2-0.3c0.6-0.2,1-0.7,1.4-1.1c0.5,0.7,1.6,2.3,2,2.9c-0.7,0.9-1.5,1.8-2.5,2.6   L55.2,120.5z"
   id="path327"
   style="fill:#002a5c;fill-opacity:1" />
	<path
   class="st2"
   d="M11,119.1c0.3,0.5,0.8,0.9,1.4,1.1c0.6,0.3,1.3,0.3,2,0.3l-2.9,4.2c-0.9-0.8-1.8-1.7-2.5-2.6   C9.4,121.4,10.6,119.8,11,119.1z"
   id="path329"
   style="fill:#002a5c;fill-opacity:1" />
	<path
   class="st2"
   d="M20.5,143.7c0.2-0.2,0.3-0.4,0.6-0.5l0.5-0.4c0.7-0.6,1.6-1.3,2.2-1.9c1.5,0.6,2.7,1.3,3.5,2.2   c0.6,0.7,0.7,1.6,0.2,2.1c-0.1,0.1-0.3,0.3-0.4,0.4l-1,1h-0.6c-2.9,0-4.9-1-5.3-2C20.2,144.3,20.3,144,20.5,143.7z"
   id="path331"
   style="fill:#002a5c;fill-opacity:1" />
	<path
   class="st2"
   d="M48,142.8l0.5,0.4c0.2,0.2,0.4,0.4,0.6,0.5c0.1,0.2,0.2,0.6,0.1,0.9c-0.4,1-2.4,2-5.3,2l0,0l0,0h-0.6l-0.9-1.1   c-0.1-0.1-0.3-0.3-0.4-0.4c-0.3-0.3-0.4-1.4,0.2-2.1c0.8-0.9,2-1.6,3.5-2.2C46.4,141.4,47.3,142.2,48,142.8z"
   id="path333"
   style="fill:#002a5c;fill-opacity:1" />
	<path
   class="st2"
   d="M12,113.1L12,113.1L12,113.1z"
   id="path335"
   style="fill:#002a5c;fill-opacity:1" />
	<path
   class="st2"
   d="M21.6,138.9l-0.3-0.1c-6.7-2.6-12.2-6.2-14.8-9.4c-2.9-3.6-2.4-6.5-1.6-8.3l0.9-1.9l0.9-1.8   c-0.1,0.9,0.1,2,0.6,3.3c1.4,3.3,6,6.8,9.5,8.8c1.5,0.9,3,1.6,4.5,2.2c4,1.8,7.2,3.3,7.2,6.9v4.3c0,0.2,0,0.3,0,0.5   c-0.1-0.3-0.3-0.6-0.5-0.8C26.6,140.9,24.3,140,21.6,138.9z M15,130c0.1-0.1,0.1-0.3,0.2-0.4c-0.5-0.3-1-0.6-1.5-1   c-0.1,0.1-0.2,0.3-0.2,0.4c0.1,0.1,0.2,0.2,0.4,0.3c-0.5,1.1-1,2.1-1.5,3.2c-0.1-0.1-0.2-0.1-0.4-0.2c-0.1,0.1-0.1,0.3-0.2,0.4   c0.8,0.6,1.6,1.1,2.5,1.5c0.2-0.3,0.5-0.6,0.7-0.9c0,0,0,0,0-0.1c-0.1-0.1-0.2-0.2-0.4-0.3c-0.2,0.2-0.4,0.5-0.6,0.6   c-0.3-0.1-0.7-0.4-1-0.6c0-0.3,1.1-2.4,1.5-3.2C14.6,129.8,14.9,130,15,130L15,130z M11.1,130.3c0.2-0.4,0.4-0.7,0.6-1.1   c-0.1-0.1-0.2-0.2-0.3-0.3c-0.1,0.1-0.1,0.2-0.2,0.3c-0.1,0-0.6-0.4-0.7-0.5c0.2-0.4,0.5-0.9,0.7-1.4c0.2,0.2,0.7,0.5,0.8,0.7   c0.1,0.2-0.1,0.5-0.2,0.7c0,0.1,0.3,0.2,0.4,0.3c0.2-0.4,0.4-0.7,0.5-1.1c-0.8-0.6-1.5-1.2-2.2-1.8c-0.1,0.1-0.1,0.3-0.2,0.4   c0.1,0.1,0.2,0.2,0.3,0.3c-0.6,1.1-1,2-1.6,3.1c-0.1-0.1-0.2-0.2-0.3-0.2c-0.1,0.1-0.1,0.2-0.2,0.4c0.7,0.7,1.4,1.3,2.2,1.9   c0.2-0.3,0.4-0.6,0.7-1l0,0c-0.1-0.1-0.2-0.2-0.3-0.4c-0.1,0.1-0.4,0.6-0.5,0.6c-0.2,0-0.8-0.6-0.9-0.7c0-0.2,0.5-1.1,0.7-1.3   c0.2,0.2,0.5,0.4,0.6,0.6c0,0.1-0.1,0.3-0.1,0.4C10.9,130.2,11,130.2,11.1,130.3L11.1,130.3z M24.3,134.3c-1.1-0.6-2.2-1.1-3.4-1.6   c-0.2,0.4-0.4,0.7-0.6,1.1c0.2,0.1,0.3,0.2,0.5,0.3c0.1-0.2,0.3-0.4,0.4-0.6c0.2,0,0.6,0.2,0.8,0.3c-0.5,1.1-1,2.2-1.5,3.3   c-0.2-0.1-0.3-0.1-0.5-0.2c-0.1,0.1-0.1,0.3-0.2,0.4c0.6,0.3,1.2,0.5,1.8,0.8c0.1-0.1,0.1-0.3,0.2-0.4c-0.2-0.1-0.3-0.2-0.5-0.2   c0.5-1.1,1-2.2,1.5-3.3c0.3,0.1,0.6,0.3,0.7,0.5c-0.1,0.2-0.2,0.4-0.2,0.7c0,0.1,0.4,0.2,0.5,0.2C23.9,135,24.1,134.6,24.3,134.3   L24.3,134.3z M20.4,132.4c-0.5-0.2-0.9-0.5-1.4-0.7c-0.1,0.1-0.1,0.2-0.2,0.4c0.2,0.1,0.3,0.2,0.5,0.3c-0.5,1.1-1.3,3.5-2.4,2.8   c-0.8-0.5-0.5-1.1-0.1-2.1c0.2-0.5,0.5-1.1,0.8-1.6c0.2,0.1,0.3,0.2,0.5,0.2c0.1-0.1,0.1-0.3,0.2-0.4c-0.5-0.3-1-0.6-1.6-0.8   c-0.1,0.1-0.1,0.3-0.2,0.4c0.1,0.1,0.2,0.1,0.3,0.2c0,0.2-0.4,0.8-0.5,1.1c-0.5,1.1-1.1,2-0.6,2.7c0.1,0.2,0.3,0.4,0.5,0.5   c0.3,0.2,0.7,0.3,1,0.4c1.3,0.1,1.9-1.6,2.6-3.1c0.1,0.1,0.2,0.1,0.4,0.2C20.2,132.7,20.3,132.5,20.4,132.4L20.4,132.4z M9.6,126   c0.1,0.1,0.2,0.2,0.3,0.2c0.1-0.1,0.1-0.3,0.2-0.4c-0.4-0.4-0.7-0.7-1.1-1.1c-0.1,0.1-0.1,0.3-0.2,0.4c0.1,0.1,0.3,0.3,0.4,0.4   c-0.4,0.4-1.7,1.9-1.8,2l0,0c-0.1-0.1,0.5-3.2,0.6-3.4c0.1,0.1,0.2,0.3,0.4,0.4c0.1-0.1,0.2-0.3,0.2-0.4c-0.4-0.5-0.8-1-1.1-1.5   c-0.1,0.1-0.2,0.2-0.3,0.4c0.1,0.1,0.1,0.2,0.2,0.4c-0.1,0.4-0.7,4.2-0.7,4.6c0.1,0.2,0.3,0.3,0.4,0.5C7.7,128,9.3,126.3,9.6,126   L9.6,126z"
   id="path337"
   style="fill:#002a5c;fill-opacity:1" />
	<path
   class="st2"
   d="M63.1,129.4c-2.6,3.3-8.1,6.8-14.8,9.4l-0.3,0.1c-2.7,1.1-5,2-6.4,3.5c-0.2,0.2-0.4,0.5-0.5,0.8   c0-0.1,0-0.3,0-0.5v-4.3c0-3.6,3.2-5.1,7.2-6.9c1.5-0.7,3-1.4,4.5-2.2c3.5-2,8.1-5.5,9.5-8.8c0.5-1.3,0.7-2.4,0.6-3.3l0.9,1.8   l0.9,1.9C65.5,122.8,66,125.8,63.1,129.4z M49.3,134.7L49.3,134.7c0-0.7,0.1-1.3,0.2-1.9l0,0c0.3,0.5,0.5,1,0.7,1.5   C49.9,134.4,49.6,134.6,49.3,134.7L49.3,134.7z M52.8,134.2c0,0.2,0.2,0.5,0.1,0.7c-0.1,0.1-1.1,0.7-1.2,0.7   c-0.2-0.4-0.4-0.9-0.6-1.3c0.2-0.1,0.9-0.5,1-0.5c0.1,0.1,0.1,0.2,0.2,0.3c0.1-0.1,0.3-0.1,0.4-0.2c-0.2-0.4-0.4-0.8-0.5-1.2   c-0.1,0.1-0.3,0.1-0.4,0.2c0,0.1,0.1,0.3,0.1,0.4c-0.1,0.2-0.8,0.5-1,0.6c-0.3-0.5-0.5-1-0.7-1.5c0.3-0.2,0.9-0.5,1.2-0.6   c0.1,0.1,0.3,0.4,0.4,0.5c0.1-0.1,0.3-0.2,0.4-0.2c0-0.1-0.4-0.8-0.5-1c-0.8,0.4-1.8,1-2.7,1.3c-0.1,1.5-0.3,3.1-0.4,4.5   c-0.1,0.1-0.2,0.2-0.4,0.2c0.1,0.1,0.1,0.3,0.2,0.4c0.5-0.2,0.9-0.4,1.4-0.6c-0.1-0.1-0.1-0.3-0.2-0.4c-0.2,0.1-0.3,0.1-0.5,0.2   c0-0.5,0-1.1,0-1.6c0.4-0.2,0.8-0.4,1.1-0.5c0.2,0.4,0.4,0.9,0.6,1.3c-0.1,0.1-0.3,0.1-0.4,0.2c0.1,0.1,0.1,0.3,0.2,0.4   c0.9-0.4,2-1,2.8-1.4c-0.1-0.4-0.2-0.7-0.3-1.1C53.1,134.1,53,134.2,52.8,134.2L52.8,134.2z M56.1,129c0.1-0.1,0.2-0.2,0.3-0.2   c-0.1-0.1-0.1-0.3-0.2-0.4c-0.4,0.3-0.9,0.6-1.3,0.9c0.1,0.1,0.1,0.3,0.2,0.4c0.1-0.1,0.3-0.2,0.4-0.3c0.1,0.6,0.3,2.5,0.3,2.9   c0,0.2,0,0.3,0.1,0.5l0,0c-0.1,0-0.4-0.4-0.5-0.5l-1.1-1.2c-0.2-0.2-0.3-0.4-0.5-0.6c0.2-0.1,0.3-0.2,0.5-0.3   c-0.1-0.1-0.1-0.3-0.2-0.4c-0.6,0.3-1.1,0.6-1.7,0.9c0.1,0.1,0.1,0.3,0.2,0.4c0.1-0.1,0.2-0.1,0.4-0.2c0.2,0.2,0.5,0.5,0.7,0.7   c0.5,0.5,1,1.1,1.5,1.6c0.2,0.2,0.4,0.4,0.7,0.7c0.2-0.1,0.4-0.2,0.6-0.3c-0.1-1.1-0.1-2.1-0.2-3.2C56.2,130,56.1,129.5,56.1,129   L56.1,129z M60.1,130.5c-0.9,0.8-1.9-0.4-2.2-1.5c-0.1-0.5-0.1-1.1,0.2-1.5c0.1-0.1,0.2-0.2,0.3-0.3c0.2-0.1,0.4-0.2,0.6-0.2   C60.1,127.1,61.2,129.6,60.1,130.5L60.1,130.5z M60.5,126.9c-0.6-0.6-1.3-0.7-2.3-0.1c-0.1,0.1-0.3,0.3-0.4,0.4   c-0.4,0.4-0.6,1-0.6,1.5c0,0.2,0,0.5,0.1,0.7c0.1,0.3,0.2,0.7,0.4,1c0.6,0.9,1.3,1.1,2.3,0.7C61.5,130.5,61.6,128.1,60.5,126.9   L60.5,126.9z"
   id="path339"
   style="fill:#002a5c;fill-opacity:1" />
	<path
   class="st2"
   d="M49.7,145.5v0.1v6c0,1.8-3.1,2.5-5.8,2.5H25.7c-2.7,0-5.8-0.6-5.8-2.5v-6v-0.1c1,1.2,3.2,1.9,5.8,1.9h18.2l0,0   C46.5,147.4,48.7,146.7,49.7,145.5z M43.7,150.7c0-0.6,0-1.2,0-1.7c0.2,0,0.5,0,0.7,0c0.5,0.2,0.7,0.9,0.4,1.4   C44.5,150.7,44.2,150.7,43.7,150.7L43.7,150.7z M45.7,152.1c-0.2-0.3-0.5-1.1-0.8-1.2l0,0c0.8-0.2,1.3-1.4,0.5-2   c-0.6-0.5-1.8-0.4-2.9-0.3c0,0.1,0,0.3,0,0.4l0,0c0.1,0,0.3,0,0.4,0v3.5c-0.1,0-0.3,0-0.4,0c0,0.1,0,0.3,0,0.4l0,0h1.7   c0-0.1,0-0.3,0-0.4c-0.2,0-0.3,0-0.5,0c0-0.4,0-0.9,0-1.3c0.2,0,0.4,0,0.5,0c0.4,0.2,0.7,1.4,1,1.7c0.1,0.1,0.9,0,1.1,0v-0.4   c-0.1,0-0.3,0-0.4,0C45.8,152.4,45.7,152.2,45.7,152.1L45.7,152.1z M35.5,151.9c-0.1,0.4-0.4,0.5-0.8,0.6c-0.2,0-0.5,0-0.6-0.1   s0-0.2,0-0.4s0-1.1,0-1.2C34.9,150.9,35.8,151.1,35.5,151.9L35.5,151.9z M34.2,149c0.5,0,0.9,0,1.1,0.3c0.1,0.1,0.2,0.3,0.1,0.5   c-0.1,0.6-0.5,0.7-1.2,0.7C34.2,150,34.2,149.5,34.2,149L34.2,149z M35.4,150.6L35.4,150.6L35.4,150.6c0.7-0.4,1.1-1.4,0.3-1.9   c-0.6-0.3-1.8-0.2-2.7-0.2v0.4c0.2,0,0.3,0,0.5,0v3.5c-0.2,0-0.3,0-0.5,0c0,0.1,0,0.3,0,0.4c1,0,2.2,0.1,2.9-0.2   c0.5-0.3,0.9-1,0.4-1.6C36,150.8,35.7,150.8,35.4,150.6L35.4,150.6z M29.7,150.7c0-0.6,0-1.2,0-1.7c0.2,0,0.5,0,0.7,0   c0.5,0.2,0.7,0.9,0.4,1.4C30.5,150.7,30.1,150.7,29.7,150.7L29.7,150.7z M31.7,152.1c-0.2-0.3-0.5-1.1-0.8-1.2l0,0   c0.8-0.2,1.3-1.4,0.5-2c-0.6-0.5-1.8-0.4-2.9-0.3c0,0.1,0,0.3,0,0.4l0,0c0.1,0,0.3,0,0.4,0v3.5c-0.1,0-0.3,0-0.4,0   c0,0.1,0,0.3,0,0.4l0,0h1.7c0-0.1,0-0.3,0-0.4c-0.2,0-0.3,0-0.5,0c0-0.4,0-0.9,0-1.3c0.2,0,0.4,0,0.5,0c0.4,0.2,0.7,1.4,1,1.7   c0.1,0.1,0.9,0,1.1,0v-0.4c-0.1,0-0.3,0-0.4,0C31.8,152.4,31.7,152.2,31.7,152.1L31.7,152.1z M24.9,151.3c0.2-0.6,0.4-1.2,0.6-1.8   l0,0l0.6,1.8H24.9L24.9,151.3z M26,148.5c-0.2,0-0.5,0-0.6,0c-0.5,1.3-1,2.6-1.5,3.9c-0.1,0-0.3,0-0.4,0v0.4H25v-0.4   c-0.2,0-0.3,0-0.5,0c0.1-0.3,0.2-0.5,0.2-0.8c0.5,0,1,0,1.5,0c0.1,0.2,0.2,0.5,0.3,0.8c-0.2,0-0.3,0-0.5,0v0.4h1.7v-0.4   c-0.1,0-0.3,0-0.4,0C26.9,151.2,26.4,149.8,26,148.5L26,148.5z M39.6,152.6c-1.1,0.2-1.6-1.3-1.4-2.4c0.1-0.5,0.3-1,0.8-1.2   c0.1,0,0.2-0.1,0.3-0.1c0.3,0,0.5,0,0.7,0.1C41,149.7,41,152.3,39.6,152.6L39.6,152.6z M39.3,148.5c-0.2,0-0.4,0.1-0.6,0.1   c-0.5,0.2-0.9,0.6-1.2,1c-0.1,0.2-0.2,0.4-0.2,0.7c-0.1,0.3-0.1,0.7,0,1c0.2,1,0.7,1.6,1.8,1.8c1.8,0.3,2.9-1.7,2.3-3.3   C41.1,148.9,40.5,148.5,39.3,148.5L39.3,148.5z"
   id="path341"
   style="fill:#002a5c;fill-opacity:1" />
	<path
   class="st2"
   d="M65.7,79.8c0,0,0,0.2,0,0.4c0,0.2,0,0.4,0,0.4H3.9c0,0,0-0.2,0-0.4c0-0.2,0-0.4,0-0.4H65.7z M65.7,79.8   c0-10.7,0-23.6,0-23.6H34.8l0,0l0,0H3.9c0,0,0,12.8,0,23.6 M30.2,71.7c0.4,0,0.6,0.3,0.6,0.6s-0.3,0.6-0.6,0.6   c-0.4,0-0.6-0.3-0.6-0.6S29.8,71.7,30.2,71.7L30.2,71.7z M25.6,73.2c0.3-0.2,0.7-0.1,0.9,0.2c0.2,0.3,0.1,0.7-0.2,0.9   c-0.3,0.2-0.7,0.1-0.9-0.2C25.1,73.7,25.3,73.3,25.6,73.2L25.6,73.2z M28,72.5c0.2,0,0.3,0.2,0.3,0.3c0,0.2-0.2,0.3-0.3,0.3   c-0.2,0-0.3-0.1-0.3-0.3C27.6,72.6,27.8,72.5,28,72.5L28,72.5z M32.5,71.7c0.2,0,0.3,0.2,0.3,0.3c0,0.2-0.2,0.3-0.3,0.3   c-0.2,0-0.3-0.2-0.3-0.3C32.1,71.9,32.3,71.7,32.5,71.7L32.5,71.7z M39.9,72.3c0,0.4-0.3,0.6-0.6,0.6c-0.4,0-0.6-0.3-0.6-0.6   s0.3-0.6,0.6-0.6C39.6,71.7,39.9,71.9,39.9,72.3L39.9,72.3z M44.1,74c-0.2,0.3-0.6,0.4-0.9,0.2c-0.3-0.2-0.4-0.6-0.2-0.9   s0.6-0.4,0.9-0.2S44.3,73.7,44.1,74L44.1,74z M41.8,72.8c0,0.2-0.2,0.3-0.3,0.3c-0.2,0-0.3-0.1-0.3-0.3c0-0.2,0.2-0.3,0.3-0.3   C41.7,72.5,41.8,72.6,41.8,72.8L41.8,72.8z M37.3,72c0,0.2-0.2,0.3-0.3,0.3c-0.2,0-0.3-0.2-0.3-0.3c0-0.2,0.2-0.3,0.3-0.3   S37.3,71.9,37.3,72L37.3,72z M34.7,64.1c0.4,0,0.7,0.3,0.7,0.7s-0.3,0.7-0.7,0.7S34,65.2,34,64.8S34.4,64.1,34.7,64.1L34.7,64.1z    M34.7,62.2c0.4,0,0.7,0.3,0.7,0.7s-0.3,0.7-0.7,0.7S34,63.3,34,62.9C34.1,62.5,34.4,62.2,34.7,62.2L34.7,62.2z M34.7,60.4   c0.4,0,0.7,0.3,0.7,0.7s-0.3,0.7-0.7,0.7S34,61.5,34,61.1S34.4,60.4,34.7,60.4L34.7,60.4z M31.6,60.6c0.4,0,0.7,0.3,0.7,0.7   S32,62,31.6,62s-0.7-0.3-0.7-0.7S31.2,60.6,31.6,60.6L31.6,60.6z M29.4,59.9c0.4,0,0.7,0.3,0.7,0.7s-0.3,0.7-0.7,0.7   c-0.4,0-0.7-0.3-0.7-0.7C28.8,60.2,29.1,59.9,29.4,59.9L29.4,59.9z M27.2,59.4c0.4,0,0.7,0.3,0.7,0.7s-0.3,0.7-0.7,0.7   c-0.4,0-0.7-0.3-0.7-0.7C26.6,59.7,26.8,59.4,27.2,59.4L27.2,59.4z M25,59.7c0.4,0,0.7,0.3,0.7,0.7S25.3,61,25,61s-0.7-0.3-0.7-0.7   S24.6,59.7,25,59.7L25,59.7z M23,60.9c0.4,0,0.7,0.3,0.7,0.7s-0.3,0.7-0.7,0.7c-0.4,0-0.7-0.3-0.7-0.7C22.4,61.2,22.7,60.9,23,60.9   L23,60.9z M21.9,62.9c0.4,0,0.7,0.3,0.7,0.7c0,0.4-0.3,0.7-0.7,0.7c-0.4,0-0.7-0.3-0.7-0.7S21.5,62.9,21.9,62.9L21.9,62.9z    M21.9,65.2c0.4,0,0.7,0.3,0.7,0.7s-0.3,0.7-0.7,0.7c-0.4,0-0.7-0.3-0.7-0.7S21.5,65.2,21.9,65.2L21.9,65.2z M22.7,67.3   c0.4,0,0.7,0.3,0.7,0.7c0,0.4-0.3,0.7-0.7,0.7S22,68.4,22,68C22.1,67.6,22.4,67.3,22.7,67.3L22.7,67.3z M38.6,61.2   c0,0.4-0.3,0.7-0.7,0.7s-0.7-0.3-0.7-0.7s0.3-0.7,0.7-0.7S38.6,60.9,38.6,61.2L38.6,61.2z M40.7,60.5c0,0.4-0.3,0.7-0.7,0.7   s-0.7-0.3-0.7-0.7s0.3-0.7,0.7-0.7C40.4,59.9,40.7,60.2,40.7,60.5L40.7,60.5z M42.9,60.1c0,0.4-0.3,0.7-0.7,0.7s-0.7-0.3-0.7-0.7   s0.3-0.7,0.7-0.7C42.6,59.4,42.9,59.7,42.9,60.1L42.9,60.1z M45.2,60.4c0,0.4-0.3,0.7-0.7,0.7s-0.7-0.3-0.7-0.7s0.3-0.7,0.7-0.7   S45.2,60,45.2,60.4L45.2,60.4z M47.1,61.6c0,0.4-0.3,0.7-0.7,0.7s-0.7-0.3-0.7-0.7s0.3-0.7,0.7-0.7S47.1,61.2,47.1,61.6L47.1,61.6z    M48.2,63.6c0,0.4-0.3,0.7-0.7,0.7s-0.7-0.3-0.7-0.7s0.3-0.7,0.7-0.7C47.9,62.9,48.2,63.2,48.2,63.6L48.2,63.6z M48.2,65.9   c0,0.4-0.3,0.7-0.7,0.7s-0.7-0.3-0.7-0.7s0.3-0.7,0.7-0.7S48.2,65.5,48.2,65.9L48.2,65.9z M47.4,68c0,0.4-0.3,0.7-0.7,0.7   S46,68.4,46,68c0-0.4,0.3-0.7,0.7-0.7C47.1,67.3,47.4,67.6,47.4,68L47.4,68z M41,78.4l0.6-0.3c1.4-0.6,1.9-1.4,1.9-2   c0-1.1-3.7-2.4-8.7-2.4s-8.7,1.3-8.7,2.4c0,0.6,0.5,1.4,1.9,2l0.6,0.3c0,0.1-0.5,0-0.7-0.1c-1.5-0.5-2.6-1.3-2.6-2.2   c0-2,4.9-3.1,9.5-3.1s9.5,1.1,9.5,3.1c0,0.9-1,1.7-2.5,2.2C41.6,78.3,40.9,78.5,41,78.4L41,78.4z M34.7,70.9   c-2.9,0-5.6,0.4-7.5,1.1c-0.9,0.3-1.4,0.7-1.9,0.9C25.2,73,25.1,73,25,73c-0.2-0.1-0.2-0.2-0.3-0.5c-0.1-0.4-0.3-1.6-1-2.9   c-0.1-0.1,0.1-0.3,0.2-0.1c0.4,0.5,1.3,2.1,1.4,2.6l0,0l0,0c0.4-0.2,0.9-0.5,1.5-0.7c2-0.7,4.8-1.2,7.8-1.2l0,0   c3,0,5.8,0.4,7.8,1.2c0.6,0.2,1.1,0.5,1.5,0.7l0,0l0,0c0.1-0.5,1-2,1.4-2.6c0.1-0.2,0.3,0,0.2,0.1c-0.7,1.4-0.9,2.5-1,2.9   c0,0.2-0.1,0.4-0.3,0.5c-0.1,0-0.2,0-0.3,0c-0.4-0.3-1-0.6-1.9-0.9C40.4,71.3,37.6,70.9,34.7,70.9L34.7,70.9L34.7,70.9z M36.1,58.7   c0,0.2-0.2,0.4-0.4,0.4H35v0.7c0,0.2-0.2,0.4-0.4,0.4s-0.4-0.2-0.4-0.4V59h-0.7c-0.2,0-0.4-0.2-0.4-0.4s0.2-0.4,0.4-0.4h0.7v-0.7   c0-0.2,0.2-0.4,0.4-0.4s0.4,0.2,0.4,0.4v0.7h0.7C36,58.3,36.1,58.5,36.1,58.7z M34.7,74.7c2.6,0,7.6,0.4,7.6,2s-5,2-7.6,2   s-7.6-0.4-7.6-2S32.1,74.7,34.7,74.7z M46.6,64.6c0,2-1.6,4.2-2.3,5.1l0,0l0,0l0,0c-0.3,0.6-1.1,1.2-2.2,0.8   c-0.5-0.2-1.1-0.3-1.4-0.9c-0.2-0.3-0.3-0.7,0.1-1.2c0.1-0.1,0.4-0.3,0.5-0.2c0.1,0,0.2,0.3,0,0.4c-0.2,0.2-0.1,0.5,0.2,0.7   c0.2,0.1,0.4,0,0.5-0.1c0,0-0.4-0.3,0-0.6c0.3-0.2,1-0.9,0-1.3c-0.7-0.3-1.3,0.7-1.4,0.8c-0.1,0.1-0.2,0.1-0.1-0.1   c0.1-0.7,0.8-0.9,0.9-1.7c0.1-0.6-0.3-1.1-0.5-1.3c-0.1-0.1-0.2-0.1-0.3,0c-0.3,0.1-0.8,0.4-0.9,1c-0.2,0.8,0.3,1.2,0.2,2   c0,0.1-0.1,0.2-0.1,0s-0.2-1.3-1-1.3c-1,0-0.7,0.9-0.5,1.2c0.2,0.4-0.2,0.5-0.2,0.5c0,0.1,0.1,0.3,0.4,0.3c0.3,0,0.5-0.3,0.5-0.6   c-0.1-0.2,0.1-0.3,0.2-0.3c0.1,0,0.3,0.2,0.4,0.4c0.1,0.6-0.1,0.9-0.4,1.1c-0.5,0.4-1.3,0.4-1.8,0.3c-1.5-0.2-1.6-1.1-1.6-1.1   c0.3,0.1,1,0.4,1,0.4s0,0,0.1,0s0.2-0.1,0.2-0.2v-1.4c0-0.1-0.1-0.2-0.2-0.2h-0.1l-1,0.4l0.3-0.8v-0.1c0-0.1-0.1-0.2-0.2-0.2h-0.8   h-0.8c-0.1,0-0.2,0.1-0.2,0.2v0.1l0.3,0.8l-1-0.4h-0.1c-0.1,0-0.2,0.1-0.2,0.2v1.4c0,0.1,0.1,0.2,0.2,0.2c0,0,0,0,0.1,0   c0,0,0.7-0.2,1-0.4c0,0-0.1,0.9-1.6,1.1c-0.4,0-1.2,0.1-1.8-0.3c-0.3-0.2-0.5-0.6-0.4-1.1c0-0.1,0.2-0.4,0.4-0.4   c0.1,0,0.3,0.2,0.2,0.3c-0.1,0.2,0.1,0.5,0.5,0.6c0.3,0,0.4-0.2,0.4-0.3c0,0-0.5-0.1-0.2-0.5c0.2-0.3,0.5-1.2-0.5-1.2   c-0.8,0-1,1.1-1,1.3c0,0.2-0.1,0.1-0.1,0c-0.1-0.7,0.3-1.2,0.2-2c-0.1-0.6-0.6-0.8-0.9-1c-0.1,0-0.3,0-0.3,0   c-0.2,0.2-0.6,0.7-0.5,1.3c0.2,0.8,0.8,1,0.9,1.7c0,0.1-0.1,0.2-0.1,0.1C29.5,68,29,67,28.2,67.3c-0.9,0.4-0.3,1.1,0,1.3   c0.4,0.3,0,0.5,0,0.6s0.2,0.2,0.5,0.1c0.3-0.2,0.4-0.5,0.2-0.7c-0.1-0.1,0-0.3,0-0.4c0.1-0.1,0.4,0.1,0.5,0.2   c0.3,0.5,0.2,0.9,0.1,1.2c-0.3,0.6-0.9,0.7-1.4,0.9c-1,0.3-1.9-0.2-2.2-0.8l0,0l0,0l0,0c-0.7-0.9-2.3-3.1-2.3-5.1s1.7-3.5,4-3.5   c1,0,2,0.3,2.9,0.7c1,0.4,2,0.7,2.9,0.6v-2c0-0.2,0.2-0.4,0.4-0.4s0.4,0.2,0.4,0.4v5.3H36v-5.3c0-0.2,0.2-0.4,0.4-0.4   s0.4,0.2,0.4,0.4v2c1,0.1,1.9-0.2,3-0.6c0.9-0.3,1.9-0.7,2.9-0.7C44.9,61.1,46.6,62.6,46.6,64.6z M34.7,78c4.5,0,6.8-0.9,6.8-1.3   s-2.3-1.3-6.8-1.3s-6.8,0.9-6.8,1.3C27.8,77.1,30.2,78,34.7,78z M32.7,63.2c-0.2,0-0.4,0-0.7,0c0.2,0.1,0.5,0.2,0.7,0.4V63.2z    M45.6,66.2c0.2-0.5,0.3-1.1,0.3-1.6c0-1.6-1.4-2.7-3.3-2.7c-0.9,0-1.7,0.3-2.6,0.6c-0.4,0.1-0.7,0.3-1.1,0.4c0.1,0,0.2,0,0.3,0   c1.2,0,2.4,0.5,3,1.1c1.3,0,2.3,0.4,2.9,1.2C45.3,65.5,45.5,65.8,45.6,66.2z M36.7,63.2v0.4c0.2-0.1,0.4-0.3,0.7-0.4   C37.2,63.2,37,63.2,36.7,63.2z M44.5,65.6C44,65,43.2,64.7,42,64.7c-0.1,0-0.2,0-0.3-0.1c-0.3-0.4-1.4-0.9-2.6-1   c-0.6,0-1.7,0.1-2.4,0.9l0,0v0.9c0.3-0.3,0.6-0.6,1.1-0.8c0.1-0.1,0.4-0.2,0.7-0.2c0.2,0,0.5,0.1,0.5,0.1c0,0.1-0.6,0.3-1.1,0.7   c-0.4,0.3-0.7,0.7-0.9,0.9c0.3-0.1,0.5,0.1,0.5,0.2c0.2-0.2,0.5-0.4,1-0.4c0.1,0,0.2,0,0.2,0c0-0.1,0-0.1,0-0.1   c0.2-1,1.2-1.5,1.7-1.6c0.3-0.1,0.6,0.1,0.6,0.1c0.4,0.3,1,0.9,1,1.8c0,0.1,0,0.2,0,0.3v0.1c0.1,0,0.2,0,0.2,0.1   c0.7,0.3,0.9,0.8,0.9,1.1v0.1c0,0.5-0.3,0.8-0.5,1.1l0,0c0,0.1,0,0.1,0,0.2c0,0.2-0.1,0.4-0.3,0.6h0.1c0.4-0.1,0.9-0.5,1.1-1.3   c0.4-1.5-1.3-2.7-1.1-3c0.1-0.1,0.3,0,0.3,0c0.9,0.4,1.7,1.3,1.6,2.6c0.1-0.2,0.2-0.4,0.3-0.6l0,0C45,67.2,45,66.2,44.5,65.6z    M30.6,62.9c-0.4-0.1-0.7-0.2-1.1-0.4c-0.9-0.3-1.8-0.6-2.6-0.6c-1.9,0-3.3,1.2-3.3,2.7c0,0.5,0.1,1.1,0.3,1.6   c0.1-0.4,0.2-0.7,0.5-1.1c0.6-0.8,1.6-1.2,2.9-1.2c0.6-0.6,1.8-1.1,3-1.1C30.4,62.9,30.5,62.9,30.6,62.9z M35.4,71.9   c0,0.4-0.3,0.6-0.6,0.6s-0.6-0.3-0.6-0.6s0.3-0.6,0.6-0.6S35.4,71.6,35.4,71.9z M32.7,64.5L32.7,64.5c-0.7-0.8-1.8-0.9-2.4-0.9   c-1.2,0-2.2,0.5-2.6,1c-0.1,0.1-0.2,0.1-0.3,0.1c-1.2,0-2,0.3-2.5,0.9c-0.5,0.7-0.5,1.6-0.4,2.1l0,0c0.1,0.2,0.2,0.4,0.3,0.6   c-0.1-1.3,0.7-2.2,1.6-2.6c0,0,0.3-0.1,0.3,0c0.2,0.3-1.6,1.5-1.1,3c0.3,0.9,0.8,1.3,1.2,1.4h0.1c-0.2-0.2-0.3-0.4-0.3-0.6   c0-0.1,0-0.1,0-0.2l0,0c-0.2-0.2-0.5-0.6-0.5-1.1v-0.1c0-0.3,0.2-0.8,0.9-1.1c0.1,0,0.2-0.1,0.2-0.1v-0.1c0-0.1,0-0.2,0-0.3   c0-0.8,0.6-1.5,1-1.8c0,0,0.3-0.2,0.6-0.1c0.5,0.1,1.5,0.6,1.7,1.6c0,0.1,0,0.1,0,0.1c0.1,0,0.2,0,0.3,0c0.5,0,0.8,0.2,1,0.4   c0-0.2,0.2-0.3,0.5-0.2c-0.2-0.3-0.5-0.6-0.9-0.9c-0.5-0.4-1.1-0.6-1.1-0.7s0.2-0.2,0.5-0.1c0.3,0,0.6,0.1,0.7,0.2   c0.4,0.2,0.8,0.5,1.1,0.8L32.7,64.5L32.7,64.5z"
   id="path343"
   style="fill:#002a5c;fill-opacity:1" />
	<g
   id="g347"
   style="fill:#002a5c;fill-opacity:1">
		<path
   class="st2"
   d="M67.6,54.5H2.2v33.1c0,9.7,2.7,18.1,6.5,25.2c-1,0.4-2,1.3-3,3.2l-1.2,2.6l-0.9,1.9c-0.4,0.7-0.8,1.9-0.8,3.5    c0,2.2,0.9,4.3,2.5,6.5c2.8,3.5,8.5,7.2,15.4,9.9c0,0,0.6,0.2,1,0.4c-0.5,0.4-1.2,1-1.2,1l-0.5,0.4l-0.4,0.4l-0.2,0.2    c-0.7,0.8-1.1,1.7-1.1,3v6c0,2.5,2.7,4,7.3,4h18.2c4.6,0,7.3-1.5,7.3-4v-6c0-1.3-0.3-2.2-1.1-3l-0.1-0.2c-0.2-0.2-0.4-0.3-0.5-0.4    l0,0c0,0-1.1-1-1.7-1.4c0.5-0.2,1-0.4,1-0.4c6.9-2.7,12.7-6.4,15.4-9.9c1.7-2.1,2.5-4.3,2.5-6.4c0-1.5-0.4-2.7-0.8-3.5l-0.9-1.9    l-1.2-2.6c-0.7-1.4-1.7-2.4-3-3c3.9-7.1,6.6-15.6,6.6-25.4L67.6,54.5L67.6,54.5z M63.2,116.3l1.2,2.6l0.9,1.9    c0.3,0.7,0.7,1.8,0.7,3.1c0,2-0.8,4-2.4,6c-2.7,3.4-8.3,7-15.1,9.7l-2.2,0.9l2.7,2.3l0.4,0.3l0.1,0.1c0.6,0.7,0.9,1.4,0.9,2.5v6    c0,2-2.4,3.2-6.5,3.2H25.7c-4.1,0-6.5-1.2-6.5-3.2v-6c0-1.1,0.3-1.8,0.9-2.5l0.1-0.1l0.4-0.4l0.5-0.4l2.1-1.8l-2.2-0.9    c-6.8-2.7-12.4-6.3-15.1-9.7c-1.6-2-2.4-4-2.4-6c0-1.4,0.4-2.5,0.7-3.1l0.9-1.9l1.2-2.6c0.9-1.8,1.8-2.5,2.7-2.8    c0.1,0.2,0.2,0.4,0.4,0.6c-0.5,0.3-1,0.7-1.4,1.3c-0.4,0.7-0.6,1.5-0.6,2.4c0,0.8,0.2,1.7,0.5,2.5l0.5,1.3c0,0,2.1-3,2.7-3.9    c0.1,0.2,0.1,0.5,0.1,0.5c0.2,0.6,0.7,1.1,1.4,1.4c0.1,0.1,0.2,0.1,0.4,0.1c0.5,0.7,1,1.3,1.5,1.9c-1,1.5-2.5,3.6-2.5,3.6l0.5,0.4    c2.1,1.7,4,2.8,4.5,3.1c1.5,0.9,3,1.5,4.4,2.2c1.3,0.6,2.7,1.2,3.8,1.9c0.9,0.7,1.7,1.4,2.5,2c0.8,1,1.3,2.1,1.3,3.6v4.3    c0,1.4-0.4,2.1-0.9,2.6l-1.1,1.2h15.2l-1.1-1.2c-0.5-0.5-0.9-1.2-0.9-2.6v-4.3c0-1.3,0.4-2.4,1-3.3c1-0.8,2.2-1.7,3.4-2.7    c1-0.6,2.1-1.1,3.3-1.6c1.4-0.7,2.9-1.3,4.4-2.2c1.4-0.8,3.1-1.9,4.5-3.1l0.5-0.4c0,0-1.4-2-2.4-3.5c0.5-0.7,1.1-1.4,1.6-2.1    c0.1,0,0.1,0,0.2,0c0.7-0.3,1.2-0.8,1.4-1.4c0,0,0.1-0.2,0.2-0.5c0.6,0.9,2.7,3.9,2.7,3.9l0.5-1.3c0.4-0.9,0.5-1.7,0.5-2.5    c0-0.9-0.2-1.7-0.6-2.4c-0.3-0.5-0.8-0.9-1.3-1.2c0.1-0.2,0.2-0.3,0.3-0.5C61.7,114.1,62.6,115,63.2,116.3z M15,122.2    c2.7,3.3,5.4,6.2,8,8.5c-0.4-0.2-0.8-0.4-1.2-0.5c-1.4-0.6-2.9-1.3-4.4-2.2c-0.5-0.3-2.4-1.4-4.4-3    C13.2,124.8,14.2,123.4,15,122.2z M40.7,145.9c-1.4,0-10.5,0-11.9,0c0.5-0.6,1.1-1.5,1.1-3.1v-4.3c0-0.9-0.2-1.7-0.4-2.4    c2.7,1.9,4.4,3,4.5,3l0.9,0.5l0.9-0.5c0.1,0,1.7-1,4.2-2.8c-0.2,0.7-0.4,1.4-0.4,2.2v4.3C39.6,144.4,40.2,145.3,40.7,145.9z     M46.9,130.6c2.5-2.3,5.2-5.1,7.8-8.3l1.9,2.7c-1.4,1.1-3,2.2-4.4,3s-2.9,1.5-4.3,2.1C47.5,130.4,47.2,130.5,46.9,130.6z     M54.2,121.7c-3.3,4.1-6.8,7.5-9.9,10.2l-3.6,2.9c-3.1,2.4-5.3,3.6-5.4,3.7c0,0-0.3,0.2-0.5,0.3c-0.2-0.1-0.5-0.3-0.5-0.3    c-0.1,0-2.5-1.4-5.9-4.1l-2.8-2.2c-3.2-2.7-6.8-6.2-10.3-10.6L15,121c-0.3-0.4-0.6-0.8-0.9-1.2l-0.5-0.7c-1-1.5-2-3-3-4.6    l-0.4-0.7c-0.1-0.2-0.2-0.4-0.3-0.6l-0.4-0.7C5.7,105.5,3,97.2,3,87.6c0,0,0-31.6,0-32.3c0.7,0,63.2,0,63.9,0c0,0.7,0,32.3,0,32.3    c0,9.7-2.7,18.1-6.6,25.1l-0.4,0.7c-0.1,0.2-0.2,0.3-0.3,0.5l-0.4,0.7c-0.3,0.5-0.6,1.1-1,1.6l-0.2,0.3c-0.6,0.9-1.2,1.8-1.8,2.6    l-0.6,0.8c-0.3,0.4-0.7,0.9-1,1.3L54.2,121.7z"
   id="path345"
   style="fill:#002a5c;fill-opacity:1" />
	</g>
	<path
   class="st2"
   d="M15.8,25.5c-0.2,0.2-0.4,0.4-0.5,0.4c-0.2,0-0.5-0.5-0.5-0.7s1.5-0.7,1.6-0.6s-0.1,0.6-0.1,0.6   S16,25.3,15.8,25.5z"
   id="path349"
   style="fill:#002a5c;fill-opacity:1" />
	<path
   class="st2"
   d="M21.9,15.3l0.2-0.2c0.2,0.4,0.8,1,0.8,1.2c0,0.1-0.1,0.6-0.2,0.8c-0.1,0.1-0.2,0-0.2,0s-0.2-1.2-0.1-0.9   C22.4,16.3,22.1,15.7,21.9,15.3z"
   id="path351"
   style="fill:#002a5c;fill-opacity:1" />
	<path
   class="st2"
   d="M33.5,9.1c0-0.3,0-0.9,0-0.9s0.7,1.2,0.7,1.4s-0.4,0.3-0.5,0.4c-0.1,0.1-0.3,0.5-0.3,0.5l-0.2-0.3   C33.2,10.3,33.4,9.4,33.5,9.1z"
   id="path353"
   style="fill:#002a5c;fill-opacity:1" />
	<path
   class="st2"
   d="M24.2,13c0.2,0.2,1.4,0.5,1.6,0.5c0,0.1,0.1,0.4-0.1,0.5c-0.3,0.2-0.5-0.3-0.9-0.6   C24.5,13.2,24.2,13.1,24.2,13c0,0.1-0.2,0.1-0.2,0"
   id="path355"
   style="fill:#002a5c;fill-opacity:1" />
	<path
   class="st2"
   d="M46.1,12.2c-0.2,0.2-0.7,0.9-0.7,1s0.3,0,0.3,0s0.9-0.8,1.1-0.9S46.1,12.2,46.1,12.2z"
   id="path357"
   style="fill:#002a5c;fill-opacity:1" />
</g>
<g
   id="g375">
	<path
   class="st2"
   d="M90.6,109v-0.8c2.4,0,2.9-0.2,2.9-2.6V93.7c0-2-0.2-2.6-2.9-2.6v-0.8h9.8v0.8c-3.2,0-3.6,0.1-3.6,2.4v12.7   c0,1.2,0.2,1.5,1.6,1.5h3.1c2.6,0,2.7-0.1,5-3.2h0.9l-2.3,4.5H90.6L90.6,109z"
   id="path361"
   style="fill:#002a5c;fill-opacity:1" />
	<path
   class="st2"
   d="M109.4,90.3h8.4v0.8c-2,0-2.6,0.4-2.6,2.6v11.7c0,2.2,0.4,2.8,2.6,2.8v0.8h-8.4v-0.8c2.4,0.1,2.5-0.9,2.5-2.6   V93.4c0-1.6-0.4-2.3-2.5-2.2V90.3z"
   id="path363"
   style="fill:#002a5c;fill-opacity:1" />
	<path
   class="st2"
   d="M214.7,90.3h8.4v0.8c-2,0-2.6,0.4-2.6,2.6v11.7c0,2.2,0.4,2.8,2.6,2.8v0.8h-8.4v-0.8c2.4,0.1,2.5-0.9,2.5-2.6   V93.4c0-1.6-0.4-2.3-2.5-2.2V90.3z"
   id="path365"
   style="fill:#002a5c;fill-opacity:1" />
	<path
   class="st2"
   d="M123.2,94.2c0-2,0-3-2.1-3h-1v-0.8c1,0,2.8-0.1,4.1-0.1c1.1-0.1,2.9-0.1,4-0.1c5.1,0,8.5,1,8.5,4.4   c0,1.9-1.4,3.4-3.6,3.8v0.1c3,0.8,4.6,2.6,4.6,5c0,3-2.4,5.6-7.6,5.6h-10.2v-0.8c2.6,0,3.3-0.4,3.3-2.1V94.2L123.2,94.2z    M126.7,98.1h2.2c2.9,0,4.3-1.1,4.3-3.3c0-2.2-1.3-3.9-4.7-3.9c-0.6,0-1.1,0-1.8,0.1V98.1z M126.8,104.6c0,2.3,0.5,3.3,3,3.3   c2.6,0,4.4-1.8,4.4-4.4c0-3-2-4.6-5.8-4.6h-1.6V104.6L126.8,104.6z"
   id="path367"
   style="fill:#002a5c;fill-opacity:1" />
	<path
   class="st2"
   d="M147.3,105.2c0,2.6,0.3,3.1,3.1,3v0.8h-9.2v-0.8c2.5,0.1,2.8-0.6,2.8-2.6v-12c0-1.9-0.3-2.4-2.8-2.4v-0.8   c0.7,0,2.2-0.1,4.3-0.2c1.6-0.1,3.1-0.1,3.7-0.1c6.1,0,8.1,2.6,8.1,5.4c0,2.2-1.3,3.8-3.8,4.9c0.5,0.3,1.8,1.6,2.2,2.1l1.9,1.9   c2.7,2.7,4.7,3.9,7.2,4.1v0.8c-5.9,0.2-7.4-0.9-10.1-3.6l-1.6-1.6c-1.5-1.5-2-1.9-3.2-2.9c-0.9,0.1-1.9,0.1-2.7,0L147.3,105.2   L147.3,105.2z M147.3,100.4c0.2,0,0.8,0.1,1,0.1c4-0.2,5.4-1.7,5.4-4.8c0-3-1.6-4.8-4.9-4.8c-0.4,0-1.2,0.1-1.4,0.1v9.4H147.3z"
   id="path369"
   style="fill:#002a5c;fill-opacity:1" />
	<path
   class="st2"
   d="M165.8,108.2c2,0,2.4-0.4,3.2-2.7l5.4-14.9l-0.2-0.8h3.4l5.9,15.6c0.9,2.3,1.2,2.7,3.1,2.7v0.8h-8.9v-0.8   c2.4,0,3-0.2,3-1.1c0-0.3-0.1-0.8-0.4-1.6l-1.4-3.7H172l-1.5,4c-0.2,0.6-0.3,1-0.3,1.3c0,0.9,0.6,1.3,3,1.2v0.8h-7.3L165.8,108.2   L165.8,108.2z M178.2,100.3l-2.9-7.6l-2.9,7.6C172.5,100.3,178.2,100.3,178.2,100.3z"
   id="path371"
   style="fill:#002a5c;fill-opacity:1" />
	<path
   class="st2"
   d="M194.7,105.2c0,2.6,0.3,3.1,3.1,3v0.8h-9.2v-0.8c2.5,0.1,2.8-0.6,2.8-2.6v-12c0-1.9-0.3-2.4-2.8-2.4v-0.8   c0.7,0,2.2-0.1,4.3-0.2c1.6-0.1,3.1-0.1,3.7-0.1c6.1,0,8.1,2.6,8.1,5.4c0,2.2-1.3,3.8-3.8,4.9c0.5,0.3,1.8,1.6,2.2,2.1l1.9,1.9   c2.7,2.7,4.7,3.9,7.2,4.1v0.8c-5.9,0.2-7.4-0.9-10.1-3.6l-1.6-1.6c-1.5-1.5-2-1.9-3.2-2.9c-0.9,0.1-1.9,0.1-2.7,0L194.7,105.2   L194.7,105.2z M194.7,100.4c0.2,0,0.8,0.1,1,0.1c4-0.2,5.4-1.7,5.4-4.8c0-3-1.6-4.8-4.9-4.8c-0.4,0-1.2,0.1-1.4,0.1v9.4H194.7z"
   id="path373"
   style="fill:#002a5c;fill-opacity:1" />
</g>
</svg>
